<?xml version="1.0" encoding="UTF-8"?>
<svg version="1.1" xmlns="http://www.w3.org/2000/svg" width="594" height="638">
<path d="M0 0 C4.47783047 -0.04575737 8.9555999 -0.07327162 13.43359375 -0.09765625 C14.69312866 -0.11074829 15.95266357 -0.12384033 17.25036621 -0.1373291 C27.05790946 -0.17734682 35.69860208 0.89582001 45 4 C45.74475586 4.23605957 46.48951172 4.47211914 47.25683594 4.71533203 C64.22254371 10.15881833 79.72035743 17.99929572 93 30 C94.22009766 31.04220703 94.22009766 31.04220703 95.46484375 32.10546875 C113.80517279 48.01201005 126.56416163 67.36243014 139 88 C139.54398438 88.90105469 140.08796875 89.80210938 140.6484375 90.73046875 C143.18988725 94.94392492 145.72354061 99.16192228 148.24609375 103.38671875 C148.91753418 104.51062012 148.91753418 104.51062012 149.60253906 105.65722656 C150.590924 107.31420453 151.57703006 108.97254285 152.56152344 110.63183594 C155.04759146 114.80713554 157.52926321 118.93141551 160.375 122.875 C163.01310789 126.5788336 165.55879591 130.32890771 168.0625 134.125 C174.88855489 144.3903364 182.44117225 153.51045566 191.125 162.25 C191.87934326 163.01135254 191.87934326 163.01135254 192.64892578 163.78808594 C196.82034403 167.94166001 200.97128537 171.61520164 206.1875 174.375 C209.44718491 176.13104113 212.60721834 177.980288 215.75 179.9375 C221.62516556 183.46441266 227.66551664 186.38995825 234 189 C235.010625 189.41765625 236.02125 189.8353125 237.0625 190.265625 C251.31148348 195.22483003 267.51966338 193.6334899 282.3125 192.2265625 C294.57858319 191.47292603 307.12403797 191.48030043 319.375 192.5 C350.39702694 195.07555862 374.16446984 186.3113158 398.38671875 167.15625 C400 166 400 166 402.08203125 165.09375 C404.5070641 163.71083921 404.80309815 162.49538578 406 160 C407.60737375 158.19418504 409.25960526 156.42798479 410.9375 154.6875 C426.6030017 137.9734995 438.30146149 117.65262866 450.06762695 98.12890625 C453.45883495 92.50225182 456.93028894 86.93982372 460.50024414 81.42456055 C461.82555825 79.28200896 462.98082103 77.14765755 464.0625 74.875 C466.23967508 70.33214982 468.82441295 65.91958173 472 62 C472.66 62 473.32 62 474 62 C474 61.01 474 60.02 474 59 C475.08051303 57.84977646 476.17644274 56.71201882 477.32421875 55.62890625 C482.77372149 50.33183716 487.64293099 44.48315012 492.3125 38.5 C509.55061137 17.39817401 540.32218975 3.7704256 567 0 C569.16291168 -0.0777124 571.32790473 -0.10796236 573.4921875 -0.09765625 C574.69101562 -0.09443359 575.88984375 -0.09121094 577.125 -0.08789062 C578.98125 -0.07532227 578.98125 -0.07532227 580.875 -0.0625 C582.13570312 -0.05798828 583.39640625 -0.05347656 584.6953125 -0.04882812 C587.79692386 -0.0370796 590.89843725 -0.02065167 594 0 C594.02312792 7.80575195 594.04091738 15.61149595 594.05181217 23.41727352 C594.05704002 27.0414596 594.06413587 30.6656223 594.07543945 34.28979492 C594.08627184 37.78459975 594.09227758 41.27938204 594.09487724 44.77420235 C594.09763551 46.76239389 594.10544688 48.75057631 594.11329651 50.73875427 C594.11337204 51.93992386 594.11344757 53.14109344 594.11352539 54.37866211 C594.115746 55.44233505 594.11796661 56.506008 594.12025452 57.60191345 C594 60 594 60 593 61 C591.34728699 61.19568803 589.69360844 61.38523801 588.03686523 61.54321289 C566.43929619 63.67056967 547.43165662 72.48969014 533 89 C528.0482239 95.29505913 524.00409065 102.10508505 520.20703125 109.140625 C516.70756763 115.60785509 512.94426449 121.90530053 509.125 128.1875 C508.76127289 128.78695435 508.39754578 129.38640869 508.02279663 130.00402832 C498.65863574 145.40927978 488.95219452 160.66783601 478 175 C477.21238281 176.05703125 476.42476563 177.1140625 475.61328125 178.203125 C471.28188554 183.93909894 466.83116926 189.48740672 462 194.8125 C461.53118408 195.33424805 461.06236816 195.85599609 460.5793457 196.39355469 C459.4298196 197.6374496 458.21966748 198.82479956 457 200 C456.34 200 455.68 200 455 200 C454.67 200.99 454.34 201.98 454 203 C452.35065263 204.02831465 450.68051546 205.02345223 449 206 C447.19451507 207.54370311 445.42526058 209.13043731 443.6875 210.75 C442.72714844 211.63558594 441.76679688 212.52117187 440.77734375 213.43359375 C439.86082031 214.28050781 438.94429688 215.12742188 438 216 C433.19877435 220.35032794 428.34128214 224.32786853 423 228 C428.03634471 232.62120133 433.11708573 237.14437033 438.4375 241.4375 C443.2674214 245.34646181 447.87294758 249.44963199 452.4375 253.6640625 C454.64297451 255.67454079 456.8942296 257.59192737 459.1875 259.5 C463.77242176 263.51180654 467.31056001 268.17438729 471 273 C471.96568655 274.20583977 472.93326402 275.41016673 473.90234375 276.61328125 C491.42188557 298.60664527 504.59068816 322.91803765 513.234375 349.64355469 C513.9466238 351.8357184 514.68964551 354.01510892 515.4375 356.1953125 C521.76780453 375.26210696 522.28304678 394.84737877 522.375 414.75 C522.38294586 415.65208191 522.39089172 416.55416382 522.39907837 417.48358154 C522.52007481 435.38088635 520.36152168 452.45032335 515.6875 469.75 C515.22585449 471.48008301 515.22585449 471.48008301 514.75488281 473.24511719 C511.15947452 486.44312266 506.32303504 498.56697702 500.5 510.9375 C500.04915039 511.8975293 499.59830078 512.85755859 499.13378906 513.84667969 C496.20043083 519.93154482 492.84069507 525.45299198 489 531 C488.23532145 532.18047644 487.47696578 533.36508554 486.7265625 534.5546875 C479.77454012 545.53836598 472.26535404 555.95751102 464 566 C463.43667969 566.69996094 462.87335938 567.39992188 462.29296875 568.12109375 C458.50557956 572.67128263 454.35495853 576.24916709 449.67578125 579.86328125 C446.81109927 582.15084482 444.12911859 584.57416449 441.4375 587.0625 C428.44831917 599 428.44831917 599 425 599 C425 599.66 425 600.32 425 601 C421.70487284 602.88954948 418.40734275 604.77460849 415.10546875 606.65234375 C412.4491587 608.16492097 409.80762089 609.69919017 407.17578125 611.25390625 C379.95477469 627.1851104 347.40368517 638.00833033 315.72265625 638.23828125 C314.63907333 638.246353 313.55549042 638.25442474 312.43907166 638.26274109 C310.14372325 638.27653126 307.84835478 638.28727591 305.55297852 638.29516602 C303.25636579 638.30657117 300.95977708 638.32683548 298.66333008 638.35668945 C239.28347935 639.12618147 183.70398224 617.30385167 141 576 C140.47599609 575.50177734 139.95199219 575.00355469 139.41210938 574.49023438 C118.36677248 554.44348998 103.49545775 530.07076987 91 504 C90.47535156 502.92878906 89.95070313 501.85757812 89.41015625 500.75390625 C82.20309349 485.13541746 78.39791179 467.99875238 75.125 451.1875 C74.82033813 449.62467285 74.82033813 449.62467285 74.50952148 448.03027344 C63.80394607 390.16179742 82.16423871 332.40260092 114.25 284.5625 C123.00876632 272.07370733 133.33609858 260.09628522 145.296875 250.58203125 C147.18831545 248.9073392 147.18831545 248.9073392 149.1640625 246.24609375 C152.44394194 242.23700918 156.48690547 239.32179372 160.625 236.25 C161.388125 235.67378906 162.15125 235.09757813 162.9375 234.50390625 C165.91859328 232.26024131 168.89465569 230.07022954 172 228 C170.98421875 227.18917969 169.9684375 226.37835938 168.921875 225.54296875 C161.25606761 219.38975604 153.7852563 213.13266885 146.60546875 206.41796875 C144.38638829 204.35858224 142.12657132 202.3878666 139.8125 200.4375 C114.86625744 178.60953776 97.44701393 146.47131952 80.5625 118.375 C80.17350525 117.72802155 79.7845105 117.08104309 79.38372803 116.41445923 C78.25513797 114.53529678 77.12870295 112.65487277 76.00390625 110.7734375 C75.64752579 110.17739212 75.29114532 109.58134674 74.92396545 108.96723938 C72.97236655 105.6864648 71.09778041 102.37694665 69.2890625 99.015625 C67.15384389 95.12971668 64.69830467 91.73522655 61.8125 88.375 C61.3369165 87.81868896 60.86133301 87.26237793 60.37133789 86.68920898 C56.12359963 81.87397909 51.48924624 78.3305539 46 75 C45.26910156 74.49210937 44.53820313 73.98421875 43.78515625 73.4609375 C32.28089278 65.79142852 18.66815726 62.55567977 5.0625 61.421875 C2 61 2 61 0 59 C-0.24050903 56.5196228 -0.24050903 56.5196228 -0.22705078 53.35693359 C-0.22689972 52.17586029 -0.22674866 50.99478699 -0.22659302 49.77792358 C-0.21627045 48.49769318 -0.20594788 47.21746277 -0.1953125 45.8984375 C-0.1924826 44.59170074 -0.18965271 43.28496399 -0.18673706 41.93862915 C-0.17909776 38.46317919 -0.1594469 34.98789617 -0.1373291 31.51251221 C-0.11687696 27.96669778 -0.10773671 24.4208564 -0.09765625 20.875 C-0.07620116 13.91659805 -0.04206173 6.95830704 0 0 Z M262 260 C261.12375977 260.23638184 260.24751953 260.47276367 259.34472656 260.71630859 C228.38577328 269.20942663 198.90814633 283.93646894 178 309 C177.23945313 309.87269531 176.47890625 310.74539063 175.6953125 311.64453125 C169.51501557 318.8356244 164.19195805 326.35721694 159.0871582 334.33544922 C158.10729355 335.83572257 157.06671815 337.295918 156.01953125 338.75 C135.73877421 371.38750455 132.42012406 414.91207457 140.60205078 451.70751953 C144.53968937 468.03323459 150.61760501 483.99439588 160 498 C160.67804688 499.02351562 161.35609375 500.04703125 162.0546875 501.1015625 C168.36569625 510.49117969 175.15450595 519.48231094 183.33984375 527.33203125 C185.09020169 529.09062617 186.62006984 530.95253747 188.1875 532.875 C192.31229693 537.63086342 197.17341666 541.20467332 202.30810547 544.81152344 C203.44479606 545.60999527 204.57659809 546.41546793 205.70361328 547.22753906 C239.76420155 571.70828781 282.28031363 579.83212841 323.50561523 573.41259766 C364.86052986 566.28395394 402.25225387 543.34233103 426.67871094 508.89892578 C439.51408413 490.4522272 448.20101396 471.99070252 453 450 C453.24556641 448.94401611 453.24556641 448.94401611 453.49609375 447.86669922 C460.28116383 417.87360534 456.74664753 385.50988156 446 357 C445.61070312 355.92621094 445.22140625 354.85242188 444.8203125 353.74609375 C441.54028247 345.25194701 436.85201443 337.66525608 432 330 C431.40316406 329.04867187 430.80632812 328.09734375 430.19140625 327.1171875 C427.22281247 322.47873916 427.22281247 322.47873916 423 319 C422.55785156 318.26265625 422.11570312 317.5253125 421.66015625 316.765625 C419.63079615 313.38494982 417.11899122 310.61334485 414.4375 307.75 C413.63904663 306.89402222 413.63904663 306.89402222 412.82446289 306.02075195 C386.71074403 278.33358903 347.8742093 258.18584547 309.38134766 256.87695312 C285.46289181 256.12455111 285.46289181 256.12455111 262 260 Z " fill="#9335E9" transform="translate(0,0)"/>
<path d="M0 0 C3.66349719 1.33632904 6.65671685 2.99686178 9.875 5.1875 C16.61875527 9.53246984 23.59826221 12.94152763 31 16 C32.05316406 16.43828125 33.10632813 16.8765625 34.19140625 17.328125 C48.36059573 22.26560943 64.60562969 20.62531375 79.3125 19.2265625 C91.57858319 18.47292603 104.12403797 18.48030043 116.375 19.5 C136.4164257 21.16391019 152.16152328 19.05101489 170.5390625 10.5859375 C173.33606613 9.30424058 176.13186221 8.1098924 179 7 C179 7.66 179 8.32 179 9 C164.03521092 16.92484888 149.87563004 23.10766762 132.66845703 23.19287109 C131.2865493 23.20513733 131.2865493 23.20513733 129.87672424 23.21765137 C126.83709337 23.24239606 123.79750908 23.25899883 120.7578125 23.2734375 C119.71312679 23.27876118 118.66844109 23.28408485 117.59209824 23.28956985 C112.05587245 23.31626183 106.51966885 23.33564411 100.98339844 23.35009766 C96.42883032 23.3633959 91.87471456 23.39117868 87.3203125 23.43212891 C81.79549675 23.48178946 76.27108876 23.50625984 70.74605942 23.51332474 C68.65475889 23.51998422 66.56346554 23.53506526 64.47229385 23.55921555 C51.64046108 23.69888111 41.00572739 22.74222301 29 18 C27.73686011 17.51750135 26.47352465 17.03551437 25.20999146 16.55404663 C18.82161601 14.05606737 12.97064092 10.96828711 7.1875 7.3125 C6.58212402 6.9319043 5.97674805 6.55130859 5.35302734 6.15917969 C1.12630917 3.37892751 1.12630917 3.37892751 0 0 Z " fill="#B7A7C6" transform="translate(203,173)"/>
<path d="M0 0 C5.62644366 1.62541706 5.62644366 1.62541706 7.42138672 3.42529297 C32.61807892 28.55963641 89.97094919 34.16219024 123.4375 34.375 C144.77751118 34.2392295 164.95397669 31.33960776 185.50878906 25.67919922 C188.99251135 24.72940351 192.49366511 23.86214587 196 23 C195.67 23.99 195.34 24.98 195 26 C192.78540039 26.93554688 192.78540039 26.93554688 189.84765625 27.71875 C188.75904297 28.01136719 187.67042969 28.30398438 186.54882812 28.60546875 C185.39833984 28.90066406 184.24785156 29.19585938 183.0625 29.5 C181.97775391 29.79519531 180.89300781 30.09039063 179.77539062 30.39453125 C162.69183161 34.89594494 146.45528345 36.51412823 128.79858398 36.44604492 C125.46599655 36.43757245 122.1351524 36.46635168 118.80273438 36.49804688 C79.18387268 36.6263164 32.28021167 26.43474279 0 2 C0 1.34 0 0.68 0 0 Z " fill="#CCADE8" transform="translate(176,602)"/>
<path d="M0 0 C0.66 0 1.32 0 2 0 C14.12530191 27.71497579 18.2152905 54.71654768 18.375 84.75 C18.38312714 85.65271637 18.39125427 86.55543274 18.39962769 87.48550415 C18.51380024 104.42905725 16.75874155 120.86204021 12.3125 137.25 C11.97508789 138.54550781 11.97508789 138.54550781 11.63085938 139.8671875 C11.0964442 141.9138839 10.54977043 143.95737468 10 146 C9.34 145.67 8.68 145.34 8 145 C8.92645266 139.68508736 9.91502453 134.38488977 10.98828125 129.09765625 C11.16456055 128.22850586 11.34083984 127.35935547 11.52246094 126.46386719 C11.87596558 124.72830643 12.23198793 122.99325613 12.59082031 121.25878906 C12.8417041 120.02660645 12.8417041 120.02660645 13.09765625 118.76953125 C13.24726807 118.04354736 13.39687988 117.31756348 13.55102539 116.56958008 C14.73684394 109.78288064 15.16895682 103.20829568 15.203125 96.33203125 C15.20882507 95.41653 15.21452515 94.50102875 15.22039795 93.55778503 C15.22980385 91.62227515 15.23636428 89.68674957 15.24023438 87.7512207 C15.24982307 84.86574145 15.28083952 81.98101216 15.3125 79.09570312 C15.41499641 61.4646211 13.474624 44.49059345 8.625 27.5 C8.32263428 26.40558594 8.02026855 25.31117188 7.70874023 24.18359375 C5.77823375 17.33317897 3.61975216 10.68532987 0.84765625 4.125 C0 2 0 2 0 0 Z " fill="#CEB9E2" transform="translate(504,330)"/>
<path d="M0 0 C0.66 0 1.32 0 2 0 C1.9278125 0.8765625 1.855625 1.753125 1.78125 2.65625 C-0.45268278 33.18666466 1.23980081 62.44702937 13.23266602 90.95996094 C14 93 14 93 14 95 C13.34 95 12.68 95 12 95 C-1.44356315 65.25254111 -5.29365227 32.14003165 0 0 Z " fill="#CAB0DF" transform="translate(137,387)"/>
<path d="M0 0 C0.66 0 1.32 0 2 0 C1.67 1.65 1.34 3.3 1 5 C0.34 5 -0.32 5 -1 5 C-1.25910156 5.7115625 -1.51820313 6.423125 -1.78515625 7.15625 C-7.61083423 20.79320682 -19.27677772 32.41558072 -29.5625 42.8125 C-30.1704541 43.4297998 -30.7784082 44.04709961 -31.40478516 44.68310547 C-35.7537023 49 -35.7537023 49 -38 49 C-38.33 49.99 -38.66 50.98 -39 52 C-42.5625 53.6875 -42.5625 53.6875 -46 55 C-44.44898123 50.84789385 -41.41454924 48.62125942 -38.0625 45.9375 C-23.79823057 34.14992745 -12.62499817 20.91755138 -3.22241211 5.02856445 C-2.1982654 3.32137339 -1.10529096 1.65581089 0 0 Z " fill="#C5B2D6" transform="translate(437,491)"/>
<path d="M0 0 C-0.33 0.99 -0.66 1.98 -1 3 C-3.21459961 3.93554688 -3.21459961 3.93554688 -6.15234375 4.71875 C-7.24095703 5.01136719 -8.32957031 5.30398438 -9.45117188 5.60546875 C-10.60166016 5.90066406 -11.75214844 6.19585938 -12.9375 6.5 C-14.02224609 6.79519531 -15.10699219 7.09039063 -16.22460938 7.39453125 C-33.34712917 11.90621087 -49.4545292 13.43050336 -67.125 13.1875 C-69.06639568 13.17240134 -71.00780293 13.15872225 -72.94921875 13.14648438 C-77.63310688 13.11394568 -82.31641929 13.06246056 -87 13 C-87 12.67 -87 12.34 -87 12 C-86.25766113 11.98541748 -85.51532227 11.97083496 -84.75048828 11.95581055 C-57.3858266 11.36129195 -30.61594665 9.54695136 -4.453125 0.81640625 C-2 0 -2 0 0 0 Z " fill="#BE8FE9" transform="translate(372,625)"/>
<path d="M0 0 C0.66 0 1.32 0 2 0 C0.43652796 4.71737255 -2.1753475 8.26210883 -5.125 12.1875 C-5.61709961 12.84951416 -6.10919922 13.51152832 -6.61621094 14.19360352 C-10.62478487 19.56031985 -14.72852693 24.83940056 -19 30 C-19.55945313 30.69480469 -20.11890625 31.38960937 -20.6953125 32.10546875 C-24.47719875 36.65252733 -28.61642858 40.2322809 -33.296875 43.8359375 C-37.30984099 47.04862993 -41.01191246 50.56805379 -44.75 54.09375 C-47 56 -47 56 -49 56 C-47.57752904 52.57427767 -45.964416 50.97029314 -42.96875 48.82421875 C-37.7218482 44.88169674 -33.11976569 40.46409064 -28.5 35.8125 C-27.66412354 34.97243408 -26.82824707 34.13236816 -25.96704102 33.2668457 C-20.00019079 27.19020123 -14.78962727 21.05296094 -10 14 C-8.65050708 12.05838264 -7.29362122 10.1223479 -5.92993164 8.19067383 C-5.03560593 6.92143707 -4.1490185 5.64670321 -3.27124023 4.3659668 C-2.23008111 2.87501006 -1.12070319 1.43212732 0 0 Z " fill="#D1BFE1" transform="translate(483,536)"/>
<path d="M0 0 C0.495 1.98 0.495 1.98 1 4 C0.01 4.33 -0.98 4.66 -2 5 C-2 6.32 -2 7.64 -2 9 C-2.66 9 -3.32 9 -4 9 C-4.268125 9.886875 -4.53625 10.77375 -4.8125 11.6875 C-5.9250635 14.7909666 -7.10195778 17.31110685 -9 20 C-9.66 20 -10.32 20 -11 20 C-11.35964844 21.03833984 -11.35964844 21.03833984 -11.7265625 22.09765625 C-13.22727956 25.51800218 -15.19637259 28.42744244 -17.375 31.4375 C-18.02178711 32.33915894 -18.02178711 32.33915894 -18.68164062 33.2590332 C-22.98526072 39.15661501 -27.7124962 44.65809234 -32.53125 50.13671875 C-35.04288606 52.93083697 -35.04288606 52.93083697 -37 56 C-38.32 55.67 -39.64 55.34 -41 55 C-40.18917969 54.16339844 -39.37835938 53.32679688 -38.54296875 52.46484375 C-25.55945321 38.8929633 -15.47904104 23.91317284 -5.37158203 8.12841797 C-3.6118342 5.39764517 -1.81308143 2.69559335 0 0 Z " fill="#B89CD4" transform="translate(445,107)"/>
<path d="M0 0 C0.33 0 0.66 0 1 0 C1.042721 1.66611905 1.04063832 3.33382885 1 5 C-0.65274227 6.65274227 -2.74031761 6.33126135 -4.96313477 6.54321289 C-27.58170521 8.77113813 -44.05202303 18.10581047 -60 34 C-60.495 32.515 -60.495 32.515 -61 31 C-46.08347843 13.9389306 -23.98652451 4.69639322 -1.625 3.078125 C-1.08875 3.05234375 -0.5525 3.0265625 0 3 C0 2.01 0 1.02 0 0 Z " fill="#BEA7D0" transform="translate(593,55)"/>
<path d="M0 0 C0.66 0 1.32 0 2 0 C12.9867249 25.11251405 20.4086877 52.44301872 17 80 C16.67 80 16.34 80 16 80 C15.96036133 79.28682617 15.92072266 78.57365234 15.87988281 77.83886719 C14.40403242 52.43956342 10.72902561 27.64281679 0.76953125 4.03564453 C0 2 0 2 0 0 Z " fill="#C4ABDA" transform="translate(504,330)"/>
<path d="M0 0 C0 3 0 3 -1.50390625 4.54296875 C-2.18324219 5.08566406 -2.86257812 5.62835938 -3.5625 6.1875 C-7.86096137 9.80330869 -11.38438373 13.71635558 -15 18 C-15.96327503 19.10293455 -16.92826045 20.20437657 -17.89453125 21.3046875 C-23.3978954 27.59815978 -28.66653048 33.81882195 -33 41 C-33.7734375 42.2684375 -33.7734375 42.2684375 -34.5625 43.5625 C-35.44960167 45.06671588 -36.33531398 46.57175333 -37.21875 48.078125 C-37.6621875 48.81546875 -38.105625 49.5528125 -38.5625 50.3125 C-38.97628906 51.00988281 -39.39007813 51.70726562 -39.81640625 52.42578125 C-40.40228516 53.20501953 -40.40228516 53.20501953 -41 54 C-41.66 54 -42.32 54 -43 54 C-38.37866071 41.35716505 -29.86178082 30.89879772 -21 21 C-19.74919858 19.54235398 -18.49907719 18.08412381 -17.25 16.625 C-11.91612689 10.57994381 -6.17954168 5.17063692 0 0 Z " fill="#D0B5E9" transform="translate(147,249)"/>
<path d="M0 0 C-15.61521216 10.41014144 -46.26947065 7.69907811 -64 5 C-63.67 4.34 -63.34 3.68 -63 3 C-62.08001221 3.01571045 -61.16002441 3.0314209 -60.2121582 3.04760742 C-41.61211054 3.32275949 -23.39548659 3.55928486 -5.14453125 -0.66015625 C-3 -1 -3 -1 0 0 Z " fill="#CFC2D9" transform="translate(339,571)"/>
<path d="M0 0 C3.66349719 1.33632904 6.65671685 2.99686178 9.875 5.1875 C28.52283545 17.17895569 46.99386343 21.76337488 69 22 C69 22.33 69 22.66 69 23 C54.68065201 23.58288929 42.33367609 23.4784017 29 18 C27.8140625 17.55398437 26.628125 17.10796875 25.40625 16.6484375 C18.95876121 14.09511782 13.03557902 11.00933744 7.1875 7.3125 C6.58212402 6.9319043 5.97674805 6.55130859 5.35302734 6.15917969 C1.12630917 3.37892751 1.12630917 3.37892751 0 0 Z " fill="#C8B8D6" transform="translate(203,173)"/>
<path d="M0 0 C20.14470682 -1.04196759 39.88388022 7.70961566 54.6875 20.9375 C56.13252042 22.28363877 57.57293215 23.63484398 59 25 C58.67 25.66 58.34 26.32 58 27 C57.4121875 26.41605469 57.4121875 26.41605469 56.8125 25.8203125 C40.76406407 10.80949097 21.64834856 3.71063245 0 2 C0 1.34 0 0.68 0 0 Z " fill="#BFB2CB" transform="translate(2,59)"/>
<path d="M0 0 C0.33 1.32 0.66 2.64 1 4 C0.01 4.33 -0.98 4.66 -2 5 C-2.80212628 6.87387216 -2.80212628 6.87387216 -3.1875 9.0625 C-3.42533203 10.16271484 -3.42533203 10.16271484 -3.66796875 11.28515625 C-3.83232422 12.13400391 -3.83232422 12.13400391 -4 13 C-4.66 13 -5.32 13 -6 13 C-6.391875 14.258125 -6.78375 15.51625 -7.1875 16.8125 C-8.75522355 21.5759677 -10.8101397 26.01895814 -13.01171875 30.51953125 C-14.24675277 33.17430382 -14.24675277 33.17430382 -14 37 C-14.66 37 -15.32 37 -16 37 C-16.17015625 37.69222656 -16.3403125 38.38445312 -16.515625 39.09765625 C-18.57844801 47.42575552 -20.77040558 55.71541566 -23 64 C-23.66 63.67 -24.32 63.34 -25 63 C-22.65480937 42.56333882 -12.92674628 16.19192183 0 0 Z " fill="#BCA7D0" transform="translate(103,303)"/>
<path d="M0 0 C3.93449176 1.47740955 7.66373001 3.27641498 11.43310547 5.12255859 C26.85795721 12.63912802 42.81011699 18.31471735 60 20 C60 20.66 60 21.32 60 22 C54.24231637 22.2543555 49.25581159 21.3655928 43.6875 19.9375 C42.81520752 19.71489502 41.94291504 19.49229004 41.04418945 19.26293945 C26.43633538 15.38943471 13.11246907 9.44587108 0 2 C0 1.34 0 0.68 0 0 Z " fill="#C4B4D0" transform="translate(214,553)"/>
<path d="M0 0 C0.66 0.33 1.32 0.66 2 1 C1.33355469 1.70382812 0.66710937 2.40765625 -0.01953125 3.1328125 C-10.50167547 14.3158145 -19.69078787 26.11979589 -28 39 C-29.32730309 41.00409336 -30.66323243 43.00219352 -32 45 C-33.125 41.25 -33.125 41.25 -32 39 C-31.34 39 -30.68 39 -30 39 C-29.76796875 38.32710938 -29.5359375 37.65421875 -29.296875 36.9609375 C-27.65711687 33.21715237 -25.55355074 29.99144444 -23.25 26.625 C-22.77626953 25.93253174 -22.30253906 25.24006348 -21.81445312 24.52661133 C-15.47529993 15.52268862 -7.77406991 7.75818678 0 0 Z " fill="#CDAAE0" transform="translate(187,297)"/>
<path d="M0 0 C0.66 0 1.32 0 2 0 C2.32871094 1.20011719 2.65742187 2.40023438 2.99609375 3.63671875 C5.65715756 13.06462418 8.68864264 22.18311406 12.5625 31.1875 C12.92593506 32.03465576 13.28937012 32.88181152 13.66381836 33.75463867 C15.8598323 38.74227079 18.31464478 43.43305269 21.15991211 48.08325195 C22 50 22 50 21 53 C16.71154287 46.20140657 13.11052709 39.31984998 9.9375 31.9375 C9.50775879 30.94395508 9.07801758 29.95041016 8.63525391 28.92675781 C0 8.53878253 0 8.53878253 0 0 Z " fill="#CBB9D9" transform="translate(80,470)"/>
<path d="M0 0 C5.18577842 2.77455661 9.52679298 5.87317858 13.9375 9.75 C14.54940186 10.28294678 15.16130371 10.81589355 15.79174805 11.36499023 C24.05978039 18.61993918 31.20031533 26.34272862 38 35 C38.41523926 35.52770996 38.83047852 36.05541992 39.25830078 36.59912109 C40.51506607 38.20480095 41.7597366 39.81904976 43 41.4375 C43.7425 42.40558594 44.485 43.37367187 45.25 44.37109375 C46.80817305 46.7118314 47.58505172 48.25745118 48 51 C44.98262005 48.13649974 42.57417821 45.15259622 40.1875 41.75 C34.62574186 33.2924948 34.62574186 33.2924948 27 27 C26.59910156 26.28585938 26.19820312 25.57171875 25.78515625 24.8359375 C23.47594482 21.1674747 20.62401047 18.53340417 17.4375 15.625 C16.8192334 15.05354248 16.2009668 14.48208496 15.56396484 13.89331055 C11.20084784 9.92453267 6.6820586 6.43635554 1.6953125 3.26953125 C1.13585937 2.85058594 0.57640625 2.43164062 0 2 C0 1.34 0 0.68 0 0 Z " fill="#D3C4E0" transform="translate(79,20)"/>
<path d="M0 0 C3.65531073 1.21843691 3.99418151 2.16357075 5.91796875 5.40234375 C6.44970703 6.29244141 6.98144531 7.18253906 7.52929688 8.09960938 C8.07650391 9.03611328 8.62371094 9.97261719 9.1875 10.9375 C9.74630859 11.87013672 10.30511719 12.80277344 10.88085938 13.76367188 C15 20.71943681 15 20.71943681 15 23 C15.66 23.33 16.32 23.66 17 24 C16.67 24.66 16.34 25.32 16 26 C16.66 26 17.32 26 18 26 C18.33 27.65 18.66 29.3 19 31 C19.66 31 20.32 31 21 31 C21.66 32.98 22.32 34.96 23 37 C23.66 37 24.32 37 25 37 C28 42.75 28 42.75 28 45 C28.66 45 29.32 45 30 45 C30.33 46.65 30.66 48.3 31 50 C26.6804137 46.24878032 24.05483132 41.52671949 21.125 36.6875 C20.56852783 35.77701904 20.01205566 34.86653809 19.4387207 33.9284668 C18.24836448 31.97942199 17.06036985 30.02893328 15.87451172 28.07714844 C13.93965629 24.90094138 11.98896163 21.73489314 10.03515625 18.5703125 C8.75228945 16.48456854 7.46972957 14.39863577 6.1875 12.3125 C5.57084473 11.31500732 4.95418945 10.31751465 4.31884766 9.28979492 C3.75343262 8.36529541 3.18801758 7.4407959 2.60546875 6.48828125 C1.84979614 5.25911987 1.84979614 5.25911987 1.07885742 4.00512695 C0 2 0 2 0 0 Z " fill="#BCA4D0" transform="translate(73,104)"/>
<path d="M0 0 C3.9189203 1.30630677 4.74594487 3.09062137 7.125 6.4375 C11.83208853 12.93148453 16.90157622 19.14748165 22.7578125 24.65234375 C24 26 24 26 24 28 C24.556875 28.226875 25.11375 28.45375 25.6875 28.6875 C29.19959577 30.68085165 32.18059875 33.36119749 34 37 C30 37 30 37 28.46484375 35.63671875 C27.96082031 34.99347656 27.45679688 34.35023438 26.9375 33.6875 C24.03951262 30.15789999 20.97702704 26.9812252 17.6875 23.8125 C13.62334322 19.78763756 9.93666561 15.64897189 6.4375 11.125 C6.02008545 10.58979736 5.6026709 10.05459473 5.17260742 9.50317383 C2.88278767 6.47114646 1.22778419 3.59707584 0 0 Z " fill="#C1B2CF" transform="translate(162,503)"/>
<path d="M0 0 C0.66 0 1.32 0 2 0 C0.56013154 12.5428541 -5.35383722 24.0706616 -10.6875 35.375 C-11.16300293 36.39207031 -11.63850586 37.40914062 -12.12841797 38.45703125 C-12.58490723 39.40707031 -13.04139648 40.35710938 -13.51171875 41.3359375 C-14.12213013 42.61283447 -14.12213013 42.61283447 -14.74487305 43.91552734 C-16 46 -16 46 -19 48 C-17.25192871 42.53262809 -15.34205919 37.24175152 -13 32 C-12.34 32 -11.68 32 -11 32 C-11 30.68 -11 29.36 -11 28 C-10.34 28 -9.68 28 -9 28 C-8.84337891 27.00613281 -8.84337891 27.00613281 -8.68359375 25.9921875 C-7.82385326 22.22898054 -6.46065216 18.71258468 -5.0625 15.125 C-3.1215578 10.12860864 -1.39899988 5.1769754 0 0 Z " fill="#B7A6C6" transform="translate(511,476)"/>
<path d="M0 0 C12.43702502 5.45337115 22.00235697 21.6560583 29.1875 32.75 C29.57421875 33.34643311 29.9609375 33.94286621 30.359375 34.55737305 C33 38.74059563 33 38.74059563 33 41 C33.66 41 34.32 41 35 41 C36.32 44.3 37.64 47.6 39 51 C38.34 51 37.68 51 37 51 C36.72849121 50.49662109 36.45698242 49.99324219 36.17724609 49.47460938 C34.91641749 47.14610492 33.64577984 44.82308749 32.375 42.5 C31.94832031 41.70851563 31.52164062 40.91703125 31.08203125 40.1015625 C28.43417499 35.28009289 25.56799777 30.90407836 22.12353516 26.61132812 C21 25 21 25 21 23 C20.401875 22.773125 19.80375 22.54625 19.1875 22.3125 C17 21 17 21 15.7421875 18.83203125 C13.53764609 15.24841572 10.83099648 12.41057236 7.9375 9.375 C6.86139833 8.23875947 5.78710897 7.10079917 4.71484375 5.9609375 C4.24167725 5.46384277 3.76851074 4.96674805 3.28100586 4.45458984 C2 3 2 3 0 0 Z " fill="#C7ABDF" transform="translate(405,298)"/>
<path d="M0 0 C0 0.66 0 1.32 0 2 C-0.55236328 2.17015625 -1.10472656 2.3403125 -1.67382812 2.515625 C-15.07277511 6.68961345 -27.81947108 11.33867383 -39.8125 18.734375 C-42 20 -42 20 -44 20 C-43 17 -43 17 -39.54296875 15.02734375 C-38.09607996 14.32053791 -36.64397915 13.62432613 -35.1875 12.9375 C-34.46240234 12.58623047 -33.73730469 12.23496094 -32.99023438 11.87304688 C-31.6313674 11.21537018 -30.27048568 10.56182836 -28.90698242 9.91381836 C-27.5693471 9.27282885 -26.25005689 8.59279632 -24.9465332 7.88500977 C-23 7 -23 7 -20 7 C-20 6.34 -20 5.68 -20 5 C-18.35 5 -16.7 5 -15 5 C-15 4.34 -15 3.68 -15 3 C-13.0636296 2.49564306 -11.12585854 1.99666126 -9.1875 1.5 C-8.10855469 1.2215625 -7.02960938 0.943125 -5.91796875 0.65625 C-3 0 -3 0 0 0 Z " fill="#B199C5" transform="translate(255,261)"/>
<path d="M0 0 C0 0.66 0 1.32 0 2 C-14.95998371 9.92230412 -29.14772685 16.24109215 -46.375 16.0625 C-47.20644531 16.05798828 -48.03789062 16.05347656 -48.89453125 16.04882812 C-50.92971897 16.03713164 -52.96486923 16.01919935 -55 16 C-55 15.67 -55 15.34 -55 15 C-54.13761719 14.98582031 -53.27523438 14.97164062 -52.38671875 14.95703125 C-34.41778329 14.25497147 -15.73402746 0 0 0 Z " fill="#CDBDDA" transform="translate(382,180)"/>
<path d="M0 0 C0.66 0 1.32 0 2 0 C1.44616602 3.73583232 0.49912763 6.12796095 -1.69140625 9.19140625 C-5.01216392 13.97793229 -7.98058242 18.92057721 -10.9375 23.9375 C-15.03309255 30.83306259 -19.19461007 37.57025292 -24 44 C-24 40.71917888 -23.51797846 39.84558535 -21.84765625 37.12890625 C-21.40099609 36.38962891 -20.95433594 35.65035156 -20.49414062 34.88867188 C-20.02169922 34.12103516 -19.54925781 33.35339844 -19.0625 32.5625 C-18.13202493 31.04583844 -17.2060687 29.52639316 -16.28515625 28.00390625 C-15.66459351 26.99565796 -15.66459351 26.99565796 -15.03149414 25.96704102 C-13.91628856 24.04968215 -13.91628856 24.04968215 -13.54467773 21.93725586 C-12.87156246 19.54318608 -11.78989253 18.69138653 -10 17 C-9.15414132 15.68921362 -8.35276581 14.34901185 -7.58984375 12.98828125 C-6.94112305 11.85229492 -6.94112305 11.85229492 -6.27929688 10.69335938 C-5.37881088 9.0955538 -4.48039885 7.49657774 -3.58398438 5.89648438 C-2.93719727 4.76629883 -2.93719727 4.76629883 -2.27734375 3.61328125 C-1.88796631 2.92016846 -1.49858887 2.22705566 -1.09741211 1.51293945 C-0.73526611 1.01366943 -0.37312012 0.51439941 0 0 Z " fill="#BEA8D2" transform="translate(517,109)"/>
<path d="M0 0 C5.44876003 1.72066106 10.71169451 3.84705349 16 6 C16 6.66 16 7.32 16 8 C16.71929687 8.26683594 17.43859375 8.53367187 18.1796875 8.80859375 C28.28488267 13.07740888 39.75260115 20.89606023 46 30 C42.43053909 28.46554209 40.03996731 26.3004798 37.1875 23.6875 C26.58418148 14.42285262 13.03904639 7.21925567 0 2 C0 1.34 0 0.68 0 0 Z " fill="#D1BEE3" transform="translate(359,268)"/>
<path d="M0 0 C3.36330307 1.50768758 5.97301294 3.47383585 8.8125 5.8125 C12.77973176 9.03918183 16.80300173 12.08034903 21 15 C19.51198753 18.84685043 17.41262618 20.34528502 14 22.5625 C10.83111952 24.63056299 9.12436151 25.81345774 7 29 C5.0625 30.25 5.0625 30.25 3 31 C2.01 30.67 1.02 30.34 0 30 C5.66319301 24.79555727 11.62497025 20.29791965 18 16 C17.52578613 15.62190186 17.05157227 15.24380371 16.56298828 14.85424805 C14.41346074 13.13636418 12.26920234 11.41202513 10.125 9.6875 C9.37863281 9.09259766 8.63226563 8.49769531 7.86328125 7.88476562 C7.14785156 7.30791016 6.43242187 6.73105469 5.6953125 6.13671875 C5.03547363 5.60780029 4.37563477 5.07888184 3.69580078 4.53393555 C2 3 2 3 0 0 Z " fill="#C2B0D3" transform="translate(154,212)"/>
<path d="M0 0 C0.66 0.33 1.32 0.66 2 1 C1.67 2.32 1.34 3.64 1 5 C0.34 5 -0.32 5 -1 5 C-1.24363281 5.66773437 -1.48726563 6.33546875 -1.73828125 7.0234375 C-3.30373705 10.71655613 -5.20778104 14.1404957 -7.1875 17.625 C-7.58461182 18.32560547 -7.98172363 19.02621094 -8.39086914 19.74804688 C-15.99701195 33.07365551 -15.99701195 33.07365551 -19 37 C-19.66 37 -20.32 37 -21 37 C-19.67155157 33.46495619 -18.10480922 30.29274776 -16.171875 27.05078125 C-15.61886719 26.11943359 -15.06585938 25.18808594 -14.49609375 24.22851562 C-13.91988281 23.26623047 -13.34367187 22.30394531 -12.75 21.3125 C-12.18925781 20.36955078 -11.62851562 19.42660156 -11.05078125 18.45507812 C-7.38354511 12.29361325 -3.69238042 6.14642163 0 0 Z " fill="#BB9AD8" transform="translate(467,70)"/>
<path d="M0 0 C0 0.66 0 1.32 0 2 C-1.77890625 2.61875 -1.77890625 2.61875 -3.59375 3.25 C-14.50815541 7.11747858 -24.75763415 11.61544195 -35 17 C-36.99773244 18.00452232 -38.99694194 19.00613965 -41 20 C-41 19.01 -41 18.02 -41 17 C-32.87877828 12.84219367 -24.73456116 8.7852654 -16.375 5.125 C-15.7253125 4.83939209 -15.075625 4.55378418 -14.40625 4.25952148 C-4.55634605 0 -4.55634605 0 0 0 Z " fill="#BA98DA" transform="translate(553,4)"/>
<path d="M0 0 C-5.24458586 6.36590304 -11.02097322 12.13570612 -16.875 17.9375 C-17.85960919 18.91708237 -18.843986 19.89689837 -19.828125 20.87695312 C-22.21648203 23.25360252 -24.60715212 25.62787356 -27 28 C-27 25 -27 25 -25.609375 23.3515625 C-24.99578125 22.78179687 -24.3821875 22.21203125 -23.75 21.625 C-21.62200517 19.5950891 -19.76069669 17.69543216 -17.9375 15.375 C-16.29534128 13.36203124 -14.89508398 12.06739046 -12.875 10.5 C-9.93499644 7.94347516 -9.2228898 6.57460097 -8 3 C-5.65907541 -0.23270538 -3.88422613 -0.31493725 0 0 Z " fill="#AB65E9" transform="translate(157,243)"/>
<path d="M0 0 C0.66 0 1.32 0 2 0 C0.33481689 4.08366335 -2.54692877 7.06037785 -5.5 10.25 C-5.99886719 10.80429688 -6.49773437 11.35859375 -7.01171875 11.9296875 C-8.2968354 13.3285008 -9.64433768 14.66944254 -11 16 C-11.66 16 -12.32 16 -13 16 C-13.33 16.99 -13.66 17.98 -14 19 C-16.5 20.5 -16.5 20.5 -19 22 C-20.08618988 23.03826974 -21.14817369 24.10232106 -22.1875 25.1875 C-23.115625 26.115625 -24.04375 27.04375 -25 28 C-25.66 28 -26.32 28 -27 28 C-27 26 -27 26 -25.6015625 24.58984375 C-24.94929688 24.04457031 -24.29703125 23.49929687 -23.625 22.9375 C-22.89667969 22.31617188 -22.16835938 21.69484375 -21.41796875 21.0546875 C-20.62003906 20.37664062 -19.82210938 19.69859375 -19 19 C-13.41907841 14.15683632 -8.13463174 9.29241036 -3.375 3.62890625 C-2 2 -2 2 0 0 Z " fill="#DCCCEA" transform="translate(468,184)"/>
<path d="M0 0 C5.63785832 1.62871462 5.63785832 1.62871462 7.37304688 3.40771484 C9.45127033 5.44165443 11.59144318 6.42288338 14.21875 7.6640625 C15.23324219 8.14617188 16.24773437 8.62828125 17.29296875 9.125 C18.35128906 9.62 19.40960938 10.115 20.5 10.625 C21.55832031 11.12773438 22.61664063 11.63046875 23.70703125 12.1484375 C29.2600377 14.80331144 29.2600377 14.80331144 35 17 C34.505 18.485 34.505 18.485 34 20 C7.99024988 8.0482782 7.99024988 8.0482782 0 2 C0 1.34 0 0.68 0 0 Z " fill="#BAA6CD" transform="translate(176,602)"/>
<path d="M0 0 C4.06731738 1.52292249 6.13193041 4.36608681 8.625 7.75 C9.26489868 8.60259399 9.26489868 8.60259399 9.91772461 9.47241211 C11.28834912 11.30784186 12.64481489 13.15314858 14 15 C14.46905762 15.63244629 14.93811523 16.26489258 15.42138672 16.91650391 C16.81043632 18.79231857 18.18859577 20.67557143 19.5625 22.5625 C19.99191895 23.14547852 20.42133789 23.72845703 20.86376953 24.32910156 C22.88464744 27.14339764 24.51547732 29.52333725 25 33 C23.515 32.505 23.515 32.505 22 32 C21.16043956 30.21593407 20.32210083 28.43128749 19.48828125 26.64453125 C14.72611259 18.18262001 7.72291875 10.53991247 1.14453125 3.453125 C0 2 0 2 0 0 Z " fill="#D0B6E6" transform="translate(464,267)"/>
<path d="M0 0 C4.26821031 3.02081082 6.84302164 6.4529618 9.5 10.875 C11.74076568 14.55682347 13.9613366 18.04961013 16.78125 21.3203125 C19 24 19 24 19 26 C14.98869439 24.47317422 13.21413108 21.9985939 10.75 18.5625 C10.04359375 17.59441406 9.3371875 16.62632812 8.609375 15.62890625 C7 13 7 13 7 10 C6.34 10 5.68 10 5 10 C3.7109375 8.3203125 3.7109375 8.3203125 2.375 6.125 C1.92898437 5.40570313 1.48296875 4.68640625 1.0234375 3.9453125 C0 2 0 2 0 0 Z " fill="#C0A9D7" transform="translate(158,122)"/>
<path d="M0 0 C-3.44348729 2.29565819 -6.57378759 2.9045089 -10.5625 3.625 C-11.63081055 3.82283081 -11.63081055 3.82283081 -12.72070312 4.0246582 C-18.17780169 4.97965045 -23.45850177 5.35966455 -29 5 C-29 4.34 -29 3.68 -29 3 C-28.39003174 2.91435791 -27.78006348 2.82871582 -27.15161133 2.74047852 C-24.37169549 2.34930936 -21.59209736 1.95592556 -18.8125 1.5625 C-17.37293945 1.36043945 -17.37293945 1.36043945 -15.90429688 1.15429688 C-14.97294922 1.02216797 -14.04160156 0.89003906 -13.08203125 0.75390625 C-12.22843018 0.63345947 -11.3748291 0.5130127 -10.49536133 0.38891602 C-7.96543624 0.0257467 -7.96543624 0.0257467 -5.36987305 -0.60961914 C-3 -1 -3 -1 0 0 Z " fill="#C6BCD0" transform="translate(339,571)"/>
<path d="M0 0 C0.99 0.33 1.98 0.66 3 1 C2.41992188 1.6290625 1.83984375 2.258125 1.2421875 2.90625 C-3.47701509 8.07712544 -7.93754411 13.29663055 -12 19 C-13.32 18.67 -14.64 18.34 -16 18 C-15.62190186 17.5968457 -15.24380371 17.19369141 -14.85424805 16.77832031 C-13.12995293 14.9374509 -11.40870626 13.09375761 -9.6875 11.25 C-9.09259766 10.61578125 -8.49769531 9.9815625 -7.88476562 9.328125 C-5.08572094 6.32579774 -2.35829368 3.37142346 0 0 Z " fill="#BEADCD" transform="translate(420,144)"/>
<path d="M0 0 C0.66 0 1.32 0 2 0 C1.67 1.65 1.34 3.3 1 5 C0.34 5 -0.32 5 -1 5 C-1.25007813 5.69738281 -1.50015625 6.39476562 -1.7578125 7.11328125 C-3.1692988 10.39343339 -4.91165932 13.20544481 -6.875 16.1875 C-7.55304688 17.23292969 -8.23109375 18.27835937 -8.9296875 19.35546875 C-10.89715531 21.86863047 -12.05333141 22.92307852 -15 24 C-12.15852648 18.89329585 -9.08979947 14.02404327 -5.8125 9.1875 C-2.70319385 4.71516598 -2.70319385 4.71516598 0 0 Z " fill="#BCAEC8" transform="translate(437,491)"/>
<path d="M0 0 C1.32 0 2.64 0 4 0 C4 0.66 4 1.32 4 2 C-7.9140625 7.95703125 -7.9140625 7.95703125 -10.01660156 9.00244141 C-11.8010786 9.89995164 -13.56964347 10.8289335 -15.3359375 11.76171875 C-18 13 -18 13 -21 13 C-21 12.34 -21 11.68 -21 11 C-20.09906616 10.60675537 -20.09906616 10.60675537 -19.17993164 10.20556641 C-16.4711281 9.01874249 -13.76681206 7.82202068 -11.0625 6.625 C-10.11697266 6.2125 -9.17144531 5.8 -8.19726562 5.375 C-7.29814453 4.97539063 -6.39902344 4.57578125 -5.47265625 4.1640625 C-4.64000244 3.79748535 -3.80734863 3.4309082 -2.94946289 3.05322266 C-0.83726921 2.15316476 -0.83726921 2.15316476 0 0 Z " fill="#BA9ED2" transform="translate(402,610)"/>
<path d="M0 0 C3.78107631 1.26035877 4.15557633 2.45485144 6.13671875 5.83984375 C6.71357422 6.82017578 7.29042969 7.80050781 7.88476562 8.81054688 C8.47966797 9.84244141 9.07457031 10.87433594 9.6875 11.9375 C10.29400391 12.96552734 10.90050781 13.99355469 11.52539062 15.05273438 C16 22.71846 16 22.71846 16 25 C15.34 25 14.68 25 14 25 C12.81079102 23.45874023 12.81079102 23.45874023 11.50390625 21.30859375 C11.02759766 20.52806641 10.55128906 19.74753906 10.06054688 18.94335938 C9.31901367 17.70295898 9.31901367 17.70295898 8.5625 16.4375 C8.07201172 15.63763672 7.58152344 14.83777344 7.07617188 14.01367188 C4.31802382 9.45398043 1.96210347 4.95514267 0 0 Z " fill="#BFA0D8" transform="translate(132,80)"/>
<path d="M0 0 C3.50827915 1.52079073 5.95271646 3.5995673 8.75 6.1875 C13.11392338 10.18884221 17.53048481 14.11726474 22 18 C21.67 18.99 21.34 19.98 21 21 C20.29875 20.28714844 19.5975 19.57429688 18.875 18.83984375 C13.92546471 13.83518725 8.97680668 8.94329037 3.55859375 4.4375 C2 3 2 3 0 0 Z " fill="#E1D3F0" transform="translate(441,245)"/>
<path d="M0 0 C2 2 2 2 2 4 C3.77670173 5.83365982 3.77670173 5.83365982 6.0625 7.75 C6.8771875 8.45640625 7.691875 9.1628125 8.53125 9.890625 C9.3459375 10.58671875 10.160625 11.2828125 11 12 C12.06734375 12.92039063 12.06734375 12.92039063 13.15625 13.859375 C14.76619872 15.2449866 16.38240458 16.62332305 18 18 C13.93546068 18 12.80728882 16.4299833 9.75 13.8125 C6.51492983 11.08009014 3.31631703 8.44136964 -0.1875 6.0625 C-1.115625 5.381875 -2.04375 4.70125 -3 4 C-3 3.34 -3 2.68 -3 2 C-2.01 1.34 -1.02 0.68 0 0 Z " fill="#CAB5DE" transform="translate(422,225)"/>
<path d="M0 0 C8.72324579 1.70544356 15.7224201 9.15279792 22 15 C21.67 15.66 21.34 16.32 21 17 C20.57332031 16.5875 20.14664063 16.175 19.70703125 15.75 C14.40672692 10.85404879 8.77733892 7.29393808 2.5625 3.69921875 C1.716875 3.13847656 0.87125 2.57773438 0 2 C0 1.34 0 0.68 0 0 Z " fill="#D1BAE4" transform="translate(39,69)"/>
<path d="M0 0 C0.66 0.33 1.32 0.66 2 1 C1.25234375 1.80824219 0.5046875 2.61648438 -0.265625 3.44921875 C-1.26050237 4.52856684 -2.25528923 5.60799837 -3.25 6.6875 C-3.74113281 7.21794922 -4.23226562 7.74839844 -4.73828125 8.29492188 C-7.62730739 11.43433028 -10.37540567 14.63177061 -13 18 C-13.99 17.67 -14.98 17.34 -16 17 C-14.0843735 14.91570199 -12.16753939 12.83253697 -10.25 10.75 C-9.71117187 10.16347656 -9.17234375 9.57695312 -8.6171875 8.97265625 C-5.80318147 5.91843019 -2.96618844 2.90859255 0 0 Z " fill="#D9C9E8" transform="translate(187,297)"/>
<path d="M0 0 C0.66 0 1.32 0 2 0 C4.66666667 5.33333333 7.33333333 10.66666667 10 16 C10.39074707 16.67836914 10.78149414 17.35673828 11.18408203 18.05566406 C12 20 12 20 11 23 C0 5.57388316 0 5.57388316 0 0 Z " fill="#C5B8CF" transform="translate(90,500)"/>
<path d="M0 0 C8.9316026 3.86231464 15.25044004 13.49580593 21 21 C20.34 21.66 19.68 22.32 19 23 C18.236875 21.9275 17.47375 20.855 16.6875 19.75 C13.3416117 15.26474446 9.60906277 11.20016702 5.78393555 7.12597656 C3.63159317 4.82541786 1.75328924 2.62993386 0 0 Z " fill="#D6C3E6" transform="translate(405,298)"/>
<path d="M0 0 C5.8888434 -0.21221057 10.83290313 0.44679567 16.5 2 C17.59054688 2.28617187 17.59054688 2.28617187 18.703125 2.578125 C20.47106531 3.04337245 22.23588933 3.52043593 24 4 C24 4.66 24 5.32 24 6 C15.92614962 4.62469483 7.96600635 2.89968355 0 1 C0 0.67 0 0.34 0 0 Z " fill="#D2B5ED" transform="translate(20,0)"/>
<path d="M0 0 C1 3 1 3 0.3190918 4.88525391 C-0.05046631 5.57538574 -0.42002441 6.26551758 -0.80078125 6.9765625 C-1.20103516 7.729375 -1.60128906 8.4821875 -2.01367188 9.2578125 C-2.44228516 10.03898438 -2.87089844 10.82015625 -3.3125 11.625 C-3.72951172 12.41390625 -4.14652344 13.2028125 -4.57617188 14.015625 C-7.72588735 19.86294367 -7.72588735 19.86294367 -10 21 C-8.25192871 15.53262809 -6.34205919 10.24175152 -4 5 C-3.34 5 -2.68 5 -2 5 C-2 3.68 -2 2.36 -2 1 C-1.34 0.67 -0.68 0.34 0 0 Z " fill="#B295C8" transform="translate(502,503)"/>
<path d="M0 0 C0 3 0 3 -1.50390625 4.54296875 C-2.18324219 5.08566406 -2.86257812 5.62835938 -3.5625 6.1875 C-7.27525079 9.28145899 -10.38058507 12.58127744 -13.45703125 16.30078125 C-15 18 -15 18 -18 20 C-17.48446255 15.85660641 -15.30030337 13.96192563 -12.375 11.125 C-11.4778125 10.25359375 -10.580625 9.3821875 -9.65625 8.484375 C-6.51582975 5.54715842 -3.31477625 2.73829342 0 0 Z " fill="#CAB7DB" transform="translate(147,249)"/>
<path d="M0 0 C0 0.66 0 1.32 0 2 C-2.72344582 3.48988243 -5.45465614 4.96493737 -8.1875 6.4375 C-8.95642578 6.85837891 -9.72535156 7.27925781 -10.51757812 7.71289062 C-14.31498161 9.75012425 -17.64595236 11.52009495 -22 12 C-22 11.34 -22 10.68 -22 10 C-20.80761719 9.44570313 -19.61523438 8.89140625 -18.38671875 8.3203125 C-16.8202527 7.58866968 -15.25384974 6.85689179 -13.6875 6.125 C-12.90181641 5.76019531 -12.11613281 5.39539063 -11.30664062 5.01953125 C-10.54931641 4.66503906 -9.79199219 4.31054688 -9.01171875 3.9453125 C-7.96697388 3.45828857 -7.96697388 3.45828857 -6.90112305 2.96142578 C-1.04520061 0 -1.04520061 0 0 0 Z " fill="#B696D5" transform="translate(378,554)"/>
<path d="M0 0 C0.66 0 1.32 0 2 0 C0.46537425 4.60387726 -2.00783144 8.02041819 -4.9375 11.8125 C-5.60168945 12.7087207 -5.60168945 12.7087207 -6.27929688 13.62304688 C-7.4445607 15.14257869 -8.7163624 16.5790527 -10 18 C-10.99 18 -11.98 18 -13 18 C-12.22914063 16.95199219 -11.45828125 15.90398438 -10.6640625 14.82421875 C-9.65100715 13.44533786 -8.63798822 12.06643021 -7.625 10.6875 C-7.11710937 9.99720703 -6.60921875 9.30691406 -6.0859375 8.59570312 C-5.59609375 7.92861328 -5.10625 7.26152344 -4.6015625 6.57421875 C-4.15119629 5.96151123 -3.70083008 5.34880371 -3.23681641 4.7175293 C-2.12239357 3.16996423 -1.05784918 1.58677377 0 0 Z " fill="#C5A7E0" transform="translate(483,536)"/>
<path d="M0 0 C2.97 0.33 5.94 0.66 9 1 C9 1.66 9 2.32 9 3 C10.60875 2.87625 10.60875 2.87625 12.25 2.75 C16 3 16 3 18.4375 5 C19.2109375 5.99 19.2109375 5.99 20 7 C18 8 18 8 16.22827148 7.59448242 C15.53290283 7.35060791 14.83753418 7.1067334 14.12109375 6.85546875 C13.36505859 6.59056641 12.60902344 6.32566406 11.83007812 6.05273438 C11.04052734 5.76720703 10.25097656 5.48167969 9.4375 5.1875 C8.64408203 4.91357422 7.85066406 4.63964844 7.03320312 4.35742188 C1.12711445 2.2542289 1.12711445 2.2542289 0 0 Z " fill="#C4ADDA" transform="translate(338,261)"/>
<path d="M0 0 C0 4.0460528 -1.98876467 6.26539088 -4.25 9.4375 C-4.64574219 10.01048828 -5.04148437 10.58347656 -5.44921875 11.17382812 C-7.72592155 14.41719654 -10.10336312 17.29602933 -13 20 C-13 15.73451402 -10.62254333 13.30542739 -8.1875 10 C-7.73568359 9.3709375 -7.28386719 8.741875 -6.81835938 8.09375 C-4.70005496 5.17451005 -2.60235986 2.50930034 0 0 Z " fill="#C8AAE4" transform="translate(487,159)"/>
<path d="M0 0 C0.66 0 1.32 0 2 0 C2.84610515 2.51716282 3.67696767 5.03779273 4.5 7.5625 C4.73847656 8.26697266 4.97695313 8.97144531 5.22265625 9.69726562 C6.71425759 14.32122977 7.25529455 18.14302111 7 23 C3.21608391 15.72574752 1.42515796 8.03118427 0 0 Z " fill="#D2C2E1" transform="translate(512,353)"/>
<path d="M0 0 C0.66 0.33 1.32 0.66 2 1 C0.42788582 3.46617912 -1.15677848 5.92251294 -2.75 8.375 C-3.1934375 9.07367188 -3.636875 9.77234375 -4.09375 10.4921875 C-4.75117188 11.49765625 -4.75117188 11.49765625 -5.421875 12.5234375 C-6.01887207 13.450354 -6.01887207 13.450354 -6.62792969 14.39599609 C-8.22651597 16.26480604 -9.75500056 17.04441474 -12 18 C-8.57247434 11.5733894 -4.34653016 5.83405626 0 0 Z " fill="#B4A4C4" transform="translate(433,126)"/>
<path d="M0 0 C4.49324849 1.65770333 8.61186146 3.84982162 12.8125 6.125 C13.50537109 6.49753906 14.19824219 6.87007812 14.91210938 7.25390625 C16.60934836 8.16690377 18.30485138 9.08312716 20 10 C19.67 10.66 19.34 11.32 19 12 C12.73 8.7 6.46 5.4 0 2 C0 1.34 0 0.68 0 0 Z " fill="#B89CD2" transform="translate(214,553)"/>
<path d="M0 0 C0 0.66 0 1.32 0 2 C-2.55657735 3.34588326 -5.11923905 4.67675328 -7.6875 6 C-8.40873047 6.3815625 -9.12996094 6.763125 -9.87304688 7.15625 C-13.70546553 9.1162084 -16.57371149 10.55874253 -21 10 C-17.44774408 7.63182939 -13.7503409 5.78310606 -9.9375 3.875 C-9.20466797 3.50246094 -8.47183594 3.12992188 -7.71679688 2.74609375 C-2.2396978 0 -2.2396978 0 0 0 Z " fill="#B79FCD" transform="translate(382,180)"/>
<path d="M0 0 C0.80859375 1.640625 0.80859375 1.640625 1 4 C-0.58570661 6.12217932 -2.09290258 7.8833556 -3.9375 9.75 C-4.41896484 10.25660156 -4.90042969 10.76320313 -5.39648438 11.28515625 C-6.58653954 12.53412504 -7.79186613 13.7685103 -9 15 C-9.66 14.67 -10.32 14.34 -11 14 C-10.45730469 13.32453125 -9.91460937 12.6490625 -9.35546875 11.953125 C-8.64003906 11.06109375 -7.92460938 10.1690625 -7.1875 9.25 C-6.47980469 8.36828125 -5.77210937 7.4865625 -5.04296875 6.578125 C-3.32494998 4.41007071 -1.64626024 2.22271099 0 0 Z " fill="#B4A2C5" transform="translate(128,267)"/>
<path d="M0 0 C0.66 0.33 1.32 0.66 2 1 C1.34 2.32 0.68 3.64 0 5 C-0.66 5 -1.32 5 -2 5 C-2.0825 5.78375 -2.165 6.5675 -2.25 7.375 C-3 10 -3 10 -5.0625 11.3125 C-5.701875 11.539375 -6.34125 11.76625 -7 12 C-7 8.40142046 -6.04169485 6.90548882 -4 4 C-3.34 4 -2.68 4 -2 4 C-2 3.01 -2 2.02 -2 1 C-1.34 0.67 -0.68 0.34 0 0 Z " fill="#C7ABDF" transform="translate(476,58)"/>
<path d="M0 0 C0.66 0.33 1.32 0.66 2 1 C0.625 2.5 0.625 2.5 -1 4 C-1.66 4 -2.32 4 -3 4 C-3 4.66 -3 5.32 -3 6 C-4.95224208 7.28406399 -6.96340762 8.47941678 -9 9.625 C-10.670625 10.57246094 -10.670625 10.57246094 -12.375 11.5390625 C-13.24125 12.02117188 -14.1075 12.50328125 -15 13 C-15 12.01 -15 11.02 -15 10 C-12.7133169 8.31818146 -10.48436727 6.83423975 -8.0625 5.375 C-3.80219286 2.97540598 -3.80219286 2.97540598 0 0 Z " fill="#C9BFD6" transform="translate(428,595)"/>
<path d="M0 0 C0.66 0.33 1.32 0.66 2 1 C0.73452987 2.62918007 -0.53757728 4.25320642 -1.8125 5.875 C-2.52019531 6.77992188 -3.22789062 7.68484375 -3.95703125 8.6171875 C-6 11 -6 11 -9 13 C-9 8.86218946 -7.28490393 7.79080004 -4.5 4.8125 C-3.6646875 3.91144531 -2.829375 3.01039063 -1.96875 2.08203125 C-0.99421875 1.05142578 -0.99421875 1.05142578 0 0 Z " fill="#DCCFE5" transform="translate(470,555)"/>
<path d="M0 0 C3.93677426 1.31225809 4.8271782 3.1961394 7.1875 6.5625 C7.90292969 7.57441406 8.61835938 8.58632813 9.35546875 9.62890625 C9.89816406 10.41136719 10.44085938 11.19382812 11 12 C10.34 12.66 9.68 13.32 9 14 C7.49412261 12.04594482 5.99521356 10.08718716 4.5 8.125 C4.07074219 7.56941406 3.64148438 7.01382812 3.19921875 6.44140625 C0 2.2265625 0 2.2265625 0 0 Z " fill="#B9A6CB" transform="translate(162,503)"/>
<path d="M0 0 C0.66 0 1.32 0 2 0 C1.52013969 5.56890517 0.70084819 10.67067568 -1 16 C-1.66 16 -2.32 16 -3 16 C-2.68954268 14.0830014 -2.37655329 12.16641277 -2.0625 10.25 C-1.88847656 9.18265625 -1.71445312 8.1153125 -1.53515625 7.015625 C-1.11295829 4.63652407 -0.62797116 2.33084789 0 0 Z " fill="#D0B8E6" transform="translate(453,446)"/>
<path d="M0 0 C-2.28874173 1.33858524 -4.58069656 2.67101014 -6.875 4 C-7.52597656 4.3815625 -8.17695313 4.763125 -8.84765625 5.15625 C-13.7734375 8 -13.7734375 8 -16 8 C-14.69983239 4.09949718 -13.23996087 3.68856143 -9.6875 1.75 C-8.23923828 0.93789063 -8.23923828 0.93789063 -6.76171875 0.109375 C-3.86300189 -1.05503177 -2.83470023 -1.15811981 0 0 Z " fill="#AD96C5" transform="translate(227,273)"/>
<path d="M0 0 C0 0.99 0 1.98 0 3 C-1.55759343 3.53532823 -3.12138045 4.05265378 -4.6875 4.5625 C-5.55761719 4.85253906 -6.42773438 5.14257812 -7.32421875 5.44140625 C-10.24631074 6.05141961 -12.14400553 5.77703633 -15 5 C-12.18178397 3.12118931 -10.14357281 2.30990783 -6.9375 1.375 C-6.05964844 1.11460937 -5.18179687 0.85421875 -4.27734375 0.5859375 C-2 0 -2 0 0 0 Z " fill="#C0A6D9" transform="translate(355,565)"/>
<path d="M0 0 C0.33 0 0.66 0 1 0 C1.67250524 2.58193977 2.33817901 5.16532071 3 7.75 C3.28617188 8.84441406 3.28617188 8.84441406 3.578125 9.9609375 C4.46515964 13.44571646 5 16.38123722 5 20 C4.34 20 3.68 20 3 20 C0.8408662 13.12418702 -0.35482211 7.21471629 0 0 Z " fill="#D5C2E5" transform="translate(139,443)"/>
<path d="M0 0 C0 0.66 0 1.32 0 2 C-1.74951568 2.95921722 -3.49963244 3.91733817 -5.25 4.875 C-6.71179688 5.67550781 -6.71179688 5.67550781 -8.203125 6.4921875 C-10.45130408 7.70419466 -12.7072805 8.87547567 -15 10 C-15 9.01 -15 8.02 -15 7 C-12.87767021 5.82823482 -10.75242209 4.66245215 -8.625 3.5 C-7.72007812 2.99919922 -7.72007812 2.99919922 -6.796875 2.48828125 C-2.2265625 0 -2.2265625 0 0 0 Z " fill="#C6AFDA" transform="translate(527,14)"/>
<path d="M0 0 C0.66 0.66 1.32 1.32 2 2 C-1.63 5.63 -5.26 9.26 -9 13 C-9.66 12.67 -10.32 12.34 -11 12 C-7.37 8.04 -3.74 4.08 0 0 Z " fill="#E0D6E9" transform="translate(500,30)"/>
<path d="M0 0 C4.15633047 3.54057781 6.78130023 8.06248371 9 13 C9 13.99 9 14.98 9 16 C0 5.75 0 5.75 0 0 Z " fill="#C7ACDE" transform="translate(148,105)"/>
<path d="M0 0 C5.44876003 1.72066106 10.71169451 3.84705349 16 6 C14.390625 7.1796875 14.390625 7.1796875 12 8 C8.984375 6.8828125 8.984375 6.8828125 5.75 5.125 C4.67234375 4.55007813 3.5946875 3.97515625 2.484375 3.3828125 C1.66453125 2.92648437 0.8446875 2.47015625 0 2 C0 1.34 0 0.68 0 0 Z " fill="#BDA5CF" transform="translate(359,268)"/>
<path d="M0 0 C0.66 0.33 1.32 0.66 2 1 C-1.43361902 4.63559661 -4.7973607 7.36113346 -9 10 C-9 9.01 -9 8.02 -9 7 C-7.03125 5.17578125 -7.03125 5.17578125 -4.5 3.3125 C-3.6646875 2.68988281 -2.829375 2.06726563 -1.96875 1.42578125 C-1.3190625 0.95527344 -0.669375 0.48476562 0 0 Z " fill="#D9C2E6" transform="translate(434,216)"/>
<path d="M0 0 C0 0.66 0 1.32 0 2 C-0.66 2 -1.32 2 -2 2 C-2 2.66 -2 3.32 -2 4 C-4.97 5.65 -7.94 7.3 -11 9 C-11 8.01 -11 7.02 -11 6 C-9.1015625 4.39453125 -9.1015625 4.39453125 -6.625 2.8125 C-5.81289063 2.28269531 -5.00078125 1.75289062 -4.1640625 1.20703125 C-2 0 -2 0 0 0 Z " fill="#BFA5D6" transform="translate(390,546)"/>
<path d="M0 0 C0.66 0.33 1.32 0.66 2 1 C0.34524223 4.60153162 -1.08925078 6.2974477 -4.6875 7.8125 C-5.780625 8.204375 -6.87375 8.59625 -8 9 C-6.4169423 4.7257442 -3.49431596 2.73468206 0 0 Z " fill="#D6BFED" transform="translate(399,537)"/>
<path d="M0 0 C0.99 0.33 1.98 0.66 3 1 C0.03 3.97 -2.94 6.94 -6 10 C-6.66 9.67 -7.32 9.34 -8 9 C-6.92834431 5.78503292 -6.11623226 4.91537488 -3.625 2.75 C-3.01914062 2.20859375 -2.41328125 1.6671875 -1.7890625 1.109375 C-1.19867188 0.74328125 -0.60828125 0.3771875 0 0 Z " fill="#C1A6D7" transform="translate(407,530)"/>
<path d="M0 0 C4.46997391 2.42655726 8.67440245 5.34880489 11 10 C7 10 7 10 5.078125 8.3203125 C4.47484375 7.59585938 3.8715625 6.87140625 3.25 6.125 C2.63640625 5.40570312 2.0228125 4.68640625 1.390625 3.9453125 C0 2 0 2 0 0 Z " fill="#D8C0ED" transform="translate(185,530)"/>
<path d="M0 0 C-1.38188453 3.21043882 -2.92421903 5.04936365 -5.625 7.25 C-6.57246094 8.03117188 -6.57246094 8.03117188 -7.5390625 8.828125 C-8.02117187 9.21484375 -8.50328125 9.6015625 -9 10 C-9 7 -9 7 -7.5390625 5.17578125 C-6.90742188 4.56089844 -6.27578125 3.94601563 -5.625 3.3125 C-4.68527344 2.37857422 -4.68527344 2.37857422 -3.7265625 1.42578125 C-2 0 -2 0 0 0 Z " fill="#CABAD6" transform="translate(470,184)"/>
<path d="M0 0 C-5.72098754 2.95664482 -10.65448788 3.10755105 -17 3 C-17 2.67 -17 2.34 -17 2 C-11.21642935 -0.01167675 -6.09781001 -0.22084624 0 0 Z " fill="#DBC6EF" transform="translate(344,634)"/>
<path d="M0 0 C4.55015893 1.51671964 6.50057264 5.16891053 9 9 C8.67 9.66 8.34 10.32 8 11 C6.66072279 9.54712339 5.32873153 8.08752741 4 6.625 C3.2575 5.81289063 2.515 5.00078125 1.75 4.1640625 C0 2 0 2 0 0 Z " fill="#DBCAEA" transform="translate(464,267)"/>
<path d="M0 0 C0 0.66 0 1.32 0 2 C-4.1196377 3.29243536 -7.66831683 4.26252625 -12 4 C-12 3.34 -12 2.68 -12 2 C-10.56342755 1.66269158 -9.12569907 1.33030409 -7.6875 1 C-6.88699219 0.814375 -6.08648437 0.62875 -5.26171875 0.4375 C-3 0 -3 0 0 0 Z " fill="#C2A9D6" transform="translate(255,261)"/>
<path d="M0 0 C1.64951226 0.95198711 3.29451508 1.91179145 4.9375 2.875 C5.85402344 3.40867187 6.77054688 3.94234375 7.71484375 4.4921875 C10 6 10 6 11 8 C6.25 7.125 6.25 7.125 4 6 C4 5.34 4 4.68 4 4 C2.68 3.34 1.36 2.68 0 2 C0 1.34 0 0.68 0 0 Z " fill="#CCB0E4" transform="translate(200,543)"/>
<path d="M0 0 C3.33557632 2.9905167 5.15083921 5.93184627 7 10 C5.68 9.67 4.36 9.34 3 9 C2.67 7.35 2.34 5.7 2 4 C1.34 4 0.68 4 0 4 C0 2.68 0 1.36 0 0 Z " fill="#CFB6E4" transform="translate(156,492)"/>
<path d="M0 0 C0.99 0.33 1.98 0.66 3 1 C4.62323754 4.75907641 5.23994929 7.92086213 5 12 C2.65085508 9.65085508 2.26859643 8.04320554 1.375 4.875 C1.11460937 3.96492188 0.85421875 3.05484375 0.5859375 2.1171875 C0.39257812 1.41851562 0.19921875 0.71984375 0 0 Z " fill="#BE9EDB" transform="translate(443,350)"/>
<path d="M0 0 C0.66 0 1.32 0 2 0 C1.39301257 4.12751449 -0.03810791 7.3321148 -2 11 C-2.33 11 -2.66 11 -3 11 C-2.53199289 6.94393835 -2.12046792 3.53411321 0 0 Z " fill="#CAAAE7" transform="translate(152,342)"/>
<path d="M0 0 C2 2 2 2 2 4 C2.99 5.485 2.99 5.485 4 7 C0.47967572 7 -0.4385343 6.29648649 -3 4 C-3 3.34 -3 2.68 -3 2 C-2.01 1.34 -1.02 0.68 0 0 Z " fill="#E4D7EE" transform="translate(422,225)"/>
<path d="M0 0 C0.99 0 1.98 0 3 0 C1.66666667 2.66666667 0.33333333 5.33333333 -1 8 C-1.99 7.34 -2.98 6.68 -4 6 C-2.1875 3 -2.1875 3 0 0 Z " fill="#CEA9EE" transform="translate(437,119)"/>
<path d="M0 0 C0.66 0.33 1.32 0.66 2 1 C1.67 2.32 1.34 3.64 1 5 C0.34 5 -0.32 5 -1 5 C-1.33 5.99 -1.66 6.98 -2 8 C-2.66 8 -3.32 8 -4 8 C-2.87548273 5.0280615 -1.77706209 2.66559313 0 0 Z " fill="#CAB1E0" transform="translate(467,70)"/>
<path d="M0 0 C0.66 0.33 1.32 0.66 2 1 C1.21718695 2.33855056 0.42348123 3.67073644 -0.375 5 C-0.81585938 5.7425 -1.25671875 6.485 -1.7109375 7.25 C-2.34902344 8.11625 -2.34902344 8.11625 -3 9 C-3.66 9 -4.32 9 -5 9 C-3.7508258 5.54074837 -2.32472205 2.85306797 0 0 Z " fill="#B887E5" transform="translate(109,294)"/>
<path d="M0 0 C3.68754757 0.49831724 5.60490662 1.10067643 8 4 C7.01 4.495 7.01 4.495 6 5 C3.64018187 4.06421005 1.30368736 3.06652192 -1 2 C-0.67 1.34 -0.34 0.68 0 0 Z " fill="#C0A3DD" transform="translate(350,264)"/>
<path d="M0 0 C2.9719385 1.12451727 5.33440687 2.22293791 8 4 C7.67 4.99 7.34 5.98 7 7 C5.82780457 6.21654285 4.66236332 5.42297164 3.5 4.625 C2.8503125 4.18414062 2.200625 3.74328125 1.53125 3.2890625 C1.0259375 2.86367187 0.520625 2.43828125 0 2 C0 1.34 0 0.68 0 0 Z " fill="#DAC5ED" transform="translate(203,173)"/>
<path d="M0 0 C0.99 0.33 1.98 0.66 3 1 C0.69 3.31 -1.62 5.62 -4 8 C-4.33 7.01 -4.66 6.02 -5 5 C-3.35 3.35 -1.7 1.7 0 0 Z " fill="#D9C1F0" transform="translate(537,81)"/>
<path d="M0 0 C0.66 0 1.32 0 2 0 C1.67 1.65 1.34 3.3 1 5 C0.34 5 -0.32 5 -1 5 C-1.33 5.99 -1.66 6.98 -2 8 C-2.66 7.67 -3.32 7.34 -4 7 C-2.68 4.69 -1.36 2.38 0 0 Z " fill="#C1A2DB" transform="translate(437,491)"/>
<path d="M0 0 C-1.4638611 4.39158329 -3.97831338 4.87947433 -8 7 C-8 6.01 -8 5.02 -8 4 C-2.74285714 0 -2.74285714 0 0 0 Z " fill="#BBA7CD" transform="translate(391,174)"/>
<path d="M0 0 C3.71368887 1.23789629 4.77354181 2.85224877 7 6 C7 6.66 7 7.32 7 8 C3.64379729 6.61122646 1.92701272 5.08322035 0 2 C0 1.34 0 0.68 0 0 Z " fill="#D9C8E8" transform="translate(170,140)"/>
<path d="M0 0 C0.99 0.33 1.98 0.66 3 1 C0.36 2.98 -2.28 4.96 -5 7 C-5 6.01 -5 5.02 -5 4 C-2.6875 1.75 -2.6875 1.75 0 0 Z " fill="#DBCEE5" transform="translate(508,24)"/>
<path d="M0 0 C0.66 0 1.32 0 2 0 C1.125 6.75 1.125 6.75 0 9 C-0.66 9 -1.32 9 -2 9 C-1.34 6.03 -0.68 3.06 0 0 Z " fill="#CDBFDD" transform="translate(511,476)"/>
<path d="M0 0 C0.33 0.99 0.66 1.98 1 3 C-0.4375 5.1875 -0.4375 5.1875 -2 7 C-3.32 6.67 -4.64 6.34 -6 6 C-4.02 4.02 -2.04 2.04 0 0 Z " fill="#DAC4EE" transform="translate(410,156)"/>
<path d="M0 0 C2.9375 0.8125 2.9375 0.8125 6 2 C6.33 2.99 6.66 3.98 7 5 C7.99 5.33 8.98 5.66 10 6 C9.01 6.495 9.01 6.495 8 7 C6.66382648 6.02471263 5.3311249 5.04466681 4 4.0625 C3.2575 3.51722656 2.515 2.97195313 1.75 2.41015625 C1.1725 1.94480469 0.595 1.47945312 0 1 C0 0.67 0 0.34 0 0 Z " fill="#CBB6DD" transform="translate(165,595)"/>
<path d="M0 0 C0 3 0 3 -1.875 5.1875 C-4 7 -4 7 -6 7 C-4.60667426 3.63279613 -3.0210714 2.0140476 0 0 Z " fill="#C19FE3" transform="translate(440,585)"/>
<path d="M0 0 C2.50298434 2.93828597 3.46930939 5.17902761 4 9 C1.24338912 6.51015791 -0.60746455 4.79450934 -1 1 C-0.67 0.67 -0.34 0.34 0 0 Z " fill="#C4ABDA" transform="translate(98,514)"/>
<path d="M0 0 C1.45823212 -0.0270043 2.91660675 -0.04639787 4.375 -0.0625 C5.18710937 -0.07410156 5.99921875 -0.08570313 6.8359375 -0.09765625 C9 0 9 0 11 1 C11 1.66 11 2.32 11 3 C7.37 2.34 3.74 1.68 0 1 C0 0.67 0 0.34 0 0 Z " fill="#C4A0E4" transform="translate(33,3)"/>
<path d="M0 0 C-0.33 0.99 -0.66 1.98 -1 3 C-3.31 3.33 -5.62 3.66 -8 4 C-8 3.34 -8 2.68 -8 2 C-2.25 0 -2.25 0 0 0 Z " fill="#CCAEE6" transform="translate(372,625)"/>
<path d="M0 0 C0.99 0.33 1.98 0.66 3 1 C1.35 2.98 -0.3 4.96 -2 7 C-2.33 6.01 -2.66 5.02 -3 4 C-1.5625 1.8125 -1.5625 1.8125 0 0 Z " fill="#AA98B9" transform="translate(170,315)"/>
<path d="M0 0 C0.33 0.99 0.66 1.98 1 3 C-0.65 3.33 -2.3 3.66 -4 4 C-4 4.66 -4 5.32 -4 6 C-4.99 5.67 -5.98 5.34 -7 5 C-4.69 3.35 -2.38 1.7 0 0 Z " fill="#D5B8EE" transform="translate(398,168)"/>
</svg>
