<?xml version="1.0" encoding="UTF-8"?>
<svg version="1.1" xmlns="http://www.w3.org/2000/svg" width="480" height="572">
<path d="M0 0 C15.79338848 -0.20940476 15.79338848 -0.20940476 22.6015625 1.13671875 C23.89650635 1.38188232 25.1914502 1.6270459 26.52563477 1.87963867 C27.52495529 2.07715225 27.52495529 2.07715225 28.54446411 2.27865601 C32.23255376 3.00339876 35.93067831 3.67299141 39.62890625 4.34375 C40.78074654 4.55326546 40.78074654 4.55326546 41.95585632 4.76701355 C66.68892334 9.20856326 91.72811586 11.85771395 116.7666626 13.82354736 C119.07830782 14.00618698 121.38950337 14.19389701 123.70068359 14.38232422 C190.95436476 19.82726711 258.62912556 20.94321568 326 17 C327.32828827 16.92362305 327.32828827 16.92362305 328.68341064 16.84570312 C364.96781314 14.74471663 401.17522245 11.24993368 437.125 5.875 C437.94671692 5.75289154 438.76843384 5.63078308 439.61505127 5.50497437 C448.0703247 4.23654421 456.36174511 2.85455191 464.61279297 0.55517578 C469.67761844 -0.27496788 474.86759359 0 480 0 C480 21.78 480 43.56 480 66 C470.99504064 68.25123984 470.99504064 68.25123984 467.51635742 68.80615234 C466.33348145 68.99696632 466.33348145 68.99696632 465.12670898 69.19163513 C464.29469971 69.32175491 463.46269043 69.45187469 462.60546875 69.5859375 C461.26524658 69.79882164 461.26524658 69.79882164 459.89794922 70.01600647 C456.99526748 70.47430239 454.09156581 70.92556231 451.1875 71.375 C450.19577789 71.52929474 449.20405579 71.68358948 448.18228149 71.84255981 C434.54503456 73.95554656 420.89929326 75.87689925 407.1875 77.4375 C406.46356049 77.52094666 405.73962097 77.60439331 404.9937439 77.69036865 C397.94125143 78.49491701 391.12806573 79 384 79 C384 215.29 384 351.58 384 492 C389.61 492.33 395.22 492.66 401 493 C404.08595465 493.3004303 407.13723307 493.61480923 410.20703125 494.015625 C411.35655273 494.1596022 411.35655273 494.1596022 412.52929688 494.30648804 C414.95802566 494.61376461 417.38531563 494.93076918 419.8125 495.25 C421.071194 495.41323761 421.071194 495.41323761 422.35531616 495.57977295 C433.54813314 497.03693577 444.69719139 498.65790332 455.8125 500.625 C456.91247314 500.81868164 458.01244629 501.01236328 459.14575195 501.21191406 C473.86162956 503.93081478 473.86162956 503.93081478 480 507 C480 528.45 480 549.9 480 572 C464.24869927 572 464.24869927 572 458.74609375 570.79296875 C457.54146484 570.53580078 456.33683594 570.27863281 455.09570312 570.01367188 C453.88849609 569.74103516 452.68128906 569.46839844 451.4375 569.1875 C450.22642578 568.92646484 449.01535156 568.66542969 447.76757812 568.39648438 C443.10904433 567.38592937 438.45784765 566.36005525 433.82983398 565.21704102 C424.68315052 562.97673005 415.5199869 561.71329339 406.1875 560.5625 C405.34541992 560.45705872 404.50333984 560.35161743 403.63574219 560.24298096 C368.50627763 555.85261867 333.35153717 552.89209329 298 551 C297.28553711 550.96132813 296.57107422 550.92265625 295.83496094 550.8828125 C223.70602798 547.03213294 150.60951071 550.88975063 79 560 C77.86981445 560.14373047 76.73962891 560.28746094 75.57519531 560.43554688 C64.76732444 561.85651505 54.09724234 563.72391414 43.4453125 566.03125 C42.6058609 566.21230286 41.7664093 566.39335571 40.90151978 566.57989502 C36.73464758 567.48207362 32.57352945 568.40333387 28.41845703 569.35839844 C19.19818557 571.43050684 10.50941797 572.86650377 1 572 C-0 571 -0 571 -0.12025452 568.48802185 C-0.11803391 567.37105423 -0.11581329 566.25408661 -0.11352539 565.10327148 C-0.11344986 563.84203964 -0.11337433 562.5808078 -0.11329651 561.28135681 C-0.1081891 559.89460206 -0.10297309 558.50784771 -0.09765625 557.12109375 C-0.09579201 555.71004791 -0.09436814 554.29900143 -0.09336853 552.88795471 C-0.08954379 549.16759465 -0.0797139 545.4472734 -0.06866455 541.72692871 C-0.05844948 537.93319219 -0.05387071 534.13944942 -0.04882812 530.34570312 C-0.03809158 522.89711769 -0.0210157 515.44856428 0 508 C5.63043364 505.61621223 10.99307778 503.5417638 17.04296875 502.47265625 C17.67771118 502.35858429 18.31245361 502.24451233 18.96643066 502.12698364 C21.03815758 501.75959565 23.11233975 501.40993121 25.1875 501.0625 C26.27075058 500.87598373 26.27075058 500.87598373 27.37588501 500.68569946 C39.77206377 498.55390693 52.21346664 496.7951733 64.6875 495.1875 C65.90160049 495.02992722 65.90160049 495.02992722 67.14022827 494.86917114 C69.49248093 494.56662531 71.84556393 494.27188893 74.19921875 493.98046875 C75.20088074 493.85274582 75.20088074 493.85274582 76.22277832 493.72244263 C83.48216285 492.84742558 90.6677388 492.48881741 98 492 C98 355.71 98 219.42 98 79 C95.03 79 92.06 79 89 79 C86.37412886 78.76597246 83.75224893 78.48244982 81.13671875 78.15234375 C80.40257248 78.06036713 79.66842621 77.9683905 78.91203308 77.87362671 C76.50288566 77.56867213 74.09516149 77.2539601 71.6875 76.9375 C70.43999969 76.77584854 70.43999969 76.77584854 69.16729736 76.6109314 C54.7029396 74.73024604 40.2830917 72.58175835 25.875 70.3125 C24.91226166 70.16247528 23.94952332 70.01245056 22.95761108 69.85787964 C20.2179883 69.42905712 17.47990827 68.9915657 14.7421875 68.55078125 C13.92928757 68.42383881 13.11638763 68.29689636 12.27885437 68.16610718 C8.30785947 67.51470819 4.62304085 66.84749637 1 65 C-0.37332694 62.25334611 -0.11964892 60.06375932 -0.11352539 56.98974609 C-0.11344986 55.72858978 -0.11337433 54.46743347 -0.11329651 53.1680603 C-0.10818949 51.78651897 -0.10297349 50.40497804 -0.09765625 49.0234375 C-0.09579144 47.6138209 -0.09436783 46.20420366 -0.09336853 44.79458618 C-0.08954833 41.08246068 -0.07972228 37.37037422 -0.06866455 33.65826416 C-0.05843975 29.87113981 -0.05386862 26.08400917 -0.04882812 22.296875 C-0.03809958 14.86456552 -0.02102911 7.43228823 0 0 Z M170 85 C170 217.33 170 349.66 170 486 C189.305 485.505 189.305 485.505 209 485 C242.99 485 276.98 485 312 485 C312 353 312 221 312 85 C299.2203279 84.98108233 299.2203279 84.98108233 286.453125 85.21875 C284.76432521 85.26440779 283.07552304 85.30997773 281.38671875 85.35546875 C278.84126494 85.42648445 276.29585454 85.4986653 273.75048828 85.57275391 C239.15562773 86.5673646 204.60212279 85.60705479 170 85 Z " fill="#9333E9" transform="translate(0,0)"/>
<path d="M0 0 C48.18 0 96.36 0 146 0 C146 133.32 146 266.64 146 404 C111.68 404 77.36 404 42 404 C21.21 404.495 21.21 404.495 0 405 C0 271.35 0 137.7 0 0 Z M2 2 C2 134.33 2 266.66 2 403 C21.305 402.505 21.305 402.505 41 402 C74.99 402 108.98 402 144 402 C144 270 144 138 144 2 C131.2203279 1.98108233 131.2203279 1.98108233 118.453125 2.21875 C116.76432521 2.26440779 115.07552304 2.30997773 113.38671875 2.35546875 C110.84126494 2.42648445 108.29585454 2.4986653 105.75048828 2.57275391 C71.15562773 3.5673646 36.60212279 2.60705479 2 2 Z " fill="#D0B5E4" transform="translate(168,83)"/>
<path d="M0 0 C1.134375 0.020625 2.26875 0.04125 3.4375 0.0625 C3.4375 0.7225 3.4375 1.3825 3.4375 2.0625 C-2.332529 3.58559944 -8.06322693 4.72669233 -13.95703125 5.6484375 C-14.8505127 5.79036026 -15.74399414 5.93228302 -16.66455078 6.07850647 C-19.56723252 6.53680239 -22.47093419 6.98806231 -25.375 7.4375 C-26.86258316 7.66894211 -26.86258316 7.66894211 -28.38021851 7.90505981 C-42.01746544 10.01804656 -55.66320674 11.93939925 -69.375 13.5 C-70.09893951 13.58344666 -70.82287903 13.66689331 -71.5687561 13.75286865 C-78.62124857 14.55741701 -85.43443427 15.0625 -92.5625 15.0625 C-92.5625 151.3525 -92.5625 287.6425 -92.5625 428.0625 C-86.9525 428.3925 -81.3425 428.7225 -75.5625 429.0625 C-72.47654463 429.36293037 -69.42526645 429.67730137 -66.35546875 430.078125 C-65.5888945 430.17415512 -64.82232025 430.27018524 -64.03251648 430.36912537 C-61.60402494 430.67641141 -59.17696418 430.99339101 -56.75 431.3125 C-55.91253235 431.42099274 -55.0750647 431.52948547 -54.21221924 431.64126587 C-42.91150696 433.11065065 -31.65886268 434.75929468 -20.4375 436.75 C-19.29563232 436.95206055 -18.15376465 437.15412109 -16.97729492 437.36230469 C-12.25632609 438.23565668 -7.99157343 439.16553452 -3.5625 441.0625 C-3.5625 441.3925 -3.5625 441.7225 -3.5625 442.0625 C-6.5325 442.0625 -9.5025 442.0625 -12.5625 442.0625 C-12.5625 441.4025 -12.5625 440.7425 -12.5625 440.0625 C-13.40772217 440.00425049 -13.40772217 440.00425049 -14.27001953 439.94482422 C-20.48732265 439.45082062 -26.63673804 438.662962 -32.8046875 437.7578125 C-33.65806702 437.6327533 -34.51144653 437.50769409 -35.39068604 437.37884521 C-38.93937467 436.8562803 -42.48750705 436.33020434 -46.03466797 435.79736328 C-57.59592286 434.06655808 -69.15780542 432.63982545 -80.78955078 431.46435547 C-82.13368967 431.32715279 -83.47781108 431.18977887 -84.82191467 431.05223083 C-88.06860964 430.72064533 -91.31546828 430.39076861 -94.5625 430.0625 C-94.58536397 377.08358145 -94.602997 324.1046634 -94.61356533 271.12574089 C-94.61481611 264.87817947 -94.61611043 258.63061805 -94.61743164 252.38305664 C-94.61769395 251.13922321 -94.61795626 249.89538977 -94.61822652 248.61386441 C-94.62258375 228.44544246 -94.63047159 208.27702334 -94.6396528 188.10860307 C-94.64898787 167.4305015 -94.6545553 146.75240143 -94.65658849 126.07429785 C-94.65796403 113.30376609 -94.66231625 100.53324235 -94.67041647 87.76271307 C-94.67568212 79.01826389 -94.67730471 70.27381888 -94.67600138 61.52936823 C-94.67535771 56.47619893 -94.67637869 51.42304369 -94.68170547 46.36987686 C-94.68653838 41.75177828 -94.68683937 37.13370333 -94.68339889 32.51560371 C-94.68297309 30.83726545 -94.68426974 29.15892578 -94.68738318 27.48059035 C-94.69134545 25.21448856 -94.68926448 22.94847419 -94.68554783 20.682374 C-94.68592755 19.41904446 -94.68630727 18.15571492 -94.6866985 16.85410267 C-94.5625 14.0625 -94.5625 14.0625 -93.5625 13.0625 C-92.17244666 12.82499972 -90.77220643 12.64665633 -89.37036133 12.4934082 C-88.4707518 12.39250885 -87.57114227 12.2916095 -86.64427185 12.18765259 C-85.15940025 12.02708878 -85.15940025 12.02708878 -83.64453125 11.86328125 C-81.5173711 11.62433578 -79.39025712 11.38497903 -77.26318359 11.14526367 C-76.13837585 11.01977142 -75.01356812 10.89427917 -73.85467529 10.76498413 C-55.99466942 8.76332642 -38.18588635 6.58468231 -20.4375 3.75 C-19.21602768 3.55695786 -19.21602768 3.55695786 -17.96987915 3.36001587 C-12.00153175 2.41136252 -5.64350806 0.09900891 0 0 Z " fill="#EBEAEB" transform="translate(476.5625,63.9375)"/>
<path d="M0 0 C7.2788445 0.61153508 14.51105382 1.4022427 21.75 2.375 C22.72936523 2.50438965 23.70873047 2.6337793 24.71777344 2.76708984 C28.8526528 3.31344225 32.98683977 3.86495424 37.12109375 4.41601562 C40.16382585 4.82081794 43.20690206 5.2229586 46.25 5.625 C47.16491211 5.74794434 48.07982422 5.87088867 49.02246094 5.99755859 C55.34996041 6.83315734 61.63100367 7.42100033 68 8 C68 145.61 68 283.22 68 425 C51.5 426.98 35 428.96 18 431 C-1.95750168 433.90795878 -1.95750168 433.90795878 -21.6796875 438.234375 C-24.8988272 438.97667074 -25.98886221 438.92032051 -29 438 C-24.4028209 435.89320266 -20.25941957 434.46636959 -15.25 433.5703125 C-14.29151909 433.39708214 -14.29151909 433.39708214 -13.31367493 433.22035217 C-11.21080154 432.84479692 -9.10579052 432.48381392 -7 432.125 C-5.90551041 431.9347374 -5.90551041 431.9347374 -4.78890991 431.7406311 C7.66218543 429.58312249 20.15502602 427.79964014 32.6875 426.1875 C33.90119263 426.03006317 33.90119263 426.03006317 35.1394043 425.8694458 C37.49193554 425.56684575 39.84529369 425.27201144 42.19921875 424.98046875 C42.86700851 424.89531509 43.53479828 424.81016144 44.2228241 424.72242737 C51.48220006 423.84744613 58.66774551 423.48881697 66 423 C66 286.71 66 150.42 66 10 C63.03 10 60.06 10 57 10 C54.0560376 9.71940853 51.15071868 9.40187943 48.22265625 9.01171875 C47.41243515 8.90785355 46.60221405 8.80398834 45.7674408 8.69697571 C44.06034706 8.47688828 42.35360637 8.25404645 40.6472168 8.02856445 C38.10092846 7.6925708 35.55356717 7.36605013 33.00585938 7.04101562 C21.95760722 5.61420544 10.97508952 3.90752179 0 2 C0 1.34 0 0.68 0 0 Z " fill="#D5B9EC" transform="translate(32,69)"/>
<path d="M0 0 C7.05070178 0.4327423 14.04563724 1.08102447 21.04296875 2.05078125 C21.76063919 2.15000381 22.47830963 2.24922638 23.21772766 2.35145569 C24.74104874 2.56229251 26.26436924 2.77313349 27.78768921 2.98397827 C58.76391056 7.22446332 89.98233428 9.41964417 121.1875 11.1875 C123.08375122 11.295177 123.08375122 11.295177 125.01831055 11.4050293 C150.31287678 12.72632718 175.61133746 13.2067348 200.9375 13.1875 C201.64341278 13.18738041 202.34932556 13.18726082 203.07662964 13.1871376 C250.69433895 13.17700639 298.33156488 11.12331581 345.68212891 5.91430664 C351.83533478 5.24719411 357.81013678 4.86244748 364 5 C364 5.66 364 6.32 364 7 C338.59167051 9.66648201 313.1898406 12.17524725 287.6875 13.75 C286.29313721 13.8379332 286.29313721 13.8379332 284.87060547 13.92764282 C256.78176508 15.67696003 228.69722295 16.20956087 200.5625 16.1875 C199.79318775 16.18723312 199.0238755 16.18696625 198.23125076 16.18669128 C141.02193968 16.16191498 83.78063841 13.21496615 27 6 C25.86739746 5.85675293 24.73479492 5.71350586 23.56787109 5.56591797 C20.58497111 5.18189056 17.60449873 4.7845121 14.625 4.375 C13.81023193 4.26406006 12.99546387 4.15312012 12.15600586 4.03881836 C7.92033795 3.41935827 4.01388007 2.49086974 0 1 C0 0.67 0 0.34 0 0 Z " fill="#D0BAE4" transform="translate(43,6)"/>
<path d="M0 0 C0 0.66 0 1.32 0 2 C-8.76253692 1.51659119 -17.46319852 0.65999176 -26.18359375 -0.3046875 C-55.97498084 -3.59368394 -85.70195674 -6.37895538 -115.63995361 -7.88146973 C-117.78212474 -7.9890575 -119.92402495 -8.10090731 -122.06591797 -8.21386719 C-186.0904422 -11.45236179 -250.75994821 -8.53285879 -314.4513855 -1.609375 C-318.99853984 -1.13119019 -323.42745689 -0.91488702 -328 -1 C-327.67 -1.66 -327.34 -2.32 -327 -3 C-325.27734375 -3.43896484 -325.27734375 -3.43896484 -322.9375 -3.7109375 C-321.56489014 -3.87348022 -321.56489014 -3.87348022 -320.16455078 -4.03930664 C-319.12024902 -4.15008545 -318.07594727 -4.26086426 -317 -4.375 C-315.87190918 -4.4980249 -314.74381836 -4.6210498 -313.58154297 -4.74780273 C-309.3896836 -5.1881241 -305.19589949 -5.60031359 -301 -6 C-299.74370789 -6.1198526 -299.74370789 -6.1198526 -298.46203613 -6.24212646 C-198.63327362 -15.68080701 -99.36937384 -12.8086064 0 0 Z " fill="#D0B2EB" transform="translate(416,559)"/>
<path d="M0 0 C0.33 0 0.66 0 1 0 C1.33 136.62 1.66 273.24 2 414 C7.61 414.33 13.22 414.66 19 415 C22.08595537 415.30043037 25.13723355 415.61480137 28.20703125 416.015625 C28.9736055 416.11165512 29.74017975 416.20768524 30.52998352 416.30662537 C32.95847506 416.61391141 35.38553582 416.93089101 37.8125 417.25 C38.64996765 417.35849274 39.4874353 417.46698547 40.35028076 417.57876587 C51.65099304 419.04815065 62.90363732 420.69679468 74.125 422.6875 C75.26686768 422.88956055 76.40873535 423.09162109 77.58520508 423.29980469 C82.30617391 424.17315668 86.57092657 425.10303452 91 427 C91 427.33 91 427.66 91 428 C88.03 428 85.06 428 82 428 C82 427.34 82 426.68 82 426 C81.15477783 425.94175049 81.15477783 425.94175049 80.29248047 425.88232422 C74.07517735 425.38832062 67.92576196 424.600462 61.7578125 423.6953125 C60.90443298 423.5702533 60.05105347 423.44519409 59.17181396 423.31634521 C55.62312533 422.7937803 52.07499295 422.26770434 48.52783203 421.73486328 C32.37278866 419.31633404 16.28220485 417.68436602 0 416 C0 278.72 0 141.44 0 0 Z " fill="#C595F2" transform="translate(382,78)"/>
<path d="M0 0 C0 28.38 0 56.76 0 86 C-0.33 86 -0.66 86 -1 86 C-1 57.95 -1 29.9 -1 1 C-9.79486724 0.91392639 -9.79486724 0.91392639 -18 3 C-20.73309482 3.15823577 -23.44404045 3.25903945 -26.1796875 3.31640625 C-27.01169678 3.3373233 -27.84370605 3.35824036 -28.70092773 3.37979126 C-31.4255205 3.44629016 -34.15020205 3.50506108 -36.875 3.5625 C-38.26141693 3.59327133 -38.26141693 3.59327133 -39.67584229 3.62466431 C-46.11695029 3.76686986 -52.55825405 3.89059451 -59 4 C-60.15218018 4.01963806 -60.15218018 4.01963806 -61.32763672 4.03967285 C-65.84339031 4.11338187 -70.35868496 4.15961378 -74.875 4.1875 C-75.95765137 4.20047119 -77.04030273 4.21344238 -78.15576172 4.22680664 C-84.97293253 4.23489536 -91.33956119 3.4495283 -98 2 C-98 1.67 -98 1.34 -98 1 C-88.02784167 0.86814936 -78.05566638 0.7376699 -68.08346844 0.60884857 C-63.4509005 0.54896372 -58.81833921 0.48864056 -54.18579102 0.42724609 C-49.69888978 0.36779915 -45.21197387 0.30959438 -40.72504616 0.25218201 C-39.02980813 0.23028555 -37.33457542 0.20797259 -35.63934898 0.18519592 C-34.83351686 0.17439499 -34.02768475 0.16359406 -33.19743347 0.15246582 C-32.49951785 0.14298164 -31.80160223 0.13349747 -31.08253765 0.12372589 C-20.7176927 -0.00005442 -10.36876362 0 0 0 Z " fill="#C9A7E8" transform="translate(314,83)"/>
<path d="M0 0 C0.33 0 0.66 0 1 0 C1 6.93 1 13.86 1 21 C3.34279053 20.76966064 3.34279053 20.76966064 5.73291016 20.53466797 C28.24812931 18.49997921 50.99492167 18.8387463 73.58203125 18.86962891 C77.78779365 18.87533481 81.99349282 18.87193709 86.19925308 18.86617661 C105.15741907 18.8443225 124.06082557 19.04317391 143 20 C143 20.33 143 20.66 143 21 C130.40897656 21.13291103 117.81793043 21.26341567 105.22685337 21.39115143 C99.37526319 21.45058463 93.52368253 21.51073499 87.67211914 21.57275391 C58.44685059 21.88190275 29.22694475 22.07250594 0 22 C0 14.74 0 7.48 0 0 Z " fill="#D1C2DD" transform="translate(169,465)"/>
<path d="M0 0 C1.134375 0.020625 2.26875 0.04125 3.4375 0.0625 C3.4375 0.7225 3.4375 1.3825 3.4375 2.0625 C-2.332529 3.58559944 -8.06322693 4.72669233 -13.95703125 5.6484375 C-14.8505127 5.79036026 -15.74399414 5.93228302 -16.66455078 6.07850647 C-19.56723252 6.53680239 -22.47093419 6.98806231 -25.375 7.4375 C-26.86258316 7.66894211 -26.86258316 7.66894211 -28.38021851 7.90505981 C-42.01746544 10.01804656 -55.66320674 11.93939925 -69.375 13.5 C-70.09893951 13.58344666 -70.82287903 13.66689331 -71.5687561 13.75286865 C-78.57612576 14.5522694 -85.50035141 15.28856109 -92.5625 15.0625 C-92.8925 14.4025 -93.2225 13.7425 -93.5625 13.0625 C-93.00795135 13.00065521 -92.45340271 12.93881042 -91.88204956 12.87509155 C-68.01486301 10.20630863 -44.15850176 7.53047054 -20.4375 3.75 C-19.62327576 3.62139587 -18.80905151 3.49279175 -17.97015381 3.36029053 C-12.00171372 2.41155841 -5.64362592 0.09901098 0 0 Z " fill="#CBBCDB" transform="translate(476.5625,63.9375)"/>
<path d="M0 0 C0.495 0.99 0.495 0.99 1 2 C0.05756187 2.1115593 0.05756187 2.1115593 -0.90391541 2.22537231 C-43.23750154 7.23670024 -43.23750154 7.23670024 -85.23095703 14.46777344 C-88.4790742 15.09208092 -91.71918394 15.58568255 -95 16 C-92.44909507 12.83505933 -90.11527097 12.32922831 -86.19140625 11.5703125 C-84.98709961 11.33473633 -83.78279297 11.09916016 -82.54199219 10.85644531 C-81.21567731 10.6116393 -79.8891738 10.36785338 -78.5625 10.125 C-77.88771606 9.99782593 -77.21293213 9.87065186 -76.5177002 9.73962402 C-22.7319871 -0.38707718 -22.7319871 -0.38707718 0 0 Z " fill="#C6BDD0" transform="translate(98,492)"/>
<path d="M0 0 C0.66 0 1.32 0 2 0 C2 20.79 2 41.58 2 63 C9.5561572 64.5384065 9.5561572 64.5384065 17.1328125 65.8515625 C17.9578125 65.98046875 18.7828125 66.109375 19.6328125 66.2421875 C20.45523437 66.36851563 21.27765625 66.49484375 22.125 66.625 C22.98609375 66.7590625 23.8471875 66.893125 24.734375 67.03125 C26.82261871 67.35608791 28.91126651 67.67832646 31 68 C27.79254773 69.93341039 25.87175456 70.15864861 22.19140625 69.609375 C21.27939453 69.47660156 20.36738281 69.34382813 19.42773438 69.20703125 C18.00944336 68.98080078 18.00944336 68.98080078 16.5625 68.75 C15.62083984 68.61464844 14.67917969 68.47929688 13.70898438 68.33984375 C4.71023346 66.98082279 4.71023346 66.98082279 1 65 C-0.37332694 62.25334611 -0.11964892 60.06375932 -0.11352539 56.98974609 C-0.11344986 55.72858978 -0.11337433 54.46743347 -0.11329651 53.1680603 C-0.10818949 51.78651897 -0.10297349 50.40497804 -0.09765625 49.0234375 C-0.09579144 47.6138209 -0.09436783 46.20420366 -0.09336853 44.79458618 C-0.08954833 41.08246068 -0.07972228 37.37037422 -0.06866455 33.65826416 C-0.05843975 29.87113981 -0.05386862 26.08400917 -0.04882812 22.296875 C-0.03809958 14.86456552 -0.02102911 7.43228823 0 0 Z " fill="#B681E6" transform="translate(0,0)"/>
<path d="M0 0 C12.02304184 0.54916393 23.8815736 1.68126407 35.8125 3.25 C36.64996765 3.35849274 37.4874353 3.46698547 38.35028076 3.57876587 C49.65099304 5.04815065 60.90363732 6.69679468 72.125 8.6875 C73.26686768 8.88956055 74.40873535 9.09162109 75.58520508 9.29980469 C80.30617391 10.17315668 84.57092657 11.10303452 89 13 C89 13.33 89 13.66 89 14 C86.03 14 83.06 14 80 14 C80 13.34 80 12.68 80 12 C79.43724365 11.96116699 78.8744873 11.92233398 78.29467773 11.88232422 C69.40829506 11.1757721 60.6274608 9.833828 51.81390381 8.53082275 C34.24166353 5.93897676 16.68619745 3.67381556 -1 2 C-0.67 1.34 -0.34 0.68 0 0 Z " fill="#C7BBD2" transform="translate(384,492)"/>
<path d="M0 0 C1.13317657 -0.0033284 2.26635315 -0.0066568 3.43386841 -0.01008606 C5.83953447 -0.01514565 8.24520753 -0.01749468 10.65087891 -0.01733398 C14.24524402 -0.0194863 17.83928432 -0.03755623 21.43359375 -0.05664062 C36.53569055 -0.09217956 51.4217553 0.62338725 66.4453125 2.16796875 C66.4453125 2.49796875 66.4453125 2.82796875 66.4453125 3.16796875 C30.4753125 3.16796875 -5.4946875 3.16796875 -42.5546875 3.16796875 C-42.5546875 2.83796875 -42.5546875 2.50796875 -42.5546875 2.16796875 C-41.46583252 2.13038452 -41.46583252 2.13038452 -40.35498047 2.09204102 C-37.04639304 1.97555634 -33.73805374 1.85306861 -30.4296875 1.73046875 C-29.28757813 1.69115234 -28.14546875 1.65183594 -26.96875 1.61132812 C-25.30585938 1.54848633 -25.30585938 1.54848633 -23.609375 1.484375 C-22.59343262 1.44771729 -21.57749023 1.41105957 -20.53076172 1.37329102 C-17.59328228 1.23056361 -17.59328228 1.23056361 -14.8984375 0.65869141 C-9.93665163 -0.06949125 -5.00851468 0.00518509 0 0 Z " fill="#D4C2E4" transform="translate(227.5546875,546.83203125)"/>
<path d="M0 0 C0.66 0 1.32 0 2 0 C2 20.79 2 41.58 2 63 C7.94 62.34 13.88 61.68 20 61 C20 60.34 20 59.68 20 59 C22.64 59 25.28 59 28 59 C28 59.66 28 60.32 28 61 C18.94356474 63.52737728 10.41547237 64.70752104 1 64 C0 63 0 63 -0.12025452 60.48802185 C-0.11803391 59.37105423 -0.11581329 58.25408661 -0.11352539 57.10327148 C-0.11344986 55.84203964 -0.11337433 54.5808078 -0.11329651 53.28135681 C-0.1081891 51.89460206 -0.10297309 50.50784771 -0.09765625 49.12109375 C-0.09579201 47.71004791 -0.09436814 46.29900143 -0.09336853 44.88795471 C-0.08954379 41.16759465 -0.0797139 37.4472734 -0.06866455 33.72692871 C-0.05844948 29.93319219 -0.05387071 26.13944942 -0.04882812 22.34570312 C-0.03809158 14.89711769 -0.0210157 7.44856428 0 0 Z " fill="#B27CE3" transform="translate(0,508)"/>
<path d="M0 0 C1.134375 0.020625 2.26875 0.04125 3.4375 0.0625 C3.4375 0.7225 3.4375 1.3825 3.4375 2.0625 C-3.62621305 4.01299625 -10.79828844 5.19058022 -18.02612305 6.34960938 C-20.12466398 6.68744591 -22.22147775 7.03484336 -24.31835938 7.3828125 C-25.67178081 7.60214448 -27.02529361 7.82091366 -28.37890625 8.0390625 C-29.59006104 8.23580566 -30.80121582 8.43254883 -32.04907227 8.63525391 C-35.59052626 9.0659081 -38.9987582 9.13721396 -42.5625 9.0625 C-42.5625 8.4025 -42.5625 7.7425 -42.5625 7.0625 C-41.416604 6.885979 -40.27070801 6.70945801 -39.09008789 6.52758789 C-34.85343808 5.87384388 -30.61763881 5.21472808 -26.38208008 4.55395508 C-24.54604612 4.26829921 -22.70978241 3.98411609 -20.87329102 3.70141602 C-18.23913286 3.29566897 -15.60583654 2.88469543 -12.97265625 2.47265625 C-12.14661392 2.34657486 -11.32057159 2.22049347 -10.46949768 2.09059143 C-6.6530157 1.48830812 -3.69803027 0.06487772 0 0 Z " fill="#C7BAD4" transform="translate(476.5625,63.9375)"/>
<path d="M0 0 C0 0.66 0 1.32 0 2 C6.6 2 13.2 2 20 2 C20 2.33 20 2.66 20 3 C0.95114608 3.40244058 -17.99790667 2.17406739 -37 1 C-37 0.67 -37 0.34 -37 0 C-24.56664001 -1.14309533 -12.44653437 -0.80060118 0 0 Z " fill="#D0B5E8" transform="translate(181,18)"/>
<path d="M0 0 C-4.47090212 2.43258416 -9.04626044 3.20736724 -14 4.1875 C-14.90234375 4.37763672 -15.8046875 4.56777344 -16.734375 4.76367188 C-18.04148437 5.02567383 -18.04148437 5.02567383 -19.375 5.29296875 C-20.16648437 5.4530542 -20.95796875 5.61313965 -21.7734375 5.77807617 C-24.12257254 6.01221693 -25.7645068 5.7110323 -28 5 C-28 4.34 -28 3.68 -28 3 C-18.56403855 0.98827218 -9.70835475 -0.49644996 0 0 Z " fill="#C7A4E8" transform="translate(57,562)"/>
<path d="M0 0 C6.82412037 -0.37582112 13.20837353 1.02036585 19.875 2.375 C21.02742188 2.59671875 22.17984375 2.8184375 23.3671875 3.046875 C24.4603125 3.26601563 25.5534375 3.48515625 26.6796875 3.7109375 C28.17604736 4.00943604 28.17604736 4.00943604 29.70263672 4.31396484 C30.4607666 4.54035645 31.21889648 4.76674805 32 5 C32.495 5.99 32.495 5.99 33 7 C30.03 7 27.06 7 24 7 C24 6.34 24 5.68 24 5 C23.34515625 4.95101563 22.6903125 4.90203125 22.015625 4.8515625 C7.49646931 3.66214014 7.49646931 3.66214014 1 2 C0.67 1.34 0.34 0.68 0 0 Z " fill="#C0B3CD" transform="translate(440,499)"/>
<path d="M0 0 C5.4275952 0.6313981 10.76263121 1.45645617 16.125 2.5 C20.74181033 3.38818637 25.35859765 4.24812174 30 5 C26.79254773 6.93341039 24.87175456 7.15864861 21.19140625 6.609375 C20.27939453 6.47660156 19.36738281 6.34382813 18.42773438 6.20703125 C17.48220703 6.05621094 16.53667969 5.90539062 15.5625 5.75 C14.62083984 5.61464844 13.67917969 5.47929688 12.70898438 5.33984375 C8.23505681 4.6641765 4.11255474 3.99079083 0 2 C0 1.34 0 0.68 0 0 Z " fill="#C8B8D8" transform="translate(1,63)"/>
<path d="M0 0 C0 0.33 0 0.66 0 1 C-3.51973999 1.50790159 -7.04094042 2.00488523 -10.5625 2.5 C-11.55314453 2.64308594 -12.54378906 2.78617188 -13.56445312 2.93359375 C-18.76467588 3.65920623 -23.74952418 4.17673411 -29 4 C-28.67 3.34 -28.34 2.68 -28 2 C-18.93991846 -0.65412877 -9.33566193 -0.21325116 0 0 Z " fill="#D1B2ED" transform="translate(87,558)"/>
<path d="M0 0 C1.134375 0.020625 2.26875 0.04125 3.4375 0.0625 C3.4375 0.7225 3.4375 1.3825 3.4375 2.0625 C-3.20498536 3.97860155 -9.67309329 4.62617091 -16.5625 5.0625 C-16.5625 4.4025 -16.5625 3.7425 -16.5625 3.0625 C-15.70785156 2.92972656 -14.85320312 2.79695313 -13.97265625 2.66015625 C-12.86792969 2.48355469 -11.76320313 2.30695313 -10.625 2.125 C-9.52285156 1.95097656 -8.42070312 1.77695313 -7.28515625 1.59765625 C-3.64387418 0.88193797 -4.02270007 0.07057369 0 0 Z " fill="#BEADCE" transform="translate(476.5625,63.9375)"/>
<path d="M0 0 C2.64 0 5.28 0 8 0 C8 0.66 8 1.32 8 2 C-5.6332574 5.44419134 -5.6332574 5.44419134 -12 5 C-8.17482487 2.60926555 -4.40334476 2.44033448 0 2 C0 1.34 0 0.68 0 0 Z " fill="#BAA8CB" transform="translate(20,567)"/>
<path d="M0 0 C0 0.66 0 1.32 0 2 C-5.20173095 2.86809439 -10.16978816 3.12515348 -15.4375 3.0625 C-16.16904297 3.05798828 -16.90058594 3.05347656 -17.65429688 3.04882812 C-19.43623419 3.03718148 -21.21812863 3.01925191 -23 3 C-23 2.67 -23 2.34 -23 2 C-7.25512528 -0.29612756 -7.25512528 -0.29612756 0 0 Z " fill="#BCB3C4" transform="translate(73,495)"/>
<path d="M0 0 C3.96 0 7.92 0 12 0 C6.43649902 2.78175049 1.1825669 4.93205216 -5 3 C-5 2.67 -5 2.34 -5 2 C-3.35 2 -1.7 2 0 2 C0 1.34 0 0.68 0 0 Z " fill="#E3C0F3" transform="translate(45,562)"/>
<path d="M0 0 C3.96 0 7.92 0 12 0 C12 0.66 12 1.32 12 2 C13.65 2 15.3 2 17 2 C17 2.66 17 3.32 17 4 C11.147205 3.48517081 5.6702363 2.54642808 0 1 C0 0.67 0 0.34 0 0 Z " fill="#E5D4F5" transform="translate(429,563)"/>
<path d="M0 0 C0 0.33 0 0.66 0 1 C-2.08047297 1.5321441 -4.16452293 2.05031786 -6.25 2.5625 C-7.41015625 2.85253906 -8.5703125 3.14257812 -9.765625 3.44140625 C-12.72090983 3.95179964 -14.24434101 4.02996165 -17 3 C-11.04275709 0.31340025 -6.57425813 -1.69052352 0 0 Z " fill="#E1CFE9" transform="translate(20,504)"/>
<path d="M0 0 C2.0374763 0.22858114 4.08040303 0.41024278 6.125 0.5625 C7.76855469 0.68818359 7.76855469 0.68818359 9.4453125 0.81640625 C10.28835937 0.87699219 11.13140625 0.93757813 12 1 C12 1.33 12 1.66 12 2 C3.59784035 2.11039334 -4.64736824 1.95458649 -13 1 C-13 0.67 -13 0.34 -13 0 C-11.20909747 -0.19466332 -9.41723495 -0.38051213 -7.625 -0.5625 C-6.12839844 -0.71912109 -6.12839844 -0.71912109 -4.6015625 -0.87890625 C-2 -1 -2 -1 0 0 Z " fill="#C59CEB" transform="translate(132,16)"/>
<path d="M0 0 C-4.14659373 1.19799449 -7.99369047 0.8896192 -12.25 0.5625 C-12.99507812 0.51029297 -13.74015625 0.45808594 -14.5078125 0.40429688 C-16.33894861 0.2751783 -18.16953813 0.13834886 -20 0 C-20 -0.33 -20 -0.66 -20 -1 C-17.41718164 -1.22224251 -14.83477813 -1.42823488 -12.25 -1.625 C-11.52039063 -1.68945312 -10.79078125 -1.75390625 -10.0390625 -1.8203125 C-6.14088264 -2.10381649 -3.29354678 -2.27081383 0 0 Z " fill="#C099E4" transform="translate(164,19)"/>
<path d="M0 0 C0.66 0.66 1.32 1.32 2 2 C1 3 1 3 -1.28515625 3.09765625 C-2.65994141 3.08025391 -2.65994141 3.08025391 -4.0625 3.0625 C-4.98160156 3.05347656 -5.90070313 3.04445313 -6.84765625 3.03515625 C-7.55792969 3.02355469 -8.26820313 3.01195313 -9 3 C-9 2.34 -9 1.68 -9 1 C-7.54364629 0.77825067 -6.08477044 0.57301302 -4.625 0.375 C-3.40683594 0.20097656 -3.40683594 0.20097656 -2.1640625 0.0234375 C-1.44992187 0.01570313 -0.73578125 0.00796875 0 0 Z " fill="#BFABD2" transform="translate(410,74)"/>
<path d="M0 0 C2.64 0 5.28 0 8 0 C8 0.66 8 1.32 8 2 C4.94736336 2.98120464 3.05263664 2.98120464 0 2 C0 1.34 0 0.68 0 0 Z " fill="#D8BCEF" transform="translate(448,566)"/>
</svg>
