<?xml version="1.0" encoding="UTF-8"?>
<svg version="1.1" xmlns="http://www.w3.org/2000/svg" width="543" height="576">
<path d="M0 0 C0.77951019 -0.00362549 1.55902039 -0.00725098 2.3621521 -0.01098633 C15.71719164 -0.00412748 27.16320678 1.68390073 39.3125 7.5625 C40.30515869 8.0275293 40.30515869 8.0275293 41.31787109 8.50195312 C54.00561102 14.60450661 65.38997329 23.89477885 73.3125 35.5625 C77.10630438 34.01719753 79.243645 31.67319066 82 28.6875 C92.72190823 17.59459149 105.92446354 9.07509882 120.3125 3.5625 C120.963396 3.28801025 121.61429199 3.01352051 122.28491211 2.73071289 C130.3917235 -0.25507641 138.81151671 0.07492624 147.33276367 0.11645508 C149.97720261 0.12492696 152.6194473 0.09619859 155.26367188 0.06445312 C169.16304795 0.00477189 181.69306216 1.78647579 194 8.75 C194.70858154 9.14018311 195.41716309 9.53036621 196.1472168 9.93237305 C212.86225969 19.35385417 225.94675651 31.88850611 235.3125 48.5625 C235.66828125 49.19172363 236.0240625 49.82094727 236.390625 50.46923828 C244.47797418 65.02866445 249.52543078 80.34060805 249.41015625 97.12109375 C249.40803383 98.30482323 249.40803383 98.30482323 249.40586853 99.51246643 C249.40031555 102.00835115 249.38777208 104.50414285 249.375 107 C249.36997891 108.70247265 249.36541707 110.40494673 249.36132812 112.10742188 C249.35036158 116.25914988 249.33312991 120.41080922 249.3125 124.5625 C250.47007812 124.21316406 251.62765625 123.86382812 252.8203125 123.50390625 C254.35931839 123.04408132 255.89838407 122.58445648 257.4375 122.125 C258.19804687 121.89490234 258.95859375 121.66480469 259.7421875 121.42773438 C282.2201144 114.74248887 305.37747199 118.64295701 325.9375 129.375 C354.98250504 145.9361172 375.32556977 174.54406468 384.3125 206.5625 C384.58054443 207.48877197 384.84858887 208.41504395 385.12475586 209.36938477 C388.32052086 222.50864465 387.69036626 235.92168833 387.57678223 249.35974121 C387.55769279 252.05330914 387.55363086 254.74680789 387.5500679 257.44043446 C387.54487815 260.695996 387.53035443 263.95150082 387.515625 267.20703125 C387.51137512 268.39891556 387.50712524 269.59079987 387.50274658 270.81880188 C387.41886288 280.70279053 386.86697327 289.96650392 383.9375 299.4375 C383.5499353 300.70001587 383.5499353 300.70001587 383.15454102 301.98803711 C376.50066821 322.9866717 367.56018934 342.99874154 357.74609375 362.68505859 C356.50511915 365.17588397 355.27932154 367.67310264 354.0625 370.17578125 C352.19577588 373.99788052 350.2779439 377.79024055 348.3125 381.5625 C347.9515625 382.25537109 347.590625 382.94824219 347.21875 383.66210938 C340.21305015 396.97530588 332.4032006 410.3137421 322.61328125 421.796875 C320.31384704 424.41277072 320.31384704 424.41277072 318.85546875 427.01953125 C316.79161306 430.42097442 314.24653293 433.26835964 311.625 436.25 C303.32901772 445.76848801 303.32901772 445.76848801 295.72265625 455.8359375 C295.25730469 456.40570313 294.79195313 456.97546875 294.3125 457.5625 C293.6525 457.5625 292.9925 457.5625 292.3125 457.5625 C292.09335937 458.10003906 291.87421875 458.63757813 291.6484375 459.19140625 C289.85444161 462.37548668 287.4362784 464.86641908 284.9375 467.5 C281.56834872 471.08084929 278.33382801 474.67486704 275.3125 478.5625 C276.64804435 482.54130922 278.29868304 484.90948513 281.3125 487.8125 C282.01375 488.49828125 282.715 489.1840625 283.4375 489.890625 C285.21617296 491.62328209 285.21617296 491.62328209 287.3125 492.5625 C287.3125 493.2225 287.3125 493.8825 287.3125 494.5625 C288.04855469 494.82675781 288.78460938 495.09101563 289.54296875 495.36328125 C292.30229963 496.5580832 294.25866177 497.91325079 296.625 499.75 C313.90790859 512.01117851 334.84497989 515.72276733 355.5012207 517.57519531 C356.61585693 517.67799805 357.73049316 517.78080078 358.87890625 517.88671875 C359.87865479 517.97010498 360.87840332 518.05349121 361.90844727 518.1394043 C364.3125 518.5625 364.3125 518.5625 366.3125 520.5625 C366.55300903 522.89102173 366.55300903 522.89102173 366.53955078 525.83837891 C366.53939972 526.9393692 366.53924866 528.0403595 366.53909302 529.17471313 C366.52877045 530.36744843 366.51844788 531.56018372 366.5078125 532.7890625 C366.50356766 534.61599136 366.50356766 534.61599136 366.49923706 536.47982788 C366.48801256 540.38248383 366.46290372 544.28491303 366.4375 548.1875 C366.42747314 550.82812169 366.41834678 553.46874697 366.41015625 556.109375 C366.38806581 562.5938278 366.35456592 569.0781477 366.3125 575.5625 C363.13824479 577.1496276 359.70131708 576.83053305 356.2109375 576.90625 C355.39027802 576.9242012 354.56961853 576.9421524 353.72409058 576.96064758 C334.68189637 577.30147479 318.21514967 576.73629913 300.3125 569.5625 C298.60900391 568.95535156 298.60900391 568.95535156 296.87109375 568.3359375 C293.92327801 567.22098134 291.14317356 565.94857917 288.3125 564.5625 C287.63477539 564.23975098 286.95705078 563.91700195 286.25878906 563.58447266 C265.66596526 553.69339661 245.80248137 539.31935067 232.3125 520.5625 C232.3125 519.9025 232.3125 519.2425 232.3125 518.5625 C228.66042801 519.86987837 225.90289948 521.43618658 222.86328125 523.8359375 C221.60499512 524.81699463 221.60499512 524.81699463 220.32128906 525.81787109 C219.43151367 526.51734863 218.54173828 527.21682617 217.625 527.9375 C203.45559484 538.89239019 188.74196975 548.55085584 173.21533203 557.46044922 C171.44333769 558.48672359 169.68771691 559.54112658 167.93359375 560.59765625 C162.48375814 563.87590986 157.15287341 566.64338376 151.17578125 568.8359375 C149.32859596 569.4124356 149.32859596 569.4124356 148.3125 570.5625 C146.31291636 570.60330783 144.31204746 570.60504356 142.3125 570.5625 C137.57228962 560.5822025 133.0214131 550.51825035 128.5 540.4375 C128.06501694 539.46896591 128.06501694 539.46896591 127.62124634 538.48086548 C126.78144373 536.61017901 125.94317867 534.73881189 125.10546875 532.8671875 C124.6158667 531.77390137 124.12626465 530.68061523 123.62182617 529.55419922 C120.03803991 521.36555165 120.03803991 521.36555165 120.3125 516.5625 C122.02179688 515.79679688 122.02179688 515.79679688 123.765625 515.015625 C151.12568034 502.54149783 179.38457203 485.45140426 200.3125 463.5625 C199.99796875 462.50675781 199.6834375 461.45101563 199.359375 460.36328125 C191.05363914 431.88833601 189.00381006 404.02102474 189.02514386 374.45457792 C189.02557043 370.76010849 189.01439994 367.06567 189.00468445 363.37121582 C188.98936059 356.99498582 188.98084893 350.61877761 188.97697449 344.24253082 C188.9711809 335.01309599 188.9525235 325.78371928 188.93053395 316.55431041 C188.89496575 301.55932846 188.86658422 286.5643432 188.84423828 271.56933594 C188.84290329 270.67525318 188.8415683 269.78117043 188.84019285 268.85999426 C188.82940939 261.60073974 188.81898129 254.34148471 188.8085928 247.08222961 C188.79947577 240.71855648 188.79022506 234.35488356 188.78076172 227.99121094 C188.77943098 227.09459823 188.77810023 226.19798552 188.77672917 225.27420273 C188.75428578 210.31433673 188.72409462 195.35449598 188.68836927 180.39465594 C188.66675645 171.18805681 188.65209833 161.98149692 188.64653051 152.77487382 C188.64227747 146.47409873 188.63102435 140.17336117 188.61430657 133.8726069 C188.60492465 130.24191831 188.59877885 126.61129988 188.60136986 122.98059845 C188.60412201 119.0396877 188.59150184 115.09890872 188.57751465 111.15802002 C188.58081362 110.01930679 188.5841126 108.88059355 188.58751154 107.70737386 C188.50357135 93.35889239 185.65328558 81.88146957 175.3125 71.5625 C168.66000524 65.04546328 161.23332524 60.54684214 151.75 60.25 C137.43978483 60.46013532 126.66022478 69.67436033 117.01293945 79.29492188 C109.09090548 87.59926826 102.04615414 98.58755162 102.07478428 110.35243511 C102.07265228 111.49115147 102.07052028 112.62986783 102.06832367 113.80309075 C102.08013173 115.66480651 102.08013173 115.66480651 102.09217834 117.56413269 C102.09345508 118.90360772 102.0938409 120.24308384 102.09341425 121.58255941 C102.09476247 125.25737922 102.10855596 128.93206302 102.1243459 132.60684526 C102.13916109 136.57205825 102.14231938 140.53728195 102.14677429 144.5025177 C102.15595568 151.37125652 102.17213163 158.23994997 102.19273567 165.10866356 C102.22226296 175.04292024 102.23789477 184.97716283 102.24954777 194.91145483 C102.26855776 211.03367542 102.2943094 227.15587647 102.32641602 243.27807617 C102.32833395 244.24285542 102.33025188 245.20763466 102.33222794 246.20164964 C102.35378653 256.97181902 102.3769651 267.74198395 102.4019165 278.512146 C102.41094866 282.42077632 102.41996506 286.32940669 102.42895508 290.23803711 C102.43117673 291.20255113 102.43339839 292.16706514 102.43568737 293.16080686 C102.47237114 309.22638806 102.49746709 325.29196406 102.51342481 341.35757905 C102.52377346 351.27104064 102.54422249 361.1843829 102.57754242 371.09779439 C102.59962888 377.8845592 102.61105411 384.67128745 102.61397774 391.45808741 C102.61603236 395.37746384 102.62310556 399.29667066 102.64319992 403.2159996 C102.66149055 406.80025967 102.66610693 410.38426133 102.65962213 413.96855978 C102.65980019 415.88678047 102.67488989 417.80498163 102.69041973 419.72313946 C102.68567999 420.85403258 102.68094024 421.9849257 102.67605686 423.15008831 C102.67828017 424.12993181 102.68050347 425.10977531 102.68279415 426.11931103 C102.3125 428.5625 102.3125 428.5625 100.94351667 430.3769663 C98.58303668 432.09272349 96.7922639 431.94359865 93.89477539 431.95068359 C92.78675064 431.96014008 91.67872589 431.96959656 90.53712463 431.9793396 C88.74177528 431.97023056 88.74177528 431.97023056 86.91015625 431.9609375 C85.06628578 431.96524277 85.06628578 431.96524277 83.18516541 431.96963501 C79.91667849 431.97220173 76.6486182 431.96011697 73.38018799 431.94335938 C70.06134683 431.93366136 66.74262972 431.95666203 63.42382812 431.97265625 C60.89843526 431.97067359 58.37304302 431.96682946 55.84765625 431.9609375 C54.65278091 431.96701019 53.45790558 431.97308289 52.2268219 431.9793396 C51.11564499 431.96988312 50.00446808 431.96042664 48.85961914 431.95068359 C47.88271622 431.94829681 46.90581329 431.94591003 45.89930725 431.94345093 C42.78277701 431.48448937 41.56774493 430.74588254 39.3125 428.5625 C38.81274599 426.14890313 38.81274599 426.14890313 38.81307125 423.22208023 C38.79867501 421.54974127 38.79867501 421.54974127 38.78398794 419.84361768 C38.79379472 418.6135936 38.80360149 417.38356951 38.81370544 416.11627197 C38.80562861 414.16207183 38.80562861 414.16207183 38.79738861 412.1683929 C38.78289691 408.54407728 38.79333265 404.9201897 38.80767167 401.29588914 C38.81876124 397.38966465 38.80680088 393.48350531 38.79748535 389.57728577 C38.78437476 382.80344949 38.78557361 376.02973654 38.79607964 369.25589752 C38.8110109 359.44568351 38.80110946 349.6356143 38.78456045 339.82540855 C38.75807468 323.88832187 38.74724122 307.95126763 38.74829102 292.01416016 C38.7483785 290.58262589 38.7483785 290.58262589 38.74846775 289.12217173 C38.74873355 285.25623874 38.74905081 281.39030575 38.74943101 277.52437277 C38.75039542 266.9080124 38.74907226 256.29165301 38.74633789 245.67529297 C38.746098 244.72573661 38.74585811 243.77618024 38.74561094 242.79784945 C38.74119631 226.93568207 38.72492735 211.0735447 38.7011171 195.21139503 C38.68707802 185.43407649 38.6841382 175.65687241 38.69573999 165.87955001 C38.7030921 159.16833841 38.69996187 152.45718421 38.68878155 145.74597809 C38.68273894 141.87983302 38.68153657 138.01384893 38.69365883 134.14771461 C38.7047216 130.59783999 38.70167079 127.04824879 38.68811537 123.4983854 C38.68449506 121.62768394 38.69549037 119.75697107 38.70726866 117.88630319 C38.60078185 100.42448869 34.73717074 83.45476588 22.3125 70.5625 C14.3058917 63.24798835 7.77949564 61.06687626 -3.08203125 61.25 C-13.1550606 62.12306863 -21.26499539 66.60929483 -27.93359375 74.078125 C-30.24212907 76.86549648 -32.4741707 79.69912985 -34.6875 82.5625 C-35.33074219 83.36429687 -35.97398438 84.16609375 -36.63671875 84.9921875 C-38.36554778 87.15978659 -40.06626367 89.31284868 -41.6875 91.5625 C-42.09614143 92.05981019 -42.50478286 92.55712037 -42.92580736 93.06950057 C-47.60100723 99.39389013 -47.38373643 105.39697557 -47.30654907 113.03915405 C-47.31071639 114.40582541 -47.31708539 115.77249151 -47.32545507 117.13914359 C-47.34208996 120.87996161 -47.3278102 124.62011262 -47.30839396 128.36089349 C-47.2929287 132.40039264 -47.3064238 136.43980737 -47.31648254 140.47930908 C-47.33008341 147.47356226 -47.32581097 154.46761942 -47.30965042 161.46186447 C-47.28656823 171.57646243 -47.29389698 181.69086424 -47.30918162 191.80546875 C-47.3334401 208.21945036 -47.33766291 224.63336911 -47.32714844 241.04736328 C-47.32652461 242.02921752 -47.32590079 243.01107176 -47.32525806 244.02267917 C-47.32398671 246.01000979 -47.32271247 247.99734041 -47.32143535 249.98467103 C-47.32048678 251.46275692 -47.32048678 251.46275692 -47.31951904 252.97070312 C-47.3188809 253.95702426 -47.31824275 254.9433454 -47.31758527 255.95955505 C-47.31077285 266.92632411 -47.30878821 277.89309228 -47.30859375 288.85986328 C-47.30857092 289.84233923 -47.30854809 290.82481517 -47.30852456 291.83706312 C-47.30859371 308.19765738 -47.3206005 324.55822774 -47.33955324 340.91881049 C-47.35053445 351.01358077 -47.349659 361.10822624 -47.3336135 371.20299049 C-47.32317565 378.11122064 -47.32289822 385.01940044 -47.33073165 391.92763393 C-47.33483328 395.91777198 -47.3338209 399.90775018 -47.31979942 403.89786911 C-47.30703636 407.5455451 -47.30782479 411.1929497 -47.31967191 414.84062643 C-47.3223464 416.79526533 -47.31007596 418.7499067 -47.29739344 420.70450628 C-47.30695301 422.42735985 -47.30695301 422.42735985 -47.3167057 424.18501854 C-47.31589394 425.18238419 -47.31508218 426.17974984 -47.31424582 427.20733869 C-47.4374197 427.98454192 -47.56059358 428.76174515 -47.6875 429.5625 C-51.02289682 431.78609788 -52.10535016 431.81838668 -55.99755859 431.8371582 C-57.0823349 431.84669022 -58.16711121 431.85622223 -59.28475952 431.86604309 C-61.04259262 431.86467598 -61.04259262 431.86467598 -62.8359375 431.86328125 C-64.04061676 431.86756638 -65.24529602 431.8718515 -66.48648071 431.87626648 C-69.03687918 431.88201411 -71.58729405 431.88250688 -74.13769531 431.87817383 C-78.03999855 431.8750182 -81.94154079 431.89845391 -85.84375 431.92382812 C-88.32031154 431.92610149 -90.79687513 431.92680444 -93.2734375 431.92578125 C-94.44127777 431.934991 -95.60911804 431.94420074 -96.81234741 431.95368958 C-98.44896835 431.94434639 -98.44896835 431.94434639 -100.11865234 431.93481445 C-101.55402847 431.93575859 -101.55402847 431.93575859 -103.0184021 431.9367218 C-106.30593921 431.47579151 -108.0544472 430.58342936 -110.6875 428.5625 C-111.31030184 426.0824815 -111.31030184 426.0824815 -111.30718327 423.0603199 C-111.31815511 421.9093599 -111.32912695 420.75839991 -111.34043127 419.57256234 C-111.32032867 417.66711563 -111.32032867 417.66711563 -111.29981995 415.72317505 C-111.30326509 414.36453484 -111.30891536 413.00589872 -111.31658787 411.64727581 C-111.33137774 407.90498738 -111.31499306 404.1633747 -111.29373491 400.42114115 C-111.27628525 396.38816833 -111.28766298 392.35526883 -111.29574585 388.32228088 C-111.30596592 381.32904861 -111.2983214 374.33601831 -111.27908516 367.34280777 C-111.25161109 357.21759875 -111.25542325 347.09258554 -111.26767098 336.96735536 C-111.28708257 320.52216176 -111.28711259 304.07703254 -111.2722168 287.63183594 C-111.27133066 286.64704899 -111.27044453 285.66226204 -111.26953154 284.64763306 C-111.26589807 280.65818354 -111.26218071 276.66873411 -111.25836498 272.67928476 C-111.24791849 261.71848279 -111.23966257 250.75768001 -111.2331543 239.796875 C-111.23227194 238.32603931 -111.23227194 238.32603931 -111.23137177 236.82548977 C-111.22208054 220.45482729 -111.22858832 204.08420329 -111.24546474 187.71354759 C-111.25504109 177.61987574 -111.24993447 167.52641108 -111.22569703 157.43276267 C-111.2099042 150.5075755 -111.20814056 143.58247632 -111.21723027 136.65727742 C-111.22194223 132.66576314 -111.22013225 128.67453314 -111.20059395 124.68305779 C-111.18276165 121.02097076 -111.18367119 117.35936048 -111.19877302 113.69726561 C-111.20201341 111.76144373 -111.1856394 109.82561876 -111.16831213 107.88987172 C-111.27303994 93.1520489 -116.06689494 79.42580078 -125.74609375 68.25390625 C-131.42023171 63.31044199 -137.30127693 62.93734326 -144.5 62.4375 C-146.40263196 62.29280351 -148.30499895 62.14456395 -150.20703125 61.9921875 C-151.04339111 61.93272949 -151.87975098 61.87327148 -152.74145508 61.81201172 C-154.6875 61.5625 -154.6875 61.5625 -155.6875 60.5625 C-155.78618509 58.91058604 -155.81548837 57.25446783 -155.81689453 55.59960938 C-155.82004669 54.54181274 -155.82319885 53.48401611 -155.82644653 52.39416504 C-155.82341019 50.66764709 -155.82341019 50.66764709 -155.8203125 48.90625 C-155.82126923 47.73364624 -155.82222595 46.56104248 -155.82321167 45.35290527 C-155.8238937 42.86791938 -155.82203784 40.38293171 -155.81787109 37.89794922 C-155.81252319 34.07906113 -155.81781536 30.26029065 -155.82421875 26.44140625 C-155.82355797 24.03385391 -155.82227682 21.62630163 -155.8203125 19.21875 C-155.82233673 18.06773804 -155.82436096 16.91672607 -155.82644653 15.73083496 C-155.82329437 14.67303833 -155.82014221 13.6152417 -155.81689453 12.52539062 C-155.81609894 11.58908813 -155.81530334 10.65278564 -155.81448364 9.68811035 C-155.6875 7.5625 -155.6875 7.5625 -154.6875 6.5625 C-150.38441909 6.29173679 -146.07475012 6.29084978 -141.76416016 6.26733398 C-140.32135079 6.25597454 -138.8785778 6.23578761 -137.43603516 6.20581055 C-122.78246808 5.90144892 -110.0507309 8.56632972 -97 15.625 C-95.66509521 16.33257446 -95.66509521 16.33257446 -94.30322266 17.05444336 C-86.63193644 21.27832925 -80.80277899 26.34858748 -74.6875 32.5625 C-73.2025 33.5525 -73.2025 33.5525 -71.6875 34.5625 C-70.9140625 33.77746094 -70.140625 32.99242187 -69.34375 32.18359375 C-58.16356217 20.88098196 -47.90394219 11.99710532 -33.0625 5.8125 C-32.35810791 5.51859375 -31.65371582 5.2246875 -30.92797852 4.921875 C-20.64111828 0.77303745 -10.9888634 0.04501563 0 0 Z M259.83984375 189.23828125 C249.42013463 204.11902791 250.00426472 225.72145938 250.06958008 243.16113281 C250.06850382 244.85828728 250.06656007 246.55544138 250.06382751 248.25259399 C250.05903228 252.81019539 250.06656666 257.36769696 250.07678056 261.92528629 C250.08564704 266.72157212 250.08380198 271.5178556 250.0834198 276.31414795 C250.08435244 284.35983931 250.0929836 292.40549265 250.10668945 300.45117188 C250.12243204 309.72618858 250.12768656 319.0011638 250.1269539 328.2761929 C250.12627635 338.19682537 250.13322618 348.11744205 250.1424005 358.03806973 C250.14452203 360.87827808 250.14524033 363.71848386 250.14563942 366.55869293 C250.14665057 371.0338274 250.15280962 375.50892762 250.16280556 379.98405075 C250.16570334 381.61737991 250.16696151 383.25071302 250.16637802 384.88404465 C250.16439491 393.8213365 250.37338836 402.66342358 251.3125 411.5625 C254.25863572 411.89454771 254.25863572 411.89454771 255.74780273 410.28759766 C256.24223877 409.68995605 256.7366748 409.09231445 257.24609375 408.4765625 C258.08660278 407.46541382 258.08660278 407.46541382 258.9440918 406.43383789 C259.5400415 405.69254639 260.13599121 404.95125488 260.75 404.1875 C261.37108643 403.42236084 261.99217285 402.65722168 262.63208008 401.86889648 C269.08729433 393.79061931 274.78649679 385.29316715 280.3125 376.5625 C280.77221191 375.84513672 281.23192383 375.12777344 281.70556641 374.38867188 C289.19962462 362.65976629 295.66179168 350.47985311 302.00244141 338.09716797 C304.16464099 333.91379933 306.430515 329.78975829 308.71484375 325.671875 C313.26437613 316.81752837 316.77276851 307.78907534 319.79736328 298.31201172 C320.43338323 296.32535901 321.0851207 294.34435497 321.73828125 292.36328125 C330.78804881 264.50975339 334.20923891 232.90931451 320.96875 205.8125 C314.14045735 193.67331307 304.10215638 183.83282047 290.72265625 179.36328125 C278.73075654 176.54731397 268.01623271 179.9341145 259.83984375 189.23828125 Z " fill="#9334E9" transform="translate(155.6875,-0.5625)"/>
<path d="M0 0 C8.94178635 3.9437573 13.42834684 13.40197781 17 22 C20.51706706 32.40066523 21.14610043 42.12665935 21.12025452 53.02818298 C21.12110894 54.34498426 21.12196337 55.66178555 21.12284368 57.0184899 C21.12507457 60.66259071 21.12108663 64.306662 21.11606562 67.95075905 C21.1117411 71.88455142 21.11320897 75.81834216 21.1139679 79.75213623 C21.11449186 86.56409537 21.11135835 93.37604491 21.10573006 100.18800163 C21.09759782 110.03690804 21.09499807 119.88580982 21.09374207 129.73471922 C21.09155426 145.7145062 21.08490152 161.69428806 21.07543945 177.67407227 C21.06625833 193.19555638 21.05918092 208.71703911 21.05493164 224.23852539 C21.05453756 225.67400516 21.05453756 225.67400516 21.05413551 227.13848453 C21.05283046 231.93947695 21.05156675 236.74046939 21.05032361 241.54146183 C21.03995944 281.3609783 21.02207298 321.18048842 21 361 C40.14 361 59.28 361 79 361 C78.98889694 356.96755066 78.97779388 352.93510132 78.96635437 348.78045654 C78.86681021 311.78224311 78.79219085 274.78404642 78.74467335 237.78572838 C78.73841999 232.93430043 78.73194837 228.08287279 78.7253418 223.23144531 C78.72403024 222.26563385 78.72271869 221.29982239 78.7213674 220.30474392 C78.69962466 204.67674079 78.66020936 189.04882984 78.61423602 173.42088136 C78.5674399 157.37917313 78.53969793 141.3375131 78.52955753 125.29573941 C78.52270491 115.40107093 78.50107986 105.50666302 78.46041767 95.61207476 C78.43394034 88.82235576 78.42601029 82.03277102 78.43249311 75.24300417 C78.43568827 71.32852387 78.43087131 67.41449817 78.40397263 63.50009918 C78.37947977 59.90941072 78.37851452 56.31947866 78.39550553 52.72875395 C78.39858873 50.82881116 78.37716745 48.92887608 78.35459346 47.02906489 C78.42631317 38.72611427 80.28618541 32.41590005 84 25 C84.66 25 85.32 25 86 25 C84.66666667 29 83.33333333 33 82 37 C81.91091294 38.80513779 81.88163827 40.61346064 81.88533211 42.42079163 C81.88519116 43.55353484 81.8850502 44.68627806 81.88490498 45.85334682 C81.88986418 47.10322919 81.89482338 48.35311155 81.89993286 49.64086914 C81.90164424 50.97775506 81.90290687 52.31464162 81.90375793 53.65152836 C81.90735311 57.3330861 81.91716275 61.01460556 81.92791152 64.6961484 C81.93837765 68.66346471 81.94302233 72.63078794 81.94824219 76.59811401 C81.95796169 83.47507459 81.97100587 90.35202234 81.98596573 97.22897339 C82.00930738 108.0928281 82.02233045 118.95668371 82.03366089 129.82055664 C82.03766246 133.53526312 82.04173112 137.24996952 82.04582024 140.9646759 C82.04683946 141.89303251 82.04785869 142.82138912 82.04890881 143.77787775 C82.06065481 154.34834013 82.07453328 164.91879933 82.08935547 175.48925781 C82.0907079 176.45573356 82.09206033 177.42220931 82.09345375 178.41797221 C82.11564881 194.0906277 82.14551766 209.76326183 82.17732288 225.43590033 C82.20967463 241.51495039 82.23056841 257.59398923 82.24159515 273.67306805 C82.24883191 283.59783815 82.26557711 293.5225026 82.29439591 303.44723392 C82.31334662 310.24384392 82.32148232 317.04041159 82.32099093 323.83704782 C82.32105416 327.76247487 82.32610529 331.68773582 82.34415817 335.61312485 C82.3605722 339.20306266 82.36329995 342.79273482 82.35490941 346.38269794 C82.35405881 348.30403831 82.36810067 350.22536719 82.38258183 352.14665318 C82.37722538 353.27939639 82.37186894 354.41213961 82.36635017 355.57920837 C82.36803141 356.56067809 82.36971264 357.54214781 82.37144482 358.55335903 C82 361 82 361 80.63084209 362.81499004 C78.27043033 364.53012326 76.479351 364.38109966 73.58227539 364.38818359 C72.47425064 364.39764008 71.36622589 364.40709656 70.22462463 364.4168396 C68.42927528 364.40773056 68.42927528 364.40773056 66.59765625 364.3984375 C64.75378578 364.40274277 64.75378578 364.40274277 62.87266541 364.40713501 C59.60417849 364.40970173 56.3361182 364.39761697 53.06768799 364.38085938 C49.74884683 364.37116136 46.43012972 364.39416203 43.11132812 364.41015625 C40.58593526 364.40817359 38.06054302 364.40432946 35.53515625 364.3984375 C34.34028091 364.40451019 33.14540558 364.41058289 31.9143219 364.4168396 C30.80314499 364.40738312 29.69196808 364.39792664 28.54711914 364.38818359 C27.57021622 364.38579681 26.59331329 364.38341003 25.58680725 364.38095093 C22.47027701 363.92198937 21.25524493 363.18338254 19 361 C18.50024599 358.58640313 18.50024599 358.58640313 18.50057125 355.65958023 C18.49097376 354.54468759 18.48137627 353.42979495 18.47148794 352.28111768 C18.48129472 351.0510936 18.49110149 349.82106951 18.50120544 348.55377197 C18.49582089 347.25097188 18.49043634 345.94817178 18.48488861 344.6058929 C18.47039691 340.98157728 18.48083265 337.3576897 18.49517167 333.73338914 C18.50626124 329.82716465 18.49430088 325.92100531 18.48498535 322.01478577 C18.47187476 315.24094949 18.47307361 308.46723654 18.48357964 301.69339752 C18.4985109 291.88318351 18.48860946 282.0731143 18.47206045 272.26290855 C18.44557468 256.32582187 18.43474122 240.38876763 18.43579102 224.45166016 C18.43584934 223.49730398 18.43590766 222.54294779 18.43596775 221.55967173 C18.43623355 217.69373874 18.43655081 213.82780575 18.43693101 209.96187277 C18.43789542 199.3455124 18.43657226 188.72915301 18.43383789 178.11279297 C18.433598 177.16323661 18.43335811 176.21368024 18.43311094 175.23534945 C18.42869631 159.37318207 18.41242735 143.5110447 18.3886171 127.64889503 C18.37457802 117.87157649 18.3716382 108.09437241 18.38323999 98.31705001 C18.3905921 91.60583841 18.38746187 84.89468421 18.37628155 78.18347809 C18.37023894 74.31733302 18.36903657 70.45134893 18.38115883 66.58521461 C18.3922216 63.03533999 18.38917079 59.48574879 18.37561537 55.9358854 C18.37199506 54.06518394 18.38299037 52.19447107 18.39476866 50.32380319 C18.2844579 32.23493334 13.89988759 16.84379859 2 3 C1.34 2.01 0.68 1.02 0 0 Z " fill="#D3CDD9" transform="translate(176,67)"/>
<path d="M0 0 C-1.68635229 1.12423486 -3.37776673 2.24123306 -5.0859375 3.33203125 C-5.84132813 3.82058594 -6.59671875 4.30914062 -7.375 4.8125 C-8.12523437 5.29332031 -8.87546875 5.77414063 -9.6484375 6.26953125 C-12.39093978 8.28768492 -14.64129245 10.54576846 -17 13 C-18.16789062 14.18916016 -18.16789062 14.18916016 -19.359375 15.40234375 C-21.51364252 17.68685294 -23.5756167 20.02854508 -25.61546302 22.41509962 C-26.84880332 23.82692288 -28.14278025 25.18524794 -29.44397163 26.53479385 C-39.01411022 38.31797604 -37.2383 53.113227 -37.08515644 67.49478722 C-37.05220227 71.53010739 -37.07178864 75.5652303 -37.08485413 79.60061646 C-37.1005066 86.57858959 -37.08384777 93.55587034 -37.04507065 100.53374481 C-36.98930598 110.62443228 -36.9864041 120.71460973 -36.99664988 130.80542114 C-37.01213628 147.1829011 -36.98983464 163.56009209 -36.94140625 179.9375 C-36.89452186 195.83398357 -36.85808596 211.73040739 -36.84082031 227.62695312 C-36.83974659 228.60785273 -36.83867286 229.58875234 -36.8375666 230.59937617 C-36.82625923 241.30155196 -36.81913596 252.00372437 -36.81700325 262.70590591 C-36.81671023 264.11521963 -36.81671023 264.11521963 -36.81641129 265.55300434 C-36.81568716 269.30787332 -36.81500819 273.06274219 -36.81486632 276.81761125 C-36.81434556 287.81736475 -36.80069723 298.81691762 -36.76352747 309.81661144 C-36.74055169 316.70514304 -36.72711894 323.59364572 -36.72128443 330.48221311 C-36.71741536 334.46025822 -36.70831196 338.43813006 -36.68613243 342.41611862 C-36.66587211 346.05242589 -36.65910603 349.6884912 -36.66332103 353.32485011 C-36.66187362 355.27326031 -36.64541482 357.22164118 -36.62854183 359.16997886 C-36.63244808 360.31484771 -36.63635433 361.45971656 -36.64037895 362.63927841 C-36.6373989 363.63339163 -36.63441885 364.62750484 -36.63134849 365.6517427 C-36.75300349 366.42666761 -36.87465849 367.20159252 -37 368 C-40.35156377 370.23437585 -41.42932347 370.24871937 -45.34179688 370.24291992 C-46.43302856 370.24599655 -47.52426025 370.24907318 -48.64855957 370.25224304 C-50.41580383 370.24146477 -50.41580383 370.24146477 -52.21875 370.23046875 C-53.42817261 370.23001053 -54.63759521 370.22955231 -55.88366699 370.2290802 C-58.44247416 370.22605719 -61.00127948 370.21816947 -63.56005859 370.20581055 C-67.48411556 370.18757382 -71.40793636 370.18530073 -75.33203125 370.18554688 C-77.81510621 370.18063095 -80.29817957 370.1748023 -82.78125 370.16796875 C-83.95941284 370.16685593 -85.13757568 370.1657431 -86.35144043 370.16459656 C-87.44267212 370.15821671 -88.53390381 370.15183685 -89.65820312 370.14526367 C-90.61956177 370.14145187 -91.58092041 370.13764008 -92.57141113 370.13371277 C-95 370 -95 370 -98 369 C-98 368.34 -98 367.68 -98 367 C-78.53 367 -59.06 367 -39 367 C-39.04543945 354.82174316 -39.04543945 354.82174316 -39.09179688 342.39746094 C-39.18942498 316.19527976 -39.28609293 289.99309512 -39.38218227 263.79090826 C-39.3971963 259.69703126 -39.41221863 255.60315429 -39.42724609 251.50927734 C-39.43023671 250.69451719 -39.43322732 249.87975704 -39.43630856 249.04030719 C-39.48427587 235.97748525 -39.53290975 222.91466588 -39.58180541 209.85184738 C-39.6322436 196.37281096 -39.68192974 182.8937719 -39.73096704 169.41473031 C-39.75841511 161.87556279 -39.78617542 154.33639672 -39.81480408 146.79723358 C-39.95232568 110.5313957 -40.03373999 74.26615187 -40 38 C-39.34 38 -38.68 38 -38 38 C-37.72929688 37.278125 -37.45859375 36.55625 -37.1796875 35.8125 C-31.15096814 21.43939425 -18.1631388 7.76869423 -4.90625 -0.26953125 C-3 -1 -3 -1 0 0 Z " fill="#F5F0FA" transform="translate(145,61)"/>
<path d="M0 0 C0.66 0 1.32 0 2 0 C3.31130413 5.99683582 3.14681627 11.97160809 3.14476013 18.07653809 C3.14828698 19.30345855 3.15181382 20.53037902 3.15544754 21.79447889 C3.16426887 25.19313893 3.16869158 28.59175349 3.17129052 31.99042058 C3.17519341 35.65948996 3.18483097 39.32854462 3.19384766 42.99760437 C3.20877663 49.35716959 3.22032643 55.71673364 3.22979546 62.0763092 C3.24369842 71.29511695 3.26489307 80.51389754 3.28822399 89.73268574 C3.32614152 104.72168639 3.36109802 119.710692 3.39282227 134.69970703 C3.39472276 135.59669947 3.39662325 136.49369191 3.39858133 137.41786593 C3.42534886 150.115539 3.44923919 162.81321588 3.47196633 175.51089674 C3.47436229 176.84910881 3.47436229 176.84910881 3.47680664 178.21435547 C3.47840011 179.10539992 3.47999357 179.99644437 3.48163532 180.91449016 C3.50850332 195.82870984 3.54294815 210.7429009 3.58346039 225.65708971 C3.60809906 234.83801987 3.62650136 244.0189194 3.636616 253.19987726 C3.64406829 259.5097729 3.65868526 265.81962738 3.67868023 272.12949562 C3.68995017 275.75750579 3.69821367 279.38544999 3.69767189 283.01347923 C3.69753482 303.51431596 4.37472626 323.73186517 8.0625 343.9375 C8.40816591 345.90484017 8.75323456 347.87228538 9.09765625 349.83984375 C9.25508301 350.72655762 9.41250977 351.61327148 9.57470703 352.52685547 C10.11646627 355.67726943 10.57263576 358.83221766 11 362 C10.34 362 9.68 362 9 362 C2.41309363 335.30836991 0.53841685 308.88170132 0.56726015 281.4572928 C0.56789752 277.66085236 0.55114087 273.86447723 0.53674316 270.06806946 C0.51420073 263.52658312 0.50211491 256.98514913 0.49761391 250.4436264 C0.49109077 240.9862834 0.46804736 231.5290341 0.44127061 222.07172933 C0.39823782 206.71921957 0.36813781 191.36671382 0.34643555 176.01416016 C0.32535472 161.12123656 0.29801845 146.22834556 0.26245117 131.33544922 C0.26025235 130.41384985 0.25805352 129.49225048 0.25578807 128.54272386 C0.24471665 123.91825522 0.23352417 119.29378688 0.22227156 114.66931868 C0.1294202 76.4462409 0.0576687 38.22314613 0 0 Z " fill="#E0C7F6" transform="translate(344,91)"/>
<path d="M0 0 C8.76175689 6.74942756 15.1194463 14.68829318 20.375 24.375 C19.385 25.365 19.385 25.365 18.375 26.375 C18.04628906 25.69695312 17.71757812 25.01890625 17.37890625 24.3203125 C10.67210948 11.19752857 1.03561968 0.93627339 -13.21484375 -3.82421875 C-21.78751101 -5.83727349 -28.84786356 -4.80242504 -36.5 -0.59375 C-45.20697076 4.96069687 -47.89232821 13.69781235 -50.18939149 23.37016916 C-52.74264986 35.12120488 -52.91271715 47.01244871 -52.86791992 58.97363281 C-52.86899618 60.67078728 -52.87093993 62.36794138 -52.87367249 64.06509399 C-52.87846772 68.62269539 -52.87093334 73.18019696 -52.86071944 77.73778629 C-52.85185296 82.53407212 -52.85369802 87.3303556 -52.8540802 92.12664795 C-52.85314756 100.17233931 -52.8445164 108.21799265 -52.83081055 116.26367188 C-52.81506796 125.53868858 -52.80981344 134.8136638 -52.8105461 144.0886929 C-52.81122365 154.00932537 -52.80427382 163.92994205 -52.7950995 173.85056973 C-52.79297797 176.69077808 -52.79225967 179.53098386 -52.79186058 182.37119293 C-52.79084943 186.8463274 -52.78469038 191.32142762 -52.77469444 195.79655075 C-52.77179666 197.42987991 -52.77053849 199.06321302 -52.77112198 200.69654465 C-52.77310509 209.6338365 -52.56411164 218.47592358 -51.625 227.375 C-47.71243451 223.60522887 -44.2551144 219.62546633 -40.875 215.375 C-40.35711914 214.726521 -39.83923828 214.07804199 -39.30566406 213.40991211 C-34.44645274 207.262636 -29.97590882 200.89037609 -25.625 194.375 C-24.625 197.375 -24.625 197.375 -26.0625 200.5625 C-26.8359375 201.9546875 -26.8359375 201.9546875 -27.625 203.375 C-28.285 203.375 -28.945 203.375 -29.625 203.375 C-29.625 204.365 -29.625 205.355 -29.625 206.375 C-30.615 206.375 -31.605 206.375 -32.625 206.375 C-32.91375 207.1175 -33.2025 207.86 -33.5 208.625 C-34.056875 209.98625 -34.056875 209.98625 -34.625 211.375 C-34.893125 212.035 -35.16125 212.695 -35.4375 213.375 C-37.08373986 216.14761451 -39.34308723 218.09308723 -41.625 220.375 C-44.61184978 224.0379938 -47.50965123 227.77340312 -50.2109375 231.65234375 C-50.91089844 232.50505859 -50.91089844 232.50505859 -51.625 233.375 C-52.285 233.375 -52.945 233.375 -53.625 233.375 C-55.18617434 221.32924222 -55.91683343 209.53785276 -55.88378906 197.39746094 C-55.88650878 195.68355156 -55.89007514 193.96964336 -55.89440918 192.2557373 C-55.90341624 187.66093849 -55.9000387 183.0662309 -55.89365101 178.47143078 C-55.88853299 173.63071156 -55.89329808 168.78999936 -55.89642334 163.94927979 C-55.90004487 155.82977924 -55.89531033 147.71031528 -55.88574219 139.59082031 C-55.87484645 130.23739249 -55.87839869 120.8840518 -55.889395 111.53062606 C-55.89850225 103.45706751 -55.89973684 95.38353503 -55.89451766 87.309973 C-55.89141868 82.50647699 -55.89093134 77.7030218 -55.89759064 72.8995285 C-55.90341434 68.38493818 -55.89927638 63.87045917 -55.88780212 59.35588074 C-55.88518282 57.71048924 -55.8858732 56.06508818 -55.89032745 54.41970062 C-55.93357616 36.80538334 -55.45425102 13.95720932 -42.625 0.375 C-29.19758151 -10.94134356 -13.95031417 -9.61151353 0 0 Z " fill="#DAC5EE" transform="translate(459.625,183.625)"/>
<path d="M0 0 C0.66 0 1.32 0 2 0 C0.66666667 4 -0.66666667 8 -2 12 C-2.09164322 13.80786732 -2.12374701 15.61898311 -2.12304783 17.42917156 C-2.12503888 18.56376487 -2.12702993 19.69835819 -2.12908131 20.86733311 C-2.12616847 22.11926184 -2.12325563 23.37119056 -2.12025452 24.66105652 C-2.12069038 26.00008121 -2.12156557 27.33910582 -2.12284368 28.67812997 C-2.12508567 32.36547269 -2.12107138 36.0527865 -2.11606562 39.74012554 C-2.11175708 43.71352506 -2.11320783 47.68692289 -2.1139679 51.6603241 C-2.11449287 58.54710973 -2.11134879 65.43388592 -2.10573006 72.32066917 C-2.09761153 82.27786684 -2.09499947 92.23505992 -2.09374207 102.19226054 C-2.0915521 118.34619387 -2.08489352 134.50012215 -2.07543945 150.65405273 C-2.0662639 166.34838841 -2.05918376 182.04272273 -2.05493164 197.73706055 C-2.05453756 199.18755814 -2.05453756 199.18755814 -2.05413551 200.66735872 C-2.05283049 205.51838589 -2.05156678 210.36941308 -2.05032361 215.22044027 C-2.03995273 255.48029702 -2.02233592 295.74014822 -2 336 C-2.99 336 -3.98 336 -5 336 C-5.11450249 294.92861177 -5.20257788 253.8572444 -5.25532665 212.78572838 C-5.26158001 207.93430043 -5.26805163 203.08287279 -5.2746582 198.23144531 C-5.27596976 197.26563385 -5.27728131 196.29982239 -5.2786326 195.30474392 C-5.30037534 179.67674079 -5.33979064 164.04882984 -5.38576398 148.42088136 C-5.4325601 132.37917313 -5.46030207 116.3375131 -5.47044247 100.29573941 C-5.47729509 90.40107093 -5.49892014 80.50666302 -5.53958233 70.61207476 C-5.56605966 63.82235576 -5.57398971 57.03277102 -5.56750689 50.24300417 C-5.56431173 46.32852387 -5.56912869 42.41449817 -5.59602737 38.50009918 C-5.62052023 34.90941072 -5.62148548 31.31947866 -5.60449447 27.72875395 C-5.60141127 25.82881116 -5.62283255 23.92887608 -5.64540654 22.02906489 C-5.57368683 13.72611427 -3.71381459 7.41590005 0 0 Z " fill="#D1B3E8" transform="translate(260,92)"/>
<path d="M0 0 C-1.68635229 1.12423486 -3.37776673 2.24123306 -5.0859375 3.33203125 C-5.84132812 3.82058594 -6.59671875 4.30914062 -7.375 4.8125 C-8.12523437 5.29332031 -8.87546875 5.77414063 -9.6484375 6.26953125 C-12.39093978 8.28768492 -14.64129245 10.54576846 -17 13 C-17.77859375 13.79277344 -18.5571875 14.58554688 -19.359375 15.40234375 C-21.5136162 17.68682502 -23.57580721 20.02834231 -25.61567223 22.41483569 C-26.84889098 23.82696827 -28.1420242 25.18626281 -29.44229794 26.53690529 C-38.99419312 38.31100749 -37.26009746 53.06983741 -37.12913358 67.43956232 C-37.1023971 71.46671268 -37.1280422 75.49358964 -37.14706421 79.52073669 C-37.17290751 86.48394421 -37.16616124 93.44649427 -37.13676643 100.40967941 C-37.09431588 110.47692142 -37.10181204 120.54364883 -37.12118178 130.61093922 C-37.1512715 146.94743217 -37.1414218 163.28364403 -37.10620117 179.62011719 C-37.07209025 195.48181457 -37.05694724 211.34334466 -37.06713867 227.20507812 C-37.0680724 228.67364325 -37.0680724 228.67364325 -37.06902499 230.17187636 C-37.0722645 235.08384717 -37.07587507 239.99581763 -37.07967007 244.90778804 C-37.11063372 285.60529704 -37.07667248 326.30256049 -37 367 C-37.33 367 -37.66 367 -38 367 C-38.33 275.59 -38.66 184.18 -39 90 C-39.33 90 -39.66 90 -40 90 C-40 72.84 -40 55.68 -40 38 C-39.34 38 -38.68 38 -38 38 C-37.72929688 37.278125 -37.45859375 36.55625 -37.1796875 35.8125 C-31.15096814 21.43939425 -18.1631388 7.76869423 -4.90625 -0.26953125 C-3 -1 -3 -1 0 0 Z " fill="#BEBEBE" transform="translate(145,61)"/>
<path d="M0 0 C1.14678726 0.00205444 1.14678726 0.00205444 2.31674194 0.00415039 C15.5102298 0.07985144 26.94437367 1.88446418 38.9375 7.6875 C39.93015869 8.1525293 39.93015869 8.1525293 40.94287109 8.62695312 C53.63061102 14.72950661 65.01497329 24.01977885 72.9375 35.6875 C76.73130438 34.14219753 78.868645 31.79819066 81.625 28.8125 C94.34137832 15.65610859 114.32736609 1.50614826 133.21484375 0.515625 C136.1303901 0.50201685 139.02543678 0.55240428 141.9375 0.6875 C141.9375 1.0175 141.9375 1.3475 141.9375 1.6875 C140.7515625 1.89503906 139.565625 2.10257812 138.34375 2.31640625 C128.21825516 4.20422819 119.26133799 6.85319917 109.96484375 11.296875 C106.9375 12.6875 106.9375 12.6875 104.9375 12.6875 C104.6075 13.6775 104.2775 14.6675 103.9375 15.6875 C102.2875 16.0175 100.6375 16.3475 98.9375 16.6875 C98.9375 17.3475 98.9375 18.0075 98.9375 18.6875 C97.44863281 19.44353516 97.44863281 19.44353516 95.9296875 20.21484375 C91.28789509 22.87013608 87.77537407 26.44540473 84.0625 30.25 C83.38703125 30.92224609 82.7115625 31.59449219 82.015625 32.28710938 C78.22050378 35.99308985 78.22050378 35.99308985 75.9375 40.6875 C74.9475 40.6875 73.9575 40.6875 72.9375 40.6875 C71.54296875 38.96484375 71.54296875 38.96484375 70.125 36.625 C58.09709113 17.86614456 38.96469381 8.90120994 17.9375 3.6875 C-5.50520585 -1.41300504 -27.39225589 5.02154818 -48.0625 15.6875 C-48.0625 14.6975 -48.0625 13.7075 -48.0625 12.6875 C-45.52725849 11.42294854 -42.98532251 10.17626888 -40.4375 8.9375 C-39.39722656 8.41542969 -39.39722656 8.41542969 -38.3359375 7.8828125 C-25.80382635 1.84054463 -13.72203429 -0.09990642 0 0 Z " fill="#C7B4D8" transform="translate(156.0625,-0.6875)"/>
<path d="M0 0 C0 0.66 0 1.32 0 2 C-24.98265839 16.28215524 -24.98265839 16.28215524 -35 21 C-34.36493795 24.80302805 -33.25664417 28.07173233 -31.7421875 31.61328125 C-31.28432861 32.68956787 -30.82646973 33.76585449 -30.35473633 34.87475586 C-29.86642334 36.00921143 -29.37811035 37.14366699 -28.875 38.3125 C-28.38088623 39.47209229 -27.88677246 40.63168457 -27.37768555 41.82641602 C-25.18827283 46.95311545 -22.97959285 52.07016632 -20.71484375 57.1640625 C-20.38822754 57.89971436 -20.06161133 58.63536621 -19.72509766 59.39331055 C-19.13272347 60.72020972 -18.53504179 62.04475688 -17.93115234 63.36645508 C-16.69535433 66.12302873 -16 67.93462437 -16 71 C-7.75690618 68.26287538 -0.17254647 64.74029908 7.5 60.6875 C8.55058594 60.14416016 9.60117187 59.60082031 10.68359375 59.04101562 C16.84705795 55.81452973 22.761196 52.35510933 28.57543945 48.53417969 C31.93563612 46.40796119 35.40589182 44.69533405 39 43 C37.88238785 46.35283645 37.509849 46.59380845 34.6328125 48.3125 C33.92125 48.74296631 33.2096875 49.17343262 32.4765625 49.61694336 C31.70054687 50.07335205 30.92453125 50.52976074 30.125 51 C29.32578125 51.47767822 28.5265625 51.95535645 27.703125 52.44750977 C26.00690121 53.45794525 24.30792101 54.46376552 22.60644531 55.46533203 C20.04126106 56.9757056 17.48528592 58.50082209 14.9296875 60.02734375 C13.28714758 60.99856244 11.64393837 61.96865029 10 62.9375 C9.2486377 63.38544922 8.49727539 63.83339844 7.72314453 64.29492188 C2.94930517 67.07555486 -1.85880428 69.26116515 -7.03125 71.20532227 C-8.96836025 71.83801619 -8.96836025 71.83801619 -10 73 C-11.99958364 73.04080783 -14.00045254 73.04254356 -16 73 C-20.74021038 63.0197025 -25.2910869 52.95575035 -29.8125 42.875 C-30.10248871 42.22931061 -30.39247742 41.58362122 -30.69125366 40.91836548 C-31.53105627 39.04767901 -32.36932133 37.17631189 -33.20703125 35.3046875 C-33.94143433 33.6647583 -33.94143433 33.6647583 -34.69067383 31.99169922 C-38.27446009 23.80305165 -38.27446009 23.80305165 -38 19 C-36.23849609 18.19949219 -36.23849609 18.19949219 -34.44140625 17.3828125 C-25.07819816 13.06863291 -16.04967659 8.4950225 -7.25805664 3.10009766 C-2.18298616 0 -2.18298616 0 0 0 Z " fill="#BEADCC" transform="translate(314,497)"/>
<path d="M0 0 C0.33 0 0.66 0 1 0 C1.00423194 0.8856879 1.00846388 1.77137581 1.01282406 2.68390274 C1.11628331 24.26883154 1.22494339 45.85372874 1.33933926 67.43860245 C1.39453654 77.87702605 1.44799577 88.31545308 1.49731445 98.75390625 C1.54032223 107.85569236 1.58664095 116.95745468 1.63687855 126.05920386 C1.66334647 130.87517768 1.68819505 135.69114719 1.70907402 140.50714874 C1.72881146 145.04774646 1.75300345 149.58829945 1.78049088 154.12885666 C1.78977158 155.78796696 1.7974781 157.447087 1.80341911 159.10621262 C1.83663948 168.1125087 2.0588622 177.03241943 3 186 C6.91256549 182.23022887 10.3698856 178.25046633 13.75 174 C14.26788086 173.351521 14.78576172 172.70304199 15.31933594 172.03491211 C20.17854726 165.887636 24.64909118 159.51537609 29 153 C30 156 30 156 28.5625 159.1875 C27.7890625 160.5796875 27.7890625 160.5796875 27 162 C26.34 162 25.68 162 25 162 C25 162.99 25 163.98 25 165 C24.01 165 23.02 165 22 165 C21.71125 165.7425 21.4225 166.485 21.125 167.25 C20.568125 168.61125 20.568125 168.61125 20 170 C19.731875 170.66 19.46375 171.32 19.1875 172 C17.54126014 174.77261451 15.28191277 176.71808723 13 179 C10.01315022 182.6629938 7.11534877 186.39840312 4.4140625 190.27734375 C3.71410156 191.13005859 3.71410156 191.13005859 3 192 C2.34 192 1.68 192 1 192 C0.09430686 187.37746032 -0.13961477 182.91122734 -0.12025452 178.2171936 C-0.12110894 177.45252632 -0.12196337 176.68785903 -0.12284368 175.90002 C-0.12448545 173.34819883 -0.11899851 170.79644398 -0.11352539 168.24462891 C-0.11324321 166.4112549 -0.11340185 164.57788078 -0.1139679 162.74450684 C-0.11425467 157.77393636 -0.10837725 152.80339005 -0.10139394 147.83282518 C-0.09514051 142.63581496 -0.09455502 137.43880418 -0.09336853 132.24179077 C-0.09026109 122.40342953 -0.0820556 112.56507942 -0.07201904 102.72672307 C-0.06083969 91.52486386 -0.05534286 80.32300412 -0.05032361 69.12114072 C-0.03987251 46.08075432 -0.02228441 23.04037778 0 0 Z " fill="#999999" transform="translate(405,225)"/>
<path d="M0 0 C3.57689953 1.33109811 6.89630472 2.97324918 10.26220703 4.7668457 C26.88394651 13.51050944 44.18687894 16.71540693 62.81298828 18.22851562 C63.71130371 18.30263672 64.60961914 18.37675781 65.53515625 18.453125 C66.74957397 18.54062012 66.74957397 18.54062012 67.98852539 18.62988281 C70 19 70 19 72 21 C72.24050903 23.29055786 72.24050903 23.29055786 72.22705078 26.18408203 C72.22689972 27.26505157 72.22674866 28.34602112 72.22659302 29.45974731 C72.21627045 30.63060883 72.20594788 31.80147034 72.1953125 33.0078125 C72.1924826 34.20356903 72.18965271 35.39932556 72.18673706 36.63131714 C72.17551305 40.46264519 72.15040431 44.29374222 72.125 48.125 C72.11497308 50.71744455 72.10584673 53.30989275 72.09765625 55.90234375 C72.07556646 62.26830842 72.04206706 68.63413771 72 75 C71.34 74.67 70.68 74.34 70 74 C70 56.84 70 39.68 70 22 C66.7 22 63.4 22 60 22 C58.1220898 21.87016917 56.24521878 21.71373929 54.375 21.5 C53.11816406 21.36078125 53.11816406 21.36078125 51.8359375 21.21875 C51.23007812 21.1465625 50.62421875 21.074375 50 21 C50 20.34 50 19.68 50 19 C49.38253906 19.02320313 48.76507813 19.04640625 48.12890625 19.0703125 C42.12117697 19.19833108 36.79750618 18.56840747 31 17 C31 16.34 31 15.68 31 15 C30.38511719 14.93941406 29.77023437 14.87882813 29.13671875 14.81640625 C28.32847656 14.73261719 27.52023437 14.64882813 26.6875 14.5625 C25.88699219 14.48128906 25.08648437 14.40007813 24.26171875 14.31640625 C22 14 22 14 19 13 C19 12.34 19 11.68 19 11 C18.31421875 10.90460938 17.6284375 10.80921875 16.921875 10.7109375 C13.34848927 9.84147734 10.48920701 8.36185987 7.25 6.625 C6.10015625 6.01914062 4.9503125 5.41328125 3.765625 4.7890625 C1 3 1 3 0 0 Z " fill="#B7A0CA" transform="translate(450,499)"/>
<path d="M0 0 C0.91458984 0.00491455 1.82917969 0.0098291 2.77148438 0.01489258 C28.92337692 0.46348679 52.08915617 13.67759658 70.31103516 31.80322266 C79.69683104 41.64763904 87.6071961 53.76217122 92.75 66.3125 C92.09 66.3125 91.43 66.3125 90.75 66.3125 C88.70830515 63.40701118 87.75 61.91107954 87.75 58.3125 C87.09 58.3125 86.43 58.3125 85.75 58.3125 C85.42 56.6625 85.09 55.0125 84.75 53.3125 C83.265 52.8175 83.265 52.8175 81.75 52.3125 C81.04788106 50.66045544 80.38028587 48.99326231 79.75 47.3125 C79.09 46.9825 78.43 46.6525 77.75 46.3125 C77.234375 45.343125 76.71875 44.37375 76.1875 43.375 C65.38935277 24.09539894 42.4998615 11.3852207 21.9375 5.5625 C14.60295942 3.60662251 7.48462388 3.14767349 -0.0625 3.1875 C-1.38556152 3.19040039 -1.38556152 3.19040039 -2.73535156 3.19335938 C-8.63249233 3.23257198 -14.39882617 3.53234349 -20.25 4.3125 C-20.25 3.6525 -20.25 2.9925 -20.25 2.3125 C-13.44011713 0.72286005 -6.98966631 -0.04502306 0 0 Z " fill="#C7B5D6" transform="translate(438.25,117.6875)"/>
<path d="M0 0 C0.33 0 0.66 0 1 0 C1.00808685 0.97844879 1.01617371 1.95689758 1.02450562 2.96499634 C1.10275366 12.28828275 1.1906738 21.61143715 1.28752708 30.93454933 C1.33699696 35.72505558 1.38332109 40.51554482 1.421875 45.30615234 C1.67320621 81.27581439 1.67320621 81.27581439 6.0625 116.9375 C6.40816591 118.90484017 6.75323456 120.87228538 7.09765625 122.83984375 C7.25508301 123.72655762 7.41250977 124.61327148 7.57470703 125.52685547 C8.11646627 128.67726943 8.57263576 131.83221766 9 135 C8.34 135 7.68 135 7 135 C-0.59222209 104.2346039 -1.36560087 74.61360192 -0.74243164 43.13818359 C-0.64958258 38.25638636 -0.57673943 33.37428893 -0.50195312 28.4921875 C-0.35364263 18.99440848 -0.18405665 9.49714911 0 0 Z " fill="#B980ED" transform="translate(346,318)"/>
<path d="M0 0 C4.55406793 3.71760648 8.44920692 7.54791952 12.2734375 12.00390625 C29.79406674 32.25965635 58.65031585 48.15735535 85 53 C85 53.66 85 54.32 85 55 C86.98 55.495 86.98 55.495 89 56 C67.4574708 53.68258193 45.99660775 43.19765623 29 30 C28.18402344 29.40316406 27.36804688 28.80632813 26.52734375 28.19140625 C16.94785512 20.94837826 7.0251009 11.79630905 0 2 C0 1.34 0 0.68 0 0 Z " fill="#C3A4DE" transform="translate(388,518)"/>
<path d="M0 0 C20.13 0 40.26 0 61 0 C58 3 58 3 55.57141113 3.36749268 C54.61005249 3.36384705 53.64869385 3.36020142 52.65820312 3.35644531 C51.56697144 3.35944641 50.47573975 3.36244751 49.35144043 3.36553955 C48.17327759 3.35319275 46.99511475 3.34084595 45.78125 3.328125 C44.57182739 3.32625183 43.36240479 3.32437866 42.11633301 3.32244873 C39.5575078 3.31572171 36.99869298 3.30179449 34.43994141 3.28125 C30.51585368 3.25012574 26.59216761 3.24028271 22.66796875 3.234375 C20.18489092 3.22520393 17.70181719 3.21482783 15.21875 3.203125 C14.04058716 3.19887512 12.86242432 3.19462524 11.64855957 3.19024658 C10.01171204 3.17583527 10.01171204 3.17583527 8.34179688 3.16113281 C7.38043823 3.15430481 6.41907959 3.14747681 5.42858887 3.14044189 C3 3 3 3 0 2 C0 1.34 0 0.68 0 0 Z " fill="#E1D7EA" transform="translate(47,428)"/>
<path d="M0 0 C1.04590805 0.00222061 2.0918161 0.00444122 3.16941833 0.00672913 C4.35056717 0.00680466 5.531716 0.00688019 6.74865723 0.00695801 C8.03404892 0.01211929 9.31944061 0.01728058 10.64378357 0.02259827 C12.60601112 0.02472069 12.60601112 0.02472069 14.60787964 0.02688599 C18.09150591 0.03071042 21.57509071 0.04054005 25.05870056 0.05158997 C28.6111444 0.06180569 32.16359491 0.06638395 35.71604919 0.07142639 C42.69067564 0.0821624 49.66527449 0.09923792 56.63987732 0.12025452 C56.63987732 0.78025452 56.63987732 1.44025452 56.63987732 2.12025452 C54.05976087 3.41031274 52.19295892 3.25433087 49.30393982 3.26551819 C48.18938416 3.27189804 47.07482849 3.27827789 45.92649841 3.28485107 C44.11399597 3.28652031 44.11399597 3.28652031 42.26487732 3.28822327 C41.02947205 3.29155167 39.79406677 3.29488007 38.52122498 3.29830933 C35.9051806 3.30337942 33.28912973 3.30571763 30.67308044 3.30555725 C27.98421031 3.30547574 25.2955096 3.31245298 22.60667419 3.32606506 C18.74268841 3.34430482 14.87890174 3.34929007 11.01487732 3.35072327 C9.20237488 3.36150154 9.20237488 3.36150154 7.35325623 3.37249756 C5.68142273 3.36788261 5.68142273 3.36788261 3.97581482 3.36317444 C2.99145447 3.36459946 2.00709412 3.36602448 0.99290466 3.36749268 C-1.36012268 3.12025452 -1.36012268 3.12025452 -3.36012268 1.12025452 C-2.36012268 0.12025452 -2.36012268 0.12025452 0 0 Z " fill="#E1D8EA" transform="translate(200.36012268066406,427.87974548339844)"/>
<path d="M0 0 C7.24101638 3.81910147 13.86362344 9.19650603 17.77734375 16.46484375 C14.70722618 15.11292647 12.82193139 13.63795245 10.58984375 11.15234375 C4.32780005 4.70216998 -3.88641465 0.52968021 -12.91015625 0.08984375 C-28.28990544 0.48183136 -39.17709969 10.93193288 -49.33984375 21.28125 C-52.03766678 24.13678378 -54.14841674 27.13303391 -56.22265625 30.46484375 C-56.55265625 29.80484375 -56.88265625 29.14484375 -57.22265625 28.46484375 C-56.72765625 26.97984375 -56.72765625 26.97984375 -56.22265625 25.46484375 C-55.56265625 25.46484375 -54.90265625 25.46484375 -54.22265625 25.46484375 C-53.98289062 24.90796875 -53.743125 24.35109375 -53.49609375 23.77734375 C-51.94194359 20.95508334 -50.02523885 18.83775768 -47.84765625 16.46484375 C-47.07679688 15.61921875 -46.3059375 14.77359375 -45.51171875 13.90234375 C-44.75632812 13.09796875 -44.0009375 12.29359375 -43.22265625 11.46484375 C-42.52914063 10.70171875 -41.835625 9.93859375 -41.12109375 9.15234375 C-39.22265625 7.46484375 -39.22265625 7.46484375 -36.22265625 7.46484375 C-36.22265625 6.80484375 -36.22265625 6.14484375 -36.22265625 5.46484375 C-33.95304025 4.31654398 -31.68204847 3.17112397 -29.41015625 2.02734375 C-28.76755859 1.70185547 -28.12496094 1.37636719 -27.46289062 1.04101562 C-18.16933238 -3.62984007 -9.71788326 -3.91782668 0 0 Z " fill="#C9ADE1" transform="translate(320.22265625,59.53515625)"/>
<path d="M0 0 C-1.68635229 1.12423486 -3.37776673 2.24123306 -5.0859375 3.33203125 C-5.84132812 3.82058594 -6.59671875 4.30914062 -7.375 4.8125 C-8.12523437 5.29332031 -8.87546875 5.77414063 -9.6484375 6.26953125 C-12.39075519 8.28754908 -14.64157093 10.54590922 -17 13 C-17.76699219 13.78117187 -18.53398438 14.56234375 -19.32421875 15.3671875 C-24.89567626 21.27937878 -29.46765891 27.34805302 -33.77612305 34.22412109 C-34.80448799 35.84634837 -35.8966904 37.42778382 -37 39 C-37.66 39 -38.32 39 -39 39 C-39 55.83 -39 72.66 -39 90 C-39.33 90 -39.66 90 -40 90 C-40 72.84 -40 55.68 -40 38 C-39.34 38 -38.68 38 -38 38 C-37.72929688 37.278125 -37.45859375 36.55625 -37.1796875 35.8125 C-31.15096814 21.43939425 -18.1631388 7.76869423 -4.90625 -0.26953125 C-3 -1 -3 -1 0 0 Z " fill="#B78EDB" transform="translate(145,61)"/>
<path d="M0 0 C0 0.33 0 0.66 0 1 C-1.1859375 1.20753906 -2.371875 1.41507812 -3.59375 1.62890625 C-13.71924484 3.51672819 -22.67616201 6.16569917 -31.97265625 10.609375 C-35 12 -35 12 -37 12 C-37.33 12.99 -37.66 13.98 -38 15 C-39.65 15.33 -41.3 15.66 -43 16 C-43 16.66 -43 17.32 -43 18 C-43.99257812 18.50402344 -44.98515625 19.00804688 -46.0078125 19.52734375 C-50.64960491 22.18263608 -54.16212593 25.75790473 -57.875 29.5625 C-58.55046875 30.23474609 -59.2259375 30.90699219 -59.921875 31.59960938 C-63.71699622 35.30558985 -63.71699622 35.30558985 -66 40 C-66.99 39.67 -67.98 39.34 -69 39 C-68.34 39 -67.68 39 -67 39 C-67.495 37.515 -67.495 37.515 -68 36 C-50.13200038 16.85773733 -27.51179979 -1.27632061 0 0 Z " fill="#B9A0CF" transform="translate(298,0)"/>
<path d="M0 0 C0.33 0 0.66 0 1 0 C1.02740796 2.62507322 1.04703194 5.24984991 1.0625 7.875 C1.07087891 8.60203125 1.07925781 9.3290625 1.08789062 10.078125 C1.12762608 19.13780904 0.19485519 27.52457017 -2.5 36.1875 C-2.88115967 37.43998535 -2.88115967 37.43998535 -3.27001953 38.71777344 C-6.60364108 49.35482541 -10.79618111 59.68281188 -15 70 C-15.66 70 -16.32 70 -17 70 C-16.67 67.69 -16.34 65.38 -16 63 C-15.34 63 -14.68 63 -14 63 C-14 61.02 -14 59.04 -14 57 C-13.34 57 -12.68 57 -12 57 C-11.76216797 56.01386719 -11.76216797 56.01386719 -11.51953125 55.0078125 C-10.37888726 50.35700995 -9.24055066 45.72120179 -7.828125 41.14453125 C-3.73221419 27.6577617 -1.83154789 13.95331907 0 0 Z " fill="#DCCBEB" transform="translate(542,263)"/>
<path d="M0 0 C2.91833922 3.39480277 4.16738747 6.83342846 5.5625 11.0625 C5.97628906 12.29097656 6.39007813 13.51945312 6.81640625 14.78515625 C10.14333069 26.11325255 10.24725639 36.98664084 10.125 48.6875 C10.11494678 50.37173945 10.10582508 52.05598473 10.09765625 53.74023438 C10.07583596 57.82696937 10.04143636 61.91341875 10 66 C12.97 65.505 12.97 65.505 16 65 C16 65.66 16 66.32 16 67 C13.09399739 68.25664978 11.20395416 69 8 69 C7.9906543 67.88254395 7.98130859 66.76508789 7.97167969 65.61376953 C7.93110412 61.37511649 7.86517838 57.13713921 7.79248047 52.89892578 C7.76465506 51.08195835 7.74325456 49.26487851 7.72900391 47.44775391 C7.60726126 32.78182255 6.82854039 18.2626612 0 5 C-0.1875 2.125 -0.1875 2.125 0 0 Z " fill="#D3C1E2" transform="translate(395,58)"/>
<path d="M0 0 C0 0.99 0 1.98 0 3 C-1.35083008 4.17578125 -1.35083008 4.17578125 -3.26953125 5.3125 C-3.98431641 5.74296631 -4.69910156 6.17343262 -5.43554688 6.61694336 C-6.61213867 7.3015564 -6.61213867 7.3015564 -7.8125 8 C-8.61623047 8.47767822 -9.41996094 8.95535645 -10.24804688 9.44750977 C-11.95475771 10.45867975 -13.6646629 11.46447419 -15.37744141 12.46533203 C-17.9517626 13.97177246 -20.51370069 15.49758689 -23.07421875 17.02734375 C-24.71550273 17.99848354 -26.35741102 18.96856913 -28 19.9375 C-28.75128174 20.38544922 -29.50256348 20.83339844 -30.27661133 21.29492188 C-35.05063693 24.075358 -39.85873284 26.2611383 -45.03125 28.20532227 C-46.96836025 28.83801619 -46.96836025 28.83801619 -48 30 C-49.99958364 30.04080783 -52.00045254 30.04254356 -54 30 C-55.5625 27.1875 -55.5625 27.1875 -57 24 C-56.505 22.515 -56.505 22.515 -56 21 C-54.5393715 23.64738916 -54 24.89448334 -54 28 C-45.75690618 25.26287538 -38.17254647 21.74029908 -30.5 17.6875 C-29.44941406 17.14416016 -28.39882813 16.60082031 -27.31640625 16.04101562 C-21.14279727 12.80921908 -15.21122515 9.34319378 -9.37573242 5.53417969 C-6.31655833 3.55865302 -3.18259584 1.7681088 0 0 Z " fill="#DAC9EB" transform="translate(352,540)"/>
<path d="M0 0 C0.495 1.485 0.495 1.485 1 3 C0.18208984 3.89138672 0.18208984 3.89138672 -0.65234375 4.80078125 C-8.41154213 13.32926767 -15.72592562 22.15249062 -22.58984375 31.41796875 C-23.28787109 32.20107422 -23.28787109 32.20107422 -24 33 C-24.66 33 -25.32 33 -26 33 C-26.21914063 33.53753906 -26.43828125 34.07507813 -26.6640625 34.62890625 C-28.45805839 37.81298668 -30.8762216 40.30391908 -33.375 42.9375 C-40.30009584 49.56090496 -40.30009584 49.56090496 -44 58 C-44.66 57.34 -45.32 56.68 -46 56 C-45.79411184 51.95944495 -43.32626797 50.08494546 -40.5 47.4375 C-36.06677245 43.13651361 -32.12744045 38.66072814 -28.2734375 33.83984375 C-25.93380363 30.91731141 -23.53615259 28.05121909 -21.125 25.1875 C-16.91059872 20.1512576 -12.83712672 15.01951751 -8.84228516 9.80737305 C-6.10438865 6.27053755 -3.22684225 3.09939067 0 0 Z " fill="#CDB9DF" transform="translate(474,424)"/>
<path d="M0 0 C0.66 0 1.32 0 2 0 C9.52637674 20.6061965 10.65107304 43.66847205 5 65 C4.34 65 3.68 65 3 65 C3.2165625 63.41638672 3.2165625 63.41638672 3.4375 61.80078125 C5.82631809 43.22580781 7.46906286 22.59069245 0.5859375 4.76953125 C0 3 0 3 0 0 Z " fill="#CDB2E5" transform="translate(479,210)"/>
<path d="M0 0 C3.875 0.875 3.875 0.875 5 2 C5.09353163 3.68801985 5.11744791 5.37995207 5.11352539 7.07055664 C5.11344986 8.15160172 5.11337433 9.23264679 5.11329651 10.34645081 C5.10813522 11.5224736 5.10297394 12.6984964 5.09765625 13.91015625 C5.0962413 15.10732773 5.09482635 16.30449921 5.09336853 17.53794861 C5.08774979 21.37949066 5.07519411 25.22097543 5.0625 29.0625 C5.05748741 31.65950437 5.05292409 34.25650965 5.04882812 36.85351562 C5.03777427 43.23569679 5.02101792 49.6178443 5 56 C4.34 55.67 3.68 55.34 3 55 C3 37.84 3 20.68 3 3 C-0.3 3 -3.6 3 -7 3 C-7 2.67 -7 2.34 -7 2 C-3.535 1.505 -3.535 1.505 0 1 C0 0.67 0 0.34 0 0 Z " fill="#C495EE" transform="translate(517,518)"/>
<path d="M0 0 C1 3 1 3 -0.4375 6.1875 C-1.2109375 7.5796875 -1.2109375 7.5796875 -2 9 C-2.66 9 -3.32 9 -4 9 C-4 9.99 -4 10.98 -4 12 C-4.99 12 -5.98 12 -7 12 C-7.433125 13.11375 -7.433125 13.11375 -7.875 14.25 C-8.24625 15.1575 -8.6175 16.065 -9 17 C-9.268125 17.66 -9.53625 18.32 -9.8125 19 C-11.45873986 21.77261451 -13.71808723 23.71808723 -16 26 C-18.98684978 29.6629938 -21.88465123 33.39840312 -24.5859375 37.27734375 C-25.05257813 37.84582031 -25.51921875 38.41429687 -26 39 C-26.66 39 -27.32 39 -28 39 C-29.32594359 33.03325384 -29.0884587 27.07416385 -29 21 C-28.34 21 -27.68 21 -27 21 C-26.67 24.96 -26.34 28.92 -26 33 C-22.08743451 29.23022887 -18.6301144 25.25046633 -15.25 21 C-14.73211914 20.351521 -14.21423828 19.70304199 -13.68066406 19.03491211 C-8.82145274 12.887636 -4.35090882 6.51537609 0 0 Z " fill="#C8B8D9" transform="translate(434,378)"/>
<path d="M0 0 C0.99 0.33 1.98 0.66 3 1 C1.58510266 2.27280294 0.16800334 3.5431583 -1.25 4.8125 C-2.03890625 5.52019531 -2.8278125 6.22789062 -3.640625 6.95703125 C-9.46462715 12 -9.46462715 12 -12 12 C-12.33 12.99 -12.66 13.98 -13 15 C-15.0390625 16.39453125 -15.0390625 16.39453125 -17.625 17.8125 C-20.86518765 19.6738844 -23.77947988 21.50510431 -26.5625 24 C-29.17581877 26.34019282 -31.87092756 28.43003081 -34.75 30.4375 C-35.48734375 30.95183594 -36.2246875 31.46617187 -36.984375 31.99609375 C-39 33 -39 33 -42 32 C-40.39583333 30.83333333 -38.79166667 29.66666667 -37.1875 28.5 C-35.66769531 27.39205078 -35.66769531 27.39205078 -34.1171875 26.26171875 C-32.21259273 24.87981352 -30.30244749 23.50546651 -28.3828125 22.14453125 C-21.17651079 17.00812471 -14.33931292 11.46909183 -7.50390625 5.85546875 C-6.88918457 5.3557959 -6.27446289 4.85612305 -5.64111328 4.34130859 C-4.31894102 3.26067569 -3.01401361 2.15896203 -1.71484375 1.05078125 C-1.14894531 0.70402344 -0.58304687 0.35726563 0 0 Z " fill="#C3ABD7" transform="translate(356,464)"/>
<path d="M0 0 C4.28257592 -0.1007027 8.56448105 -0.17230689 12.84790039 -0.21972656 C14.2975671 -0.23954342 15.74715728 -0.26660535 17.1965332 -0.30175781 C31.65910048 -0.64311657 44.24502375 1.67714304 57 9 C52.47124136 10.50958621 49.68544432 8.2658965 45.49609375 6.32421875 C35.72422633 2.62291925 25.68824253 2.59486926 15.375 2.375 C13.87888578 2.33672957 12.38279145 2.29767292 10.88671875 2.2578125 C7.25799678 2.16281817 3.6291221 2.07843648 0 2 C0 1.34 0 0.68 0 0 Z " fill="#C0B7C9" transform="translate(1,6)"/>
<path d="M0 0 C0.33 0 0.66 0 1 0 C1.17015625 1.0209375 1.3403125 2.041875 1.515625 3.09375 C1.6305127 3.78299561 1.74540039 4.47224121 1.86376953 5.18237305 C2.12526792 6.7515287 2.38665798 8.32070242 2.64794922 9.88989258 C3.44765229 14.69134682 4.24982414 19.49237665 5.0546875 24.29296875 C5.23225586 25.35386719 5.40982422 26.41476562 5.59277344 27.5078125 C5.94172502 29.59255813 6.29131194 31.67719753 6.64160156 33.76171875 C7.48980813 38.8340952 8.30163061 43.90475391 9 49 C8.34 49 7.68 49 7 49 C-0.6762195 15.62818402 -0.6762195 15.62818402 0 0 Z " fill="#CFB4E8" transform="translate(346,404)"/>
<path d="M0 0 C0.66 0 1.32 0 2 0 C7.91332044 13.89630304 13.20689876 28.06873129 13.0625 43.375 C13.05347656 44.62023437 13.04445313 45.86546875 13.03515625 47.1484375 C13.02355469 48.08945313 13.01195312 49.03046875 13 50 C12.67 50 12.34 50 12 50 C11.91024902 49.37770508 11.82049805 48.75541016 11.72802734 48.11425781 C9.59568625 33.64195523 6.63878141 19.87535351 2 6 C1.61070312 4.82695312 1.22140625 3.65390625 0.8203125 2.4453125 C0.54960938 1.63835937 0.27890625 0.83140625 0 0 Z " fill="#C8B6D8" transform="translate(530,185)"/>
<path d="M0 0 C0 3 0 3 -2.51953125 5.59375 C-3.60977099 6.5708391 -4.7078047 7.53928459 -5.8125 8.5 C-6.90276875 9.46827166 -7.99262474 10.43700833 -9.08203125 11.40625 C-10.52642578 12.69015625 -10.52642578 12.69015625 -12 14 C-14.40581589 16.18429537 -14.93599591 16.80798774 -16 20 C-19.79101703 18.44515891 -22.07046758 16.0693222 -24.875 13.125 C-28.94641426 8.94235655 -28.94641426 8.94235655 -33.625 5.5 C-34.40875 5.005 -35.1925 4.51 -36 4 C-36 3.34 -36 2.68 -36 2 C-31.77332612 3.39880978 -29.16512702 5.39943995 -25.9375 8.4375 C-23.0535658 11.13480055 -20.20904009 13.69512363 -17 16 C-16.19175781 15.18015625 -15.38351563 14.3603125 -14.55078125 13.515625 C-13.47149002 12.42694863 -12.39205531 11.3384145 -11.3125 10.25 C-10.51682617 9.44175781 -10.51682617 9.44175781 -9.70507812 8.6171875 C-6.62068501 5.51387173 -3.48423727 2.66327598 0 0 Z " fill="#CAB2DF" transform="translate(101,18)"/>
<path d="M0 0 C0.66 0 1.32 0 2 0 C1.10123178 2.32181791 0.19222286 4.61391833 -0.91796875 6.84375 C-5.64538113 16.55215243 -7.28490161 27.29818266 -8 38 C-8.66 38 -9.32 38 -10 38 C-10 39.65 -10 41.3 -10 43 C-10.33 43 -10.66 43 -11 43 C-10.64749285 29.74573105 -10.02775782 10.02775782 0 0 Z " fill="#BFACD0" transform="translate(415,187)"/>
<path d="M0 0 C0.87269531 -0.00773437 1.74539063 -0.01546875 2.64453125 -0.0234375 C8.80164887 -0.00519419 14.51187638 0.83819212 20.5 2.25 C20.5 2.91 20.5 3.57 20.5 4.25 C19.93796875 4.1778125 19.3759375 4.105625 18.796875 4.03125 C5.86002964 2.60264131 -7.59272547 2.52903006 -20.5 4.25 C-20.5 3.59 -20.5 2.93 -20.5 2.25 C-13.59198571 0.62131135 -7.08929198 -0.06282977 0 0 Z " fill="#D1BBE3" transform="translate(438.5,117.75)"/>
<path d="M0 0 C4.55406793 3.71760648 8.44920692 7.54791952 12.2734375 12.00390625 C20.21341533 21.18338289 29.87663864 28.37795159 40 35 C39.505 35.99 39.505 35.99 39 37 C24.79790768 27.19769133 10.28207007 16.06013303 0 2 C0 1.34 0 0.68 0 0 Z " fill="#CBBDD7" transform="translate(388,518)"/>
<path d="M0 0 C0.33 0 0.66 0 1 0 C0.40816259 5.4406258 -0.92758752 10.18611803 -2.8125 15.3125 C-3.07949707 16.05363037 -3.34649414 16.79476074 -3.62158203 17.55834961 C-5.62712593 23.0871626 -7.73303527 28.57261974 -10 34 C-10.66 34 -11.32 34 -12 34 C-11.67 31.69 -11.34 29.38 -11 27 C-10.34 27 -9.68 27 -9 27 C-9 25.02 -9 23.04 -9 21 C-8.34 21 -7.68 21 -7 21 C-6.70996094 19.80503906 -6.70996094 19.80503906 -6.4140625 18.5859375 C-2.92485549 4.38728324 -2.92485549 4.38728324 0 0 Z " fill="#B295C9" transform="translate(537,299)"/>
<path d="M0 0 C-0.33 0.66 -0.66 1.32 -1 2 C-3.82947993 2.77992075 -6.64148974 3.46978031 -9.5 4.125 C-19.34174777 6.51756768 -28.02715841 10.36996778 -37 15 C-37 14.01 -37 13.02 -37 12 C-12.07096406 -0.43433754 -12.07096406 -0.43433754 0 0 Z " fill="#C6B4D4" transform="translate(145,0)"/>
<path d="M0 0 C-1.68635229 1.12423486 -3.37776673 2.24123306 -5.0859375 3.33203125 C-5.84132812 3.82058594 -6.59671875 4.30914062 -7.375 4.8125 C-8.12523437 5.29332031 -8.87546875 5.77414063 -9.6484375 6.26953125 C-14.46342901 9.81278912 -18.31916728 14.39321179 -22.3125 18.8125 C-23.19550781 19.78832031 -24.07851562 20.76414062 -24.98828125 21.76953125 C-25.65214844 22.50558594 -26.31601563 23.24164063 -27 24 C-27.66 23.34 -28.32 22.68 -29 22 C-7.31764706 -2.43921569 -7.31764706 -2.43921569 0 0 Z " fill="#D4BBEB" transform="translate(145,61)"/>
<path d="M0 0 C21.51600771 -0.72075956 21.51600771 -0.72075956 28.9375 5.4375 C32.47321429 9.83035714 32.47321429 9.83035714 34 12 C31.21590631 10.82211421 29.5644298 9.59481842 27.3125 7.5 C20.1023746 1.43207269 8.9277917 2.44697771 0 2 C0 1.34 0 0.68 0 0 Z " fill="#D0B5E7" transform="translate(1,59)"/>
<path d="M0 0 C12.86493644 -0.96286427 24.88596308 2.61923527 36 9 C36 9.66 36 10.32 36 11 C33.36 10.34 30.72 9.68 28 9 C28 8.34 28 7.68 28 7 C27.34902344 6.87625 26.69804687 6.7525 26.02734375 6.625 C21.43523156 5.67695103 16.88424834 4.55965288 12.32617188 3.4609375 C8.23286034 2.48581973 4.16379012 1.63347679 0 1 C0 0.67 0 0.34 0 0 Z " fill="#CDBBDE" transform="translate(315,0)"/>
<path d="M0 0 C0.66 0 1.32 0 2 0 C1.39281158 5.19483427 0.2452486 9.90950964 -1.375 14.875 C-1.70890747 15.92010742 -1.70890747 15.92010742 -2.04956055 16.98632812 C-3.65832668 22.00460478 -5.30682124 27.0095784 -7 32 C-7.66 32 -8.32 32 -9 32 C-7.52143235 24.83865468 -5.5420279 17.91867727 -3.375 10.9375 C-3.05015625 9.88111328 -2.7253125 8.82472656 -2.390625 7.73632812 C-1.59685528 5.15657652 -0.79992286 2.57784892 0 0 Z " fill="#C5A8E0" transform="translate(481,276)"/>
<path d="M0 0 C0 0.99 0 1.98 0 3 C-1.49365234 4.27099609 -1.49365234 4.27099609 -3.5859375 5.5234375 C-4.34793457 5.98516357 -5.10993164 6.44688965 -5.89501953 6.92260742 C-6.71341309 7.40189697 -7.53180664 7.88118652 -8.375 8.375 C-9.19468262 8.86524658 -10.01436523 9.35549316 -10.85888672 9.8605957 C-16.44354917 13.17086379 -22.08609034 16.31050842 -28 19 C-28 18.01 -28 17.02 -28 16 C-27.06800781 15.5153125 -26.13601563 15.030625 -25.17578125 14.53125 C-16.5582032 10.01278892 -8.21870775 5.21118738 0 0 Z " fill="#BFA9D1" transform="translate(352,540)"/>
<path d="M0 0 C0.66 0 1.32 0 2 0 C1.38253379 3.87375564 0.2081036 6.99712018 -1.50390625 10.51953125 C-1.99697266 11.54111328 -2.49003906 12.56269531 -2.99804688 13.61523438 C-3.51431641 14.67033203 -4.03058594 15.72542969 -4.5625 16.8125 C-5.08263672 17.88693359 -5.60277344 18.96136719 -6.13867188 20.06835938 C-7.4207045 22.71475699 -8.70796111 25.3584771 -10 28 C-10.99 27.67 -11.98 27.34 -13 27 C-12.48050781 25.97261719 -11.96101563 24.94523437 -11.42578125 23.88671875 C-7.4496006 15.99541204 -3.56444172 8.08854083 0 0 Z " fill="#C39CE8" transform="translate(515,352)"/>
<path d="M0 0 C10.12734553 4.61556013 18.929522 14.894283 25 24 C24.67 24.66 24.34 25.32 24 26 C22.12337517 23.98065452 20.24843202 21.95980492 18.375 19.9375 C17.82392578 19.34348389 17.27285156 18.74946777 16.70507812 18.13745117 C13.88847934 15.08960796 11.13478697 12.0206603 8.5 8.8125 C6.22811055 6.25662437 4.99758783 5.34002338 2 4 C2 3.34 2 2.68 2 2 C1.34 2 0.68 2 0 2 C0 1.34 0 0.68 0 0 Z " fill="#C4B1DA" transform="translate(362,17)"/>
<path d="M0 0 C0.66 0.66 1.32 1.32 2 2 C-10.16609062 23.98724313 -10.16609062 23.98724313 -14 29 C-14.66 29 -15.32 29 -16 29 C-14.42495361 24.58650102 -12.13258706 20.7220743 -9.6875 16.75 C-6.33067933 11.23266882 -3.06630865 5.6857683 0 0 Z " fill="#BFA4D7" transform="translate(451,349)"/>
<path d="M0 0 C7.71407367 0.91638818 12.88785571 7.31319892 17.578125 13.08984375 C21.01334553 17.57225247 24.11980089 21.63359837 26 27 C25.34 27.33 24.68 27.66 24 28 C23.67128906 27.32195312 23.34257812 26.64390625 23.00390625 25.9453125 C17.82559316 15.81322023 11.45581779 7.97419432 1.65234375 2.05859375 C1.10707031 1.70925781 0.56179688 1.35992187 0 1 C0 0.67 0 0.34 0 0 Z " fill="#D6BCEB" transform="translate(454,182)"/>
<path d="M0 0 C5.4030548 1.38560889 8.72181053 3.83420219 12.8125 7.4375 C13.41980957 7.96520996 14.02711914 8.49291992 14.65283203 9.03662109 C20.04583344 13.83246367 24.93865556 19.00468202 29 25 C29 25.66 29 26.32 29 27 C25.06478867 25.68826289 23.745079 23.17954941 21.4375 19.9375 C15.49150577 11.89013234 8.30383405 6.46304872 0 1 C0 0.67 0 0.34 0 0 Z " fill="#D8C8E7" transform="translate(202,12)"/>
<path d="M0 0 C0.33 0 0.66 0 1 0 C1.04992909 4.10762763 1.08596646 8.21513448 1.10986328 12.32299805 C1.1198393 13.71658409 1.13342501 15.11014966 1.15087891 16.50366211 C1.24549371 24.2592936 1.11409413 31.48414568 -1 39 C-1.66 39 -2.32 39 -3 39 C-2.86722656 37.94425781 -2.73445313 36.88851562 -2.59765625 35.80078125 C-1.15682935 23.87923237 -0.44959309 11.99703658 0 0 Z " fill="#CBB8D7" transform="translate(485,236)"/>
<path d="M0 0 C0.66 0 1.32 0 2 0 C0.39072036 6.05491465 -2.78743842 11.06366588 -6 16.375 C-6.5465625 17.30183594 -7.093125 18.22867187 -7.65625 19.18359375 C-8.1821875 20.05886719 -8.708125 20.93414062 -9.25 21.8359375 C-9.72953125 22.63563965 -10.2090625 23.4353418 -10.703125 24.25927734 C-11.13109375 24.83371582 -11.5590625 25.4081543 -12 26 C-12.66 26 -13.32 26 -14 26 C-12.64329073 21.3494244 -10.7215315 17.64346366 -8.125 13.5625 C-5.30959313 9.0956508 -2.57359073 4.61101673 0 0 Z " fill="#BEA4D2" transform="translate(501,381)"/>
<path d="M0 0 C1 2 1 2 0.43359375 3.77734375 C-2.05250207 9.16875938 -4.7900683 14.36080337 -7.73046875 19.51953125 C-8.85699716 21.72059445 -9.53303124 23.58639038 -10 26 C-10.99 26 -11.98 26 -13 26 C-11.37514086 20.32692038 -8.70727378 15.36270674 -5.9375 10.1875 C-5.47794922 9.31673828 -5.01839844 8.44597656 -4.54492188 7.54882812 C-1.1468153 1.1468153 -1.1468153 1.1468153 0 0 Z " fill="#CBB2DB" transform="translate(466,321)"/>
<path d="M0 0 C0 0.66 0 1.32 0 2 C-3.74204562 4.18062935 -7.49485223 6.3420238 -11.25 8.5 C-12.31347656 9.12003906 -13.37695312 9.74007813 -14.47265625 10.37890625 C-15.49746094 10.96542969 -16.52226562 11.55195313 -17.578125 12.15625 C-18.52075195 12.70087891 -19.46337891 13.24550781 -20.43457031 13.80664062 C-23 15 -23 15 -27 15 C-25.47102485 11.94204969 -22.5354069 11.15722231 -19.5625 9.75 C-14.14467887 7.12786899 -8.98000145 4.29361019 -3.890625 1.06640625 C-2 0 -2 0 0 0 Z " fill="#BDA6D3" transform="translate(314,497)"/>
<path d="M0 0 C16.70842825 -0.3690205 16.70842825 -0.3690205 25 2 C25 2.33 25 2.66 25 3 C18.73 3 12.46 3 6 3 C6 2.34 6 1.68 6 1 C4.02 1 2.04 1 0 1 C0 0.67 0 0.34 0 0 Z " fill="#CBB7DD" transform="translate(494,517)"/>
<path d="M0 0 C0 0.99 0 1.98 0 3 C-0.68707031 3.22429688 -1.37414062 3.44859375 -2.08203125 3.6796875 C-5.75052992 5.33959721 -8.57163247 7.60548764 -11.6875 10.125 C-17.73760331 15 -17.73760331 15 -20 15 C-18.66075523 11.90312593 -17.34150346 10.19569607 -14.62890625 8.203125 C-13.97212891 7.71972656 -13.31535156 7.23632812 -12.63867188 6.73828125 C-11.95353516 6.24714844 -11.26839844 5.75601563 -10.5625 5.25 C-9.5405957 4.49009766 -9.5405957 4.49009766 -8.49804688 3.71484375 C-3.38638182 0 -3.38638182 0 0 0 Z " fill="#C2A4DD" transform="translate(388,515)"/>
<path d="M0 0 C0.33 0 0.66 0 1 0 C1 11.88 1 23.76 1 36 C3.97 35.505 3.97 35.505 7 35 C7 35.66 7 36.32 7 37 C5.02 37.66 3.04 38.32 1 39 C0 38 0 38 -0.11352539 34.39819336 C-0.11336625 32.79540144 -0.10767063 31.1926044 -0.09765625 29.58984375 C-0.0962413 28.74780899 -0.09482635 27.90577423 -0.09336853 27.03822327 C-0.08775263 24.33794665 -0.07519748 21.63775172 -0.0625 18.9375 C-0.05748705 17.11132932 -0.05292379 15.28515734 -0.04882812 13.45898438 C-0.03777804 8.97262458 -0.02050279 4.48632616 0 0 Z " fill="#BCABC2" transform="translate(404,88)"/>
<path d="M0 0 C0.33 0 0.66 0 1 0 C1.02505615 0.87325928 1.0501123 1.74651855 1.07592773 2.64624023 C1.17087709 5.87602552 1.27012029 9.10564154 1.37231445 12.33520508 C1.41571434 13.73489199 1.45738564 15.13463359 1.49731445 16.53442383 C1.55489445 18.54261495 1.61914 20.55061149 1.68359375 22.55859375 C1.72025146 23.76829834 1.75690918 24.97800293 1.79467773 26.22436523 C1.68938266 28.90705456 1.68938266 28.90705456 3 30 C3.04080783 31.99958364 3.04254356 34.00045254 3 36 C2.01 36 1.02 36 0 36 C0 24.12 0 12.24 0 0 Z " fill="#C18DF1" transform="translate(255,392)"/>
<path d="M0 0 C7.53537917 3.29775894 11.5941465 10.5233977 15.15234375 17.60546875 C16.07744827 20.21878245 16.16127534 22.248545 16 25 C14.11626808 22.17440212 12.79745062 19.45035413 11.375 16.375 C8.74710633 11.02164234 5.66087971 6.9284424 1.5390625 2.64453125 C0 1 0 1 0 0 Z " fill="#D8C0ED" transform="translate(176,67)"/>
<path d="M0 0 C9.12436826 0.45621841 17.82312836 3.16985724 25 9 C20.77973745 8.2028393 16.90875773 7.4640465 13.0625 5.5 C8.86393173 3.4435584 4.58547322 2.770287 0 2 C0 1.34 0 0.68 0 0 Z " fill="#C4B3D3" transform="translate(33,7)"/>
<path d="M0 0 C4.32019875 1.51738524 5.77699213 4.36070551 8.0625 8.1875 C8.73410156 9.29480469 9.40570312 10.40210938 10.09765625 11.54296875 C11.98906996 14.98013741 13.52040934 18.37246777 15 22 C14.34 22 13.68 22 13 22 C10.95830515 19.09451118 10 17.59857954 10 14 C9.34 14 8.68 14 8 14 C7.67 12.35 7.34 10.7 7 9 C6.01 8.67 5.02 8.34 4 8 C3.29788106 6.34795544 2.63028587 4.68076231 2 3 C1.34 2.67 0.68 2.34 0 2 C0 1.34 0 0.68 0 0 Z " fill="#B9A0D1" transform="translate(516,162)"/>
<path d="M0 0 C0.67095703 0.58007812 0.67095703 0.58007812 1.35546875 1.171875 C1.96003906 1.69265625 2.56460937 2.2134375 3.1875 2.75 C3.82171875 3.2965625 4.4559375 3.843125 5.109375 4.40625 C6.68220486 5.73210658 8.30440766 6.99912076 9.9375 8.25 C10.618125 8.8275 11.29875 9.405 12 10 C12 10.66 12 11.32 12 12 C12.804375 12.2475 13.60875 12.495 14.4375 12.75 C17 14 17 14 17.8125 16.125 C17.874375 16.74375 17.93625 17.3625 18 18 C13.30427189 15.08103388 9.49940357 11.80680214 5.625 7.875 C5.07972656 7.33746094 4.53445313 6.79992187 3.97265625 6.24609375 C0 2.25352444 0 2.25352444 0 0 Z " fill="#E2D2F1" transform="translate(431,482)"/>
<path d="M0 0 C-1.43895184 3.33777488 -3.23694281 5.39622174 -5.875 7.875 C-9.14512214 11.04999131 -11.66002434 14.10004057 -14 18 C-14.33 17.34 -14.66 16.68 -15 16 C-14.67 15.01 -14.34 14.02 -14 13 C-13.34 13 -12.68 13 -12 13 C-11.7525 12.43796875 -11.505 11.8759375 -11.25 11.296875 C-9.78725133 8.60907431 -8.03195127 6.53594518 -6 4.25 C-5.29875 3.45078125 -4.5975 2.6515625 -3.875 1.828125 C-2 0 -2 0 0 0 Z " fill="#D1C6DB" transform="translate(278,72)"/>
<path d="M0 0 C0.66 0.33 1.32 0.66 2 1 C1.443125 1.36351562 0.88625 1.72703125 0.3125 2.1015625 C-4.37704328 5.19095756 -8.8925421 8.38290415 -13.2734375 11.8984375 C-15 13 -15 13 -18 13 C-16.1875 10.5 -16.1875 10.5 -14 8 C-13.01 8 -12.02 8 -11 8 C-11 7.34 -11 6.68 -11 6 C-9.21385682 4.96953278 -7.42089982 3.95086764 -5.625 2.9375 C-4.62726563 2.36902344 -3.62953125 1.80054688 -2.6015625 1.21484375 C-1.74304688 0.81394531 -0.88453125 0.41304687 0 0 Z " fill="#C2A5D9" transform="translate(295,59)"/>
<path d="M0 0 C0.33 0.99 0.66 1.98 1 3 C0.06027344 3.88751953 0.06027344 3.88751953 -0.8984375 4.79296875 C-1.71570313 5.58316406 -2.53296875 6.37335938 -3.375 7.1875 C-4.59316406 8.35345703 -4.59316406 8.35345703 -5.8359375 9.54296875 C-8.00655128 12.00743818 -8.97318302 13.91436312 -10 17 C-10.33 17.66 -10.66 18.32 -11 19 C-11.66 18.34 -12.32 17.68 -13 17 C-12.84554 12.79323659 -9.95700686 10.69081141 -7.0625 7.9375 C-4.35144223 5.34346631 -2.08445813 3.12668719 0 0 Z " fill="#D4C4E4" transform="translate(441,463)"/>
<path d="M0 0 C0.66 0 1.32 0 2 0 C2.06058594 0.90363281 2.12117188 1.80726563 2.18359375 2.73828125 C2.26738281 3.91777344 2.35117187 5.09726562 2.4375 6.3125 C2.55931641 8.07013672 2.55931641 8.07013672 2.68359375 9.86328125 C2.8867371 13.02590958 2.8867371 13.02590958 4 16 C3.67 16.66 3.34 17.32 3 18 C2.34 18 1.68 18 1 18 C-0.32594359 12.03325384 -0.0884587 6.07416385 0 0 Z " fill="#CBC0D5" transform="translate(405,399)"/>
<path d="M0 0 C0.33 0 0.66 0 1 0 C0.42934122 6.41991126 -1.67344909 12.01589463 -4 18 C-4.66 18 -5.32 18 -6 18 C-3.10933941 5.33029613 -3.10933941 5.33029613 0 0 Z " fill="#CABDD9" transform="translate(537,299)"/>
<path d="M0 0 C0.33 0 0.66 0 1 0 C2.30267176 5.50016964 1.71033431 10.47032059 1 16 C0.34 16 -0.32 16 -1 16 C-1 17.65 -1 19.3 -1 21 C-1.33 21 -1.66 21 -2 21 C-1.85845864 18.43719792 -1.71191438 15.87484515 -1.5625 13.3125 C-1.52318359 12.59126953 -1.48386719 11.87003906 -1.44335938 11.12695312 C-1.21814322 7.33292718 -0.87160695 3.71348508 0 0 Z " fill="#CDC0D9" transform="translate(406,209)"/>
<path d="M0 0 C0.66 0 1.32 0 2 0 C2 0.66 2 1.32 2 2 C2.66 2 3.32 2 4 2 C4.8394882 4.10171867 5.67139656 6.20646625 6.5 8.3125 C6.9640625 9.48425781 7.428125 10.65601562 7.90625 11.86328125 C9 15 9 15 9 18 C8.34 18 7.68 18 7 18 C6.49339844 16.67935547 6.49339844 16.67935547 5.9765625 15.33203125 C5.53054687 14.17058594 5.08453125 13.00914063 4.625 11.8125 C3.96371094 10.08966797 3.96371094 10.08966797 3.2890625 8.33203125 C2.21147857 5.54664006 1.1163557 2.77002279 0 0 Z " fill="#BFAECE" transform="translate(35,72)"/>
<path d="M0 0 C0.66 0 1.32 0 2 0 C1.35952602 3.44748958 0.00294981 5.84644185 -1.9375 8.75 C-2.46214844 9.54921875 -2.98679687 10.3484375 -3.52734375 11.171875 C-4.01332031 11.77515625 -4.49929687 12.3784375 -5 13 C-5.66 13 -6.32 13 -7 13 C-5.39516194 8.33138019 -3.02509806 3.90741833 0 0 Z " fill="#BCACCB" transform="translate(115,84)"/>
<path d="M0 0 C4.76620139 0.46727465 8.20446839 1.00352768 12 4 C13.82567869 6.25820863 15.39564022 8.57054091 17 11 C14.25068417 9.83682792 12.47572254 8.5456262 10.1875 6.5625 C7.03857395 3.84041048 3.87739519 2.47341017 0 1 C0 0.67 0 0.34 0 0 Z " fill="#BDA1D7" transform="translate(18,60)"/>
<path d="M0 0 C2.46717524 2.2639961 4.10134139 4.59060244 5.75 7.5 C6.42289062 8.66015625 6.42289062 8.66015625 7.109375 9.84375 C8 12 8 12 7 15 C2.97805546 10.28461674 0 6.33797061 0 0 Z " fill="#C8AAE4" transform="translate(387,43)"/>
<path d="M0 0 C1.07765625 0.00902344 2.1553125 0.01804688 3.265625 0.02734375 C4.08546875 0.03894531 4.9053125 0.05054688 5.75 0.0625 C5.75 0.3925 5.75 0.7225 5.75 1.0625 C3.31421213 1.59280068 0.87694025 2.11202312 -1.5625 2.625 C-2.25279297 2.77646484 -2.94308594 2.92792969 -3.65429688 3.08398438 C-7.00544066 3.78011569 -8.94534072 4.16405309 -12.25 3.0625 C-11.59 3.0625 -10.93 3.0625 -10.25 3.0625 C-10.25 2.4025 -10.25 1.7425 -10.25 1.0625 C-6.78777385 -0.00473961 -3.60960734 -0.03923486 0 0 Z " fill="#D0BCE0" transform="translate(292.25,-0.0625)"/>
<path d="M0 0 C0.33 0 0.66 0 1 0 C1.6466598 8.01396246 2.16677223 15.95787245 2 24 C1.67 24 1.34 24 1 24 C-1.44095909 15.81560775 -0.81873222 8.39753719 0 0 Z " fill="#BD8EE8" transform="translate(346,386)"/>
<path d="M0 0 C0.66 0.66 1.32 1.32 2 2 C0.56705502 2.84114171 -0.87154405 3.67265687 -2.3125 4.5 C-3.51326172 5.19609375 -3.51326172 5.19609375 -4.73828125 5.90625 C-7 7 -7 7 -10 7 C-10 6.34 -10 5.68 -10 5 C-6.7 3.35 -3.4 1.7 0 0 Z " fill="#D0C3DD" transform="translate(286,511)"/>
<path d="M0 0 C4.30764815 1.56641751 8.06171464 3.68336156 12 6 C12 6.66 12 7.32 12 8 C7.39571066 6.68448876 3.81679612 4.90803514 0 2 C0 1.34 0 0.68 0 0 Z " fill="#C7B4D9" transform="translate(450,499)"/>
<path d="M0 0 C0.33 0.99 0.66 1.98 1 3 C-0.14453125 5.0078125 -0.14453125 5.0078125 -1.8125 7.125 C-2.62654297 8.18074219 -2.62654297 8.18074219 -3.45703125 9.2578125 C-5 11 -5 11 -7 12 C-7.66 11.34 -8.32 10.68 -9 10 C-8.2575 9.278125 -7.515 8.55625 -6.75 7.8125 C-4.30709485 5.31407427 -2.1318953 2.76356798 0 0 Z " fill="#BFADCC" transform="translate(416,402)"/>
<path d="M0 0 C5.65253308 1.37031105 8.5113541 5.67689413 12 10 C9 10 9 10 6.73828125 8.06640625 C5.93777344 7.24011719 5.13726562 6.41382812 4.3125 5.5625 C3.50425781 4.73878906 2.69601562 3.91507812 1.86328125 3.06640625 C0 1 0 1 0 0 Z " fill="#DBD4E1" transform="translate(326,65)"/>
<path d="M0 0 C0.66 0 1.32 0 2 0 C1.39301257 4.12751449 -0.03810791 7.3321148 -2 11 C-2.99 10.67 -3.98 10.34 -5 10 C-3.35 6.7 -1.7 3.4 0 0 Z " fill="#B99DD3" transform="translate(507,369)"/>
<path d="M0 0 C0.66 0.33 1.32 0.66 2 1 C2 3.31 2 5.62 2 8 C1.01 8.33 0.02 8.66 -1 9 C-1.73323796 11.01508358 -1.73323796 11.01508358 -2 13 C-1.85769192 11.58297487 -1.71099254 10.1663904 -1.5625 8.75 C-1.48128906 7.96109375 -1.40007813 7.1721875 -1.31640625 6.359375 C-1.02365007 4.17635361 -0.57935581 2.1226818 0 0 Z " fill="#D6C8E0" transform="translate(538,290)"/>
<path d="M0 0 C1 3 1 3 -0.4375 6.1875 C-1.2109375 7.5796875 -1.2109375 7.5796875 -2 9 C-2.66 9 -3.32 9 -4 9 C-4 9.99 -4 10.98 -4 12 C-4.66 11.67 -5.32 11.34 -6 11 C-4.54955729 6.89041233 -2.48889248 3.56741255 0 0 Z " fill="#B18BD5" transform="translate(434,378)"/>
<path d="M0 0 C0.33 0.99 0.66 1.98 1 3 C-2.85756507 5.15305957 -5.55129785 6.39253254 -10 6 C-6.87567603 3.47650757 -3.61939504 1.72743854 0 0 Z " fill="#D3C2E2" transform="translate(323,557)"/>
<path d="M0 0 C0.66 0.33 1.32 0.66 2 1 C-2.455 4.465 -2.455 4.465 -7 8 C-7.66 7.67 -8.32 7.34 -9 7 C-8.34 6.01 -7.68 5.02 -7 4 C-6.01 4 -5.02 4 -4 4 C-4 3.34 -4 2.68 -4 2 C-2.125 0.9375 -2.125 0.9375 0 0 Z " fill="#C2B1D4" transform="translate(366,530)"/>
<path d="M0 0 C0.99 0.33 1.98 0.66 3 1 C1.8803014 2.00593243 0.7540588 3.0045849 -0.375 4 C-1.00148438 4.556875 -1.62796875 5.11375 -2.2734375 5.6875 C-4 7 -4 7 -6 7 C-4.61990379 3.66476748 -3.15049348 1.81392049 0 0 Z " fill="#C9B1DB" transform="translate(356,464)"/>
<path d="M0 0 C4.12989477 4.26311718 4.61271765 7.28758534 5 13 C2.2946129 8.94191935 0 4.95110601 0 0 Z " fill="#CFBBE3" transform="translate(187,79)"/>
<path d="M0 0 C-4.95 2.475 -4.95 2.475 -10 5 C-10 4.01 -10 3.02 -10 2 C-4.5 -1.125 -4.5 -1.125 0 0 Z " fill="#B297CB" transform="translate(334,554)"/>
<path d="M0 0 C3.96 0.33 7.92 0.66 12 1 C12 1.33 12 1.66 12 2 C10.37585622 2.19477739 8.75063577 2.38059458 7.125 2.5625 C6.22007812 2.66691406 5.31515625 2.77132812 4.3828125 2.87890625 C2 3 2 3 0 2 C0 1.34 0 0.68 0 0 Z " fill="#AA94BC" transform="translate(488,515)"/>
<path d="M0 0 C1.485 0.99 1.485 0.99 3 2 C3.1875 5.125 3.1875 5.125 3 8 C2.01 8 1.02 8 0 8 C0 5.36 0 2.72 0 0 Z " fill="#C8ADE0" transform="translate(255,420)"/>
<path d="M0 0 C0.66 0.33 1.32 0.66 2 1 C0.54712339 2.33927721 -0.91247259 3.67126847 -2.375 5 C-3.18710938 5.7425 -3.99921875 6.485 -4.8359375 7.25 C-7 9 -7 9 -9 9 C-7.83709195 5.51127585 -6.86032391 4.90023136 -3.9375 2.8125 C-3.20402344 2.28269531 -2.47054687 1.75289062 -1.71484375 1.20703125 C-1.14894531 0.80871094 -0.58304688 0.41039063 0 0 Z " fill="#C9BED3" transform="translate(252,16)"/>
<path d="M0 0 C1.13199353 0.9080162 2.25532363 1.82683826 3.375 2.75 C4.00148438 3.26046875 4.62796875 3.7709375 5.2734375 4.296875 C7.08312318 6.08199481 8.00117455 7.67949644 9 10 C4.71095765 8.4114658 2.67654474 5.56872632 0 2 C0 1.34 0 0.68 0 0 Z " fill="#D4C5E1" transform="translate(388,518)"/>
<path d="M0 0 C1 3 1 3 0.22265625 4.82421875 C-0.8515625 6.54947917 -1.92578125 8.27473958 -3 10 C-3.66 10 -4.32 10 -5 10 C-3.84414715 6.08788267 -2.64465038 3.1254959 0 0 Z " fill="#C3AED3" transform="translate(492,397)"/>
<path d="M0 0 C0.66 0 1.32 0 2 0 C2.99 2.97 3.98 5.94 5 9 C4.01 9 3.02 9 2 9 C1.34 6.03 0.68 3.06 0 0 Z " fill="#C0A4DA" transform="translate(479,210)"/>
<path d="M0 0 C0.66 0 1.32 0 2 0 C0.73058503 3.91402949 -0.51167694 5.79072873 -4 8 C-4 4.06830895 -2.60580385 2.83572772 0 0 Z " fill="#D3C4E2" transform="translate(121,77)"/>
<path d="M0 0 C0 0.99 0 1.98 0 3 C-0.78375 3.309375 -1.5675 3.61875 -2.375 3.9375 C-4.92330128 4.92875038 -4.92330128 4.92875038 -7 6 C-6.6875 4.125 -6.6875 4.125 -6 2 C-3 0 -3 0 0 0 Z " fill="#CEB8E2" transform="translate(388,515)"/>
<path d="M0 0 C2.9719385 1.12451727 5.33440687 2.22293791 8 4 C7.67 4.99 7.34 5.98 7 7 C5.83040013 6.02433888 4.66438823 5.044375 3.5 4.0625 C2.8503125 3.51722656 2.200625 2.97195313 1.53125 2.41015625 C1.0259375 1.94480469 0.520625 1.47945313 0 1 C0 0.67 0 0.34 0 0 Z " fill="#DDC9EE" transform="translate(441,493)"/>
<path d="M0 0 C0.66 0 1.32 0 2 0 C3.2890625 1.53125 3.2890625 1.53125 4.625 3.5 C5.07101562 4.1496875 5.51703125 4.799375 5.9765625 5.46875 C6.31429688 5.9740625 6.65203125 6.479375 7 7 C6.67 7.66 6.34 8.32 6 9 C4.99406757 7.8803014 3.9954151 6.7540588 3 5.625 C2.443125 4.99851562 1.88625 4.37203125 1.3125 3.7265625 C0 2 0 2 0 0 Z " fill="#CABAD7" transform="translate(380,34)"/>
<path d="M0 0 C5.75 1.875 5.75 1.875 8 3 C8 3.66 8 4.32 8 5 C5.36 4.34 2.72 3.68 0 3 C0 2.01 0 1.02 0 0 Z " fill="#B497D2" transform="translate(343,6)"/>
<path d="M0 0 C0 0.66 0 1.32 0 2 C-3.96 3.98 -3.96 3.98 -8 6 C-6.72879117 2.18637351 -4.19078006 0 0 0 Z " fill="#B694D4" transform="translate(314,497)"/>
<path d="M0 0 C0.66 0 1.32 0 2 0 C0.7508258 3.45925163 -0.67527795 6.14693203 -3 9 C-2.5020163 5.26512223 -2.12508244 3.18762365 0 0 Z " fill="#B5A1C7" transform="translate(496,390)"/>
<path d="M0 0 C0.33 0 0.66 0 1 0 C0.53199289 4.05606165 0.12046792 7.46588679 -2 11 C-3.14947895 7.44706507 -3.0868937 6.20023331 -1.5625 2.6875 C-1.046875 1.800625 -0.53125 0.91375 0 0 Z " fill="#BEB7C4" transform="translate(537,299)"/>
</svg>
