<?xml version="1.0" encoding="UTF-8"?>
<svg version="1.1" xmlns="http://www.w3.org/2000/svg" width="546" height="591">
<path d="M0 0 C35.12800611 -0.67553858 61.80232128 1.7336888 88.796875 26.8125 C91.73796258 29.7327288 94.39472492 32.77768608 97 36 C97.86625 35.236875 98.7325 34.47375 99.625 33.6875 C101.07842119 32.45252889 102.53771242 31.22445981 104 30 C104.99644531 29.1646875 105.99289063 28.329375 107.01953125 27.46875 C134.30048635 5.065529 164.16161686 -1.72403686 199 0 C220.71739803 2.17778922 242.96004481 12.11834613 259 27 C259.8036499 27.7422583 259.8036499 27.7422583 260.62353516 28.49951172 C268.94632519 36.26699015 276.13685577 44.18460185 282 54 C282.56195068 54.93271729 282.56195068 54.93271729 283.13525391 55.88427734 C304.85397428 92.61593807 306.04234873 136.22095885 306.31640625 177.69140625 C306.33702045 180.3351224 306.35797566 182.97883368 306.37937927 185.62254333 C306.42884535 191.82329036 306.47395059 198.02406073 306.51740164 204.2248525 C306.56717383 211.29648156 306.62194067 218.36806936 306.67708123 225.43965828 C306.79019166 239.959733 306.89717877 254.47984881 307 269 C307.46846848 268.45449493 307.93693695 267.90898987 308.41960144 267.34695435 C309.04063248 266.62933929 309.66166351 265.91172424 310.30151367 265.17236328 C310.91435715 264.46185822 311.52720062 263.75135315 312.15861511 263.01931763 C332.47683043 240.73775628 369.68218664 227.56488579 399.24365234 225.80712891 C441.08555594 224.79852203 476.08303468 234.93276765 507 264 C507.64066406 264.56460937 508.28132813 265.12921875 508.94140625 265.7109375 C528.26294115 283.53999475 545.24676257 314.13033864 546.35400391 340.82568359 C546.40739042 343.01633199 546.44754711 345.20733079 546.4765625 347.3984375 C546.49270599 348.58684235 546.50884949 349.77524719 546.52548218 350.99966431 C546.55305552 353.51599402 546.57454796 356.03239684 546.59033203 358.54882812 C546.6131541 361.06761338 546.65370479 363.5863105 546.71337891 366.10449219 C547.34843281 392.98962337 542.02400645 423.70579741 523.33886719 444.48095703 C521.73075001 446.30548385 520.45522953 448.23986283 519.1875 450.3125 C507.27332379 468.52328747 489.56380469 481.20085887 470 490 C469.34 490 468.68 490 468 490 C468 490.66 468 491.32 468 492 C431.98225778 506.19884713 392.33399439 510.69271586 355.91455078 494.88134766 C351.28943708 492.75221472 346.82290688 490.33627993 342.37890625 487.85546875 C339.63682234 486.34970013 336.91162324 485.0294894 334.0625 483.75 C329.36583012 481.42514841 325.2532898 478.43237025 321.0625 475.3125 C320.43029541 474.84360352 319.79809082 474.37470703 319.14672852 473.89160156 C313.10737897 469.29063028 307.56605001 464.15379743 302 459 C301.67837891 460.001521 301.35675781 461.00304199 301.02539062 462.03491211 C299.79919146 465.84271201 298.55786167 469.64545022 297.3125 473.44702148 C296.78118396 475.07561372 296.25367906 476.70545553 295.73046875 478.33666992 C289.69109282 497.14584168 282.09628496 514.36990113 269.66796875 529.8984375 C268.13298583 531.83244408 266.68986628 533.807414 265.25 535.8125 C253.19009713 551.79741063 236.35196306 567.54934565 217 574 C217 574.66 217 575.32 217 576 C208.01838738 579.93236408 199.01958705 583.48338721 189.625 586.3125 C188.83061523 586.55436035 188.03623047 586.7962207 187.21777344 587.04541016 C177.65464988 589.84567271 168.3359166 591.31087913 158.37109375 591.30078125 C156.93661644 591.30720894 156.93661644 591.30720894 155.47315979 591.31376648 C153.47584826 591.31945735 151.47851602 591.32004928 149.48120117 591.31567383 C146.41355071 591.31247503 143.34683122 591.33617039 140.27929688 591.36132812 C138.33073038 591.36359768 136.3821613 591.36430622 134.43359375 591.36328125 C133.51597763 591.372491 132.59836151 591.38170074 131.65293884 591.39118958 C130.80768143 591.38496078 129.96242401 591.37873199 129.09155273 591.37231445 C127.97549904 591.37325859 127.97549904 591.37325859 126.8368988 591.3742218 C125 591 125 591 123 588 C122.74603271 585.3368988 122.74603271 585.3368988 122.74121094 582.09155273 C122.73490662 580.87696884 122.72860229 579.66238495 122.72210693 578.41099548 C122.7261554 577.09845291 122.73020386 575.78591034 122.734375 574.43359375 C122.7330278 573.07503693 122.73108681 571.71648058 122.72857666 570.35792542 C122.72562895 567.51241459 122.72991226 564.66702941 122.73925781 561.8215332 C122.75066313 558.17060845 122.74408403 554.5199774 122.73211288 550.86906338 C122.72489394 548.06470008 122.72718215 545.26040671 122.73236847 542.45604134 C122.73435471 540.45404495 122.72827244 538.45204586 122.72210693 536.45005798 C122.73156342 534.63291039 122.73156342 534.63291039 122.74121094 532.77905273 C122.74280212 531.70888412 122.74439331 530.63871552 122.74603271 529.53611755 C123 527 123 527 125 525 C127.44707495 524.73201844 129.79962619 524.58080761 132.25390625 524.5078125 C133.76498916 524.44175298 135.27605637 524.37533375 136.78710938 524.30859375 C139.14917711 524.21520461 141.51123166 524.12674378 143.8737793 524.04638672 C170.09070138 523.11216587 192.01154732 515.84238766 211 497 C211.66 496.01 212.32 495.02 213 494 C213.66 494 214.32 494 215 494 C215.25523437 493.46503906 215.51046875 492.93007813 215.7734375 492.37890625 C217.26566004 489.4847549 218.95304738 486.73185907 220.625 483.9375 C236.40263843 456.63933783 243.58794164 424.99190607 251.2542572 394.69737244 C252.3234402 390.50245873 253.47875366 386.37194271 254.8203125 382.25390625 C256.92522682 375.41574676 256.07297411 369.36891144 254.3125 362.5 C242.99224582 314.71195107 241.36896488 264.4241853 240.58500862 215.52362633 C240.53332923 212.33654627 240.47691817 209.14957863 240.41929626 205.96260071 C240.25619327 196.92171179 240.09765604 187.88076217 239.95043945 178.83959961 C239.85917425 173.25503855 239.75967472 167.67067223 239.65517998 162.08634377 C239.61747782 159.98924783 239.58273941 157.89209605 239.5512867 155.79489708 C239.39910823 145.70391628 239.1238231 135.67329701 238.09936523 125.62817383 C237.98742498 124.51300526 237.98742498 124.51300526 237.8732233 123.37530804 C235.98007357 106.62615994 229.68724924 90.15040513 216.63671875 78.9765625 C203.77141907 68.95987476 190.2594522 66.01360298 174.26953125 67.203125 C161.15149758 68.98578246 149.65610217 76.19703255 141 86 C131.12786473 99.34870118 128.84092963 111.95163042 128.86869812 128.15412903 C128.86658241 129.25732331 128.86446669 130.3605176 128.86228687 131.49714202 C128.85630945 135.18275644 128.85728538 138.86833641 128.8581543 142.55395508 C128.85512148 145.20048203 128.85167382 147.84700502 128.84762573 150.49353027 C128.83953365 156.18630274 128.83457635 161.87907076 128.83133507 167.57184792 C128.82582723 176.56685386 128.80892057 185.56182214 128.78999329 194.55680847 C128.78363768 197.63627714 128.77732917 200.7157459 128.77101612 203.79521465 C128.76943236 204.56463847 128.7678486 205.33406228 128.76621684 206.12680197 C128.74830087 214.8738386 128.73206194 223.62087785 128.71704102 232.36791992 C128.71566514 233.16708435 128.71428927 233.96624878 128.71287171 234.78963032 C128.69090548 247.76217851 128.68017539 260.73471693 128.67267027 273.70728043 C128.66460763 287.02930828 128.64135032 300.35125228 128.6047166 313.67323226 C128.5826682 321.89012026 128.57303401 330.10683602 128.57921693 338.32375213 C128.58238435 343.94765759 128.57110926 349.57141548 128.54832252 355.19527528 C128.53562039 358.44232968 128.53169014 361.68898693 128.54073906 364.93606377 C128.54954934 368.45131066 128.53406047 371.96561899 128.51225281 375.48078918 C128.52491661 377.0294936 128.52491661 377.0294936 128.53783625 378.60948497 C128.52158992 380.01659442 128.52158992 380.01659442 128.50501537 381.45213032 C128.50355016 382.66965393 128.50355016 382.66965393 128.50205535 383.91177398 C128 386 128 386 126.13206416 387.76001185 C123.40018263 389.34884805 121.52949101 389.38687622 118.37695312 389.40405273 C117.24898315 389.41673691 116.12101318 389.42942108 114.9588623 389.44248962 C113.74525024 389.43955399 112.53163818 389.43661835 111.28125 389.43359375 C110.03122192 389.4388356 108.78119385 389.44407745 107.49328613 389.44947815 C104.85018423 389.45590215 102.20794557 389.45599529 99.56494141 389.44604492 C96.18187048 389.43454791 92.79984222 389.4547796 89.41690826 389.48396206 C86.18418345 389.5067403 82.95153628 389.49985723 79.71875 389.49609375 C78.50513794 389.50732773 77.29152588 389.51856171 76.0411377 389.53013611 C74.91316772 389.52075516 73.78519775 389.51137421 72.62304688 389.50170898 C71.63139526 389.50154282 70.63974365 389.50137665 69.61804199 389.50120544 C66.04482659 388.81713887 65.13439355 387.97049311 63 385 C62.39243207 381.64034168 62.46256692 378.30970094 62.49447632 374.90357971 C62.48534114 373.34646905 62.48534114 373.34646905 62.47602141 371.75790161 C62.46036359 368.26749339 62.47323404 364.77776573 62.48583984 361.28735352 C62.48038127 358.78884447 62.47314116 356.29033878 62.46424866 353.7918396 C62.44888021 348.40236054 62.44561702 343.01307905 62.45301437 337.6235981 C62.46354312 329.8084753 62.45012151 321.99353337 62.43054982 314.1784346 C62.39918774 301.46880934 62.38420348 288.75922228 62.38085938 276.04956055 C62.38065539 275.28874308 62.3804514 274.5279256 62.38024123 273.74405306 C62.37993618 272.6015549 62.37993618 272.6015549 62.37962496 271.43597597 C62.37671556 260.67956081 62.36993356 249.92315758 62.35839844 239.16674805 C62.35759314 238.41201454 62.35678785 237.65728104 62.35595815 236.87967683 C62.3421414 224.23798678 62.32030071 211.59631748 62.2945286 198.95464653 C62.27918032 191.17418099 62.27185043 183.39378393 62.27532353 175.61330353 C62.27762934 169.62460202 62.27017207 163.63595281 62.25944328 157.64725876 C62.25678574 155.20982809 62.25746858 152.77239083 62.26195335 150.33496284 C63.36698993 114.74910319 63.36698993 114.74910319 50 83 C49.54882812 82.38898438 49.09765625 81.77796875 48.6328125 81.1484375 C41.42392968 71.90314711 31.10366875 66.25655253 19.54492188 64.66113281 C14.33024593 64.06002289 9.10845791 63.60378393 3.87255859 63.23364258 C2 63 2 63 0 62 C0 41.54 0 21.08 0 0 Z M361 308 C359.989375 308.61875 358.97875 309.2375 357.9375 309.875 C341.26414813 321.93657369 329.8106996 344.10487509 326 364 C324.76965661 378.57644122 333.19601996 394.81830464 342.19921875 405.64453125 C344.41342028 408.15195472 346.68959686 410.58136176 349 413 C349.54011719 413.61488281 350.08023437 414.22976563 350.63671875 414.86328125 C362.57827952 427.94786295 382.47374277 436.7583578 400 438 C404.34890959 438.18505998 408.65103119 438.16400533 413 438 C413.73347656 437.99355469 414.46695313 437.98710937 415.22265625 437.98046875 C437.48321136 436.82240519 455.12323896 421.76751812 469.5 406.3125 C480.89159734 392.20691709 483.11239762 372.50867502 482 355 C481.41855839 349.90632926 480.28013909 344.95984627 479 340 C478.73316406 338.93910156 478.46632813 337.87820313 478.19140625 336.78515625 C475.93563896 328.99523989 471.9996659 323.3091022 467 317 C466.01 315.515 466.01 315.515 465 314 C464.34 314 463.68 314 463 314 C463 313.34 463 312.68 463 312 C445.96574172 297.04853313 426.7171319 290.84615241 404.16699219 291.85205078 C388.13936914 292.94632067 373.76263418 298.23465112 361 308 Z " fill="#9334E9" transform="translate(0,0)"/>
<path d="M0 0 C0.66 0 1.32 0 2 0 C9.36116434 20.47547169 9.15204968 40.75734724 9.18945312 62.25708008 C9.19740691 64.79936354 9.20579575 67.34164568 9.21458435 69.88392639 C9.2325568 75.33268188 9.24770889 80.78143342 9.26036072 86.23020363 C9.27874744 94.10905364 9.30340654 101.98787489 9.32973462 109.86670192 C9.37239179 122.65469635 9.41154557 135.44269864 9.44775391 148.23071289 C9.44991671 148.99411217 9.45207951 149.75751145 9.45430785 150.54404404 C9.47404711 157.52273228 9.49355356 164.50142117 9.51302338 171.48011017 C9.52603402 176.14144407 9.5391078 180.80277779 9.55224609 185.46411133 C9.55440496 186.23051266 9.55656383 186.99691398 9.55878812 187.78653959 C9.59484922 200.54596957 9.63478576 213.30538452 9.67754889 226.06479377 C9.7037236 233.93040854 9.72637792 241.79601871 9.74453247 249.66165616 C9.75865205 255.67159543 9.7777748 261.68150763 9.79878426 267.69142723 C9.80657105 270.1630645 9.81262704 272.63470788 9.81687737 275.10635376 C9.82288001 278.46402741 9.83490566 281.82162539 9.84851074 285.17927551 C9.84880673 286.17067766 9.84910272 287.1620798 9.84940767 288.18352443 C9.85426542 289.07559775 9.85912316 289.96767108 9.86412811 290.88677692 C9.86624408 291.66255095 9.86836005 292.43832497 9.87054014 293.2376073 C9.80900784 295.02680932 9.80900784 295.02680932 11 296 C12.74838835 296.1231517 14.50164504 296.17787811 16.25415039 296.20532227 C17.37523697 296.22526749 18.49632355 296.24521271 19.65138245 296.26576233 C20.8711528 296.28247482 22.09092316 296.29918732 23.34765625 296.31640625 C25.2100016 296.3475779 25.2100016 296.3475779 27.10997009 296.37937927 C30.41599123 296.43383609 33.72202245 296.48404205 37.02813721 296.53222656 C40.39967491 296.58239856 43.77112053 296.63810701 47.14257812 296.69335938 C53.76164551 296.80070038 60.3807816 296.90244198 67 297 C67.33 297.66 67.66 298.32 68 299 C60.63731904 299.09273534 53.27476427 299.16378235 45.91161728 299.20724869 C42.4924632 299.22811201 39.07370906 299.25640505 35.65478516 299.30175781 C31.72303069 299.35358618 27.79143743 299.37295578 23.859375 299.390625 C22.02013458 299.42159271 22.02013458 299.42159271 20.14373779 299.45318604 C19.00285706 299.45348816 17.86197632 299.45379028 16.68652344 299.45410156 C15.68280701 299.46298401 14.67909058 299.47186646 13.6449585 299.48101807 C10.04271606 298.8259062 9.14494998 297.98932574 7 295 C6.39261984 291.6402889 6.46256668 288.30972584 6.49447632 284.90357971 C6.4883862 283.86550594 6.48229608 282.82743216 6.47602141 281.75790161 C6.46036359 278.26749339 6.47323404 274.77776573 6.48583984 271.28735352 C6.48038127 268.78884447 6.47314116 266.29033878 6.46424866 263.7918396 C6.44888021 258.40236054 6.44561702 253.01307905 6.45301437 247.6235981 C6.46354312 239.8084753 6.45012151 231.99353337 6.43054982 224.1784346 C6.39918774 211.46880934 6.38420348 198.75922228 6.38085938 186.04956055 C6.38055339 184.90833434 6.38055339 184.90833434 6.38024123 183.74405306 C6.38003786 182.98238762 6.37983449 182.22072218 6.37962496 181.43597597 C6.37671556 170.67956081 6.36993356 159.92315758 6.35839844 149.16674805 C6.35719049 148.03464779 6.35719049 148.03464779 6.35595815 146.87967683 C6.3421414 134.23798678 6.32030071 121.59631748 6.2945286 108.95464653 C6.27918032 101.17418099 6.27185043 93.39378393 6.27532353 85.61330353 C6.27762934 79.62460202 6.27017207 73.63595281 6.25944328 67.64725876 C6.25678574 65.20982809 6.25746858 62.77239083 6.26195335 60.33496284 C6.29721286 39.72648296 5.39003002 19.96404324 0 0 Z " fill="#D2B9E5" transform="translate(56,90)"/>
<path d="M0 0 C0 0.99 0 1.98 0 3 C-1.72265625 4.54296875 -1.72265625 4.54296875 -4.0625 6.1875 C-15.42912129 14.73919 -22.37894614 26.3423963 -24.5330801 40.50473022 C-25.16183515 45.724053 -25.15319952 50.92323763 -25.15821838 56.17431641 C-25.16315636 57.27962739 -25.16809434 58.38493837 -25.17318195 59.52374363 C-25.18850342 63.21634846 -25.19690307 66.90893597 -25.20532227 70.6015625 C-25.214905 73.25295765 -25.22487261 75.90434875 -25.23532104 78.55574036 C-25.25702804 84.25833419 -25.27519349 89.96093038 -25.29092598 95.6635437 C-25.31367743 103.90847646 -25.34181281 112.15338399 -25.37124526 120.39829528 C-25.41885666 133.77642398 -25.46213824 147.15456301 -25.50268555 160.53271484 C-25.54207336 173.52523604 -25.58350742 186.51774807 -25.62768555 199.51025391 C-25.63040982 200.31165393 -25.63313409 201.11305395 -25.63594092 201.93873882 C-25.64962094 205.95928903 -25.6633411 209.9798391 -25.67708123 214.0003891 C-25.79094461 247.33357377 -25.89777628 280.66677761 -26 314 C-26.66 314 -27.32 314 -28 314 C-28.06874886 279.84191336 -28.12157073 245.68384258 -28.15319599 211.52570163 C-28.15694786 207.4880002 -28.16083085 203.45029889 -28.16479492 199.41259766 C-28.16558185 198.60880401 -28.16636878 197.80501037 -28.16717956 196.97685935 C-28.18021398 183.98211131 -28.20385694 170.98740331 -28.23145839 157.99267898 C-28.25956735 144.64716743 -28.27618784 131.30167676 -28.28226548 117.95613682 C-28.28637056 109.72906236 -28.29931026 101.5021011 -28.3237494 93.2750615 C-28.33967447 87.62442046 -28.34438513 81.97383748 -28.34050413 76.32317565 C-28.33859304 73.06877526 -28.34307752 69.8146119 -28.35761642 66.56023788 C-28.4868116 36.13787651 -28.4868116 36.13787651 -21.9375 22.6875 C-21.43089844 21.61886719 -20.92429688 20.55023438 -20.40234375 19.44921875 C-19 17 -19 17 -17 16 C-16.67 15.01 -16.34 14.02 -16 13 C-11.22522538 8.08233936 -5.53332107 4.01754429 0 0 Z " fill="#D0B1E6" transform="translate(154,72)"/>
<path d="M0 0 C0.66 0 1.32 0 2 0 C13.37651832 20.73977638 15.17908781 41.89456779 15.52072144 65.15188217 C15.56405089 68.09762464 15.61797907 71.04303021 15.67407227 73.98855591 C15.7722261 79.22881845 15.86158578 84.46918573 15.94787598 89.70965576 C16.36622564 115.11484537 16.81361988 140.50670365 17.9765625 165.890625 C18.0168457 166.7795129 18.05712891 167.6684008 18.09863281 168.5842247 C19.38482934 196.54564203 21.8179407 224.31653984 26 252 C26.1635498 253.09828125 26.32709961 254.1965625 26.49560547 255.328125 C26.6607666 256.38515625 26.82592773 257.4421875 26.99609375 258.53125 C27.14103271 259.46517578 27.28597168 260.39910156 27.43530273 261.36132812 C28.01581907 264.07391809 28.95375241 266.43751393 30 269 C30.1953125 271.67578125 30.1953125 271.67578125 30.125 274.3125 C30.10695313 275.19550781 30.08890625 276.07851563 30.0703125 276.98828125 C30.04710937 277.65214844 30.02390625 278.31601562 30 279 C30.66 279 31.32 279 32 279 C32 281.31 32 283.62 32 286 C31.34 286 30.68 286 30 286 C17.63016113 233.75234617 14.44328022 180.0597267 13.58500862 126.52362633 C13.53332923 123.33654627 13.47691817 120.14957863 13.41929626 116.96260071 C13.25619327 107.92171179 13.09765604 98.88076217 12.95043945 89.83959961 C12.85917425 84.25503855 12.75967472 78.67067223 12.65517998 73.08634377 C12.61747782 70.98924783 12.58273941 68.89209605 12.5512867 66.79489708 C12.39918117 56.70875264 12.12529035 46.68073958 11.10717773 36.63989258 C11.03359826 35.89801791 10.96001879 35.15614325 10.88420963 34.39178753 C9.67689071 23.66558377 6.74288072 12.72496014 0.91796875 3.56640625 C0 2 0 2 0 0 Z " fill="#C9BCD4" transform="translate(227,89)"/>
<path d="M0 0 C0.66 0 1.32 0 2 0 C20.99062235 36.01868799 22.23085312 77.75268652 22.4140625 117.5703125 C22.43283606 120.20116745 22.4524137 122.83201676 22.4727478 125.46286011 C22.51885971 131.59954888 22.55592214 137.73625467 22.58942068 143.87302387 C22.62813128 150.87959225 22.67740641 157.88607524 22.72740483 164.89257073 C22.82971453 179.26164759 22.91929072 193.63078571 23 208 C23.47050781 207.4225 23.94101562 206.845 24.42578125 206.25 C25.35970703 205.13625 25.35970703 205.13625 26.3125 204 C26.92738281 203.2575 27.54226563 202.515 28.17578125 201.75 C30 200 30 200 33 200 C32.04882866 201.1725131 31.08882991 202.33787015 30.125 203.5 C29.32449219 204.47453125 29.32449219 204.47453125 28.5078125 205.46875 C28.01023437 205.9740625 27.51265625 206.479375 27 207 C26.34 207 25.68 207 25 207 C24.731875 207.804375 24.46375 208.60875 24.1875 209.4375 C23.795625 210.283125 23.40375 211.12875 23 212 C22.01 212.33 21.02 212.66 20 213 C19.99668985 212.37882829 19.99337971 211.75765657 19.98996925 211.11766148 C19.90811878 195.87882198 19.81583502 180.64008253 19.71247292 165.40137577 C19.66272597 158.03152013 19.61628512 150.66167355 19.578125 143.29174805 C19.54478718 136.8548866 19.50473989 130.41810458 19.45720994 123.98133177 C19.43235105 120.58512435 19.4114634 117.18901625 19.39665604 113.79274178 C19.22956745 76.74158079 17.32570127 39.00296701 1.3203125 4.95703125 C0 2 0 2 0 0 Z " fill="#C39CE6" transform="translate(284,61)"/>
<path d="M0 0 C0.66 0 1.32 0 2 0 C2.33 20.46 2.66 40.92 3 62 C25.88620906 62.28254579 47.0812706 62.2773739 69.1640625 55.76953125 C72 55 72 55 75 55 C75 54.34 75 53.68 75 53 C78.96 52.01 82.92 51.02 87 50 C87 50.66 87 51.32 87 52 C70.50614726 58.62029124 53.75809726 64.12090816 35.859375 64.203125 C34.41428558 64.21167511 34.41428558 64.21167511 32.94000244 64.22039795 C30.91281217 64.2298103 28.88560687 64.23636689 26.85839844 64.24023438 C23.74648006 64.25001106 20.6352031 64.28109776 17.5234375 64.3125 C15.55208725 64.31902381 13.58073229 64.32427671 11.609375 64.328125 C10.20942291 64.3466452 10.20942291 64.3466452 8.78118896 64.36553955 C7.91979309 64.36253845 7.05839722 64.35953735 6.17089844 64.35644531 C5.03222321 64.36191376 5.03222321 64.36191376 3.87054443 64.36749268 C3.25326477 64.24622009 2.63598511 64.12494751 2 64 C-0.32441815 60.51337277 -0.24401741 59.17422077 -0.22705078 55.05981445 C-0.22689972 53.83877518 -0.22674866 52.6177359 -0.22659302 51.35969543 C-0.21627045 50.04087875 -0.20594788 48.72206207 -0.1953125 47.36328125 C-0.19158161 45.99993599 -0.188735 44.63658804 -0.18673706 43.27323914 C-0.17910653 39.68765846 -0.15946315 36.10224021 -0.1373291 32.51672363 C-0.11685811 28.85687456 -0.10773267 25.19699921 -0.09765625 21.53710938 C-0.0762166 14.35799893 -0.04208779 7.17902224 0 0 Z " fill="#D4C3DF" transform="translate(123,527)"/>
<path d="M0 0 C1.32 0 2.64 0 4 0 C4 0.66 4 1.32 4 2 C5.65 2 7.3 2 9 2 C9 2.66 9 3.32 9 4 C12.9881317 5.05076524 16.99139676 6.03043946 21 7 C21.680625 7.17112305 22.36125 7.34224609 23.0625 7.51855469 C47.60052571 13.61972141 72.17966202 13.2060529 96.59375 6.8046875 C100 6 100 6 104 6 C104 5.34 104 4.68 104 4 C106.64 3.67 109.28 3.34 112 3 C112 3.66 112 4.32 112 5 C76.88632074 16.91012831 39.58732496 19.42241006 5 4 C2.05859375 2.37890625 2.05859375 2.37890625 0 1 C0 0.67 0 0.34 0 0 Z " fill="#BFB4C6" transform="translate(349,490)"/>
<path d="M0 0 C1.36328125 1.48046875 1.36328125 1.48046875 1.36328125 3.48046875 C0.70328125 3.48046875 0.04328125 3.48046875 -0.63671875 3.48046875 C-0.63671875 2.82046875 -0.63671875 2.16046875 -0.63671875 1.48046875 C-1.48169922 1.09955078 -1.48169922 1.09955078 -2.34375 0.7109375 C-4.93579358 -0.68002286 -7.02611845 -2.37071562 -9.32421875 -4.20703125 C-26.27181299 -16.64584039 -47.26146715 -19.88175693 -67.76928711 -16.74658203 C-76.57359568 -15.19091325 -84.46364293 -12.09338535 -92.63671875 -8.51953125 C-94.30076795 -7.84635781 -95.96638961 -7.17696777 -97.63671875 -6.51953125 C-96.63671875 -9.51953125 -96.63671875 -9.51953125 -93.4609375 -11.23828125 C-92.08823652 -11.84623975 -90.70880592 -12.43915216 -89.32421875 -13.01953125 C-88.60234375 -13.32777832 -87.88046875 -13.63602539 -87.13671875 -13.95361328 C-57.094609 -26.44235758 -24.53454682 -21.48616625 0 0 Z " fill="#C3B1D2" transform="translate(463.63671875,310.51953125)"/>
<path d="M0 0 C0 0.66 0 1.32 0 2 C-4.07540221 2.38206896 -6.91720655 1.27385081 -10.66918945 -0.20581055 C-19.99882508 -3.38474683 -30.00695614 -3.3552408 -39.75 -3.3125 C-40.73929001 -3.30976578 -40.73929001 -3.30976578 -41.74856567 -3.30697632 C-60.37244856 -3.2203982 -77.42371505 0.22431973 -94 9 C-94.66 9 -95.32 9 -96 9 C-96 8.34 -96 7.68 -96 7 C-88.05107632 2.93174555 -80.18828718 -0.49898607 -71.5625 -2.875 C-70.46446045 -3.17893677 -70.46446045 -3.17893677 -69.34423828 -3.48901367 C-48.38979539 -8.99496107 -20.03637247 -8.80806869 0 0 Z " fill="#C1B3CF" transform="translate(224,6)"/>
<path d="M0 0 C0 0.99 0 1.98 0 3 C-1.72265625 4.54296875 -1.72265625 4.54296875 -4.0625 6.1875 C-15.45844199 14.76124946 -22.47239804 26.44084662 -24.53013611 40.66442871 C-25.05250439 44.98897233 -25.17221829 49.266793 -25.20532227 53.61914062 C-25.21522186 54.43960876 -25.22512146 55.2600769 -25.23532104 56.10540771 C-25.26664347 58.78899352 -25.2915764 61.47259696 -25.31640625 64.15625 C-25.33700112 66.02812126 -25.35799822 67.89998814 -25.37937927 69.77185059 C-25.43433852 74.67737252 -25.48386215 79.58293459 -25.53222656 84.48852539 C-25.58263357 89.50280288 -25.63821901 94.51702272 -25.69335938 99.53125 C-25.80062071 109.35411732 -25.90213561 119.17703488 -26 129 C-26.33 129 -26.66 129 -27 129 C-27.09299485 117.21200649 -27.16391413 105.42410136 -27.20724869 93.63581467 C-27.22805518 88.16104859 -27.25624531 82.68653492 -27.30175781 77.21191406 C-27.34546392 71.92100825 -27.36918919 66.63034406 -27.37950897 61.33927155 C-27.38685609 59.32840425 -27.40120246 57.31754902 -27.42292023 55.30678558 C-27.53436276 44.5536067 -27.57115367 34.98261022 -23 25 C-22.64456116 24.19254333 -22.28912231 23.38508667 -21.9229126 22.55316162 C-19.42525065 17.21262533 -19.42525065 17.21262533 -17 16 C-16.67 15.01 -16.34 14.02 -16 13 C-11.22522538 8.08233936 -5.53332107 4.01754429 0 0 Z " fill="#D3C6D4" transform="translate(154,72)"/>
<path d="M0 0 C0.66 0.33 1.32 0.66 2 1 C1.5875 1.48726563 1.175 1.97453125 0.75 2.4765625 C-7.76766021 12.93351142 -13.64304526 24.27440389 -18 37 C-18.49693359 38.31097656 -18.49693359 38.31097656 -19.00390625 39.6484375 C-22.71748086 50.2063133 -19.95722688 59.04547269 -16.05859375 69.12890625 C-15 72 -15 72 -15 74 C-15.66 74 -16.32 74 -17 74 C-23.89903667 57.91102517 -25.01981761 47.19453478 -19 31 C-18.55140625 29.76636719 -18.1028125 28.53273438 -17.640625 27.26171875 C-13.61882751 17.10555037 -7.99132173 7.55740381 0 0 Z " fill="#BFABD2" transform="translate(348,317)"/>
<path d="M0 0 C0.33 0 0.66 0 1 0 C1.33 38.94 1.66 77.88 2 118 C4.31 115.36 6.62 112.72 9 110 C9.99 110 10.98 110 12 110 C11.04882866 111.1725131 10.08882991 112.33787015 9.125 113.5 C8.32449219 114.47453125 8.32449219 114.47453125 7.5078125 115.46875 C7.01023437 115.9740625 6.51265625 116.479375 6 117 C5.34 117 4.68 117 4 117 C3.67 117.99 3.34 118.98 3 120 C1.515 120.495 1.515 120.495 0 121 C0 81.07 0 41.14 0 0 Z " fill="#F0EAF6" transform="translate(305,151)"/>
<path d="M0 0 C1.02397385 -0.00592163 1.02397385 -0.00592163 2.06863403 -0.01196289 C14.18673327 -0.04461523 25.60860759 1.37418127 37.375 4.3125 C37.375 4.6425 37.375 4.9725 37.375 5.3125 C33.09199052 5.46546462 29.89913556 5.45497495 25.72045898 4.3190918 C21.58289927 3.26637424 17.57459793 3.00611721 13.31640625 3.01171875 C12.56898666 3.00743362 11.82156708 3.0031485 11.05149841 2.99873352 C9.47583011 2.99302617 7.90013549 2.99246322 6.32446289 2.99682617 C3.97428403 2.99995109 1.62541123 2.97660553 -0.72460938 2.95117188 C-9.29820303 2.91707152 -17.41833825 3.49043079 -25.82164001 5.26115417 C-30.54924948 6.24267206 -34.82562602 6.43901894 -39.625 6.3125 C-36.13806464 3.98787643 -33.48130817 3.53118014 -29.375 2.75 C-28.09109375 2.50121094 -26.8071875 2.25242188 -25.484375 1.99609375 C-16.93277678 0.48138759 -8.67058147 0.03625637 0 0 Z " fill="#D0ABF1" transform="translate(410.625,225.6875)"/>
<path d="M0 0 C0.33 0 0.66 0 1 0 C1.26416557 8.16396891 1.52514151 16.3280315 1.78230286 24.49222374 C1.90187241 28.28523028 2.02244581 32.07819878 2.14550781 35.87109375 C3.19003033 68.10637266 3.19003033 68.10637266 3 83 C2.34 83 1.68 83 1 83 C0.24551202 71.95226639 -0.14069756 60.97646646 -0.09765625 49.90234375 C-0.09578308 48.446905 -0.09436345 46.99146561 -0.09336853 45.536026 C-0.08961393 41.76986847 -0.07984722 38.00375168 -0.06866455 34.23760986 C-0.05829544 30.36869864 -0.05383828 26.4997806 -0.04882812 22.63085938 C-0.03821589 15.08722134 -0.02122847 7.54361645 0 0 Z " fill="#D3C1E3" transform="translate(242,194)"/>
<path d="M0 0 C0.33 0 0.66 0 1 0 C1.46328591 9.31052152 0.39205262 17.18007234 -2.375 26.0625 C-2.72715576 27.22120605 -3.07931152 28.37991211 -3.44213867 29.57373047 C-6.67627393 39.77828752 -10.53233659 51.30667896 -17 60 C-18.485 60.495 -18.485 60.495 -20 61 C-18.85005431 57.92328361 -17.52096235 54.98948318 -16.046875 52.05859375 C-7.67728809 35.32307318 -2.72935993 18.4830339 0 0 Z " fill="#C4B0D6" transform="translate(545,379)"/>
<path d="M0 0 C0.66 0 1.32 0 2 0 C2.65455759 1.99716175 3.2981943 3.99790387 3.9375 6 C4.29714844 7.11375 4.65679687 8.2275 5.02734375 9.375 C9.06177296 24.41094499 7.89752624 41.30742127 3 56 C2.34 56 1.68 56 1 56 C1.13277344 55.28714844 1.26554687 54.57429688 1.40234375 53.83984375 C1.57894531 52.88207031 1.75554687 51.92429687 1.9375 50.9375 C2.11152344 49.99777344 2.28554688 49.05804688 2.46484375 48.08984375 C5.00639287 33.41564411 4.32227425 20.40799766 1 6 C0.65153353 4.00258111 0.31310537 2.00326637 0 0 Z " fill="#C9ADE3" transform="translate(477,334)"/>
<path d="M0 0 C0.495 1.485 0.495 1.485 1 3 C-1.76895124 3.65492246 -4.5397557 4.29899554 -7.3125 4.9375 C-8.07884766 5.11990234 -8.84519531 5.30230469 -9.63476562 5.49023438 C-19.78069759 7.80569603 -29.812995 8.14900966 -40.1875 8.0625 C-41.75854492 8.05573242 -41.75854492 8.05573242 -43.36132812 8.04882812 C-45.90761536 8.03720124 -48.4537746 8.02086281 -51 8 C-51.33 7.34 -51.66 6.68 -52 6 C-51.02877197 5.96036133 -50.05754395 5.92072266 -49.05688477 5.87988281 C-45.3638168 5.72474649 -41.67202654 5.54785975 -37.98022461 5.36523438 C-36.39910571 5.28987457 -34.81771407 5.21998659 -33.23608398 5.15625 C-21.73861959 4.68771277 -11.10862246 3.01088867 0 0 Z " fill="#C99FEF" transform="translate(177,519)"/>
<path d="M0 0 C0.66 0.33 1.32 0.66 2 1 C-1.75 4 -1.75 4 -4 4 C-4.33 4.99 -4.66 5.98 -5 7 C-6.69660916 8.52011626 -8.45678036 9.97015146 -10.25 11.375 C-14.08453575 14.39081055 -17.60505938 17.49354674 -21 21 C-25.98551091 19.82693861 -27.83338224 16.89902719 -30.5703125 12.875 C-32.03738649 10.74012891 -32.03738649 10.74012891 -35 9 C-35 8.34 -35 7.68 -35 7 C-35.78375 6.7525 -36.5675 6.505 -37.375 6.25 C-40.32317108 4.84610901 -40.9024777 3.99324263 -42 1 C-34.13409821 4.59285093 -28.4308275 11.46603567 -23 18 C-22.13375 17.236875 -21.2675 16.47375 -20.375 15.6875 C-16.56106357 12.41616484 -12.63390246 9.29631308 -8.6875 6.1875 C-8.06472168 5.69531982 -7.44194336 5.20313965 -6.80029297 4.69604492 C-2.24474981 1.1223749 -2.24474981 1.1223749 0 0 Z " fill="#CAB4DD" transform="translate(120,18)"/>
<path d="M0 0 C0.66 0.66 1.32 1.32 2 2 C-2.09941356 4.85280826 -6.08469217 5.88900596 -10.9375 6.6875 C-12.06031372 6.87638794 -12.06031372 6.87638794 -13.20581055 7.0690918 C-24.37731843 8.81904589 -34.94051303 8.26861271 -46 6 C-46 5.34 -46 4.68 -46 4 C-45.28457031 4.0721875 -44.56914062 4.144375 -43.83203125 4.21875 C-28.17964082 5.67666994 -14.8093874 5.3875098 0 0 Z " fill="#C69BED" transform="translate(434,432)"/>
<path d="M0 0 C0.66 0 1.32 0 2 0 C2 2.31 2 4.62 2 7 C1.34 7 0.68 7 0 7 C-0.11786865 8.14146484 -0.2357373 9.28292969 -0.35717773 10.45898438 C-0.92673057 14.9934988 -2.02948593 19.26935266 -3.28515625 23.65625 C-3.50570175 24.44398804 -3.72624725 25.23172607 -3.95347595 26.04333496 C-4.65111588 28.5304373 -5.35666058 31.01521374 -6.0625 33.5 C-6.54024039 35.1977685 -7.01745894 36.89568394 -7.49414062 38.59375 C-8.65673771 42.7308889 -9.82642382 46.86596276 -11 51 C-11.66 51 -12.32 51 -13 51 C-11.61539778 44.59974687 -10.06990184 38.26446505 -8.3984375 31.93359375 C-8.0364476 30.55434471 -8.0364476 30.55434471 -7.66714478 29.14723206 C-6.90468082 26.24356896 -6.139881 23.34052723 -5.375 20.4375 C-4.8540114 18.45511892 -4.33317659 16.47269742 -3.8125 14.49023438 C-2.54344333 9.6596873 -1.27229307 4.82969562 0 0 Z " fill="#C2B3CF" transform="translate(253,388)"/>
<path d="M0 0 C0 0.66 0 1.32 0 2 C-30.62816718 14.29351262 -30.62816718 14.29351262 -45.875 14.0625 C-46.65617188 14.05347656 -47.43734375 14.04445313 -48.2421875 14.03515625 C-48.82226562 14.02355469 -49.40234375 14.01195312 -50 14 C-50.33 13.34 -50.66 12.68 -51 12 C-50.4423999 11.93006836 -49.8847998 11.86013672 -49.31030273 11.78808594 C-38.59442369 10.418743 -28.20892833 8.82647226 -17.8359375 5.76953125 C-15 5 -15 5 -12 5 C-12 4.34 -12 3.68 -12 3 C-10.37604003 2.49663233 -8.75079459 1.99741024 -7.125 1.5 C-6.22007812 1.2215625 -5.31515625 0.943125 -4.3828125 0.65625 C-2 0 -2 0 0 0 Z " fill="#BFACCD" transform="translate(210,577)"/>
<path d="M0 0 C4.53342763 1.385214 6.10120081 3.3592778 9 7 C18.25367899 15.46580315 28.94004454 23.08420987 40 29 C39.67 29.66 39.34 30.32 39 31 C26.32836583 25.76076664 15.53195901 16.54911928 5.5 7.375 C4.94207764 6.86638428 4.38415527 6.35776855 3.80932617 5.83374023 C2.4962386 4.60037359 1.24156224 3.30534112 0 2 C0 1.34 0 0.68 0 0 Z " fill="#BFA8D5" transform="translate(300,455)"/>
<path d="M0 0 C1.32 0 2.64 0 4 0 C4 0.66 4 1.32 4 2 C5.65 2 7.3 2 9 2 C9 2.66 9 3.32 9 4 C24.22842134 8.01227868 39.21598794 11.52813118 55 12 C55 12.33 55 12.66 55 13 C37.02752807 15.73752884 15.24920452 11.2143628 0 1 C0 0.67 0 0.34 0 0 Z " fill="#C7B7D6" transform="translate(349,490)"/>
<path d="M0 0 C0 0.99 0 1.98 0 3 C-1.72265625 4.54296875 -1.72265625 4.54296875 -4.0625 6.1875 C-15.50785712 14.79842699 -22.91685349 27.39489047 -25.6875 41.5 C-25.790625 42.325 -25.89375 43.15 -26 44 C-26.33 44 -26.66 44 -27 44 C-27.86658208 34.46759713 -23.61716296 25.1569879 -19 17 C-18.34 16.67 -17.68 16.34 -17 16 C-16.67 15.01 -16.34 14.02 -16 13 C-11.22522538 8.08233936 -5.53332107 4.01754429 0 0 Z " fill="#C8B1DD" transform="translate(154,72)"/>
<path d="M0 0 C0 4.12423788 -2.181605 5.78639044 -4.875 8.625 C-5.3709668 9.15552979 -5.86693359 9.68605957 -6.37792969 10.23266602 C-12.96268896 17.18894302 -19.93268488 23.78985899 -28 29 C-28.66 29 -29.32 29 -30 29 C-28.4756857 24.8105324 -25.42217573 22.81808421 -21.9375 20.3125 C-14.3541091 14.67567043 -7.83092933 8.46358955 -2 1 C-1.34 0.67 -0.68 0.34 0 0 Z " fill="#C2B0D3" transform="translate(517,451)"/>
<path d="M0 0 C0 0.33 0 0.66 0 1 C-0.61818604 1.03963867 -1.23637207 1.07927734 -1.87329102 1.12011719 C-18.33799199 2.22642285 -32.96555711 3.79093802 -47.70703125 11.828125 C-50 13 -50 13 -52 13 C-51 10 -51 10 -47.82421875 8.28125 C-46.45199499 7.67221514 -45.07249579 7.07940329 -43.6875 6.5 C-42.95474854 6.19247803 -42.22199707 5.88495605 -41.46704102 5.56811523 C-27.5134125 -0.15523748 -14.94103427 -0.37029762 0 0 Z " fill="#B6A4C5" transform="translate(418,291)"/>
<path d="M0 0 C0 3.44723911 -0.3462161 3.76095103 -2.5703125 6.1875 C-3.13073242 6.79907959 -3.69115234 7.41065918 -4.26855469 8.04077148 C-4.88118164 8.68731689 -5.49380859 9.3338623 -6.125 10 C-6.74793945 10.66265869 -7.37087891 11.32531738 -8.01269531 12.00805664 C-14.11162249 18.35384516 -20.71552255 24.05108241 -28 29 C-28.66 29 -29.32 29 -30 29 C-28.58665271 25.61675414 -27.0205579 24.00394583 -24.0625 21.875 C-15.86212973 15.71149589 -8.54543575 8.88808924 -2 1 C-1.34 0.67 -0.68 0.34 0 0 Z " fill="#CBBED5" transform="translate(264,535)"/>
<path d="M0 0 C0 5.70125857 -5.14826028 10.07210726 -9 14 C-25.0398773 28 -25.0398773 28 -33 28 C-33 27.34 -33 26.68 -33 26 C-32.20078125 25.62230469 -31.4015625 25.24460937 -30.578125 24.85546875 C-23.37263425 21.24426623 -17.62565705 17.31006049 -11.87207031 11.64526367 C-9.55978285 9.37178103 -8.1303676 8.04345587 -5 7 C-4.29848848 5.6846659 -3.63474075 4.34882408 -3 3 C-1.375 1.25 -1.375 1.25 0 0 Z " fill="#B6A3C2" transform="translate(470,405)"/>
<path d="M0 0 C3.69944233 1.28503995 6.10502424 2.71462086 8.890625 5.45703125 C9.59646729 6.1519165 10.30230957 6.84680176 11.02954102 7.56274414 C11.76229248 8.30516357 12.49504395 9.04758301 13.25 9.8125 C14.00273193 10.56845459 14.75546387 11.32440918 15.53100586 12.10327148 C21.53931659 18.26203317 26.51823124 24.65807112 31 32 C29.515 32.495 29.515 32.495 28 33 C28 32.01 28 31.02 28 30 C27.01 29.67 26.02 29.34 25 29 C23.97415611 27.01313203 22.97767417 25.01100801 22 23 C20.00913506 20.43952591 20.00913506 20.43952591 17.75 18.0625 C16.95464844 17.20398438 16.15929687 16.34546875 15.33984375 15.4609375 C11.23555854 11.14424353 7.17303421 6.90606894 2.5625 3.125 C1.716875 2.42375 0.87125 1.7225 0 1 C0 0.67 0 0.34 0 0 Z " fill="#C1ADD2" transform="translate(251,22)"/>
<path d="M0 0 C3.55578295 2.97524696 6.9317355 5.89421631 10.0625 9.3125 C13.3715831 12.68161182 17.05047802 15.20193805 21 17.75 C21.87217163 18.31521362 21.87217163 18.31521362 22.76196289 18.8918457 C26.70407455 21.36985521 30.68148113 23.2593725 35 25 C35 25.66 35 26.32 35 27 C25.88538738 24.53659118 18.26056103 19.51645719 11.125 13.5 C10.5899585 13.04955322 10.05491699 12.59910645 9.50366211 12.13500977 C5.9310329 9.03141757 2.86933214 5.76930717 0 2 C0 1.34 0 0.68 0 0 Z " fill="#C8B8D5" transform="translate(342,406)"/>
<path d="M0 0 C0 0.66 0 1.32 0 2 C-1.59714844 2.52787109 -1.59714844 2.52787109 -3.2265625 3.06640625 C-11.981057 6.02477271 -20.12800161 9.34372246 -28.2421875 13.77734375 C-31 15 -31 15 -34 14 C-24.7338377 7.82255847 -11.29047475 0 0 0 Z " fill="#BB95DE" transform="translate(371,232)"/>
<path d="M0 0 C0.66 0 1.32 0 2 0 C1.38370741 6.81834816 -0.84689911 12.98968047 -3.0625 19.4375 C-3.62807617 21.1071582 -3.62807617 21.1071582 -4.20507812 22.81054688 C-5.13128335 25.54226609 -6.06305809 28.27194861 -7 31 C-7.66 31 -8.32 31 -9 31 C-6.27712157 20.58618423 -3.11951999 10.30001626 0 0 Z " fill="#C2A8D8" transform="translate(299,458)"/>
<path d="M0 0 C-3.27827566 0.99052082 -6.17885406 1.09096917 -9.59472656 1.02172852 C-11.27601654 0.99158409 -11.27601654 0.99158409 -12.99127197 0.96083069 C-14.79770172 0.92027809 -14.79770172 0.92027809 -16.640625 0.87890625 C-17.87794373 0.85529526 -19.11526245 0.83168427 -20.39007568 0.80735779 C-23.67152126 0.74378104 -26.95282734 0.67556732 -30.23413086 0.60510254 C-33.58569987 0.53427188 -36.9373819 0.46963457 -40.2890625 0.40429688 C-46.85949753 0.27515191 -53.42978549 0.1398924 -60 0 C-60 -0.33 -60 -0.66 -60 -1 C-52.4725193 -1.17687391 -44.94486568 -1.34283553 -37.41684151 -1.49477577 C-33.921466 -1.56566892 -30.42625641 -1.64035295 -26.93115234 -1.72363281 C-22.91522247 -1.81915787 -18.89911642 -1.89831525 -14.8828125 -1.9765625 C-13.62445587 -2.00875885 -12.36609924 -2.0409552 -11.0696106 -2.0741272 C-9.90855804 -2.09429901 -8.74750549 -2.11447083 -7.55126953 -2.13525391 C-6.52534698 -2.15746002 -5.49942444 -2.17966614 -4.44241333 -2.20254517 C-2 -2 -2 -2 0 0 Z " fill="#9750D7" transform="translate(127,387)"/>
<path d="M0 0 C0.66 0 1.32 0 2 0 C0.71011592 6.50805152 -1.1377469 12.42019813 -3.625 18.5625 C-4.11226562 19.78936523 -4.11226562 19.78936523 -4.609375 21.04101562 C-5.40021796 23.02975306 -6.19924219 25.01523399 -7 27 C-7.66 27 -8.32 27 -9 27 C-6.43696551 17.84951721 -3.20468777 8.93993804 0 0 Z " fill="#BCA0D5" transform="translate(239,440)"/>
<path d="M0 0 C0 3.90669288 -1.27850235 4.9073988 -3.75 7.875 C-4.44609375 8.71804688 -5.1421875 9.56109375 -5.859375 10.4296875 C-6.56578125 11.27789062 -7.2721875 12.12609375 -8 13 C-8.680625 13.89332031 -9.36125 14.78664063 -10.0625 15.70703125 C-12.38899256 18.46036015 -14.71943641 19.583393 -18 21 C-18 18 -18 18 -15.41015625 15.37109375 C-14.30157872 14.38495215 -13.18532602 13.40738718 -12.0625 12.4375 C-8.00950979 9.14835092 -8.00950979 9.14835092 -5 5 C-4.34 5 -3.68 5 -3 5 C-2.690625 4.360625 -2.38125 3.72125 -2.0625 3.0625 C-1 1 -1 1 0 0 Z " fill="#D1BEE1" transform="translate(218,489)"/>
<path d="M0 0 C5.91015579 0.5328829 10.63114491 2.984008 15.875 5.5625 C16.75414062 5.98724609 17.63328125 6.41199219 18.5390625 6.84960938 C20.69611356 7.89296559 22.84950288 8.94321884 25 10 C25 10.99 25 11.98 25 13 C23.865625 12.45730469 22.73125 11.91460937 21.5625 11.35546875 C20.04174768 10.63264203 18.52090975 9.9099954 17 9.1875 C15.88431641 8.65286133 15.88431641 8.65286133 14.74609375 8.10742188 C9.90463324 5.81299059 5.04098229 3.8158993 0 2 C0 1.34 0 0.68 0 0 Z " fill="#C1A3DB" transform="translate(455,233)"/>
<path d="M0 0 C0.66 0 1.32 0 2 0 C0.48834521 5.18865292 -1.80182349 9.63300325 -4.4375 14.3125 C-5.03014648 15.40401367 -5.03014648 15.40401367 -5.63476562 16.51757812 C-6.02212891 17.20916016 -6.40949219 17.90074219 -6.80859375 18.61328125 C-7.15720459 19.24016846 -7.50581543 19.86705566 -7.86499023 20.51293945 C-9 22 -9 22 -12 23 C-10.55598522 19.08463653 -8.70384424 15.64061715 -6.5625 12.0625 C-4.20152542 8.11054471 -2.01705 4.13896193 0 0 Z " fill="#CDBCDB" transform="translate(285,500)"/>
<path d="M0 0 C0.33 0.99 0.66 1.98 1 3 C-8.78690805 6.16801648 -17.84823738 6.32476018 -28 6 C-28 5.67 -28 5.34 -28 5 C-26.35064453 4.83564453 -26.35064453 4.83564453 -24.66796875 4.66796875 C-16.19888361 3.77628425 -8.13996582 2.63713795 0 0 Z " fill="#D4B9ED" transform="translate(177,519)"/>
<path d="M0 0 C-1.24760344 3.74281033 -2.55150925 4.26466631 -5.8125 6.375 C-9.56276098 8.90199989 -12.45739231 11.18608847 -15 15 C-15.66 14.67 -16.32 14.34 -17 14 C-14.72402192 9.53527645 -11.95721492 7.13268602 -7.9375 4.1875 C-7.39544922 3.78080078 -6.85339844 3.37410156 -6.29492188 2.95507812 C-2.27700893 0 -2.27700893 0 0 0 Z " fill="#AF95C6" transform="translate(332,249)"/>
<path d="M0 0 C3.97192487 1.35678141 6.59363485 3.11677744 9.6875 5.9375 C10.83798828 6.97197266 10.83798828 6.97197266 12.01171875 8.02734375 C14 10 14 10 16 13 C15.67 13.99 15.34 14.98 15 16 C14.5875 15.49210937 14.175 14.98421875 13.75 14.4609375 C10.02435299 10.02009933 6.30280248 6.48653375 1.50390625 3.2265625 C1.00761719 2.82179688 0.51132813 2.41703125 0 2 C0 1.34 0 0.68 0 0 Z " fill="#BCA4D3" transform="translate(211,73)"/>
<path d="M0 0 C4.5648439 4.04592736 7.08412314 8.39660383 9.8125 13.8125 C10.21919922 14.60076172 10.62589844 15.38902344 11.04492188 16.20117188 C12.03843902 18.12976398 13.02041028 20.06429656 14 22 C13.34 22.33 12.68 22.66 12 23 C11.32845067 21.71086513 10.66291141 20.41859796 10 19.125 C9.62875 18.40570313 9.2575 17.68640625 8.875 16.9453125 C8 15 8 15 8 13 C7.01 12.67 6.02 12.34 5 12 C4.32060826 10.00428677 3.65438441 8.00405227 3 6 C2.01 5.34 1.02 4.68 0 4 C0 2.68 0 1.36 0 0 Z " fill="#BB9FD3" transform="translate(522,283)"/>
<path d="M0 0 C7.59745248 1.94353436 11.22665957 7.22174579 16 13 C16.98290968 14.01680311 17.97334787 15.02738219 19 16 C18.67 16.99 18.34 17.98 18 19 C17.45472656 18.28714844 16.90945312 17.57429688 16.34765625 16.83984375 C11.8845453 11.17131139 7.53165526 6.44313145 1.65234375 2.2421875 C1.10707031 1.83226563 0.56179687 1.42234375 0 1 C0 0.67 0 0.34 0 0 Z " fill="#C2AFD1" transform="translate(36,69)"/>
<path d="M0 0 C0.66 0.66 1.32 1.32 2 2 C-3.51807931 5.52543956 -7.20974861 6.12790251 -13.75 6.0625 C-14.92046875 6.05347656 -16.0909375 6.04445313 -17.296875 6.03515625 C-18.18890625 6.02355469 -19.0809375 6.01195312 -20 6 C-20 5.67 -20 5.34 -20 5 C-19.39414062 4.89042969 -18.78828125 4.78085937 -18.1640625 4.66796875 C-11.96856205 3.49558943 -6.00539533 1.91661553 0 0 Z " fill="#D3B1EB" transform="translate(434,432)"/>
<path d="M0 0 C0.33 0 0.66 0 1 0 C1.6888091 9.13466832 2.30192693 17.88651147 1 27 C0.67 27 0.34 27 0 27 C-2.51162791 5.02325581 -2.51162791 5.02325581 0 0 Z " fill="#C2B6CE" transform="translate(245,275)"/>
<path d="M0 0 C0 0.33 0 0.66 0 1 C-2.49723452 1.67885987 -4.99696141 2.34317427 -7.5 3 C-8.19609375 3.19078125 -8.8921875 3.3815625 -9.609375 3.578125 C-14.5412919 4.85677012 -18.90580091 5.18357474 -24 5 C-20.62591937 2.75061292 -17.58738675 2.11783557 -13.6875 1.375 C-13.03587891 1.2409375 -12.38425781 1.106875 -11.71289062 0.96875 C-7.75389711 0.19201053 -4.02996743 -0.13745625 0 0 Z " fill="#D5B8EF" transform="translate(395,227)"/>
<path d="M0 0 C0 4.10560643 -1.6620274 5.42771384 -4.25 8.5625 C-5.03890625 9.53316406 -5.8278125 10.50382812 -6.640625 11.50390625 C-8.75135735 13.73694925 -10.17747448 14.90594768 -13 16 C-12.52794881 11.75153925 -10.11122478 9.73180712 -7 7 C-6.34 7 -5.68 7 -5 7 C-4.731875 6.401875 -4.46375 5.80375 -4.1875 5.1875 C-3.01506533 3.02775192 -1.80630718 1.64209744 0 0 Z " fill="#E0D4EB" transform="translate(470,405)"/>
<path d="M0 0 C0.99 0.66 1.98 1.32 3 2 C0.71287089 3.83925787 -1.57928535 5.67151494 -3.875 7.5 C-4.52597656 8.02464844 -5.17695313 8.54929687 -5.84765625 9.08984375 C-6.47285156 9.58613281 -7.09804687 10.08242188 -7.7421875 10.59375 C-8.3182373 11.05458984 -8.89428711 11.51542969 -9.48779297 11.99023438 C-11 13 -11 13 -13 13 C-11.53287603 9.38003107 -9.6188429 7.67362772 -6.5 5.375 C-4.18118549 3.65094636 -2.04438858 2.04438858 0 0 Z " fill="#BAA6CF" transform="translate(247,551)"/>
<path d="M0 0 C0 0.66 0 1.32 0 2 C-1.89248819 2.67610423 -3.7891602 3.34050439 -5.6875 4 C-7.27111328 4.556875 -7.27111328 4.556875 -8.88671875 5.125 C-11.78362056 5.9391857 -14.01700623 6.17709796 -17 6 C-14.64581157 3.64581157 -12.74416329 3.00391969 -9.625 1.875 C-8.66851562 1.52179688 -7.71203125 1.16859375 -6.7265625 0.8046875 C-4 0 -4 0 0 0 Z " fill="#C5A6E1" transform="translate(371,232)"/>
<path d="M0 0 C0 0.66 0 1.32 0 2 C-5.28 2.66 -10.56 3.32 -16 4 C-16 3.34 -16 2.68 -16 2 C-10.42932723 0.40837921 -5.78898419 -0.20674944 0 0 Z " fill="#CABBD4" transform="translate(169,1)"/>
<path d="M0 0 C0 0.66 0 1.32 0 2 C-5.05002222 3.03590199 -9.87416389 3.10251672 -15 3 C-15.33 2.34 -15.66 1.68 -16 1 C-10.62915894 0.31798844 -5.41499441 -0.11521265 0 0 Z " fill="#C8B8D5" transform="translate(175,588)"/>
<path d="M0 0 C0 0.66 0 1.32 0 2 C-1.91197039 2.70045456 -3.82980435 3.384919 -5.75 4.0625 C-6.81734375 4.44535156 -7.8846875 4.82820313 -8.984375 5.22265625 C-11.92280042 5.98010011 -13.22348948 6.07151741 -16 5 C-12.91190305 3.23537317 -11.76687864 3 -8 3 C-8 2.34 -8 1.68 -8 1 C-2.25 0 -2.25 0 0 0 Z " fill="#B5A4C5" transform="translate(461,493)"/>
<path d="M0 0 C0.66 0.66 1.32 1.32 2 2 C-0.31 6.29 -2.62 10.58 -5 15 C-5.66 15 -6.32 15 -7 15 C-5.63408831 11.45756548 -4.09068516 8.07372071 -2.375 4.6875 C-1.70597656 3.36298828 -1.70597656 3.36298828 -1.0234375 2.01171875 C-0.68570313 1.34785156 -0.34796875 0.68398438 0 0 Z " fill="#CBB8DA" transform="translate(532,425)"/>
<path d="M0 0 C0.66 0 1.32 0 2 0 C4.31 4.62 6.62 9.24 9 14 C8.01 14 7.02 14 6 14 C4.99515796 12.04414675 3.99626195 10.08523763 3 8.125 C2.1646875 6.48917969 2.1646875 6.48917969 1.3125 4.8203125 C0 2 0 2 0 0 Z " fill="#BE9FD7" transform="translate(227,89)"/>
<path d="M0 0 C0.66 0.33 1.32 0.66 2 1 C-1.75 4 -1.75 4 -4 4 C-4.33 4.99 -4.66 5.98 -5 7 C-6.62890625 8.38671875 -6.62890625 8.38671875 -8.5625 9.6875 C-9.52349609 10.34298828 -9.52349609 10.34298828 -10.50390625 11.01171875 C-10.99761719 11.33785156 -11.49132812 11.66398437 -12 12 C-11.71855013 8.79580145 -10.99711793 7.99753608 -8.49609375 5.859375 C-7.48675781 5.16328125 -6.47742188 4.4671875 -5.4375 3.75 C-4.42558594 3.04359375 -3.41367188 2.3371875 -2.37109375 1.609375 C-1.58863281 1.07828125 -0.80617188 0.5471875 0 0 Z " fill="#C4ABDA" transform="translate(120,18)"/>
<path d="M0 0 C0 3.77910478 -0.99703962 4.46106101 -3.5 7.1875 C-4.1496875 7.90292969 -4.799375 8.61835938 -5.46875 9.35546875 C-5.9740625 9.89816406 -6.479375 10.44085938 -7 11 C-7.99 10.67 -8.98 10.34 -10 10 C-8.7121669 8.51749445 -7.41960936 7.03909182 -6.125 5.5625 C-5.40570313 4.73878906 -4.68640625 3.91507812 -3.9453125 3.06640625 C-2 1 -2 1 0 0 Z " fill="#CAB8DC" transform="translate(517,451)"/>
<path d="M0 0 C0.66 0 1.32 0 2 0 C1.40380045 4.86896303 0.43023178 9.32790951 -1 14 C-1.66 13.67 -2.32 13.34 -3 13 C-2.68991116 11.39536551 -2.37683713 9.79130769 -2.0625 8.1875 C-1.88847656 7.29417969 -1.71445312 6.40085937 -1.53515625 5.48046875 C-1 3 -1 3 0 0 Z " fill="#C8AEDF" transform="translate(299,458)"/>
<path d="M0 0 C0.66 0.33 1.32 0.66 2 1 C0.89847594 2.43952597 -0.2063304 3.87654071 -1.3125 5.3125 C-1.92738281 6.11300781 -2.54226563 6.91351563 -3.17578125 7.73828125 C-4.69916307 9.62701374 -6.24434407 11.33077636 -8 13 C-7.48118887 8.8275894 -6.28848726 6.74583179 -3.4375 3.6875 C-2.79683594 2.99011719 -2.15617187 2.29273438 -1.49609375 1.57421875 C-1.00238281 1.05472656 -0.50867188 0.53523438 0 0 Z " fill="#DAC4EC" transform="translate(348,317)"/>
<path d="M0 0 C0.66 0.66 1.32 1.32 2 2 C-0.38151214 4.63219763 -2.96303641 6.19228358 -6 8 C-7.68477344 9.31037934 -9.35648543 10.63823078 -11 12 C-9.49650623 8.33213607 -7.36271208 6.31089607 -4.375 3.75 C-3.14910156 2.69039063 -3.14910156 2.69039063 -1.8984375 1.609375 C-1.27195312 1.07828125 -0.64546875 0.5471875 0 0 Z " fill="#D6C2E8" transform="translate(361,305)"/>
<path d="M0 0 C0.66 0.66 1.32 1.32 2 2 C1.0479279 3.00596297 0.08812654 4.00461563 -0.875 5 C-1.40867187 5.556875 -1.94234375 6.11375 -2.4921875 6.6875 C-4 8 -4 8 -6 8 C-6.33 8.99 -6.66 9.98 -7 11 C-7.33 10.34 -7.66 9.68 -8 9 C-6.85459775 7.68712379 -5.70866567 6.37470979 -4.5625 5.0625 C-3.92441406 4.33160156 -3.28632813 3.60070312 -2.62890625 2.84765625 C-1.77458541 1.87860647 -0.91348825 0.91348825 0 0 Z " fill="#E2D2EF" transform="translate(315,260)"/>
<path d="M0 0 C4.87685861 1.35468295 6.48592381 3.71675909 9 8 C4.75153925 7.52794881 2.73180712 5.11122478 0 2 C0 1.34 0 0.68 0 0 Z " fill="#CEBCDE" transform="translate(300,455)"/>
<path d="M0 0 C0.66 0 1.32 0 2 0 C2 2.31 2 4.62 2 7 C1.34 7 0.68 7 0 7 C0 8.32 0 9.64 0 11 C-0.66 11 -1.32 11 -2 11 C-1.34 7.37 -0.68 3.74 0 0 Z " fill="#B39BC4" transform="translate(253,388)"/>
<path d="M0 0 C0.66 0 1.32 0 2 0 C0.77472971 4.05281712 -0.69880494 7.44360764 -3 11 C-3.66 10.34 -4.32 9.68 -5 9 C-3.35 6.03 -1.7 3.06 0 0 Z " fill="#BBA9CA" transform="translate(285,500)"/>
<path d="M0 0 C0.66 0.66 1.32 1.32 2 2 C-1.90480249 3.35862973 -5.7101776 2.89469712 -9.75 2.5625 C-10.44738281 2.51029297 -11.14476563 2.45808594 -11.86328125 2.40429688 C-13.57596203 2.27525928 -15.28805066 2.13840386 -17 2 C-17 1.67 -17 1.34 -17 1 C-14.20880221 0.77885585 -11.4178788 0.57256699 -8.625 0.375 C-7.43390625 0.27832031 -7.43390625 0.27832031 -6.21875 0.1796875 C-4.14971776 0.03941413 -2.07374464 0.01241763 0 0 Z " fill="#9C62D4" transform="translate(125,385)"/>
<path d="M0 0 C0.33 0 0.66 0 1 0 C1.04898438 0.89203125 1.09796875 1.7840625 1.1484375 2.703125 C1.22320312 3.87359375 1.29796875 5.0440625 1.375 6.25 C1.44460937 7.41015625 1.51421875 8.5703125 1.5859375 9.765625 C1.96248308 12.70694334 2.4774123 14.49949011 4 17 C2.0625 16.1875 2.0625 16.1875 0 15 C-1.14229879 11.57310364 -0.90861076 9.38897782 -0.5625 5.8125 C-0.46066406 4.72582031 -0.35882813 3.63914062 -0.25390625 2.51953125 C-0.17011719 1.68808594 -0.08632813 0.85664063 0 0 Z " fill="#BFA0DD" transform="translate(64,372)"/>
<path d="M0 0 C0.66 0 1.32 0 2 0 C2 1.32 2 2.64 2 4 C2.66 4 3.32 4 4 4 C4 6.31 4 8.62 4 11 C3.34 11 2.68 11 2 11 C1.34 7.37 0.68 3.74 0 0 Z " fill="#E2D0F2" transform="translate(255,364)"/>
<path d="M0 0 C5.00918744 1.47329042 7.51807722 4.27515238 11 8 C10.67 8.66 10.34 9.32 10 10 C8.33037631 8.52417192 6.6643694 7.04425109 5 5.5625 C4.071875 4.73878906 3.14375 3.91507813 2.1875 3.06640625 C1.465625 2.38449219 0.74375 1.70257812 0 1 C0 0.67 0 0.34 0 0 Z " fill="#CBBADA" transform="translate(251,22)"/>
<path d="M0 0 C2.97 0.99 5.94 1.98 9 3 C9 3.33 9 3.66 9 4 C2.375 4.125 2.375 4.125 -1 3 C-0.67 2.01 -0.34 1.02 0 0 Z " fill="#CFB3E8" transform="translate(379,432)"/>
<path d="M0 0 C2.09350689 3.4019487 2.17942163 6.05272412 2 10 C1.34 10 0.68 10 0 10 C-0.74926071 6.33694766 -1.2380014 3.57644848 0 0 Z " fill="#BF97E3" transform="translate(255,354)"/>
<path d="M0 0 C0 3 0 3 -2 5.1875 C-2.66 5.785625 -3.32 6.38375 -4 7 C-4.99 6.67 -5.98 6.34 -7 6 C-4.69 4.02 -2.38 2.04 0 0 Z " fill="#C8B2DA" transform="translate(264,535)"/>
<path d="M0 0 C0.33 0.99 0.66 1.98 1 3 C-3.75 7 -3.75 7 -6 7 C-4.60667426 3.63279613 -3.0210714 2.0140476 0 0 Z " fill="#BEA5D5" transform="translate(493,473)"/>
<path d="M0 0 C3.33727786 1.17255709 5.77437487 2.18868404 8 5 C8 5.66 8 6.32 8 7 C7.34 7 6.68 7 6 7 C6 6.34 6 5.68 6 5 C5.38125 4.690625 4.7625 4.38125 4.125 4.0625 C2.75 3.375 1.375 2.6875 0 2 C0 1.34 0 0.68 0 0 Z " fill="#DAC7ED" transform="translate(457,307)"/>
<path d="M0 0 C3.91402949 1.26941497 5.79072873 2.51167694 8 6 C4.65750371 5.40312566 2.53563658 4.26396123 0 2 C0 1.34 0 0.68 0 0 Z " fill="#C4AFD5" transform="translate(211,73)"/>
<path d="M0 0 C0.33 0.99 0.66 1.98 1 3 C-0.98 4.32 -2.96 5.64 -5 7 C-5 6.01 -5 5.02 -5 4 C-2.5 1.8125 -2.5 1.8125 0 0 Z " fill="#C1B4CC" transform="translate(456,419)"/>
<path d="M0 0 C3.82097239 0.53069061 6.06171403 1.49701566 9 4 C2.25 3.125 2.25 3.125 0 2 C0 1.34 0 0.68 0 0 Z " fill="#C9BAD7" transform="translate(439,296)"/>
<path d="M0 0 C3.77545388 1.09068668 6.47043472 1.9083091 9 5 C5 5 5 5 2.25 2.5 C1.5075 1.675 0.765 0.85 0 0 Z " fill="#B89AD0" transform="translate(36,69)"/>
<path d="M0 0 C0.94875 0.350625 1.8975 0.70125 2.875 1.0625 C2.875 1.7225 2.875 2.3825 2.875 3.0625 C-1.67884615 3.43173077 -1.67884615 3.43173077 -3.9375 1.5625 C-4.5253125 0.82 -4.5253125 0.82 -5.125 0.0625 C-3.125 -0.9375 -3.125 -0.9375 0 0 Z " fill="#CBB3E6" transform="translate(221.125,4.9375)"/>
</svg>
