<?xml version="1.0" encoding="UTF-8"?>
<svg version="1.1" xmlns="http://www.w3.org/2000/svg" width="650" height="583">
<path d="M0 0 C0.87177887 -0.00139984 1.74355774 -0.00279968 2.64175415 -0.00424194 C15.44424882 0.01270993 27.02893441 0.71330849 39.0625 5.4375 C40.08988281 5.7984375 41.11726562 6.159375 42.17578125 6.53125 C62.14098906 14.09587542 78.74279399 25.78687753 94.0625 40.4375 C94.8359375 41.16324219 95.609375 41.88898437 96.40625 42.63671875 C98.0625 44.4375 98.0625 44.4375 98.0625 46.4375 C98.68125 46.72625 99.3 47.015 99.9375 47.3125 C102.0625 48.4375 102.0625 48.4375 104.0625 50.4375 C104.0625 51.4275 104.0625 52.4175 104.0625 53.4375 C104.62710938 53.65148438 105.19171875 53.86546875 105.7734375 54.0859375 C121.7992532 63.54827919 132.87781449 92.88193936 141.0625 108.4375 C141.46774902 109.20658691 141.87299805 109.97567383 142.29052734 110.76806641 C163.57767124 151.45543143 174.85934759 196.6850376 184.93432617 241.21191406 C185.15580322 242.18870117 185.37728027 243.16548828 185.60546875 244.171875 C185.83435791 245.1822583 186.06324707 246.1926416 186.29907227 247.23364258 C186.8253833 249.44239849 187.38807147 251.64269475 187.98022461 253.8347168 C191.40697646 266.64242227 193.28295075 279.65134461 195.25 292.75 C195.78112028 296.24981071 196.3143918 299.74927413 196.85041809 303.24833679 C197.18087634 305.40914973 197.50822146 307.57044164 197.83207703 309.73225403 C197.97925674 310.70144272 198.12643646 311.67063141 198.27807617 312.66918945 C198.40590988 313.52027786 198.53374359 314.37136627 198.66545105 315.24824524 C199.03928607 317.60428811 199.03928607 317.60428811 200.0625 320.4375 C200.1597084 319.82760223 200.25691681 319.21770447 200.35707092 318.58932495 C209.07391201 264.01473245 209.07391201 264.01473245 215.14257812 240.14892578 C216.18516539 235.94260636 217.15239226 231.72253099 218.109375 227.49609375 C228.22048281 183.04417457 241.1067075 139.41689321 263.07958984 99.23876953 C263.94488239 97.65304464 264.79585229 96.05952198 265.64453125 94.46484375 C272.47724345 81.68409559 279.84768302 69.63924115 289.0625 58.4375 C289.5359082 57.86112793 290.00931641 57.28475586 290.49707031 56.69091797 C305.18007201 38.94047731 322.77614476 20.32344108 345.0625 12.4375 C345.7225 12.4375 346.3825 12.4375 347.0625 12.4375 C347.0625 11.7775 347.0625 11.1175 347.0625 10.4375 C372.99978566 -2.18209033 408.34131244 -4.86265945 435.80664062 4.60302734 C442.75726398 7.1741562 449.46269179 10.06472235 456.0625 13.4375 C456.69768555 13.76121582 457.33287109 14.08493164 457.98730469 14.41845703 C486.7958362 29.38580555 507.93047054 54.72475826 518.381073 85.45991516 C518.84376497 86.80270409 519.32029934 88.14078693 519.80911255 89.47428894 C525.72460519 105.84139275 525.80661154 121.44460735 525.5 138.6875 C525.48085587 140.71053948 525.46754003 142.73354816 525.45550442 144.75664139 C525.42196899 150.28236403 525.36872082 155.80803933 525.27124023 161.33300781 C525.25536362 162.29781067 525.239487 163.26261353 525.22312927 164.25665283 C525.0625 166.4375 525.0625 166.4375 524.0625 167.4375 C523.78311576 168.97411334 523.54038935 170.51741018 523.3125 172.0625 C522.37284409 177.50967824 520.76824992 182.60045006 518.95239258 187.80151367 C517.57139969 191.79302531 516.44563411 195.75993287 515.5 199.875 C514.50427968 204.05257519 513.22271356 207.54882793 511.1640625 211.3046875 C509.77689277 213.99048422 508.68617772 216.75675256 507.5625 219.5625 C505.77613446 223.91948912 503.75674433 227.56452378 501.0625 231.4375 C499.76427195 233.96115827 498.52638865 236.50695405 497.30859375 239.0703125 C494.14722315 245.07592562 494.14722315 245.07592562 490.0625 246.4375 C487.96159979 246.52682308 485.85792123 246.55509269 483.75512695 246.55102539 C482.45400467 246.55094986 481.15288239 246.55087433 479.81233215 246.55079651 C478.3918148 246.54568985 476.97129783 246.54047385 475.55078125 246.53515625 C474.09775338 246.53329091 472.64472489 246.53186756 471.19169617 246.53086853 C467.36943828 246.52705246 463.54721845 246.51722993 459.72497559 246.50616455 C455.82381709 246.49593087 451.92265243 246.49136671 448.02148438 246.48632812 C440.36847224 246.47560686 432.71549146 246.45854135 425.0625 246.4375 C423.95288086 244.1340332 423.95288086 244.1340332 423.0625 241.4375 C424.47092384 238.91237486 425.86213035 236.88340554 427.625 234.625 C447.15163825 207.85237014 460.00676703 176.2560535 462.703125 143.18359375 C463.0625 139.4375 463.0625 139.4375 464.0625 136.4375 C463.7325 135.4475 463.4025 134.4575 463.0625 133.4375 C462.933099 131.35558169 462.83327574 129.27177292 462.75 127.1875 C461.49472771 108.22112018 454.14757462 90.39165622 440.0625 77.4375 C439.299375 76.6125 438.53625 75.7875 437.75 74.9375 C425.45004903 63.49568514 411.45889759 60.07712529 394.94921875 60.22265625 C374.75134887 61.33912142 357.75966645 74.22614645 344.58837891 88.70605469 C317.91923851 118.96806168 300.98834771 162.16968957 290.15234375 200.59375 C288.83866825 205.22692809 287.4056535 209.81771548 285.95703125 214.41015625 C285.08135845 217.37367773 284.31938972 220.35396935 283.58276367 223.35473633 C283.07531946 225.38618004 282.53646166 227.40605398 281.984375 229.42578125 C279.07678956 240.12051998 276.59043251 250.87658361 274.23461914 261.70581055 C272.88479839 267.87158794 271.45415681 273.9851116 269.75 280.0625 C268.53844682 284.42903658 267.75241093 288.48565556 267.39453125 292.98828125 C266.95068147 296.26232606 266.09337073 299.36811125 265.25 302.5625 C261.65379138 316.309485 258.84890477 330.59142939 258.3359375 344.81640625 C258.0625 347.4375 258.0625 347.4375 257.11010742 350.2355957 C256.1137309 353.28091803 255.51298378 356.12708129 255.02734375 359.2890625 C254.85783203 360.38863281 254.68832031 361.48820312 254.51367188 362.62109375 C254.34416016 363.75675781 254.17464844 364.89242188 254 366.0625 C253.82662109 367.17496094 253.65324219 368.28742188 253.47460938 369.43359375 C252.51942265 375.72099142 251.78581795 381.95675932 251.40844727 388.30615234 C251.11377293 390.97340222 250.66866114 393.48521969 250.12304688 396.10791016 C249.00071113 401.54468558 248.26303325 406.99176673 247.58984375 412.5 C247.46186905 413.5307666 247.33389435 414.5615332 247.20204163 415.62353516 C246.93377502 417.79484524 246.66748266 419.96640007 246.40307617 422.13818359 C246.00438034 425.4016454 245.59534038 428.66369684 245.18554688 431.92578125 C243.92996207 442.0840855 242.74200383 452.19236149 242.44407654 462.43115234 C242.27798072 467.0564858 241.51113915 471.36586119 240.55256653 475.89050293 C239.7655376 479.98088711 239.42829333 484.08593282 239.09765625 488.234375 C239.01976868 489.16231369 238.9418811 490.09025238 238.8616333 491.04631042 C238.60906139 494.09284508 238.36645181 497.14006523 238.125 500.1875 C238.03979095 501.23632355 237.95458191 502.28514709 237.86679077 503.36575317 C236.21693953 523.73833798 235.03715975 544.13113867 234.01391602 564.54394531 C233.95661316 565.66094315 233.8993103 566.77794098 233.840271 567.92878723 C233.73311525 570.0287515 233.6298512 572.12891911 233.53106689 574.22929382 C233.48383484 575.1538588 233.43660278 576.07842377 233.38793945 577.03100586 C233.34893021 577.8380748 233.30992096 578.64514374 233.26972961 579.47666931 C233.0625 581.4375 233.0625 581.4375 232.0625 583.4375 C223.88287612 583.48378728 215.70330673 583.51935072 207.52358437 583.54112434 C203.72563688 583.55157321 199.92777882 583.56575236 196.12988281 583.58837891 C192.46648654 583.61006821 188.80317643 583.62206031 185.13972092 583.62725449 C183.74023456 583.63095731 182.34075305 583.63818777 180.94130325 583.64896011 C178.98516669 583.66342225 177.02894391 583.66431647 175.07275391 583.66455078 C173.9580069 583.668992 172.84325989 583.67343323 171.69473267 583.67800903 C169.0625 583.4375 169.0625 583.4375 167.0625 581.4375 C165.85704872 577.17454581 165.82042564 572.80724746 165.66796875 568.40625 C165.60185514 566.7405385 165.53517561 565.0748494 165.46801758 563.40917969 C165.43318268 562.52242554 165.39834778 561.63567139 165.36245728 560.7220459 C162.05101201 478.7276058 152.51484859 396.55402816 137.51446533 315.8828125 C137.08847099 313.5780134 136.67103223 311.27187583 136.25732422 308.96484375 C127.46221787 260.07162565 114.61304512 210.91703633 97.0625 164.4375 C96.70269043 163.48214355 96.34288086 162.52678711 95.97216797 161.54248047 C85.06665014 132.83538395 70.45150229 105.67037795 49.0625 83.4375 C48.40894531 82.70917969 47.75539062 81.98085937 47.08203125 81.23046875 C35.91224712 69.15567012 20.17405699 61.32615487 3.77734375 60.21484375 C-14.22894351 59.75621185 -28.772643 65.79207841 -41.73706055 78.02856445 C-56.73437359 92.96006651 -63.0193944 111.7699935 -63.31787109 132.66992188 C-63.24983263 173.2703263 -46.53137046 209.99592811 -22.9375 242.4375 C-24.0539856 244.40415955 -24.0539856 244.40415955 -25.9375 246.4375 C-28.69430542 246.9521637 -28.69430542 246.9521637 -32.07373047 246.97094727 C-33.33869354 246.9867836 -34.60365662 247.00261993 -35.9069519 247.01893616 C-37.28953418 247.01509413 -38.67211356 247.01005477 -40.0546875 247.00390625 C-41.47332162 247.0091414 -42.89195225 247.01541748 -44.31057739 247.02268982 C-47.28485481 247.03310161 -50.25865407 247.02852374 -53.23291016 247.01391602 C-57.03869685 246.99675179 -60.84297045 247.02018718 -64.64858818 247.05540562 C-67.5792536 247.07740575 -70.50955867 247.07593165 -73.44028091 247.0676403 C-74.84287294 247.06682169 -76.24549166 247.07366802 -77.64800644 247.08841133 C-79.61276443 247.10589401 -81.57774018 247.08797341 -83.54248047 247.06860352 C-84.65928192 247.06764175 -85.77608337 247.06667999 -86.92672729 247.06568909 C-91.92125578 246.02359505 -94.1328139 242.64452914 -96.859375 238.5546875 C-104.48402265 225.0323423 -111.1890117 211.34943364 -116.1875 196.625 C-116.49236328 195.73893066 -116.79722656 194.85286133 -117.11132812 193.93994141 C-118.13835028 190.79177469 -119.05095716 187.62832947 -119.9375 184.4375 C-120.14889618 183.69418427 -120.36029236 182.95086853 -120.57809448 182.18502808 C-124.58953687 167.74780103 -125.69955136 154.01965883 -125.53442383 139.06762695 C-125.49985021 135.61002032 -125.51391919 132.15494868 -125.53320312 128.69726562 C-125.52563968 116.05998609 -124.67704426 104.53161708 -120.9375 92.4375 C-120.51416382 91.03165649 -120.51416382 91.03165649 -120.08227539 89.59741211 C-119.3471964 87.30534579 -118.54639223 85.06073137 -117.6875 82.8125 C-117.39375488 82.03036133 -117.10000977 81.24822266 -116.79736328 80.44238281 C-112.77505031 70.04982406 -107.62925834 60.35984446 -100.9375 51.4375 C-100.31875 50.303125 -99.7 49.16875 -99.0625 48 C-96.66812106 43.68226748 -93.51787673 39.83268483 -89.9375 36.4375 C-89.2775 36.4375 -88.6175 36.4375 -87.9375 36.4375 C-87.6075 35.4475 -87.2775 34.4575 -86.9375 33.4375 C-84.97251678 32.05308 -82.96701535 30.72546166 -80.9375 29.4375 C-79.26666181 28.10939785 -77.60020287 26.77577304 -75.9375 25.4375 C-61.91483906 14.91180537 -45.9456622 6.78268001 -28.9375 2.4375 C-28.25421631 2.24824951 -27.57093262 2.05899902 -26.86694336 1.86401367 C-18.07053256 -0.26600354 -8.99544704 -0.00137337 0 0 Z " fill="#9335E9" transform="translate(124.9375,-0.4375)"/>
<path d="M0 0 C0.66 0 1.32 0 2 0 C2.05451714 2.04136395 2.09302485 4.08315856 2.125 6.125 C2.14820313 7.26195312 2.17140625 8.39890625 2.1953125 9.5703125 C1.99396239 13.10602045 1.11658514 15.65671978 0 19 C-0.39033733 20.9419653 -0.73445563 22.89371378 -1.03515625 24.8515625 C-1.28942383 26.50091797 -1.28942383 26.50091797 -1.54882812 28.18359375 C-1.8030957 29.88708984 -1.8030957 29.88708984 -2.0625 31.625 C-2.23587891 32.73746094 -2.40925781 33.84992188 -2.58789062 34.99609375 C-3.54307735 41.28349142 -4.27668205 47.51925932 -4.65405273 53.86865234 C-4.94872707 56.53590222 -5.39383886 59.04771969 -5.93945312 61.67041016 C-7.06178887 67.10718558 -7.79946675 72.55426673 -8.47265625 78.0625 C-8.6646183 79.6086499 -8.6646183 79.6086499 -8.86045837 81.18603516 C-9.12872498 83.35734524 -9.39501734 85.52890007 -9.65942383 87.70068359 C-10.05811966 90.9641454 -10.46715962 94.22619684 -10.87695312 97.48828125 C-12.13253793 107.6465855 -13.32049617 117.75486149 -13.61842346 127.99365234 C-13.78451928 132.6189858 -14.55136085 136.92836119 -15.50993347 141.45300293 C-16.2969624 145.54338711 -16.63420667 149.64843282 -16.96484375 153.796875 C-17.04273132 154.72481369 -17.1206189 155.65275238 -17.2008667 156.60881042 C-17.45343861 159.65534508 -17.69604819 162.70256523 -17.9375 165.75 C-18.06531357 167.32323532 -18.06531357 167.32323532 -18.19570923 168.92825317 C-19.84556047 189.30083798 -21.02534025 209.69363867 -22.04858398 230.10644531 C-22.10588684 231.22344315 -22.1631897 232.34044098 -22.222229 233.49128723 C-22.32938475 235.5912515 -22.4326488 237.69141911 -22.53143311 239.79179382 C-22.57866516 240.7163588 -22.62589722 241.64092377 -22.67456055 242.59350586 C-22.71356979 243.4005748 -22.75257904 244.20764374 -22.79277039 245.03916931 C-23 247 -23 247 -24 249 C-32.17962388 249.04628728 -40.35919327 249.08185072 -48.53891563 249.10362434 C-52.33686312 249.11407321 -56.13472118 249.12825236 -59.93261719 249.15087891 C-63.59601346 249.17256821 -67.25932357 249.18456031 -70.92277908 249.18975449 C-72.32226544 249.19345731 -73.72174695 249.20068777 -75.12119675 249.21146011 C-77.07733331 249.22592225 -79.03355609 249.22681647 -80.98974609 249.22705078 C-82.66186661 249.23371262 -82.66186661 249.23371262 -84.36776733 249.24050903 C-87 249 -87 249 -89 247 C-90.38417436 242.25745396 -90.34261124 237.21477821 -90.5703125 232.30859375 C-90.61566132 231.36750259 -90.66101013 230.42641144 -90.70773315 229.45680237 C-90.80214493 227.4656818 -90.8944736 225.47446151 -90.98486328 223.4831543 C-91.12341152 220.47202307 -91.27425666 217.46167428 -91.42578125 214.45117188 C-91.88171235 204.8816846 -92.29423682 195.52441794 -91 186 C-90.34 186.33 -89.68 186.66 -89 187 C-88.60522461 189.60668945 -88.60522461 189.60668945 -88.40234375 193.11328125 C-88.32306641 194.42748047 -88.24378906 195.74167969 -88.16210938 197.09570312 C-88.12496826 197.7931665 -88.08782715 198.49062988 -88.04956055 199.20922852 C-87.94290908 201.21097671 -87.82240926 203.21197287 -87.70117188 205.21289062 C-86.89620493 219.13682297 -86.49801248 233.05565055 -86 247 C-66.2 247 -46.4 247 -26 247 C-26 241.39 -26 235.78 -26 230 C-25.73583859 224.57315011 -25.43735506 219.1681178 -25.0625 213.75 C-24.97418562 212.37632926 -24.88629437 211.00263125 -24.79882812 209.62890625 C-24.1340064 199.65165576 -24.1340064 199.65165576 -23.50828552 196.6088562 C-23.01780599 194.09139208 -22.75377246 191.67134645 -22.5703125 189.11474609 C-22.49895584 188.15296951 -22.42759918 187.19119293 -22.3540802 186.20027161 C-22.2406855 184.62773872 -22.2406855 184.62773872 -22.125 183.0234375 C-19.92359771 153.95721683 -17.1807054 125.00255971 -13.6875 96.0625 C-13.59211945 95.27222286 -13.49673889 94.48194572 -13.39846802 93.66772079 C-9.6068736 62.34845761 -5.23354054 31.11365136 0 0 Z " fill="#CFBDDF" transform="translate(381,334)"/>
<path d="M0 0 C0.66 0.33 1.32 0.66 2 1 C2.39477539 3.60668945 2.39477539 3.60668945 2.59765625 7.11328125 C2.71657227 9.08458008 2.71657227 9.08458008 2.83789062 11.09570312 C2.87503174 11.7931665 2.91217285 12.49062988 2.95043945 13.20922852 C3.05709092 15.21097671 3.17759074 17.21197287 3.29882812 19.21289062 C4.10379507 33.13682297 4.50198752 47.05565055 5 61 C24.8 61 44.6 61 65 61 C65 55.39 65 49.78 65 44 C65.28651083 38.47187586 65.60539691 32.95730861 66 27.4375 C66.09688026 26.02152027 66.1932358 24.60550454 66.2890625 23.18945312 C66.52004488 19.79253558 66.75794674 16.39614888 67 13 C67.33 13 67.66 13 68 13 C73.07169811 50.85660377 73.07169811 50.85660377 67 63 C58.82037612 63.04628728 50.64080673 63.08185072 42.46108437 63.10362434 C38.66313688 63.11407321 34.86527882 63.12825236 31.06738281 63.15087891 C27.40398654 63.17256821 23.74067643 63.18456031 20.07722092 63.18975449 C18.67773456 63.19345731 17.27825305 63.20068777 15.87880325 63.21146011 C13.92266669 63.22592225 11.96644391 63.22681647 10.01025391 63.22705078 C8.33813339 63.23371262 8.33813339 63.23371262 6.63223267 63.24050903 C4 63 4 63 2 61 C0.61582564 56.25745396 0.65738876 51.21477821 0.4296875 46.30859375 C0.38433868 45.36750259 0.33898987 44.42641144 0.29226685 43.45680237 C0.19785507 41.4656818 0.1055264 39.47446151 0.01513672 37.4831543 C-0.12341152 34.47202307 -0.27425666 31.46167428 -0.42578125 28.45117188 C-0.88171235 18.8816846 -1.29423682 9.52441794 0 0 Z " fill="#B87DEA" transform="translate(290,520)"/>
<path d="M0 0 C0.66 0 1.32 0 2 0 C8.26615369 41.60155451 13.46006941 83.36599588 17.4375 125.25 C17.5213092 126.1136618 17.60511841 126.97732361 17.69146729 127.86715698 C18.69218532 138.28280649 19.21927865 148.53309904 19 159 C18.34 159 17.68 159 17 159 C16.91024902 157.82872559 16.82049805 156.65745117 16.72802734 155.45068359 C13.27413208 110.76339996 8.53841066 66.2856688 2.18432617 21.91479492 C2.0383046 20.88734665 1.89228302 19.85989838 1.74183655 18.80131531 C1.46980508 16.89264407 1.19414032 14.98448547 0.91404724 13.07698059 C0.28632698 8.67552029 -0.15436087 4.46093782 0 0 Z " fill="#CABCD5" transform="translate(271,360)"/>
<path d="M0 0 C0.66 0 1.32 0 2 0 C2.22036133 5.86405995 1.93567981 11.1000995 0.5 16.79296875 C-0.00041911 19.00184999 -0.24525455 21.12012108 -0.4375 23.375 C-0.75154075 26.64576408 -1.41121108 29.56159893 -2.375 32.69921875 C-4.55036387 40.48445754 -5.4860909 48.44289338 -6.5625 56.4375 C-6.97242073 59.47904199 -7.3916048 62.51909861 -7.81640625 65.55859375 C-7.90604141 66.24714951 -7.99567657 66.93570526 -8.08802795 67.64512634 C-8.58018389 71.16115729 -9.32758628 73.88638832 -11 77 C-12.14547062 69.42034999 -13.28408637 61.83969294 -14.41796875 54.25830078 C-14.80441498 51.67993929 -15.19242308 49.10181138 -15.58203125 46.52392578 C-16.14214423 42.81603504 -16.69661367 39.10733737 -17.25 35.3984375 C-17.42499023 34.24822113 -17.59998047 33.09800476 -17.78027344 31.91293335 C-17.94043945 30.83226593 -18.10060547 29.75159851 -18.265625 28.63818359 C-18.40774414 27.69220306 -18.54986328 26.74622253 -18.69628906 25.77157593 C-19.01896203 22.82695817 -19.05131194 19.95988719 -19 17 C-19.66 17 -20.32 17 -21 17 C-21.85298376 13.32612505 -22.10789471 9.9552607 -22.0625 6.1875 C-22.05347656 5.21167969 -22.04445313 4.23585938 -22.03515625 3.23046875 C-22.02355469 2.49441406 -22.01195312 1.75835937 -22 1 C-21.34 1 -20.68 1 -20 1 C-19.0610765 6.60392913 -18.1238667 12.20814311 -17.1875 17.8125 C-17.04994293 18.63523407 -16.91238586 19.45796814 -16.7706604 20.30563354 C-15.07325943 30.46351163 -13.38097976 40.62123608 -11.8503418 50.8059082 C-11.41463583 53.65581976 -10.91448133 56.256556 -10 59 C-9.88946793 58.33458694 -9.77893585 57.66917389 -9.66505432 56.9835968 C-8.51425782 50.05669062 -7.36231881 43.12997512 -6.2097168 36.20336914 C-5.77973611 33.61845696 -5.35004656 31.03349633 -4.9206543 28.44848633 C-4.30333806 24.7324567 -3.68497438 21.01660267 -3.06640625 17.30078125 C-2.87470352 16.14540359 -2.68300079 14.99002594 -2.48548889 13.79963684 C-2.30537766 12.71889389 -2.12526642 11.63815094 -1.93969727 10.5246582 C-1.78203384 9.57645706 -1.62437042 8.62825592 -1.46192932 7.65132141 C-1.01590053 5.09126378 -0.52133812 2.54568543 0 0 Z " fill="#C7BDCF" transform="translate(335,261)"/>
<path d="M0 0 C2.40881929 2.18553349 3.76675652 4.21155051 5.12890625 7.15625 C5.51884766 7.99897461 5.90878906 8.84169922 6.31054688 9.70996094 C6.72369141 10.63067383 7.13683594 11.55138672 7.5625 12.5 C8.00013672 13.47485352 8.43777344 14.44970703 8.88867188 15.45410156 C25.29841911 52.62840021 35.55613014 92.35052415 44 132 C43.01 132 42.02 132 41 132 C40.77449463 130.98091553 40.54898926 129.96183105 40.31665039 128.91186523 C34.04419674 100.67831888 26.74238295 73.0440168 17.6875 45.5625 C17.27894775 44.31782959 16.87039551 43.07315918 16.44946289 41.79077148 C14.57920726 36.2215231 12.63819004 30.89826413 9.88208008 25.70629883 C8.52325932 23.07779114 7.52458282 20.3351042 6.5 17.5625 C4.73147517 12.85373419 2.8362193 8.25977155 0.69921875 3.70703125 C0 2 0 2 0 0 Z " fill="#CAADE5" transform="translate(266,110)"/>
<path d="M0 0 C-3.51797628 2.16930454 -6.33118625 2.24290238 -10.42089844 2.22705078 C-12.37246857 2.22682419 -12.37246857 2.22682419 -14.36346436 2.22659302 C-15.77876947 2.21638046 -17.19407301 2.20594848 -18.609375 2.1953125 C-20.06097214 2.19158071 -21.5125718 2.18873452 -22.96417236 2.18673706 C-26.77824907 2.17911364 -30.59217262 2.15947635 -34.40618896 2.1373291 C-38.30071949 2.11684278 -42.19527484 2.10772939 -46.08984375 2.09765625 C-53.7266322 2.07622915 -61.36329461 2.04210892 -69 2 C-69.33 1.01 -69.66 0.02 -70 -1 C-61.16863578 -1.17683508 -52.33715447 -1.34279915 -43.50532722 -1.49477577 C-39.40463207 -1.56568392 -35.30407779 -1.6403762 -31.20361328 -1.72363281 C-27.24857414 -1.80379883 -23.29347254 -1.87413417 -19.33813095 -1.93757248 C-17.82694908 -1.96355384 -16.31582449 -1.99311463 -14.80478287 -2.02626419 C-12.692973 -2.07199001 -10.58132019 -2.10513718 -8.46923828 -2.13525391 C-7.26566681 -2.15746002 -6.06209534 -2.17966614 -4.822052 -2.20254517 C-2 -2 -2 -2 0 0 Z " fill="#B292CD" transform="translate(619,244)"/>
<path d="M0 0 C0.33 0 0.66 0 1 0 C3.40770336 17.7568123 2.2403955 36.81150275 -3 54 C-3.66 54 -4.32 54 -5 54 C-5.061875 55.0725 -5.12375 56.145 -5.1875 57.25 C-5.9667122 63.28362958 -8.50202423 68.5032318 -11 74 C-11.31984863 74.72123047 -11.63969727 75.44246094 -11.96923828 76.18554688 C-13.00831429 78.52555193 -14.06405854 80.8573356 -15.125 83.1875 C-15.46152588 83.94281006 -15.79805176 84.69812012 -16.14477539 85.47631836 C-17.01723593 87.35640937 -18.00106488 89.18394432 -19 91 C-20.485 91.495 -20.485 91.495 -22 92 C-20.70096317 88.69149263 -19.31527598 85.44673482 -17.828125 82.21875 C-8.98697183 62.71458861 -2.51156939 43.23725981 -1.24609375 21.75 C-1 19 -1 19 0 16 C-0.33 15.01 -0.66 14.02 -1 13 C-1.09398043 10.96007192 -1.12992069 8.91708586 -1.125 6.875 C-1.12886719 5.26238281 -1.12886719 5.26238281 -1.1328125 3.6171875 C-1 1 -1 1 0 0 Z " fill="#BAA8CB" transform="translate(589,120)"/>
<path d="M0 0 C-1.1612559 3.48376769 -2.0376532 4.01509389 -4.9375 6.125 C-9.42201331 9.49552593 -13.5601618 13.13454072 -17.6953125 16.921875 C-19.60721298 18.64582594 -21.5479137 20.27489797 -23.5625 21.875 C-26.2268404 23.83504253 -26.2268404 23.83504253 -27 27 C-27.61875 27.433125 -28.2375 27.86625 -28.875 28.3125 C-31.21727668 29.92864741 -31.21727668 29.92864741 -32.4375 32.875 C-34.19387091 36.38774182 -36.22210823 38.22210823 -39 41 C-48.4090314 52.7006462 -48.4090314 52.7006462 -55 66 C-55.66 66 -56.32 66 -57 66 C-57.33 67.32 -57.66 68.64 -58 70 C-58.66 70 -59.32 70 -60 70 C-58.52338878 64.61669738 -55.98570096 60.47403093 -52.9375 55.875 C-52.44435303 55.12436279 -51.95120605 54.37372559 -51.44311523 53.6003418 C-15.9253687 -0 -15.9253687 -0 0 0 Z " fill="#BEABD0" transform="translate(452,23)"/>
<path d="M0 0 C0.66 0 1.32 0 2 0 C8.11540477 15.51161617 12.93426653 31.25485007 17.375 47.3125 C17.63325562 48.24542877 17.89151123 49.17835754 18.15759277 50.13955688 C19.79884443 56.08586256 21.41307792 62.0389704 23 68 C23.33547852 69.25989746 23.67095703 70.51979492 24.01660156 71.81787109 C25.11829725 76.07325123 26 79.58117816 26 84 C26.66 84 27.32 84 28 84 C28 86.64 28 89.28 28 92 C27.34 92 26.68 92 26 92 C25.77449463 91.07179443 25.54898926 90.14358887 25.31665039 89.18725586 C15.53217826 48.84600081 15.53217826 48.84600081 2.38647461 9.50634766 C2.07202393 8.68440918 1.75757324 7.8624707 1.43359375 7.015625 C1.15572021 6.30696289 0.87784668 5.59830078 0.59155273 4.86816406 C0 3 0 3 0 0 Z " fill="#C3B0D4" transform="translate(224,167)"/>
<path d="M0 0 C0.33 0 0.66 0 1 0 C1.24421369 12.62222985 0.66590037 24.97204655 -0.5958252 37.53039551 C-1.07557976 42.31136896 -1.52556437 47.0951479 -1.9765625 51.87890625 C-2.06627319 52.8249472 -2.15598389 53.77098816 -2.24841309 54.74569702 C-3.44114216 67.478011 -4.25407428 80.2343607 -5 93 C-5.66 93 -6.32 93 -7 93 C-7.5017618 78.29192391 -6.07010935 63.71740383 -4.79876709 49.07855225 C-4.56769659 46.39766376 -4.34370883 43.71620395 -4.11981583 41.03470802 C-2.9737516 27.32729784 -1.76932437 13.64281729 0 0 Z " fill="#D1C8D9" transform="translate(365,451)"/>
<path d="M0 0 C-2.92707575 2.27358907 -5.95341832 4.21095508 -9.125 6.125 C-27.07559583 17.55895665 -37.38128454 33.39342335 -42 54 C-42.41940025 56.33724025 -42.73761336 58.63852021 -43 61 C-43.66 61 -44.32 61 -45 61 C-45 57.37 -45 53.74 -45 50 C-44.34 50 -43.68 50 -43 50 C-43.04125 48.948125 -43.0825 47.89625 -43.125 46.8125 C-43.00852125 43.25989827 -42.52791932 41.15133359 -41 38 C-40.34 38 -39.68 38 -39 38 C-38.896875 37.28199219 -38.79375 36.56398437 -38.6875 35.82421875 C-36.26258305 25.86277014 -27.12922771 16.08712237 -19.2890625 9.83984375 C-16.92841674 8.2043188 -16.92841674 8.2043188 -16 6 C-15.01 6 -14.02 6 -13 6 C-13 5.34 -13 4.68 -13 4 C-11.02 3.67 -9.04 3.34 -7 3 C-7 2.34 -7 1.68 -7 1 C-4.53721199 -0.231394 -2.7204945 -0.07159196 0 0 Z " fill="#B6A1CA" transform="translate(105,62)"/>
<path d="M0 0 C0.66 0.33 1.32 0.66 2 1 C2.41064453 3.60668945 2.41064453 3.60668945 2.6328125 7.11328125 C2.7167627 8.41201172 2.80071289 9.71074219 2.88720703 11.04882812 C2.96725439 12.4700082 3.04650122 13.89123355 3.125 15.3125 C3.16735779 16.02253174 3.20971558 16.73256348 3.25335693 17.46411133 C4.11590816 31.98175065 4.22377367 46.45815416 4 61 C3.34 61 2.68 61 2 61 C0.80944785 56.14327334 0.66050236 51.28186559 0.4296875 46.30859375 C0.38433868 45.36750259 0.33898987 44.42641144 0.29226685 43.45680237 C0.19785507 41.4656818 0.1055264 39.47446151 0.01513672 37.4831543 C-0.12341152 34.47202307 -0.27425666 31.46167428 -0.42578125 28.45117188 C-0.88171235 18.8816846 -1.29423682 9.52441794 0 0 Z " fill="#AE94C4" transform="translate(290,520)"/>
<path d="M0 0 C3.55780196 0.60990891 6.6828589 1.5783681 10 3 C10 3.66 10 4.32 10 5 C10.68449219 5.21398437 11.36898437 5.42796875 12.07421875 5.6484375 C15.89050917 7.41137006 18.67765374 9.85858423 21.8125 12.625 C22.4319751 13.16624512 23.0514502 13.70749023 23.68969727 14.26513672 C39.73756813 28.38659083 50.17984941 45.79570952 60.25 64.5 C60.64493652 65.22388916 61.03987305 65.94777832 61.44677734 66.69360352 C62.3629915 68.4295552 63.19095567 70.21158621 64 72 C63.67 72.66 63.34 73.32 63 74 C62.48783936 73.07272095 62.48783936 73.07272095 61.96533203 72.12670898 C47.79335633 46.54831063 32.79648322 20.18778853 6.99609375 4.8046875 C4.52885451 3.31855383 2.25942376 1.77881284 0 0 Z " fill="#C9B4D9" transform="translate(148,63)"/>
<path d="M0 0 C5.97959208 8.96938812 6.57865794 19.4573186 6.42578125 29.921875 C6.42249313 31.18847961 6.41920502 32.45508423 6.41581726 33.7600708 C6.40285143 37.08070968 6.37207316 40.40053593 6.33294678 43.72094727 C6.30545783 46.44883541 6.29709375 49.17663879 6.28938007 51.90464401 C6.279449 55.16043582 6.25921901 58.41613774 6.23828125 61.671875 C6.23089432 62.89461121 6.22350739 64.11734741 6.21589661 65.37713623 C6.20306137 66.49630432 6.19022614 67.61547241 6.17700195 68.76855469 C6.16715775 69.75748718 6.15731354 70.74641968 6.14717102 71.76531982 C6 74 6 74 5 75 C4.46022423 77.7034148 4.03533013 80.41895551 3.59765625 83.140625 C3.01166516 85.94419023 2.1426727 88.37998058 1 91 C0.67 91 0.34 91 0 91 C0 88.69 0 86.38 0 84 C0.66 84 1.32 84 2 84 C6.40914833 43.63082954 6.40914833 43.63082954 0 4 C0 2.68 0 1.36 0 0 Z " fill="#C295EB" transform="translate(644,92)"/>
<path d="M0 0 C0 3 0 3 -2.45703125 5.609375 C-3.57263983 6.65931962 -4.69136251 7.70596124 -5.8125 8.75 C-21.83758565 24.34574499 -32.23411413 44.06031656 -42 64 C-42.66 64 -43.32 64 -44 64 C-37.86169921 43.19613733 -22.40543503 19.28338019 -5.73046875 5.4375 C-3.69220142 3.74431179 -1.83427067 1.91069862 0 0 Z " fill="#C6AFDB" transform="translate(481,74)"/>
<path d="M0 0 C0.66 0 1.32 0 2 0 C1.36629321 5.26252161 0.22484087 10.16473063 -1.25 15.25 C-1.70409422 16.85389258 -2.15718797 18.45806868 -2.609375 20.0625 C-2.84076172 20.88105469 -3.07214844 21.69960937 -3.31054688 22.54296875 C-7.34555313 36.92267943 -10.77785196 51.41848503 -14 66 C-14.66 66 -15.32 66 -16 66 C-15.42115274 59.81232238 -14.42642967 53.98472745 -12.890625 47.96875 C-12.68193787 47.13396118 -12.47325073 46.29917236 -12.25823975 45.43908691 C-11.81722656 43.68036291 -11.37335723 41.92235284 -10.92675781 40.16503906 C-10.2591998 37.53622835 -9.60150278 34.9051059 -8.9453125 32.2734375 C-6.22455029 21.43316314 -3.24342387 10.69528602 0 0 Z " fill="#CBC0D3" transform="translate(412,200)"/>
<path d="M0 0 C12.68174656 3.9630458 21.820217 16.08285263 28.46875 26.88671875 C30.00360133 30.00732209 30.6287175 32.5604802 31 36 C31.66 36 32.32 36 33 36 C33 37.65 33 39.3 33 41 C33.66 41 34.32 41 35 41 C35 43.31 35 45.62 35 48 C34.34 48 33.68 48 33 48 C32.6596875 46.83984375 32.319375 45.6796875 31.96875 44.484375 C27.85622334 31.01718638 22.54398686 20.65881266 12 11 C11.175 10.13375 10.35 9.2675 9.5 8.375 C7.44780979 6.4254193 5.4910518 4.8657177 3.1875 3.25 C2.135625 2.5075 1.08375 1.765 0 1 C0 0.67 0 0.34 0 0 Z " fill="#DCCCEA" transform="translate(553,66)"/>
<path d="M0 0 C-1.15626049 3.46878146 -1.56864787 3.55311865 -4.625 5.1875 C-8.57708475 7.54193347 -11.14834126 10.21550952 -14.07421875 13.7265625 C-16.36138993 16.42663071 -18.7414079 19.00538469 -21.1875 21.5625 C-22.00605469 22.43003906 -22.82460938 23.29757813 -23.66796875 24.19140625 C-26 26 -26 26 -28.30078125 25.77734375 C-29.14189453 25.39255859 -29.14189453 25.39255859 -30 25 C-29.07161713 23.68103535 -28.13194268 22.37001311 -27.1875 21.0625 C-26.66542969 20.33160156 -26.14335937 19.60070312 -25.60546875 18.84765625 C-24 17 -24 17 -21 16 C-20.67 15.01 -20.34 14.02 -20 13 C-18.03784496 11.6115745 -16.03026136 10.28678537 -14 9 C-10.85033068 6.63383051 -7.72895799 4.23377358 -4.609375 1.828125 C-2 0 -2 0 0 0 Z " fill="#AB6AE4" transform="translate(58,20)"/>
<path d="M0 0 C0.66 0 1.32 0 2 0 C0.27715946 12.05988381 -5.01419231 24.38705653 -11.54296875 34.63671875 C-13.98966615 38.60522257 -15.98128468 42.80178673 -18 47 C-18.99 47 -19.98 47 -21 47 C-20.53851562 46.18402344 -20.07703125 45.36804688 -19.6015625 44.52734375 C-15.19274212 36.57656078 -11.31474411 28.46175695 -7.6875 20.125 C-7.26742676 19.16327881 -6.84735352 18.20155762 -6.41455078 17.21069336 C-3.98045578 11.5469484 -1.86422426 5.87622792 0 0 Z " fill="#CFBBE1" transform="translate(639,194)"/>
<path d="M0 0 C0.81971283 -0.00306152 1.63942566 -0.00612305 2.48397827 -0.00927734 C15.6392472 -0.02214864 27.69095462 1.26604958 40.25 5.4375 C40.25 6.0975 40.25 6.7575 40.25 7.4375 C35.63 6.7775 31.01 6.1175 26.25 5.4375 C26.25 4.7775 26.25 4.1175 26.25 3.4375 C8.76822267 1.49121863 -9.41486329 1.28053201 -26.75 4.4375 C-26.75 3.7775 -26.75 3.1175 -26.75 2.4375 C-17.93589718 -0.09096959 -9.09184 0.00362031 0 0 Z " fill="#CCBFD7" transform="translate(522.75,-0.43750000000000006)"/>
<path d="M0 0 C0.33 0 0.66 0 1 0 C3.11605934 15.79487153 2.3813568 32.16373096 1 48 C0.34 48 -0.32 48 -1 48 C-1.02496148 42.93205106 -1.0429822 37.86413894 -1.05493164 32.79614258 C-1.05992009 31.07673518 -1.06671324 29.35733194 -1.07543945 27.63793945 C-1.12122492 18.37580797 -1.15167056 9.20946928 0 0 Z " fill="#B196CA" transform="translate(357,533)"/>
<path d="M0 0 C0.66 0 1.32 0 2 0 C2.2658965 7.69384399 1.34481555 15.14513466 0.3470459 22.75881958 C-1.27184081 35.15413714 -2.64822527 47.4944084 -3 60 C-3.33 60 -3.66 60 -4 60 C-5.32013246 46.29899415 -4.37924723 33.4882414 -2.5625 19.875 C-2.3155862 17.9337803 -2.07013565 15.9923739 -1.82617188 14.05078125 C-1.23422278 9.36487288 -0.62278124 4.68190606 0 0 Z " fill="#C4B5CF" transform="translate(370,408)"/>
<path d="M0 0 C0.66 0 1.32 0 2 0 C2.81905575 4.47976495 3.6368679 8.95975466 4.45361328 13.43994141 C4.73062961 14.95855586 5.00796401 16.47711233 5.28564453 17.99560547 C6.07912791 22.33541531 6.86707583 26.6761526 7.64489746 31.01879883 C7.97512226 32.86120122 8.30824408 34.70308372 8.64160156 36.54492188 C8.82432617 37.58712891 9.00705078 38.62933594 9.1953125 39.703125 C9.35273926 40.59161133 9.51016602 41.48009766 9.67236328 42.39550781 C10.03600815 45.28624062 10.05484508 48.08948316 10 51 C9.34 51 8.68 51 8 51 C6.8547152 44.54148908 5.71607717 38.08183165 4.58203125 31.62133789 C4.19553771 29.42412859 3.8075288 27.22718527 3.41796875 25.03051758 C2.85797991 21.87129484 2.30346482 18.71115261 1.75 15.55078125 C1.57500977 14.57039383 1.40001953 13.59000641 1.21972656 12.57991028 C1.05956055 11.65933334 0.89939453 10.73875641 0.734375 9.7902832 C0.59225586 8.9842012 0.45013672 8.1781192 0.30371094 7.34761047 C-0.01636267 4.87352062 -0.05197456 2.49192799 0 0 Z " fill="#CEB4E6" transform="translate(262,308)"/>
<path d="M0 0 C2.46861878 2.22710904 3.81369407 4.31986954 5.19921875 7.33203125 C5.60035889 8.2029541 6.00149902 9.07387695 6.41479492 9.97119141 C6.8347876 10.90882324 7.25478027 11.84645508 7.6875 12.8125 C8.12231689 13.77849121 8.55713379 14.74448242 9.00512695 15.73974609 C12.12576572 22.78466067 15.0060029 29.90185726 17.6875 37.125 C18.0383667 38.05417236 18.3892334 38.98334473 18.75073242 39.94067383 C19.06373291 40.80845459 19.3767334 41.67623535 19.69921875 42.5703125 C19.97596436 43.33102051 20.25270996 44.09172852 20.5378418 44.87548828 C21.05937769 47.27295546 20.7766234 48.6978547 20 51 C17.58070567 45.07984447 15.28825936 39.11989213 13.0625 33.125 C9.6343309 23.91881163 5.9186605 14.85677355 1.796875 5.9375 C0.99103714 3.97820796 0.46097218 2.06515535 0 0 Z " fill="#BCA9CC" transform="translate(266,110)"/>
<path d="M0 0 C12.70504286 4.81515323 22.82606471 28.70041735 29.13671875 39.9609375 C29.42160156 40.63382813 29.70648438 41.30671875 30 42 C29.67 42.66 29.34 43.32 29 44 C28.34515625 42.89785156 27.6903125 41.79570313 27.015625 40.66015625 C21.63133014 31.68201156 16.03214852 22.96252102 9.88574219 14.48461914 C9.4065332 13.82196045 8.92732422 13.15930176 8.43359375 12.4765625 C7.80022095 11.611521 7.80022095 11.611521 7.15405273 10.72900391 C5.92411045 8.88630214 4.95077431 6.99900779 4 5 C3.34 5 2.68 5 2 5 C1.34 3.35 0.68 1.7 0 0 Z " fill="#C7B2DA" transform="translate(229,53)"/>
<path d="M0 0 C0.66 0 1.32 0 2 0 C1.125 6.75 1.125 6.75 0 9 C-0.66 9 -1.32 9 -2 9 C-2.16798096 9.58120605 -2.33596191 10.16241211 -2.5090332 10.76123047 C-4.52688728 17.62612272 -6.81335765 24.37608177 -9.1875 31.125 C-9.55552734 32.176875 -9.92355469 33.22875 -10.30273438 34.3125 C-11.19985356 36.87569766 -12.09897271 39.4381741 -13 42 C-13.66 42 -14.32 42 -15 42 C-13.602017 34.38598545 -11.04420242 27.3496932 -8.25927734 20.15063477 C-7.49572229 18.17643984 -6.74127056 16.19894921 -5.98828125 14.22070312 C-1.99985567 3.79844976 -1.99985567 3.79844976 0 0 Z " fill="#BCABCD" transform="translate(375,125)"/>
<path d="M0 0 C20.30133115 -0.63313815 38.1063719 -0.38896768 57 8 C57 8.33 57 8.66 57 9 C55.02 9 53.04 9 51 9 C51 8.34 51 7.68 51 7 C48.75662517 6.53148191 46.51106383 6.07982766 44.26171875 5.640625 C41.96895831 5.19031037 39.68013171 4.71972461 37.39453125 4.234375 C24.99676336 1.72152227 12.62296312 1.28851576 0 1 C0 0.67 0 0.34 0 0 Z " fill="#CABCD7" transform="translate(114,0)"/>
<path d="M0 0 C12.49463166 4.49270298 22.81686209 15.70831436 32 25 C31.67 25.66 31.34 26.32 31 27 C30.42894531 26.47792969 29.85789063 25.95585938 29.26953125 25.41796875 C16.89483292 13.80934027 16.89483292 13.80934027 3.1875 3.9375 C2.135625 3.298125 1.08375 2.65875 0 2 C0 1.34 0 0.68 0 0 Z " fill="#C0ACD3" transform="translate(191,19)"/>
<path d="M0 0 C0.66 0.33 1.32 0.66 2 1 C1.32453125 2.12277344 0.6490625 3.24554688 -0.046875 4.40234375 C-0.94817919 5.91390599 -1.849206 7.42563366 -2.75 8.9375 C-3.1934375 9.67291016 -3.636875 10.40832031 -4.09375 11.16601562 C-8.2565949 18.17551181 -11.5263441 25.37789942 -14.25 33.0625 C-14.75273437 34.47208984 -14.75273437 34.47208984 -15.265625 35.91015625 C-15.50796875 36.59980469 -15.7503125 37.28945312 -16 38 C-16.66 38 -17.32 38 -18 38 C-16.85338164 31.76406924 -15.08811369 26.31815841 -12.3125 20.625 C-11.9630835 19.89474609 -11.61366699 19.16449219 -11.25366211 18.41210938 C-4.43088735 4.43088735 -4.43088735 4.43088735 0 0 Z " fill="#BFA0DB" transform="translate(24,51)"/>
<path d="M0 0 C0.66 0 1.32 0 2 0 C2.21981367 5.84948596 1.94847789 11.08054494 0.50390625 16.7578125 C-0.19499546 19.86765423 -0.43225234 22.97717693 -0.65625 26.15234375 C-1 28 -1 28 -3 30 C-4.49028012 23.39215417 -3.32543372 17.64692145 -2.0625 11.0625 C-1.86720703 9.99708984 -1.67191406 8.93167969 -1.47070312 7.83398438 C-0.99022978 5.22067815 -0.49976532 2.60967322 0 0 Z " fill="#B496CE" transform="translate(335,261)"/>
<path d="M0 0 C0.66 0 1.32 0 2 0 C0.03418753 7.01829541 -2.34133764 13.8616619 -4.79394531 20.72021484 C-6.70724634 26.09791439 -8.460068 31.50217259 -10 37 C-10.66 36.67 -11.32 36.34 -12 36 C-10.0731478 27.46556669 -7.46845142 19.40413286 -4.3125 11.25 C-3.89677734 10.15945312 -3.48105469 9.06890625 -3.05273438 7.9453125 C-2.04123141 5.29447714 -1.0236123 2.64617742 0 0 Z " fill="#BFA0DC" transform="translate(426,160)"/>
<path d="M0 0 C0.33 0 0.66 0 1 0 C2.70878056 12.60225662 1.93663028 24.49835991 0 37 C-2 35 -2 35 -2.01171875 31.41015625 C-1.91452024 29.96016756 -1.80597119 28.51090579 -1.6875 27.0625 C-1.63916016 26.33353516 -1.59082031 25.60457031 -1.54101562 24.85351562 C-1.31406881 21.7193514 -0.99750678 18.99252035 0 16 C-0.33 15.01 -0.66 14.02 -1 13 C-1.09398043 10.96007192 -1.12992069 8.91708586 -1.125 6.875 C-1.12757813 5.79992187 -1.13015625 4.72484375 -1.1328125 3.6171875 C-1 1 -1 1 0 0 Z " fill="#ECE4F3" transform="translate(589,120)"/>
<path d="M0 0 C4.28412496 3.71426511 6.84202931 8.36072848 9.6875 13.1875 C10.20916748 14.06647949 10.73083496 14.94545898 11.26831055 15.85107422 C14.72278206 21.71771526 18.08279033 27.63162353 21.3125 33.625 C21.70332764 34.34067139 22.09415527 35.05634277 22.49682617 35.79370117 C23.3961824 37.49637397 24.20784899 39.24488374 25 41 C24.67 41.66 24.34 42.32 24 43 C23.65855957 42.38181396 23.31711914 41.76362793 22.96533203 41.12670898 C14.07800737 24.99543649 14.07800737 24.99543649 3.98486328 9.60717773 C1.75069964 6.42757338 0.43340606 3.88620767 0 0 Z " fill="#BEAAD1" transform="translate(187,94)"/>
<path d="M0 0 C-1.1612559 3.48376769 -2.0376532 4.01509389 -4.9375 6.125 C-9.3671272 9.45776713 -13.46528634 13.04276125 -17.55859375 16.77734375 C-20.99327308 19.90427581 -24.49363483 22.95396769 -28 26 C-28.66 25.67 -29.32 25.34 -30 25 C-5.97695391 0 -5.97695391 0 0 0 Z " fill="#BDA7D1" transform="translate(452,23)"/>
<path d="M0 0 C0.66 0 1.32 0 2 0 C2.05451714 2.04136395 2.09302485 4.08315856 2.125 6.125 C2.14820313 7.26195312 2.17140625 8.39890625 2.1953125 9.5703125 C1.99435621 13.09910499 1.17407314 15.68496996 0 19 C-0.42134754 21.28359965 -0.79659899 23.57619294 -1.125 25.875 C-1.29257812 27.02742188 -1.46015625 28.17984375 -1.6328125 29.3671875 C-1.75398438 30.23601562 -1.87515625 31.10484375 -2 32 C-2.33 32 -2.66 32 -3 32 C-4.58369283 25.13733108 -3.26700878 18.91923447 -2.0625 12.0625 C-1.86720703 10.90169922 -1.67191406 9.74089844 -1.47070312 8.54492188 C-0.98983209 5.69488136 -0.4993525 2.84685028 0 0 Z " fill="#D6C2E7" transform="translate(381,334)"/>
<path d="M0 0 C0.99 0.33 1.98 0.66 3 1 C2.70833333 2.3125 2.41666667 3.625 2.125 4.9375 C1.85236328 6.17306641 1.85236328 6.17306641 1.57421875 7.43359375 C1.21187188 9.05306243 0.84066159 10.67059692 0.45703125 12.28515625 C-0.43542323 16.0898306 -1.12831412 19.79457948 -1.5 23.6875 C-1.85313305 27.34724255 -2.67369623 30.5516102 -4 34 C-4.33 34 -4.66 34 -5 34 C-3.9784213 22.57444872 -2.73951256 11.15372971 0 0 Z " fill="#D9BDEF" transform="translate(394,267)"/>
<path d="M0 0 C0.66 0 1.32 0 2 0 C1.81824219 0.62003906 1.63648437 1.24007812 1.44921875 1.87890625 C-0.81295023 9.84870159 -2.4523528 17.86662006 -4 26 C-4.66 26 -5.32 26 -6 26 C-6 22.37 -6 18.74 -6 15 C-5.34 15 -4.68 15 -4 15 C-4.04125 13.948125 -4.0825 12.89625 -4.125 11.8125 C-4.00852125 8.25989827 -3.52791932 6.15133359 -2 3 C-1.34 3 -0.68 3 0 3 C0 2.01 0 1.02 0 0 Z " fill="#B49ACD" transform="translate(66,97)"/>
<path d="M0 0 C0.33 0 0.66 0 1 0 C1.14362235 4.90189317 0.68357135 9.16892379 -0.4375 13.9375 C-1.57565885 18.96794736 -2.48708858 23.87088581 -3 29 C-3.66 29 -4.32 29 -5 29 C-5.58971786 19.71194363 -4.22576588 8.45153175 0 0 Z " fill="#CEA5EF" transform="translate(5,90)"/>
<path d="M0 0 C0 0.33 0 0.66 0 1 C-0.55872803 1.10546143 -1.11745605 1.21092285 -1.69311523 1.31958008 C-4.27583359 1.81085368 -6.85662721 2.3116249 -9.4375 2.8125 C-10.75524414 3.0609668 -10.75524414 3.0609668 -12.09960938 3.31445312 C-17.29611403 4.3307437 -22.22462921 5.62237657 -27.20727539 7.4206543 C-29 8 -29 8 -31 8 C-31 7.34 -31 6.68 -31 6 C-7.88473877 -2.07493126 -7.88473877 -2.07493126 0 0 Z " fill="#CAC1D2" transform="translate(112,1)"/>
<path d="M0 0 C0.66 0 1.32 0 2 0 C2 9.24 2 18.48 2 28 C1.34 28 0.68 28 0 28 C-1.34275621 22.17144343 -0.89458473 16.54145213 -0.5625 10.625 C-0.51029297 9.60277344 -0.45808594 8.58054687 -0.40429688 7.52734375 C-0.27530513 5.01786804 -0.14037142 2.5088606 0 0 Z " fill="#CFADED" transform="translate(292,553)"/>
<path d="M0 0 C-1.26631149 3.79893447 -2.46380256 4.09598816 -5.875 6.0625 C-12.34202078 10.01221387 -17.55597707 14.76657757 -23 20 C-23.66 19.34 -24.32 18.68 -25 18 C-24.360625 17.731875 -23.72125 17.46375 -23.0625 17.1875 C-20.66868314 16.11332248 -20.66868314 16.11332248 -20 13 C-18.03784496 11.6115745 -16.03026136 10.28678537 -14 9 C-10.85033068 6.63383051 -7.72895799 4.23377358 -4.609375 1.828125 C-2 0 -2 0 0 0 Z " fill="#C9B1E0" transform="translate(58,20)"/>
<path d="M0 0 C3.52387645 4.11118919 6 7.46508112 6 13 C6.66 13 7.32 13 8 13 C8 14.65 8 16.3 8 18 C8.66 18 9.32 18 10 18 C10 20.31 10 22.62 10 25 C9.34 25 8.68 25 8 25 C7.40251953 23.15535156 7.40251953 23.15535156 6.79296875 21.2734375 C6.25805578 19.64054528 5.72288592 18.00773721 5.1875 16.375 C4.92646484 15.56675781 4.66542969 14.75851563 4.39648438 13.92578125 C2.90936817 9.40935427 1.26420528 5.20203863 -1 1 C-0.67 0.67 -0.34 0.34 0 0 Z " fill="#C6B5D6" transform="translate(578,89)"/>
<path d="M0 0 C0.33 0 0.66 0 1 0 C1.02685095 2.47923801 1.04676547 4.9581884 1.0625 7.4375 C1.07087891 8.14455078 1.07925781 8.85160156 1.08789062 9.58007812 C1.09653588 11.38693559 1.05220011 13.19387603 1 15 C0.67 15.33 0.34 15.66 0 16 C-0.53977577 18.7034148 -0.96466987 21.41895551 -1.40234375 24.140625 C-1.98833484 26.94419023 -2.8573273 29.37998058 -4 32 C-4.33 32 -4.66 32 -5 32 C-5 29.69 -5 27.38 -5 25 C-4.34 25 -3.68 25 -3 25 C-2.95101562 24.45214844 -2.90203125 23.90429688 -2.8515625 23.33984375 C-2.11494373 15.52914476 -1.06725402 7.77126716 0 0 Z " fill="#E7DCF1" transform="translate(649,151)"/>
<path d="M0 0 C0.99 0.33 1.98 0.66 3 1 C2.38511719 2.08539063 1.77023437 3.17078125 1.13671875 4.2890625 C0.32023558 5.73433155 -0.49616636 7.17964649 -1.3125 8.625 C-1.71662109 9.33785156 -2.12074219 10.05070312 -2.53710938 10.78515625 C-4.80579511 14.80607893 -6.9763644 18.84794508 -9 23 C-9.66 23 -10.32 23 -11 23 C-9.44347945 17.6462535 -7.0182491 12.99849053 -4.375 8.125 C-3.95476562 7.34125 -3.53453125 6.5575 -3.1015625 5.75 C-2.0718978 3.83107943 -1.03652433 1.91522397 0 0 Z " fill="#CFBFDA" transform="translate(448,115)"/>
<path d="M0 0 C2.96404505 2.80804268 5.44499019 5.18315774 7 9 C3.49714126 11.33523916 2.34370062 11.18495942 -1.76171875 10.9765625 C-2.87998047 10.925 -3.99824219 10.8734375 -5.15039062 10.8203125 C-6.31763672 10.75585938 -7.48488281 10.69140625 -8.6875 10.625 C-9.86634766 10.56828125 -11.04519531 10.5115625 -12.25976562 10.453125 C-15.17378352 10.31155328 -18.08695257 10.16013058 -21 10 C-21 9.67 -21 9.34 -21 9 C-13.08 8.67 -5.16 8.34 3 8 C2.01 6.02 1.02 4.04 0 2 C0 1.34 0 0.68 0 0 Z " fill="#AE72E4" transform="translate(95,234)"/>
<path d="M0 0 C2.81379469 2.81379469 2.63085278 5.1446185 3.125 9.0625 C3.20991699 9.73482666 3.29483398 10.40715332 3.38232422 11.09985352 C3.98059985 16.11176617 4.17677221 20.96199206 4 26 C-0.37705845 17.90795916 -0.27797614 8.98789518 0 0 Z " fill="#CCA9EB" transform="translate(0,150)"/>
<path d="M0 0 C2 2 2 2 2.046875 3.8828125 C1.3633631 9.04512603 0.37066046 13.97424499 -1 19 C-3.61514428 15.07728357 -2.84728768 12.39190403 -2 8 C-1.39303927 5.31203105 -0.71328378 2.6629261 0 0 Z " fill="#B090CD" transform="translate(587,155)"/>
<path d="M0 0 C0.33 0 0.66 0 1 0 C1.40411834 9.14504844 0.42614476 17.17634256 -2 26 C-2.33 26 -2.66 26 -3 26 C-2.50610812 17.21392344 -1.63177319 8.64998215 0 0 Z " fill="#C7ABE1" transform="translate(377,360)"/>
<path d="M0 0 C0.66 0 1.32 0 2 0 C1.02637412 6.81538116 -1.24707726 12.74335742 -4 19 C-4.66 19 -5.32 19 -6 19 C-5.28739906 14.71620357 -3.93078264 10.74906147 -2.4375 6.6875 C-2.20353516 6.04232422 -1.96957031 5.39714844 -1.72851562 4.73242188 C-1.15552993 3.15378781 -0.57820536 1.57672974 0 0 Z " fill="#CFB7E4" transform="translate(639,194)"/>
<path d="M0 0 C0.66 0 1.32 0 2 0 C1.34240251 5.26770198 0.26735876 10.30133173 -1.0625 15.4375 C-1.24876953 16.16904297 -1.43503906 16.90058594 -1.62695312 17.65429688 C-2.0813758 19.43703198 -2.54022466 21.21863787 -3 23 C-3.33 23 -3.66 23 -4 23 C-4.56993514 14.73594051 -2.48605403 7.8022142 0 0 Z " fill="#BFB0CC" transform="translate(412,200)"/>
<path d="M0 0 C2.51884651 2.51884651 2.8257588 4.43644242 3.6875 7.875 C3.95949219 8.92429688 4.23148437 9.97359375 4.51171875 11.0546875 C4.97540921 13.85166838 4.94575698 15.372192 4 18 C-0.66600443 12.72538629 -0.11486662 6.66226374 0 0 Z " fill="#D8C1EC" transform="translate(309,243)"/>
<path d="M0 0 C0.33 0 0.66 0 1 0 C1.21432579 6.64409958 0.51233701 12.53205867 -1 19 C-1.99 18.67 -2.98 18.34 -4 18 C-2.68 12.06 -1.36 6.12 0 0 Z " fill="#CDADEA" transform="translate(340,241)"/>
<path d="M0 0 C0.66 0 1.32 0 2 0 C1.85786703 1.89611434 1.71113093 3.79188394 1.5625 5.6875 C1.48128906 6.74324219 1.40007812 7.79898437 1.31640625 8.88671875 C1.03548319 11.65086297 0.59843148 14.28945741 0 17 C-0.66 16.67 -1.32 16.34 -2 16 C-1.85764543 14.27054347 -1.71095618 12.54144346 -1.5625 10.8125 C-1.48128906 9.84957031 -1.40007812 8.88664062 -1.31640625 7.89453125 C-1.02333849 5.21350398 -0.57296246 2.6337014 0 0 Z " fill="#CDB0E7" transform="translate(384,317)"/>
<path d="M0 0 C0.66 0.99 1.32 1.98 2 3 C1.360625 3.928125 0.72125 4.85625 0.0625 5.8125 C-2.08622093 8.84219943 -2.08622093 8.84219943 -3 12 C-3.66 12 -4.32 12 -5 12 C-5.33 13.32 -5.66 14.64 -6 16 C-6.66 16 -7.32 16 -8 16 C-6.42986223 10.03347646 -3.24970218 5.17090975 0 0 Z " fill="#B8A3D0" transform="translate(400,77)"/>
<path d="M0 0 C0.66 0.33 1.32 0.66 2 1 C-2.95 5.95 -7.9 10.9 -13 16 C-13.33 15.01 -13.66 14.02 -14 13 C-13.07316406 12.14535156 -12.14632813 11.29070313 -11.19140625 10.41015625 C-9.98176077 9.29428174 -8.7721259 8.17839573 -7.5625 7.0625 C-6.64500977 6.21655273 -6.64500977 6.21655273 -5.70898438 5.35351562 C-5.12568359 4.81533203 -4.54238281 4.27714844 -3.94140625 3.72265625 C-3.40201416 3.22515869 -2.86262207 2.72766113 -2.30688477 2.21508789 C-1.52614632 1.48918929 -0.75381738 0.75381738 0 0 Z " fill="#9944E5" transform="translate(439,34)"/>
<path d="M0 0 C0.66 0 1.32 0 2 0 C3.69057861 5.28305817 3.29188056 10.67099269 2 16 C1.67 16 1.34 16 1 16 C0.14701624 12.32612505 -0.10789471 8.9552607 -0.0625 5.1875 C-0.05347656 4.21167969 -0.04445313 3.23585938 -0.03515625 2.23046875 C-0.02355469 1.49441406 -0.01195312 0.75835937 0 0 Z " fill="#BB9FD4" transform="translate(313,262)"/>
<path d="M0 0 C-2.79624958 2.18697502 -5.63307872 3.99152813 -8.75 5.6875 C-9.94882813 6.34298828 -9.94882813 6.34298828 -11.171875 7.01171875 C-11.77515625 7.33785156 -12.3784375 7.66398437 -13 8 C-13 6.68 -13 5.36 -13 4 C-11.02 3.67 -9.04 3.34 -7 3 C-7 2.34 -7 1.68 -7 1 C-4.53721199 -0.231394 -2.7204945 -0.07159196 0 0 Z " fill="#D4A5EE" transform="translate(105,62)"/>
<path d="M0 0 C-3.18554592 0.96541545 -5.88752707 1.05239684 -9.203125 0.87890625 C-10.1828125 0.83056641 -11.1625 0.78222656 -12.171875 0.73242188 C-13.69554687 0.64831055 -13.69554687 0.64831055 -15.25 0.5625 C-16.796875 0.48418945 -16.796875 0.48418945 -18.375 0.40429688 C-20.91699039 0.27484366 -23.45856593 0.13988672 -26 0 C-26 -0.33 -26 -0.66 -26 -1 C-22.04243356 -1.22515501 -18.08402412 -1.42727348 -14.125 -1.625 C-12.99707031 -1.68945312 -11.86914062 -1.75390625 -10.70703125 -1.8203125 C-9.63066406 -1.871875 -8.55429687 -1.9234375 -7.4453125 -1.9765625 C-6.45031738 -2.02893066 -5.45532227 -2.08129883 -4.43017578 -2.13525391 C-2 -2 -2 -2 0 0 Z " fill="#A55CE4" transform="translate(619,244)"/>
<path d="M0 0 C0.33 0.66 0.66 1.32 1 2 C0.1028125 2.556875 0.1028125 2.556875 -0.8125 3.125 C-3.49654509 5.42561008 -4.5766714 7.79751065 -6 11 C-6.99 10.67 -7.98 10.34 -9 10 C-6.68116787 5.49115974 -3.93548431 3.06093224 0 0 Z " fill="#B497CF" transform="translate(424,48)"/>
<path d="M0 0 C3.21880117 3.7935871 5.6163187 7.65829477 8 12 C7.01 12.495 7.01 12.495 6 13 C4.98868775 11.59138651 3.99133233 10.17274547 3 8.75 C2.1646875 7.56664063 2.1646875 7.56664063 1.3125 6.359375 C0 4 0 4 0 0 Z " fill="#AE9AC2" transform="translate(242,68)"/>
<path d="M0 0 C0.33 0 0.66 0 1 0 C1.02696365 1.79158489 1.04637917 3.58328473 1.0625 5.375 C1.07410156 6.37273437 1.08570313 7.37046875 1.09765625 8.3984375 C1 11 1 11 0 13 C-0.66 13 -1.32 13 -2 13 C-2 10.69 -2 8.38 -2 6 C-1.34 6 -0.68 6 0 6 C0 4.02 0 2.04 0 0 Z " fill="#D9CEE2" transform="translate(375,380)"/>
<path d="M0 0 C0.89203125 0.20367187 1.7840625 0.40734375 2.703125 0.6171875 C3.37859375 0.78476563 4.0540625 0.95234375 4.75 1.125 C4.75 1.785 4.75 2.445 4.75 3.125 C0.13 2.465 -4.49 1.805 -9.25 1.125 C-4.96970042 -1.01514979 -4.36227246 -1.03316979 0 0 Z " fill="#B89AD5" transform="translate(558.25,3.875)"/>
<path d="M0 0 C0.66 0 1.32 0 2 0 C2 3.3 2 6.6 2 10 C1.01 9.67 0.02 9.34 -1 9 C-0.67 6.03 -0.34 3.06 0 0 Z " fill="#DCC9EE" transform="translate(335,261)"/>
<path d="M0 0 C0.66 0 1.32 0 2 0 C0.78065514 4.03321763 -0.55954927 7.54269479 -3 11 C-3.66 11 -4.32 11 -5 11 C-3.55049545 7.2089881 -1.84827434 3.6125362 0 0 Z " fill="#B59BCE" transform="translate(572,201)"/>
<path d="M0 0 C0.75 1.5625 0.75 1.5625 1 4 C-0.02332869 6.54719859 -1.27272296 8.86333587 -3 11 C-3.99 11.33 -4.98 11.66 -6 12 C-4.43358249 7.69235185 -2.31663844 3.93828536 0 0 Z " fill="#C096E4" transform="translate(561,221)"/>
<path d="M0 0 C-1.50223584 4.20626034 -4.28550034 5.73900021 -8 8 C-8 5 -8 5 -5.6875 2.3125 C-3 0 -3 0 0 0 Z " fill="#B49AC8" transform="translate(92,68)"/>
<path d="M0 0 C0.33 0.99 0.66 1.98 1 3 C1.66 3 2.32 3 3 3 C2.67 6.3 2.34 9.6 2 13 C1.67 13 1.34 13 1 13 C0.67 8.71 0.34 4.42 0 0 Z " fill="#DAC3ED" transform="translate(323,325)"/>
<path d="M0 0 C0.66 0 1.32 0 2 0 C1.25 6.75 1.25 6.75 -1 9 C-1.80967438 6.08517222 -2.21845993 4.53886783 -1.0625 1.6875 C-0.711875 1.130625 -0.36125 0.57375 0 0 Z " fill="#AB81D2" transform="translate(375,125)"/>
<path d="M0 0 C-1.5830577 4.2742558 -4.50568404 6.26531794 -8 9 C-8.66 8.67 -9.32 8.34 -10 8 C-8.71451591 6.66070495 -7.42141845 5.32871357 -6.125 4 C-5.04605469 2.88625 -5.04605469 2.88625 -3.9453125 1.75 C-2 0 -2 0 0 0 Z " fill="#D3C9DD" transform="translate(432,40)"/>
<path d="M0 0 C0.66 0 1.32 0 2 0 C0.515 5.445 0.515 5.445 -1 11 C-1.33 11 -1.66 11 -2 11 C-2 8.36 -2 5.72 -2 3 C-1.34 3 -0.68 3 0 3 C0 2.01 0 1.02 0 0 Z " fill="#B09DC2" transform="translate(66,97)"/>
<path d="M0 0 C-1.29299694 2.88437779 -2.65941363 4.87219421 -5 7 C-5.99 6.67 -6.98 6.34 -8 6 C-7.0479279 4.99403703 -6.08812654 3.99538437 -5.125 3 C-4.59132813 2.443125 -4.05765625 1.88625 -3.5078125 1.3125 C-2 0 -2 0 0 0 Z " fill="#C6B3D7" transform="translate(84,75)"/>
<path d="M0 0 C0.66 0 1.32 0 2 0 C0.68775452 3.93673644 -0.91910327 6.22719294 -4 9 C-3.4739075 5.21213403 -2.61896089 2.82847776 0 0 Z " fill="#C6B2D7" transform="translate(405,70)"/>
<path d="M0 0 C1.65 0 3.3 0 5 0 C2.11912454 2.40072955 -0.56404834 4.47291037 -4 6 C-4.33 5.34 -4.66 4.68 -5 4 C-4.34 4 -3.68 4 -3 4 C-3 3.34 -3 2.68 -3 2 C-2.01 2 -1.02 2 0 2 C0 1.34 0 0.68 0 0 Z " fill="#CFB7E5" transform="translate(496,63)"/>
<path d="M0 0 C0.66 0.99 1.32 1.98 2 3 C0.625 6.6875 0.625 6.6875 -1 10 C-1.66 10 -2.32 10 -3 10 C-2.39009109 6.44219804 -1.4216319 3.3171411 0 0 Z " fill="#C1A3DC" transform="translate(636,203)"/>
<path d="M0 0 C0.66 0 1.32 0 2 0 C1.25 6.75 1.25 6.75 -1 9 C-2.25541557 5.23375329 -1.37061958 3.62811066 0 0 Z " fill="#D9CBE6" transform="translate(416,188)"/>
<path d="M0 0 C0.66 0 1.32 0 2 0 C1.01 2.97 0.02 5.94 -1 9 C-1.33 9 -1.66 9 -2 9 C-1.125 2.25 -1.125 2.25 0 0 Z " fill="#BA92E0" transform="translate(13,69)"/>
<path d="M0 0 C3.82946843 1.45255699 5.12050295 3.42895561 7 7 C6.01 7 5.02 7 4 7 C4 6.34 4 5.68 4 5 C3.34 5 2.68 5 2 5 C1.34 3.35 0.68 1.7 0 0 Z " fill="#D3BDE3" transform="translate(229,53)"/>
<path d="M0 0 C-3.18762365 2.12508244 -5.26512223 2.5020163 -9 3 C-9 2.34 -9 1.68 -9 1 C-5.57367167 -0.61798838 -3.61944899 -1.34053666 0 0 Z " fill="#B9A8C8" transform="translate(90,6)"/>
<path d="M0 0 C2.25245881 2.68841859 3.88213958 4.64641875 5 8 C4.01 8.495 4.01 8.495 3 9 C1.68 6.36 0.36 3.72 -1 1 C-0.67 0.67 -0.34 0.34 0 0 Z " fill="#B19BC7" transform="translate(578,89)"/>
<path d="M0 0 C0.66 0 1.32 0 2 0 C2 0.99 2 1.98 2 3 C1.34 3 0.68 3 0 3 C-0.33 4.32 -0.66 5.64 -1 7 C-1.66 7 -2.32 7 -3 7 C-1.125 1.125 -1.125 1.125 0 0 Z " fill="#AD89CF" transform="translate(395,86)"/>
<path d="M0 0 C0 0.99 0 1.98 0 3 C-1.8125 4.75 -1.8125 4.75 -4 6 C-4.99 5.67 -5.98 5.34 -7 5 C-4.702779 3.25728062 -2.40133271 1.60088848 0 0 Z " fill="#B585DF" transform="translate(74,10)"/>
</svg>
