<?xml version="1.0" encoding="UTF-8"?>
<svg version="1.1" xmlns="http://www.w3.org/2000/svg" width="585" height="491">
<path d="M0 0 C1.27488281 0.33902344 2.54976563 0.67804688 3.86328125 1.02734375 C25.40236899 7.52840031 43.9144619 19.50846257 60 35 C60.65613281 35.59296875 61.31226563 36.1859375 61.98828125 36.796875 C79.65678941 53.2062481 94.06317138 82.66377402 95.40014648 106.50292969 C95.58476815 111.57799827 95.60764419 116.64813588 95.57641602 121.72607422 C95.56254845 124.86403649 95.59675207 127.99900601 95.63476562 131.13671875 C95.6992686 147.66135731 92.87446841 162.12973897 85.8125 177.125 C85.43158203 177.94919434 85.05066406 178.77338867 84.65820312 179.62255859 C78.71798641 192.15255231 71.60177765 202.97319396 62 213 C61.21625 214.010625 60.4325 215.02125 59.625 216.0625 C55.55396905 220.61817749 50.80118387 224.24146594 46 228 C45.08089844 228.73476563 44.16179688 229.46953125 43.21484375 230.2265625 C24.78114098 244.57797346 3.79388526 253.5178708 -17.875 261.8125 C-19.06254883 262.26874756 -20.25009766 262.72499512 -21.47363281 263.19506836 C-28.50270356 265.84096822 -35.54554396 268.05477685 -42.78637695 270.04321289 C-45.55468605 270.86741735 -48.09680585 271.82281137 -50.73828125 272.9765625 C-58.24882384 276.1027782 -66.27068677 277.6211208 -74.1875 279.375 C-75.05737549 279.56942688 -75.92725098 279.76385376 -76.82348633 279.96417236 C-89.8179653 282.85140789 -102.84638725 285.33396595 -116 287.375 C-117.08926285 287.54766388 -117.08926285 287.54766388 -118.20053101 287.72381592 C-123.78716359 288.5983917 -129.38515031 289.33152874 -135 290 C-136.0943335 290.13097076 -137.18866699 290.26194153 -138.31616211 290.3968811 C-160.18714117 292.92665299 -181.89127156 293.52932652 -203.8948822 293.44683075 C-206.54275731 293.43734686 -209.19061269 293.43250993 -211.83850098 293.42828369 C-236.32387703 293.37552748 -260.62113134 293.06163484 -284.87103271 289.32611084 C-287.10466339 288.98396788 -289.34027006 288.65806078 -291.57666016 288.33447266 C-325.19680364 283.42398285 -357.69614695 275.45642906 -390 265 C-391.21091309 264.61054199 -392.42182617 264.22108398 -393.66943359 263.81982422 C-410.89049414 258.23094425 -427.49518087 251.42890491 -444 244 C-444.98967773 243.55479004 -445.97935547 243.10958008 -446.99902344 242.65087891 C-456.46048478 238.35658053 -465.70080055 233.78453988 -474.6875 228.5625 C-475.75810669 227.9425415 -475.75810669 227.9425415 -476.8503418 227.31005859 C-480.0075564 225.42080637 -481.9302398 224.10464031 -484 221 C-484.24723816 218.1091156 -484.24723816 218.1091156 -484.24291992 214.54077148 C-484.24481827 213.89005676 -484.24671661 213.23934204 -484.24867249 212.56890869 C-484.25237515 210.41951422 -484.24168434 208.27045816 -484.23046875 206.12109375 C-484.22927663 204.62801656 -484.22882385 203.13493861 -484.2290802 201.64186096 C-484.22751627 198.51387838 -484.21923286 195.3860104 -484.20581055 192.25805664 C-484.18880613 188.24399708 -484.18499669 184.2300633 -484.18575573 180.21597195 C-484.18548414 177.13368016 -484.18000488 174.05141599 -484.17275429 170.96913338 C-484.1695674 169.48872143 -484.16760017 168.00830635 -484.16686058 166.52789116 C-484.16469805 164.46181757 -484.15595619 162.39587873 -484.14526367 160.32983398 C-484.14145187 159.15307602 -484.13764008 157.97631805 -484.13371277 156.76390076 C-484 154 -484 154 -483 152 C-480.25679292 151.09944929 -478.65586335 150.74732246 -475.9296875 151.79760742 C-475.25164062 152.22920166 -474.57359375 152.6607959 -473.875 153.10546875 C-473.09729248 153.58830322 -472.31958496 154.0711377 -471.51831055 154.56860352 C-470.27174683 155.36995728 -470.27174683 155.36995728 -469 156.1875 C-467.19511856 157.30647689 -465.38909301 158.42361008 -463.58203125 159.5390625 C-462.65600098 160.1155957 -461.7299707 160.69212891 -460.77587891 161.28613281 C-437.30918811 175.77480206 -413.02324673 186.92774063 -387 196 C-385.78860352 196.42700195 -384.57720703 196.85400391 -383.32910156 197.29394531 C-366.54374609 203.18223218 -349.70929115 208.1455993 -332.38671875 212.18701172 C-329.36769725 212.91173357 -326.36761123 213.69181273 -323.3656311 214.48345947 C-313.58815529 217.03057221 -303.73783649 218.64621309 -293.75 220.125 C-292.89315613 220.25417816 -292.03631226 220.38335632 -291.15350342 220.51644897 C-278.80516873 222.37769942 -266.46720385 224.15692844 -254 225 C-252.8644165 225.08467529 -251.72883301 225.16935059 -250.55883789 225.2565918 C-237.77509637 226.15284719 -224.99804382 226.20121252 -212.1875 226.1875 C-210.49016724 226.18609512 -210.49016724 226.18609512 -208.75854492 226.18466187 C-163.89415917 227.8810984 -163.89415917 227.8810984 -121 218 C-121.49886719 217.55914062 -121.99773437 217.11828125 -122.51171875 216.6640625 C-146.67140567 194.02248876 -159.66895019 161.40992617 -161.3203125 128.6796875 C-162.4028697 93.4714027 -149.66021993 62.13946375 -126.8125 35.75 C-116.15510621 24.60261109 -103.85941248 16.24527423 -89.87158203 9.88525391 C-88.07745986 9.03663833 -86.33151394 8.08835298 -84.58984375 7.13671875 C-59.33111121 -6.65957142 -27.3197554 -7.38255279 0 0 Z M-84.96484375 85.3203125 C-96.39712924 100.37318745 -99.12424018 119.89902683 -96.70263672 138.25390625 C-95.08664019 147.84113733 -91.55772008 155.99505338 -86 164 C-85.41476562 164.86109375 -84.82953125 165.7221875 -84.2265625 166.609375 C-74.54727339 179.7601391 -60.49454727 188.21699028 -44.5703125 191.4921875 C-28.10701767 193.83379399 -9.80454078 191.93102785 4 182 C19.49133343 169.5990093 29.93913874 153.8955982 33 134 C33.38906762 125.49480095 33.45321068 117.21903705 31 109 C30.82855469 108.23945313 30.65710938 107.47890625 30.48046875 106.6953125 C26.84450632 92.01071584 16.27677081 78.51901139 4 70 C3.35160156 69.53722656 2.70320313 69.07445312 2.03515625 68.59765625 C-27.15584018 48.9579061 -63.37958569 60.27075376 -84.96484375 85.3203125 Z " fill="#9435E9" transform="translate(490,198)"/>
<path d="M0 0 C0.6901759 -0.00058914 1.38035179 -0.00117828 2.09144211 -0.00178528 C23.24310563 -0.01451826 44.06172388 0.48316546 65.0625 3.25 C67.48951207 3.5435585 69.9165963 3.83652101 72.34375 4.12890625 C127.97472676 11.09533802 180.67061146 26.71456934 232.10742188 48.98657227 C235.13051211 50.27907821 238.17093632 51.5230509 241.21484375 52.765625 C246.52948762 54.97381905 251.61995241 57.46468636 256.6875 60.1875 C257.5014624 60.6220752 258.3154248 61.05665039 259.15405273 61.50439453 C261.4620814 62.74361384 263.76373658 63.99369295 266.0625 65.25 C267.17496094 65.85714844 268.28742187 66.46429688 269.43359375 67.08984375 C276.41214816 71.07035447 276.41214816 71.07035447 278.0625 75.25 C278.32992554 78.13378906 278.32992554 78.13378906 278.35302734 81.515625 C278.3721669 83.41779785 278.3721669 83.41779785 278.39169312 85.35839844 C278.39475019 86.73893074 278.39697826 88.11946509 278.3984375 89.5 C278.4048665 90.91959772 278.41159494 92.33919411 278.41860962 93.75878906 C278.43057207 96.73115105 278.43429137 99.70339689 278.43310547 102.67578125 C278.43290199 106.48250497 278.46023762 110.28848455 278.49464989 114.09503174 C278.51689423 117.02558814 278.52094384 119.95596449 278.51988602 122.88659668 C278.52224442 124.29002454 278.53108155 125.69345718 278.54655075 127.09680176 C278.56616286 129.05922827 278.55786246 131.0218736 278.54833984 132.984375 C278.55118988 134.10038086 278.55403992 135.21638672 278.55697632 136.36621094 C277.95685949 139.86609616 276.76869124 141.0401318 274.0625 143.25 C268.3125 141.375 268.3125 141.375 266.0625 140.25 C266.0625 139.59 266.0625 138.93 266.0625 138.25 C265.35125977 137.98300293 264.64001953 137.71600586 263.90722656 137.44091797 C260.97252295 136.21233195 258.30728934 134.77584957 255.546875 133.1953125 C254.4736499 132.58647217 253.4004248 131.97763184 252.29467773 131.3503418 C251.44472733 130.86735123 251.44472733 130.86735123 250.5776062 130.37460327 C229.70378762 118.55348037 208.38533502 108.59111036 185.86376953 100.28710938 C183.47323847 99.40206702 181.09184854 98.49869582 178.71484375 97.578125 C94.12358577 64.89294624 -0.92700798 57.43681586 -105.9375 79.25 C-105.091875 80.00023438 -104.24625 80.75046875 -103.375 81.5234375 C-83.05622142 99.75062124 -69.88076699 123.60388355 -63.9375 150.25 C-63.76234863 151.00893555 -63.58719727 151.76787109 -63.40673828 152.54980469 C-56.98943508 181.94370561 -66.26120412 215.05943049 -81.9375 240.25 C-90.60152967 253.46359944 -102.35004817 266.11299115 -115.9375 274.25 C-116.52257324 274.60400879 -117.10764648 274.95801758 -117.71044922 275.32275391 C-148.01994585 293.51454884 -181.66887191 298.75524147 -215.9375 290.25 C-237.06799997 284.55223317 -255.09603766 273.16442323 -270.9375 258.25 C-271.85982422 257.42435547 -271.85982422 257.42435547 -272.80078125 256.58203125 C-289.74831746 240.80329064 -304.10493705 212.76015394 -305.32128906 189.78149414 C-305.48975451 184.66506038 -305.50002212 179.55323971 -305.45898438 174.43457031 C-305.4375343 171.25508368 -305.45888475 168.07785596 -305.484375 164.8984375 C-305.52797399 132.61598393 -291.22724165 105.92617553 -269.41796875 82.6953125 C-248.00126901 61.58215654 -220.15903834 47.65008739 -192.64233398 36.40405273 C-190.42783568 35.45920812 -188.34822837 34.44455254 -186.234375 33.30078125 C-179.57800572 29.8887934 -172.27310694 27.78084285 -165.1875 25.4375 C-164.38794891 25.17232574 -163.58839783 24.90715149 -162.76461792 24.63394165 C-130.08944611 13.84406142 -96.31517088 6.72996846 -62.125 2.875 C-61.41922821 2.79537018 -60.71345642 2.71574036 -59.98629761 2.63369751 C-55.30771085 2.1156407 -50.62641639 1.66451587 -45.9375 1.25 C-44.77871338 1.146875 -43.61992676 1.04375 -42.42602539 0.9375 C-28.31261358 -0.12587176 -14.14532114 0.00553103 0 0 Z M-231.57226562 135.67480469 C-242.60723526 148.40685478 -244.22692164 164.40846269 -243.21240234 180.59814453 C-241.88316333 193.42069708 -236.41463484 204.50187554 -226.9375 213.25 C-226.215625 214.03375 -225.49375 214.8175 -224.75 215.625 C-217.99668089 221.92809784 -210.72828951 226.41472105 -201.9375 229.25 C-200.91462891 229.58837891 -200.91462891 229.58837891 -199.87109375 229.93359375 C-185.74827389 233.8193791 -169.07686477 231.62244587 -156.1875 225.125 C-141.38369159 216.53446884 -131.79700443 204.03968769 -127.1875 187.5703125 C-123.7580076 171.51838282 -125.60951352 154.05492715 -134.1171875 139.83984375 C-143.11582783 127.03705719 -155.12642986 117.16076413 -170.63671875 113.63671875 C-195.9529966 110.67066963 -214.40943221 116.74294683 -231.57226562 135.67480469 Z " fill="#9435E9" transform="translate(304.9375,-0.25)"/>
<path d="M0 0 C2.04664672 0.00544598 4.09328186 0.00780918 6.13993454 0.00987244 C26.4196994 0.04171705 46.38217878 0.66566772 66.51276779 3.31785583 C68.93977986 3.61141433 71.3668641 3.90437684 73.79401779 4.19676208 C107.50938637 8.418795 140.47315771 15.48630109 172.88776779 25.69285583 C174.48479538 26.19341492 174.48479538 26.19341492 176.11408615 26.7040863 C177.07838547 27.01748962 178.04268478 27.33089294 179.03620529 27.65379333 C179.88102463 27.92755798 180.72584396 28.20132263 181.59626389 28.48338318 C183.51276779 29.31785583 183.51276779 29.31785583 184.51276779 31.31785583 C177.1243034 29.51991211 169.7889026 27.580529 162.47101974 25.51463318 C130.21555328 16.42939107 97.64034239 9.6688182 64.32526779 6.00535583 C63.58617172 5.92404419 62.84707565 5.84273254 62.08558273 5.75895691 C57.23170366 5.23276356 52.37498866 4.76047689 47.51276779 4.31785583 C46.40699387 4.21400574 45.30121994 4.11015564 44.16193771 4.00315857 C30.54301029 2.90633883 16.85404662 3.03208721 3.20026779 3.00535583 C2.51876286 3.00346882 1.83725792 3.0015818 1.13510132 2.9996376 C-21.18807 2.94336211 -43.20512967 3.92770565 -65.38306046 6.6078186 C-71.73948204 7.37473403 -78.09797657 7.89566454 -84.48723221 8.31785583 C-84.48723221 7.65785583 -84.48723221 6.99785583 -84.48723221 6.31785583 C-80.53127411 5.77598699 -76.57412319 5.2437631 -72.61589432 4.71873474 C-70.64466144 4.45553101 -68.67431834 4.18568887 -66.70402908 3.91551208 C-44.50439797 0.93830359 -22.388825 -0.06203021 0 0 Z " fill="#C8B1DC" transform="translate(303.48723220825195,-0.3178558349609375)"/>
<path d="M0 0 C-8.62014846 7.2360033 -22.55360241 8.47596107 -33.375 10.875 C-34.5265155 11.13112564 -34.5265155 11.13112564 -35.70129395 11.39242554 C-47.98853443 14.10303115 -60.31807145 16.37626303 -72.75 18.3125 C-73.48353699 18.42938171 -74.21707397 18.54626343 -74.97283936 18.66668701 C-103.57424193 23.1755951 -131.99314307 24.55021565 -160.90074539 24.44581985 C-163.53693942 24.43738176 -166.1730892 24.43477923 -168.80929565 24.43331909 C-194.04671772 24.40682809 -218.99835247 23.75931607 -244 20 C-246.33319341 19.66568865 -248.66648978 19.33209278 -251 19 C-251 18.34 -251 17.68 -251 17 C-239.76301319 17.74294128 -228.56644327 18.77568139 -217.36132812 19.89453125 C-200.0254161 21.59167996 -182.72749008 22.20869615 -165.3125 22.1875 C-164.38246155 22.18689575 -163.4524231 22.1862915 -162.49420166 22.18566895 C-125.83945872 22.12163228 -89.90687231 18.25061555 -53.82519531 12.01855469 C-52.728825 11.82929665 -52.728825 11.82929665 -51.61030579 11.63621521 C-49.63613105 11.29381899 -47.66264214 10.94747495 -45.68920898 10.60083008 C-41.79845668 9.96717635 -37.9139279 9.46620793 -34 9 C-34 8.34 -34 7.68 -34 7 C-31.03 7 -28.06 7 -25 7 C-25 6.34 -25 5.68 -25 5 C-19.77487721 3.53329887 -15.4185766 2.77422598 -10 3 C-10 2.34 -10 1.68 -10 1 C-6.61981469 -0.04005702 -3.5219721 -0.08004482 0 0 Z " fill="#CEBBDD" transform="translate(447,467)"/>
<path d="M0 0 C9.88640963 0.69022162 19.70421882 1.71574864 29.54296875 2.89453125 C46.96558129 4.90717844 64.28999248 5.20338637 81.8125 5.1875 C83.50385071 5.18709213 83.50385071 5.18709213 85.22937012 5.18667603 C108.53045222 5.16084838 131.28159666 3.90369108 154.3671875 0.5859375 C157.94001533 0.09110587 161.38574678 -0.13121051 165 0 C157.73896005 4.8406933 147.28990465 4.65369145 138.8125 5.5625 C137.69552734 5.68818359 136.57855469 5.81386719 135.42773438 5.94335938 C118.36396623 7.81108414 101.46436691 8.23858765 84.3125 8.25 C83.12312836 8.25133942 81.93375671 8.25267883 80.70834351 8.25405884 C25.99565972 8.24074641 25.99565972 8.24074641 1 2 C0.67 1.34 0.34 0.68 0 0 Z " fill="#CBA7EC" transform="translate(196,419)"/>
<path d="M0 0 C1.04518799 0.00008057 2.09037598 0.00016113 3.16723633 0.00024414 C13.39668122 0.06988207 23.59994788 0.57249391 33.8125 1.125 C34.6232196 1.16847565 35.43393921 1.21195129 36.26922607 1.25674438 C38.60034953 1.38395629 40.93106873 1.51675485 43.26171875 1.65234375 C43.95239944 1.69094513 44.64308014 1.72954651 45.35469055 1.76931763 C49.66171712 2.03110945 53.8657036 2.52698589 58.125 3.1875 C58.125 3.8475 58.125 4.5075 58.125 5.1875 C56.92488281 5.12691406 55.72476563 5.06632812 54.48828125 5.00390625 C51.89078108 4.87283126 49.29323779 4.7429224 46.69555664 4.61547852 C42.15275091 4.39235754 37.61101435 4.16112273 33.0703125 3.8984375 C-8.87955126 1.54433939 -51.76816832 3.784905 -92.953125 12.453125 C-96.0754472 13.03778294 -98.72411406 13.36394961 -101.875 13.1875 C-101.875 12.5275 -101.875 11.8675 -101.875 11.1875 C-84.32040635 7.66174342 -66.81497871 4.71518811 -49 2.875 C-48.23073181 2.79423218 -47.46146362 2.71346436 -46.66888428 2.63024902 C-31.16706597 1.02282499 -15.59047039 -0.0120742 0 0 Z " fill="#C8B6D8" transform="translate(307.875,62.8125)"/>
<path d="M0 0 C3.57470207 0.02093682 7.14943565 0.02969289 10.72418213 0.03967285 C17.66370806 0.0607422 24.60311582 0.09459692 31.5425415 0.1373291 C31.5425415 0.7973291 31.5425415 1.4573291 31.5425415 2.1373291 C34.5125415 2.1373291 37.4825415 2.1373291 40.5425415 2.1373291 C40.5425415 2.4673291 40.5425415 2.7973291 40.5425415 3.1373291 C39.73378571 3.12844666 38.92502991 3.11956421 38.09176636 3.1104126 C-15.86381198 2.44082721 -15.86381198 2.44082721 -69.60736084 6.67980957 C-75.21160618 7.34578013 -80.82673262 7.76891787 -86.4574585 8.1373291 C-86.4574585 7.4773291 -86.4574585 6.8173291 -86.4574585 6.1373291 C-82.5015004 5.59546025 -78.54434948 5.06323636 -74.58612061 4.53820801 C-72.61488773 4.27500428 -70.64454463 4.00516214 -68.67425537 3.73498535 C-45.79505264 0.66531884 -23.05227582 -0.15001041 0 0 Z " fill="#B290D0" transform="translate(305.45745849609375,-0.1373291015625)"/>
<path d="M0 0 C0.66 0 1.32 0 2 0 C3.37942835 2.7588567 3.12721397 4.98285635 3.12939453 8.0703125 C3.13254669 9.34503418 3.13569885 10.61975586 3.13894653 11.93310547 C3.1371567 13.330404 3.13510573 14.72770221 3.1328125 16.125 C3.13348585 17.55224626 3.13445615 18.97949241 3.13571167 20.40673828 C3.13718715 23.39942516 3.13503888 26.39208221 3.13037109 29.38476562 C3.12467388 33.22509129 3.12795369 37.06534707 3.13394356 40.90567017 C3.13755319 43.85327686 3.13640873 46.80086693 3.13381577 49.74847412 C3.13314761 51.16469328 3.13397104 52.58091394 3.13629532 53.99713135 C3.13882837 55.97464978 3.13428457 57.95217349 3.12939453 59.9296875 C3.12859894 61.05616699 3.12780334 62.18264648 3.12698364 63.34326172 C3 66 3 66 2 68 C1.34 68 0.68 68 0 68 C0 45.56 0 23.12 0 0 Z " fill="#BCAEC8" transform="translate(580,73)"/>
<path d="M0 0 C-8.75767939 7.33877941 -23.25616157 8.58763641 -34.25 11 C-35.03192719 11.17297607 -35.81385437 11.34595215 -36.61947632 11.52416992 C-46.81105075 13.77163391 -57.00587384 15.84441782 -67.3125 17.5 C-68.30604492 17.65984375 -69.29958984 17.8196875 -70.32324219 17.984375 C-75.27446415 18.73303719 -79.99341523 19.16573522 -85 19 C-84.67 18.34 -84.34 17.68 -84 17 C-80.99115543 16.33138912 -78.0367367 15.78656196 -74.99609375 15.30859375 C-73.62832542 15.08333763 -73.62832542 15.08333763 -72.23292542 14.85353088 C-69.30240649 14.3731869 -66.37002747 13.90540799 -63.4375 13.4375 C-61.48620026 13.11861999 -59.53502652 12.79896795 -57.58398438 12.47851562 C-49.73395251 11.19773129 -41.89900627 9.94107805 -34 9 C-34 8.34 -34 7.68 -34 7 C-31.03 7 -28.06 7 -25 7 C-25 6.34 -25 5.68 -25 5 C-19.77487721 3.53329887 -15.4185766 2.77422598 -10 3 C-10 2.34 -10 1.68 -10 1 C-6.61981469 -0.04005702 -3.5219721 -0.08004482 0 0 Z " fill="#C2B3CE" transform="translate(447,467)"/>
<path d="M0 0 C1.0729834 -0.00555908 2.1459668 -0.01111816 3.25146484 -0.0168457 C10.44031701 0.04784401 17.71946096 0.40927261 24.6875 2.3125 C25.1825 3.3025 25.1825 3.3025 25.6875 4.3125 C23.70840602 4.33936553 21.72921029 4.35883375 19.75 4.375 C18.64785156 4.38660156 17.54570312 4.39820313 16.41015625 4.41015625 C13.6875 4.3125 13.6875 4.3125 12.6875 3.3125 C8.40236442 3.05501104 4.10442883 3.12724944 -0.1875 3.125 C-1.97414063 3.10663086 -1.97414063 3.10663086 -3.796875 3.08789062 C-13.45319037 3.07204328 -22.18223778 4.14485801 -31.3125 7.3125 C-42.36668719 10.3125 -42.36668719 10.3125 -46.3125 10.3125 C-46.3125 10.9725 -46.3125 11.6325 -46.3125 12.3125 C-47.9625 12.3125 -49.6125 12.3125 -51.3125 12.3125 C-47.53250714 8.91483466 -43.87895861 7.16608377 -39.0625 5.75 C-38.00651611 5.43639526 -38.00651611 5.43639526 -36.92919922 5.11645508 C-24.56593737 1.56862922 -12.89029315 0.05582194 0 0 Z " fill="#B5A2C4" transform="translate(457.3125,193.6875)"/>
<path d="M0 0 C9.88640963 0.69022162 19.70421882 1.71574864 29.54296875 2.89453125 C47.01389929 4.9127601 64.49415427 5.24135961 82.0625 5.5625 C84.29753197 5.6058152 86.53255809 5.64943299 88.76757812 5.69335938 C94.17832317 5.7990537 99.58912778 5.90104215 105 6 C105 6.33 105 6.66 105 7 C39.85008053 7.78562025 39.85008053 7.78562025 18.75 5.125 C18.04942474 5.03786743 17.34884949 4.95073486 16.62704468 4.86096191 C10.79342667 4.11022039 5.41464806 3.36782436 0 1 C0 0.67 0 0.34 0 0 Z " fill="#D6C1EB" transform="translate(196,419)"/>
<path d="M0 0 C0.66 0 1.32 0 2 0 C1.99777939 0.77150391 1.99555878 1.54300781 1.99327087 2.33789062 C1.97317297 9.63460563 1.95797761 16.93130707 1.94818783 24.2280426 C1.94298551 27.97870064 1.93593639 31.72933567 1.92456055 35.47998047 C1.91363698 39.10449447 1.90770322 42.72898643 1.90512276 46.35351562 C1.90328549 47.73128608 1.89969799 49.10905542 1.89426994 50.48681641 C1.30640495 62.01769238 1.30640495 62.01769238 4 73 C0.125 71.25 0.125 71.25 -1 69 C-1.09686399 66.8865445 -1.1279678 64.76997047 -1.12939453 62.65429688 C-1.13114685 62.00372818 -1.13289917 61.35315948 -1.13470459 60.68287659 C-1.13911298 58.52814075 -1.13618868 56.3734867 -1.1328125 54.21875 C-1.13348583 52.724243 -1.1344561 51.22973611 -1.13571167 49.73522949 C-1.13718727 46.60130776 -1.1350385 43.46741452 -1.13037109 40.33349609 C-1.12467388 36.31156904 -1.12795362 32.28970872 -1.13394356 28.26778412 C-1.13755288 25.18120824 -1.13640887 22.09464825 -1.13381577 19.0080719 C-1.13314753 17.52486666 -1.13397134 16.04165999 -1.13629532 14.55845642 C-1.13882791 12.48749966 -1.13497267 10.41665176 -1.12939453 8.34570312 C-1.12859894 7.16592896 -1.12780334 5.98615479 -1.12698364 4.77062988 C-1 2 -1 2 0 0 Z " fill="#C5BDCB" transform="translate(7,350)"/>
<path d="M0 0 C0.86625 0.61359375 1.7325 1.2271875 2.625 1.859375 C1.965 2.189375 1.305 2.519375 0.625 2.859375 C-1.32096771 2.14274617 -3.23409904 1.33575081 -5.125 0.484375 C-18.02044321 -5.31533438 -36.32155756 -5.37999121 -49.55078125 -0.46875 C-57.09239188 3.07778889 -63.45332308 7.36459994 -69.03515625 13.57421875 C-70.375 14.859375 -70.375 14.859375 -72.375 14.859375 C-68.88486831 6.29268811 -59.46201854 1.05080731 -51.35546875 -2.44140625 C-35.50369335 -8.27706654 -14.75697827 -9.3597501 0 0 Z " fill="#CAB6DC" transform="translate(148.375,117.140625)"/>
<path d="M0 0 C0.99 0 1.98 0 3 0 C4.23636514 15.29318424 4.7927348 28.60836129 -1 43 C-1.66 43 -2.32 43 -3 43 C-3 44.32 -3 45.64 -3 47 C-3.66 47 -4.32 47 -5 47 C-5.33 48.65 -5.66 50.3 -6 52 C-6.66 52 -7.32 52 -8 52 C-8.26039063 52.5775 -8.52078125 53.155 -8.7890625 53.75 C-10.08444186 56.15689843 -11.55475902 57.96514546 -13.375 60 C-13.99246094 60.6909375 -14.60992187 61.381875 -15.24609375 62.09375 C-17.110649 64.12025994 -19.0132807 66.09274947 -21 68 C-21.66 67.67 -22.32 67.34 -23 67 C-22.5875 66.62230469 -22.175 66.24460937 -21.75 65.85546875 C-8.99147664 53.69500117 0.49526081 37.22176882 1.1328125 19.2578125 C1.13544654 17.88020839 1.13272478 16.50258497 1.125 15.125 C1.12886719 14.44308594 1.13273438 13.76117188 1.13671875 13.05859375 C1.12824419 8.60944752 0.72218388 4.39041945 0 0 Z " fill="#CEC0DC" transform="translate(521,309)"/>
<path d="M0 0 C1.9375 0.8125 1.9375 0.8125 4 2 C4.33 2.99 4.66 3.98 5 5 C6.65697379 5.69040574 8.3255761 6.3530635 10 7 C10.721875 7.598125 11.44375 8.19625 12.1875 8.8125 C25.20332003 18.93591558 41.05292773 20.39641104 56.91015625 18.54296875 C59.95349562 18.08265953 62.97737464 17.57968158 66 17 C66 17.66 66 18.32 66 19 C47.7924064 24.15830645 31.198479 22.92784549 14.390625 14.109375 C8.98778342 10.74816019 4.25379766 6.74862719 0 2 C0 1.34 0 0.68 0 0 Z " fill="#C1B0D1" transform="translate(75,211)"/>
<path d="M0 0 C0.66 0 1.32 0 2 0 C-3.57724503 15.2898132 -19.26022794 29.85427799 -33 38 C-33.61552734 38.36851074 -34.23105469 38.73702148 -34.86523438 39.11669922 C-36.96370917 40.36472376 -39.07239396 41.59288795 -41.1875 42.8125 C-41.85322021 43.19841309 -42.51894043 43.58432617 -43.20483398 43.98193359 C-47.4002324 46.33294283 -51.32652987 47.85436335 -56 49 C-56 48.34 -56 47.68 -56 47 C-55.00742188 46.52691406 -54.01484375 46.05382812 -52.9921875 45.56640625 C-38.17561745 38.40047404 -23.5428096 30.45557794 -13 17.4375 C-12.34 16.633125 -11.68 15.82875 -11 15 C-10.34 15 -9.68 15 -9 15 C-8.7421875 14.28457031 -8.484375 13.56914062 -8.21875 12.83203125 C-6.92615235 9.82839889 -5.3722291 7.36494628 -3.5 4.6875 C-2.58734375 3.36298828 -2.58734375 3.36298828 -1.65625 2.01171875 C-1.1096875 1.34785156 -0.563125 0.68398437 0 0 Z " fill="#C1ACD4" transform="translate(222,236)"/>
<path d="M0 0 C3 1 3 1 4.5703125 3.6953125 C5.33988281 5.39300781 5.33988281 5.39300781 6.125 7.125 C6.64320313 8.24132812 7.16140625 9.35765625 7.6953125 10.5078125 C9.0171082 14.04579261 9.60918666 17.25391119 10 21 C10.66 21 11.32 21 12 21 C13.01301491 25.18873624 13.13366554 29.1350589 13.125 33.4375 C13.12757813 34.71496094 13.13015625 35.99242187 13.1328125 37.30859375 C13.01297995 40.6392337 12.63610631 43.73364456 12 47 C11.34 47 10.68 47 10 47 C9.87625 48.051875 9.7525 49.10375 9.625 50.1875 C9.08859218 53.45958771 8.36119965 56.00536076 7 59 C6.34 59 5.68 59 5 59 C5.28875 57.87464844 5.5775 56.74929687 5.875 55.58984375 C10.69965718 36.01220907 10.42935196 17.78119022 0 0 Z " fill="#B9A1CF" transform="translate(169,138)"/>
<path d="M0 0 C0.66 0 1.32 0 2 0 C1.97905273 0.70382812 1.95810547 1.40765625 1.93652344 2.1328125 C1.36723526 24.21254654 2.42969482 41.26640488 17 59 C16.67 59.66 16.34 60.32 16 61 C5.67972762 51.89387731 -0.26463731 37.00881202 -1.17431641 23.39038086 C-1.23107674 20.67402874 -1.22431604 17.96663633 -1.1875 15.25 C-1.18685547 14.33089844 -1.18621094 13.41179687 -1.18554688 12.46484375 C-1.1574638 8.15253187 -0.93895512 4.22412729 0 0 Z " fill="#CDB5E2" transform="translate(392,308)"/>
<path d="M0 0 C1.96646484 0.01353516 1.96646484 0.01353516 3.97265625 0.02734375 C4.95105469 0.03894531 5.92945313 0.05054687 6.9375 0.0625 C6.9375 0.7225 6.9375 1.3825 6.9375 2.0625 C1.19424175 2.61542357 -4.54917115 3.16670411 -10.29272461 3.71655273 C-12.24100868 3.90329077 -14.18925198 4.09045472 -16.13745117 4.27807617 C-26.77288124 5.30202643 -37.40359084 6.31197848 -48.0625 7.0625 C-48.0625 6.4025 -48.0625 5.7425 -48.0625 5.0625 C-43.81255468 4.5100954 -39.56246858 3.95878981 -35.31225586 3.40844727 C-33.87016059 3.22156563 -32.42810238 3.03439774 -30.98608398 2.84692383 C-26.34591885 2.24378278 -21.70475886 1.64932263 -17.0625 1.0625 C-15.71176392 0.88932251 -15.71176392 0.88932251 -14.33374023 0.71264648 C-9.52202237 0.1297371 -4.8486609 -0.04368163 0 0 Z " fill="#D0B8E7" transform="translate(267.0625,0.9375)"/>
<path d="M0 0 C0.33 1.32 0.66 2.64 1 4 C0.01 4.495 0.01 4.495 -1 5 C-1.72159424 6.64363134 -2.39351421 8.31050386 -3 10 C-3.66 10 -4.32 10 -5 10 C-5.11730469 10.721875 -5.23460937 11.44375 -5.35546875 12.1875 C-6.01731225 15.07554437 -7.00616094 17.34687794 -8.3125 20 C-14.12252686 32.60792573 -16.20432053 45.35555673 -18 59 C-18.33 59 -18.66 59 -19 59 C-20.06336281 38.17581156 -13.065029 16.46985474 0 0 Z " fill="#C4B2D2" transform="translate(19,103)"/>
<path d="M0 0 C0.33 0 0.66 0 1 0 C2.91969317 6.47036024 3.34814195 12.39257021 3.3125 19.125 C3.31121094 20.13312744 3.30992187 21.14125488 3.30859375 22.17993164 C3.20700776 30.11316273 2.22527281 37.35724756 0 45 C-0.66 44.67 -1.32 44.34 -2 44 C-1.93433838 43.32807617 -1.86867676 42.65615234 -1.80102539 41.96386719 C-0.99002849 33.06598752 -0.68322563 24.17635977 -0.4375 15.25 C-0.3941755 13.7630122 -0.35055752 12.27603292 -0.30664062 10.7890625 C-0.20105331 7.19279995 -0.0994039 3.59643942 0 0 Z " fill="#D8BBF2" transform="translate(240,152)"/>
<path d="M0 0 C0 0.66 0 1.32 0 2 C-4.51973515 3.28505997 -9.04041481 4.566721 -13.56201172 5.84521484 C-15.10068913 6.2807999 -16.63910232 6.71731945 -18.17724609 7.15478516 C-20.38570781 7.78272301 -22.59509195 8.40731535 -24.8046875 9.03125 C-25.49432587 9.22811401 -26.18396423 9.42497803 -26.89450073 9.62780762 C-31.77225659 11 -31.77225659 11 -34 11 C-34 11.66 -34 12.32 -34 13 C-35.98 13 -37.96 13 -40 13 C-40 13.66 -40 14.32 -40 15 C-41.7907985 15.50310058 -43.58266911 16.00238628 -45.375 16.5 C-46.37273437 16.7784375 -47.37046875 17.056875 -48.3984375 17.34375 C-51 18 -51 18 -53 18 C-53 17.34 -53 16.68 -53 16 C-26.23686835 6.15696239 -26.23686835 6.15696239 -13 2.375 C-12.14188721 2.1279834 -11.28377441 1.8809668 -10.3996582 1.62646484 C-6.69119935 0.59795138 -3.90728807 0 0 0 Z " fill="#BEADCD" transform="translate(174,16)"/>
<path d="M0 0 C15.92323106 4.95969492 30.69212374 13.18529096 45.4375 20.875 C46.17758301 21.25624023 46.91766602 21.63748047 47.68017578 22.03027344 C52.8840628 24.7681256 52.8840628 24.7681256 54 27 C50.58978257 26.21302675 47.31114834 25.12880057 44 24 C44 23.34 44 22.68 44 22 C43.14277344 21.7421875 42.28554688 21.484375 41.40234375 21.21875 C37.85968658 19.94973848 34.83861453 18.34825884 31.5625 16.5 C21.40368344 10.89696185 10.67640758 6.5082185 0 2 C0 1.34 0 0.68 0 0 Z " fill="#BBA0D5" transform="translate(527,45)"/>
<path d="M0 0 C0.66 0 1.32 0 2 0 C2.20753906 1.07894531 2.41507812 2.15789062 2.62890625 3.26953125 C4.36902154 11.8866443 6.53630223 20.17602006 9.5625 28.4375 C9.85519775 29.24743408 10.14789551 30.05736816 10.44946289 30.8918457 C11.93867438 35.08704704 11.93867438 35.08704704 14.59350586 38.57055664 C16 40 16 40 16.1875 42.6875 C16.0946875 43.8321875 16.0946875 43.8321875 16 45 C16.66 45 17.32 45 18 45 C19.06775224 46.96466413 20.06553465 48.96855359 21 51 C20.67 51.66 20.34 52.32 20 53 C8.81224796 38.12537513 0.88793398 18.64661365 0 0 Z " fill="#C7B1DB" transform="translate(331,341)"/>
<path d="M0 0 C0.66 0.33 1.32 0.66 2 1 C2 23.77 2 46.54 2 70 C-2.76625167 71.19156292 -3.87879351 70.3415946 -8 68 C-8 67.34 -8 66.68 -8 66 C-8.804375 65.71125 -9.60875 65.4225 -10.4375 65.125 C-13 64 -13 64 -14 62 C-8.88894789 63.81359914 -4.92833869 66.26203406 0 69 C0 46.23 0 23.46 0 0 Z " fill="#9847E0" transform="translate(579,72)"/>
<path d="M0 0 C4.66041121 -0.18276122 7.73795259 0.23280961 12 2 C13.95001797 2.2275021 15.90031137 2.45331123 17.8527832 2.65869141 C20.078181 3.01242718 21.99087645 3.62640042 24.10546875 4.3984375 C29.18007396 6.13986677 34.2976392 7.19478597 39.5625 8.1875 C40.47580078 8.36474609 41.38910156 8.54199219 42.33007812 8.72460938 C44.55241071 9.15511359 46.77563547 9.58014518 49 10 C46.25577926 11.92812324 44.98094953 11.99794847 41.58349609 11.63208008 C40.22720601 11.35875465 38.87391605 11.07025915 37.5234375 10.76953125 C36.435504 10.54290047 36.435504 10.54290047 35.32559204 10.31169128 C33.78944982 9.98910368 32.25465837 9.66002544 30.72119141 9.32495117 C28.40666134 8.81941542 26.08883924 8.33269558 23.76953125 7.84960938 C5.82849502 4.06925443 5.82849502 4.06925443 1 2 C0.67 1.34 0.34 0.68 0 0 Z " fill="#C1ABD3" transform="translate(128,470)"/>
<path d="M0 0 C-3.38146115 1.83162479 -6.85297767 2.98414691 -10.5 4.1875 C-23.16570455 8.61438029 -32.53158176 15.71624949 -42 25 C-42 20.91645969 -40.53738553 20.1043177 -37.6875 17.25 C-31.35267225 11.09513895 -22.35807876 3 -13 3 C-13 2.34 -13 1.68 -13 1 C-8.20862412 -0.6290678 -4.94367454 -1.20577428 0 0 Z " fill="#D5C7E1" transform="translate(449,257)"/>
<path d="M0 0 C0.33 0 0.66 0 1 0 C1.06993164 0.57854736 1.13986328 1.15709473 1.21191406 1.75317383 C2.88819111 16.06240555 2.88819111 16.06240555 7.1484375 29.7578125 C8.4373426 33.1515351 8.72786251 36.3941783 9 40 C9.66 40 10.32 40 11 40 C11.99 42.97 12.98 45.94 14 49 C13.34 49 12.68 49 12 49 C5.46386476 35.72577028 -0.2373111 22.7347019 -0.0625 7.6875 C-0.05798828 6.94693359 -0.05347656 6.20636719 -0.04882812 5.44335938 C-0.03712175 3.62887101 -0.01918898 1.81442466 0 0 Z " fill="#CBBADA" transform="translate(0,179)"/>
<path d="M0 0 C-8.06422885 6.80721476 -23.61330857 10 -34 10 C-34 9.01 -34 8.02 -34 7 C-31.03 7 -28.06 7 -25 7 C-25 6.34 -25 5.68 -25 5 C-19.77487721 3.53329887 -15.4185766 2.77422598 -10 3 C-10 2.34 -10 1.68 -10 1 C-6.61981469 -0.04005702 -3.5219721 -0.08004482 0 0 Z " fill="#B394CC" transform="translate(447,467)"/>
<path d="M0 0 C0.66 0 1.32 0 2 0 C0.75293911 4.98824355 -1.52394269 8.30893503 -4.66015625 12.265625 C-6.06448083 13.96821495 -6.06448083 13.96821495 -7 16 C-7.66 16 -8.32 16 -9 16 C-9.23460937 16.5878125 -9.46921875 17.175625 -9.7109375 17.78125 C-13.43282278 24.18740406 -22.42566118 28.06502731 -29 31 C-29.66 31 -30.32 31 -31 31 C-31 30.34 -31 29.68 -31 29 C-30.16597656 28.5875 -29.33195313 28.175 -28.47265625 27.75 C-15.77533839 21.23407973 -6.25705776 13.17911683 0 0 Z " fill="#BA98D6" transform="translate(173,198)"/>
<path d="M0 0 C4.08327061 -0.0590068 8.16642882 -0.09392935 12.25 -0.125 C13.38953125 -0.14175781 14.5290625 -0.15851563 15.703125 -0.17578125 C23.19827139 -0.21836731 30.73514344 -0.03878552 38 2 C38.495 2.99 38.495 2.99 39 4 C37.02090602 4.02686553 35.04171029 4.04633375 33.0625 4.0625 C31.96035156 4.07410156 30.85820312 4.08570313 29.72265625 4.09765625 C27 4 27 4 26 3 C24.07521187 2.84193469 22.1450079 2.748865 20.21484375 2.68359375 C19.04501953 2.64169922 17.87519531 2.59980469 16.66992188 2.55664062 C14.82237305 2.49766602 14.82237305 2.49766602 12.9375 2.4375 C11.70193359 2.39431641 10.46636719 2.35113281 9.19335938 2.30664062 C6.12902665 2.20015802 3.06460927 2.09814576 0 2 C0 1.34 0 0.68 0 0 Z " fill="#C9C1D0" transform="translate(444,194)"/>
<path d="M0 0 C0.66 0 1.32 0 2 0 C0.61163356 4.16509933 -1.31755366 6.75127978 -4.3125 9.9375 C-8.05364931 13.96316676 -8.05364931 13.96316676 -11.5625 18.1875 C-14.73013875 21.84246779 -18.30024862 24.89698271 -22 28 C-22.66 27.67 -23.32 27.34 -24 27 C-20.13257533 22.50843763 -16.19197084 18.19197084 -12 14 C-6.4140553 8.06231073 -6.4140553 8.06231073 -1.3515625 1.69140625 C-0.90554688 1.13324219 -0.45953125 0.57507813 0 0 Z " fill="#BDA3D4" transform="translate(561,396)"/>
<path d="M0 0 C0.33 0 0.66 0 1 0 C2.4791395 13.67382295 -4.04762178 27.05433375 -10 39 C-11.53271273 34.41201223 -10.02911182 32.22055258 -8 28 C-7.34 28 -6.68 28 -6 28 C-5.86722656 27.10796875 -5.73445312 26.2159375 -5.59765625 25.296875 C-5.42105469 24.12640625 -5.24445312 22.9559375 -5.0625 21.75 C-4.88847656 20.58984375 -4.71445312 19.4296875 -4.53515625 18.234375 C-4.1272264 15.76893039 -3.66098697 13.40575438 -3 11 C-2.34 11 -1.68 11 -1 11 C-0.67 7.37 -0.34 3.74 0 0 Z " fill="#C6AADF" transform="translate(583,341)"/>
<path d="M0 0 C0 0.66 0 1.32 0 2 C-1.54107422 2.85271484 -1.54107422 2.85271484 -3.11328125 3.72265625 C-17.23228328 10.19987081 -17.23228328 10.19987081 -28 20 C-29.97522846 21.04808041 -31.97481509 22.0520411 -34 23 C-32.46968586 18.87278914 -29.89616946 17.23246868 -26.3125 14.8125 C-25.74813232 14.43029297 -25.18376465 14.04808594 -24.60229492 13.65429688 C-4.19045757 0 -4.19045757 0 0 0 Z " fill="#BBA1D0" transform="translate(82,51)"/>
<path d="M0 0 C9.76641638 6.85727107 17.59110792 14.87531411 24 25 C24 25.66 24 26.32 24 27 C20.25309938 25.75103313 19.77728769 24.50192813 17.625 21.25 C13.69124141 15.6292925 9.180565 10.96387163 4.21728516 6.24121094 C2.77917786 4.86039029 1.3852615 3.43383012 0 2 C0 1.34 0 0.68 0 0 Z " fill="#C8B8DA" transform="translate(198,79)"/>
<path d="M0 0 C0.99 0 1.98 0 3 0 C3.25855098 4.10285542 3.47633227 8.20695479 3.6875 12.3125 C3.76033203 13.46041016 3.83316406 14.60832031 3.90820312 15.79101562 C4.27599093 23.42802127 3.50666758 29.76799347 1 37 C0.01 36.67 -0.98 36.34 -2 36 C-1.7834375 35.2471875 -1.566875 34.494375 -1.34375 33.71875 C1.62316271 22.40052746 1.84997679 11.54743574 0 0 Z " fill="#D7B0F1" transform="translate(521,309)"/>
<path d="M0 0 C0 0.99 0 1.98 0 3 C-2.44947131 4.7732369 -4.84594687 6.33660629 -7.4375 7.875 C-8.16727051 8.31827637 -8.89704102 8.76155273 -9.64892578 9.21826172 C-11.75804824 10.49272812 -13.87626447 11.7500687 -16 13 C-16.98871094 13.58265625 -17.97742188 14.1653125 -18.99609375 14.765625 C-24.65625 18 -24.65625 18 -27 18 C-27 17.34 -27 16.68 -27 16 C-25.91460937 15.39671875 -24.82921875 14.7934375 -23.7109375 14.171875 C-22.26555301 13.36471223 -20.82024454 12.55741332 -19.375 11.75 C-18.66214844 11.35425781 -17.94929687 10.95851563 -17.21484375 10.55078125 C-9.57695452 6.83970734 -9.57695452 6.83970734 -4 1 C-1.9375 0.375 -1.9375 0.375 0 0 Z " fill="#B59EC9" transform="translate(530,428)"/>
<path d="M0 0 C0.66 0.66 1.32 1.32 2 2 C-21.21359223 17 -21.21359223 17 -27 17 C-27 16.34 -27 15.68 -27 15 C-25.97261719 14.50371094 -24.94523438 14.00742187 -23.88671875 13.49609375 C-15.57730385 9.43782052 -7.66613047 5.19737659 0 0 Z " fill="#B497CD" transform="translate(193,268)"/>
<path d="M0 0 C5.21381213 1.45727668 9.25889549 3.83874044 13.75 6.75 C15.16101593 7.64913215 16.57247432 8.5475703 17.984375 9.4453125 C18.66693359 9.88133789 19.34949219 10.31736328 20.05273438 10.76660156 C23.98633503 13.258145 27.99235306 15.6300934 32 18 C31.34 18.33 30.68 18.66 30 19 C27.69042413 17.95380802 25.52463926 16.8518914 23.3125 15.625 C22.65564209 15.26647949 21.99878418 14.90795898 21.32202148 14.53857422 C16.36083895 11.80677265 11.44465054 8.99546639 6.5625 6.125 C5.90612549 5.74424316 5.24975098 5.36348633 4.57348633 4.97119141 C3.01332682 4.0379845 1.50073969 3.02603763 0 2 C0 1.34 0 0.68 0 0 Z " fill="#BAA8CC" transform="translate(10,349)"/>
<path d="M0 0 C0 0.99 0 1.98 0 3 C-0.75023438 3.32871094 -1.50046875 3.65742187 -2.2734375 3.99609375 C-9.19679587 7.21362428 -14.4874985 10.79808966 -19.94140625 16.14453125 C-22 18 -22 18 -25 19 C-21.37847328 10.11079805 -11.22094656 4.67590575 -2.8125 1.0625 C-1.4203125 0.5365625 -1.4203125 0.5365625 0 0 Z " fill="#B78CDA" transform="translate(101,113)"/>
<path d="M0 0 C3 1 3 1 4 2.875 C4.33 3.57625 4.66 4.2775 5 5 C5.97648017 6.02297922 6.98131338 7.01904252 8 8 C9.1446875 9.423125 9.1446875 9.423125 10.3125 10.875 C12.14163953 13.1223879 14.02955427 14.90529473 16.3125 16.6875 C17.199375 17.450625 18.08625 18.21375 19 19 C19 19.99 19 20.98 19 22 C15.37 22 11.74 22 8 22 C8 21.67 8 21.34 8 21 C10.31 20.34 12.62 19.68 15 19 C14.41992188 18.443125 13.83984375 17.88625 13.2421875 17.3125 C8.39313415 12.57547099 3.55832482 7.81890764 0 2 C0 1.34 0 0.68 0 0 Z " fill="#C2ADD4" transform="translate(354,397)"/>
<path d="M0 0 C0.66 0.33 1.32 0.66 2 1 C1.48050781 1.87140625 0.96101563 2.7428125 0.42578125 3.640625 C-4.03029083 11.21637518 -7.8620932 18.76299464 -11 27 C-11.66 27 -12.32 27 -13 27 C-10.24587138 17.60356118 -6.2089017 7.66647924 0 0 Z " fill="#BAA9CB" transform="translate(350,251)"/>
<path d="M0 0 C2.90922633 1.45461316 3.0148957 3.35520578 4.125 6.375 C6.78897246 13.04693103 10.55548919 18.3974901 15 24 C14.67 24.66 14.34 25.32 14 26 C7.39317387 20.17044753 2.96754138 12.24317049 0 4 C0 2.68 0 1.36 0 0 Z " fill="#C2A1DF" transform="translate(394,343)"/>
<path d="M0 0 C-1.62675331 4.3943466 -4.96857842 6.96873498 -8.375 10 C-9.52930521 11.04093595 -10.68296579 12.08258722 -11.8359375 13.125 C-12.37959961 13.61484375 -12.92326172 14.1046875 -13.48339844 14.609375 C-15.38111087 16.34945388 -17.20187235 18.15758349 -19 20 C-19 15.78773475 -16.62438852 14.02396665 -13.875 11.125 C-13.1634375 10.34962891 -13.1634375 10.34962891 -12.4375 9.55859375 C-3.52898693 0 -3.52898693 0 0 0 Z " fill="#CCBFD7" transform="translate(377,223)"/>
<path d="M0 0 C0.66 0 1.32 0 2 0 C2.33773438 0.85464844 2.67546875 1.70929688 3.0234375 2.58984375 C3.46945312 3.69457031 3.91546875 4.79929687 4.375 5.9375 C5.03628906 7.59072266 5.03628906 7.59072266 5.7109375 9.27734375 C6.71041432 12.11230186 6.71041432 12.11230186 9 13 C9 14.65 9 16.3 9 18 C9.66 18 10.32 18 11 18 C12.06775224 19.96466413 13.06553465 21.96855359 14 24 C13.67 24.66 13.34 25.32 13 26 C9.04123515 20.64914202 5.92889195 15.07907966 3.125 9.0625 C2.8148999 8.39984131 2.5047998 7.73718262 2.18530273 7.05444336 C0 2.26873523 0 2.26873523 0 0 Z " fill="#B39CCC" transform="translate(338,368)"/>
<path d="M0 0 C-0.99 0.33 -1.98 0.66 -3 1 C-3 1.66 -3 2.32 -3 3 C-4.98 3 -6.96 3 -9 3 C-9 3.66 -9 4.32 -9 5 C-10.7907985 5.50310058 -12.58266911 6.00238628 -14.375 6.5 C-15.87160156 6.91765625 -15.87160156 6.91765625 -17.3984375 7.34375 C-20 8 -20 8 -22 8 C-22 7.34 -22 6.68 -22 6 C-18.901466 4.79741744 -15.79541934 3.61559217 -12.6875 2.4375 C-11.80642578 2.09525391 -10.92535156 1.75300781 -10.01757812 1.40039062 C-9.17001953 1.08134766 -8.32246094 0.76230469 -7.44921875 0.43359375 C-6.27879028 -0.01415405 -6.27879028 -0.01415405 -5.0847168 -0.47094727 C-3 -1 -3 -1 0 0 Z " fill="#BB98D5" transform="translate(143,26)"/>
<path d="M0 0 C3.52076232 -0.05855176 7.0413976 -0.0937806 10.5625 -0.125 C12.0484668 -0.15013672 12.0484668 -0.15013672 13.56445312 -0.17578125 C19.12728491 -0.21274359 23.74843075 0.12917449 29 2 C29 2.66 29 3.32 29 4 C27.60386935 3.85704109 26.20810692 3.71048442 24.8125 3.5625 C24.03519531 3.48128906 23.25789063 3.40007812 22.45703125 3.31640625 C20 3 20 3 17.6875 2.5 C14.20354287 1.85182193 10.71878479 1.64363241 7.1875 1.4375 C6.14819336 1.37272461 6.14819336 1.37272461 5.08789062 1.30664062 C3.39211314 1.20138547 1.69607948 1.10027137 0 1 C0 0.67 0 0.34 0 0 Z " fill="#D8BEF0" transform="translate(450,256)"/>
<path d="M0 0 C0.66 0.33 1.32 0.66 2 1 C1.11362622 2.11177467 0.2153535 3.21406614 -0.6875 4.3125 C-1.18636719 4.92738281 -1.68523438 5.54226562 -2.19921875 6.17578125 C-4 8 -4 8 -6.40625 9.40625 C-9.47213172 11.29010503 -11.45489167 13.47800983 -13.8125 16.1875 C-14.60269531 17.08855469 -15.39289062 17.98960938 -16.20703125 18.91796875 C-16.79871094 19.60503906 -17.39039062 20.29210937 -18 21 C-18 16.81116298 -15.67400903 15.0691572 -12.9375 12.1875 C-12.43887451 11.65286133 -11.94024902 11.11822266 -11.42651367 10.56738281 C-7.83096005 6.75766304 -4.0942029 3.27536232 0 0 Z " fill="#CBB7DC" transform="translate(45,74)"/>
<path d="M0 0 C0.33 1.32 0.66 2.64 1 4 C0.01 4.495 0.01 4.495 -1 5 C-1.72159424 6.64363134 -2.39351421 8.31050386 -3 10 C-3.66 10 -4.32 10 -5 10 C-5.103125 10.70125 -5.20625 11.4025 -5.3125 12.125 C-6.09359003 15.39137647 -7.42058743 18.0471852 -9 21 C-9.66 21 -10.32 21 -11 21 C-8.94829496 13.40869136 -4.84693887 6.16357003 0 0 Z " fill="#B392CD" transform="translate(19,103)"/>
<path d="M0 0 C0.99 0.33 1.98 0.66 3 1 C3.66 4.63 4.32 8.26 5 12 C5.66 12 6.32 12 7 12 C7.99 14.97 8.98 17.94 10 21 C9.34 21 8.68 21 8 21 C6.84475582 18.62918558 5.70074792 16.25396043 4.5625 13.875 C4.07426758 12.87726563 4.07426758 12.87726563 3.57617188 11.859375 C1.69415567 7.90132029 0.48773294 4.41020487 0 0 Z " fill="#AD95C7" transform="translate(4,207)"/>
<path d="M0 0 C1.9375 0.8125 1.9375 0.8125 4 2 C4.33 2.99 4.66 3.98 5 5 C5.721875 5.28875 6.44375 5.5775 7.1875 5.875 C10.82733811 7.33093525 13.06869254 9.40954224 16 12 C15.67 12.66 15.34 13.32 15 14 C9.37807144 10.47692477 4.41595726 6.98210563 0 2 C0 1.34 0 0.68 0 0 Z " fill="#B69FCB" transform="translate(75,211)"/>
<path d="M0 0 C0 0.99 0 1.98 0 3 C-2 4.6875 -2 4.6875 -4 6 C-2.84826645 3.53199953 -1.95216435 1.95216435 0 0 Z M-7 6 C-6.01 6.33 -5.02 6.66 -4 7 C-7.96 10.96 -11.92 14.92 -16 19 C-16.66 18.67 -17.32 18.34 -18 18 C-14.37 14.04 -10.74 10.08 -7 6 Z " fill="#9D4DE7" transform="translate(45,76)"/>
<path d="M0 0 C4.95 0 9.9 0 15 0 C15 0.66 15 1.32 15 2 C4.11 2.495 4.11 2.495 -7 3 C-7 2.67 -7 2.34 -7 2 C-4.69 2 -2.38 2 0 2 C0 1.34 0 0.68 0 0 Z " fill="#CBA8EB" transform="translate(259,1)"/>
<path d="M0 0 C-3.06455975 2.58526841 -5.76061387 3.72921876 -9.625 4.75 C-11.06746094 5.14445312 -11.06746094 5.14445312 -12.5390625 5.546875 C-15 6 -15 6 -17 5 C-17 4.34 -17 3.68 -17 3 C-14.69 3 -12.38 3 -10 3 C-10 2.34 -10 1.68 -10 1 C-6.61981469 -0.04005702 -3.5219721 -0.08004482 0 0 Z " fill="#CFA4EA" transform="translate(447,467)"/>
<path d="M0 0 C-2.47378124 2.47378124 -4.56174345 3.03138231 -7.875 4.125 C-8.92429687 4.47820312 -9.97359375 4.83140625 -11.0546875 5.1953125 C-14 6 -14 6 -18 6 C-18 5.34 -18 4.68 -18 4 C-15.94037148 3.32451422 -13.87715678 2.65995688 -11.8125 2 C-10.66394531 1.62875 -9.51539063 1.2575 -8.33203125 0.875 C-5.35679188 0.09369447 -3.04716104 -0.18363306 0 0 Z " fill="#CBB2E2" transform="translate(466,461)"/>
<path d="M0 0 C-1.55002747 3.88397689 -4.00476621 6.02979619 -7.125 8.75 C-8.49011719 9.94882812 -8.49011719 9.94882812 -9.8828125 11.171875 C-10.58148437 11.77515625 -11.28015625 12.3784375 -12 13 C-12.66 12.67 -13.32 12.34 -14 12 C-3.89320388 0 -3.89320388 0 0 0 Z " fill="#CEBCDD" transform="translate(551,411)"/>
<path d="M0 0 C0.66 0.33 1.32 0.66 2 1 C1.67 2.98 1.34 4.96 1 7 C0.34 7 -0.32 7 -1 7 C-1 8.32 -1 9.64 -1 11 C-1.66 11 -2.32 11 -3 11 C-3.33 12.65 -3.66 14.3 -4 16 C-4.66 15.67 -5.32 15.34 -6 15 C-4 10 -2 5 0 0 Z " fill="#B593D2" transform="translate(519,345)"/>
<path d="M0 0 C-3.00950123 1.61725534 -5.97103608 2.67582623 -9.25 3.625 C-10.58804687 4.01558594 -10.58804687 4.01558594 -11.953125 4.4140625 C-12.62859375 4.60742188 -13.3040625 4.80078125 -14 5 C-14.66 4.34 -15.32 3.68 -16 3 C-15.01 3 -14.02 3 -13 3 C-13 2.34 -13 1.68 -13 1 C-8.20862412 -0.6290678 -4.94367454 -1.20577428 0 0 Z " fill="#D8A5F1" transform="translate(449,257)"/>
<path d="M0 0 C4.82360189 -0.19294408 8.49646738 0.24252386 13 2 C13 2.33 13 2.66 13 3 C9.04 3 5.08 3 1 3 C0.67 2.01 0.34 1.02 0 0 Z " fill="#BA9ED2" transform="translate(470,195)"/>
<path d="M0 0 C5.09210286 3.56320845 9.22660027 7.04741286 13 12 C8.942959 11.46960703 7.05155434 9.42356448 4.25 6.5625 C3.45078125 5.75941406 2.6515625 4.95632812 1.828125 4.12890625 C0 2 0 2 0 0 Z " fill="#E4CFF6" transform="translate(198,79)"/>
<path d="M0 0 C6.435 2.97 6.435 2.97 13 6 C13 6.66 13 7.32 13 8 C8.00786149 7.53198701 3.87036007 5.08284263 0 2 C0 1.34 0 0.68 0 0 Z " fill="#C5B0D8" transform="translate(549,54)"/>
<path d="M0 0 C1.8141927 0.28094582 3.62635001 0.57506433 5.4375 0.875 C6.95150391 1.11863281 6.95150391 1.11863281 8.49609375 1.3671875 C9.32238281 1.57601563 10.14867187 1.78484375 11 2 C11.33 2.66 11.66 3.32 12 4 C3.42857143 4.14285714 3.42857143 4.14285714 0 3 C0 2.01 0 1.02 0 0 Z " fill="#D4BAEC" transform="translate(150,409)"/>
<path d="M0 0 C5.07648175 2.78387709 9.4833069 6.40829416 14 10 C13.01 10.33 12.02 10.66 11 11 C9.0625 9.63671875 9.0625 9.63671875 7 7.6875 C4.70190928 5.54174484 2.6299214 3.75328093 0 2 C0 1.34 0 0.68 0 0 Z " fill="#D1C1DF" transform="translate(411,371)"/>
<path d="M0 0 C1.65 0 3.3 0 5 0 C5 0.66 5 1.32 5 2 C7.97 2.33 10.94 2.66 14 3 C13.67 3.99 13.34 4.98 13 6 C11.01796291 5.38416344 9.0394228 4.75706166 7.0625 4.125 C5.96035156 3.77695313 4.85820312 3.42890625 3.72265625 3.0703125 C1 2 1 2 0 0 Z " fill="#D0B6E6" transform="translate(468,90)"/>
<path d="M0 0 C-1.76371818 1.03307771 -3.53625033 2.05112049 -5.3125 3.0625 C-6.79169922 3.91521484 -6.79169922 3.91521484 -8.30078125 4.78515625 C-11 6 -11 6 -14 5 C-12.89932004 4.18278283 -11.79430269 3.37140549 -10.6875 2.5625 C-10.07261719 2.11003906 -9.45773437 1.65757812 -8.82421875 1.19140625 C-5.56347902 -0.93819893 -3.61381675 -1.12152934 0 0 Z " fill="#C3B5CE" transform="translate(435,262)"/>
<path d="M0 0 C4.97209562 1.76429199 9.43438061 4.3939166 14 7 C14 7.66 14 8.32 14 9 C8.25 7.125 8.25 7.125 6 6 C6 5.34 6 4.68 6 4 C5.195625 3.71125 4.39125 3.4225 3.5625 3.125 C1 2 1 2 0 0 Z " fill="#C3ABDC" transform="translate(565,134)"/>
<path d="M0 0 C2.72675159 2.40689803 4.11966596 4.92471023 5.6875 8.1875 C6.12449219 9.08855469 6.56148437 9.98960937 7.01171875 10.91796875 C7.33785156 11.60503906 7.66398438 12.29210937 8 13 C4.0570536 11.53403275 2.98165412 9.62691725 1.25 5.875 C0.82203125 4.96492188 0.3940625 4.05484375 -0.046875 3.1171875 C-0.36140625 2.41851562 -0.6759375 1.71984375 -1 1 C-0.67 0.67 -0.34 0.34 0 0 Z " fill="#C5B0D7" transform="translate(512,285)"/>
<path d="M0 0 C0.66 0 1.32 0 2 0 C0.63589551 5.59282842 -2.15383526 8.91193811 -6 13 C-6.66 12.67 -7.32 12.34 -8 12 C-7.59007812 11.46890625 -7.18015625 10.9378125 -6.7578125 10.390625 C-6.21898437 9.68421875 -5.68015625 8.9778125 -5.125 8.25 C-4.59132812 7.55390625 -4.05765625 6.8578125 -3.5078125 6.140625 C-2.10761086 4.15277397 -1.02144735 2.20156614 0 0 Z " fill="#BDA8D0" transform="translate(173,198)"/>
<path d="M0 0 C4.08276326 0.40158327 8.05208447 0.84852464 12 2 C12 2.66 12 3.32 12 4 C10.58249437 3.88490339 9.16598831 3.75746342 7.75 3.625 C6.96109375 3.55539062 6.1721875 3.48578125 5.359375 3.4140625 C2.914123 2.98492887 1.15163097 2.21399362 -1 1 C-0.67 0.67 -0.34 0.34 0 0 Z " fill="#CFBCE2" transform="translate(418,11)"/>
<path d="M0 0 C5.67853635 1.41963409 9.53174216 4.39363961 14 8 C13.34 8.66 12.68 9.32 12 10 C11.55269531 9.60167969 11.10539062 9.20335937 10.64453125 8.79296875 C7.23958629 5.8091044 3.93753849 3.26706762 0 1 C0 0.67 0 0.34 0 0 Z " fill="#D2BFE4" transform="translate(485,262)"/>
<path d="M0 0 C0.99 0.66 1.98 1.32 3 2 C0.09399739 3.25664978 -1.79604584 4 -5 4 C-5 4.66 -5 5.32 -5 6 C-6.65 6 -8.3 6 -10 6 C-6.84272049 3.29376042 -4.065279 1.06981026 0 0 Z " fill="#DAA6ED" transform="translate(416,200)"/>
<path d="M0 0 C-1 3 -1 3 -2.77734375 4.16796875 C-3.49019531 4.50441406 -4.20304687 4.84085937 -4.9375 5.1875 C-6.00291016 5.70376953 -6.00291016 5.70376953 -7.08984375 6.23046875 C-9 7 -9 7 -11 7 C-11 6.34 -11 5.68 -11 5 C-9.54462432 4.16151196 -8.08559627 3.32936066 -6.625 2.5 C-5.81289063 2.0359375 -5.00078125 1.571875 -4.1640625 1.09375 C-2 0 -2 0 0 0 Z " fill="#B88BE2" transform="translate(494,380)"/>
<path d="M0 0 C2.11007147 1.74310252 2.95559826 2.86337925 3.8125 5.5 C4 8 4 8 2 11 C-0.32590854 7.36576791 -0.16265833 4.22911669 0 0 Z " fill="#CCB6E0" transform="translate(580,286)"/>
<path d="M0 0 C-3.53411321 2.12046792 -6.94393835 2.53199289 -11 3 C-11 2.34 -11 1.68 -11 1 C-6.87831311 -0.62950412 -4.29299643 -1.26264601 0 0 Z " fill="#CAA9E6" transform="translate(206,76)"/>
<path d="M0 0 C0.99 0 1.98 0 3 0 C3.33 2.97 3.66 5.94 4 9 C0.68987756 5.68987756 0.49648935 4.46840411 0 0 Z " fill="#CAB1E1" transform="translate(518,299)"/>
<path d="M0 0 C4.35522853 0.50642192 7.44239635 1.38411497 11 4 C11 4.66 11 5.32 11 6 C6.49197399 4.74194623 3.5087188 3.09592835 0 0 Z " fill="#B48BD5" transform="translate(541,121)"/>
<path d="M0 0 C2.31 0 4.62 0 7 0 C7 0.66 7 1.32 7 2 C7.99 2 8.98 2 10 2 C10 2.66 10 3.32 10 4 C8.51882199 3.71872579 7.04006751 3.42466268 5.5625 3.125 C4.73878906 2.96257812 3.91507813 2.80015625 3.06640625 2.6328125 C2.38449219 2.42398437 1.70257813 2.21515625 1 2 C0.67 1.34 0.34 0.68 0 0 Z " fill="#DBC2EF" transform="translate(128,470)"/>
<path d="M0 0 C3.79588866 0.54226981 5.47211993 2.20127563 8 5 C7.67 5.99 7.34 6.98 7 8 C5.5 6.625 5.5 6.625 4 5 C4 4.34 4 3.68 4 3 C2.68 2.34 1.36 1.68 0 1 C0 0.67 0 0.34 0 0 Z " fill="#DFCEEE" transform="translate(499,272)"/>
<path d="M0 0 C-1.44077046 3.36179774 -3.24750021 5.59156268 -6 8 C-6.66 8 -7.32 8 -8 8 C-6.48291727 4.46014029 -4.24676932 0 0 0 Z " fill="#CCC3D5" transform="translate(84,124)"/>
<path d="M0 0 C0 0.66 0 1.32 0 2 C-1.98 2.33 -3.96 2.66 -6 3 C-6 3.66 -6 4.32 -6 5 C-7.32 5.33 -8.64 5.66 -10 6 C-9.67 5.01 -9.34 4.02 -9 3 C-2.88888889 0 -2.88888889 0 0 0 Z " fill="#C9A1EC" transform="translate(105,40)"/>
<path d="M0 0 C-0.99 0.33 -1.98 0.66 -3 1 C-3 1.66 -3 2.32 -3 3 C-5.64 3 -8.28 3 -11 3 C-4.33333333 -1.44444444 -4.33333333 -1.44444444 0 0 Z " fill="#A790BD" transform="translate(143,26)"/>
<path d="M0 0 C0 0.99 0 1.98 0 3 C-3.63 3 -7.26 3 -11 3 C-11 2.67 -11 2.34 -11 2 C-9.5422647 1.664061 -8.08378894 1.33133376 -6.625 1 C-5.40683594 0.7215625 -5.40683594 0.7215625 -4.1640625 0.4375 C-2 0 -2 0 0 0 Z " fill="#D6BAF0" transform="translate(373,416)"/>
<path d="M0 0 C-1.39332574 3.36720387 -2.9789286 4.9859524 -6 7 C-6.66 6.34 -7.32 5.68 -8 5 C-2.25 0 -2.25 0 0 0 Z " fill="#BEA8D1" transform="translate(377,223)"/>
<path d="M0 0 C1.9375 0.8125 1.9375 0.8125 4 2 C4.33 2.99 4.66 3.98 5 5 C5.99 5.33 6.98 5.66 8 6 C7.01 6.33 6.02 6.66 5 7 C3.29115995 5.37660195 1.62553283 3.70680947 0 2 C0 1.34 0 0.68 0 0 Z " fill="#E2CFF2" transform="translate(75,211)"/>
<path d="M0 0 C-0.66 0 -1.32 0 -2 0 C-2 0.66 -2 1.32 -2 2 C-4.31 2.33 -6.62 2.66 -9 3 C-9 2.34 -9 1.68 -9 1 C-3.375 -1.125 -3.375 -1.125 0 0 Z " fill="#C9A0EF" transform="translate(457,464)"/>
<path d="M0 0 C0.66 0.33 1.32 0.66 2 1 C0.68 3.31 -0.64 5.62 -2 8 C-2.66 7.34 -3.32 6.68 -4 6 C-2.68 4.02 -1.36 2.04 0 0 Z " fill="#BD9BDE" transform="translate(568,385)"/>
<path d="M0 0 C0 0.66 0 1.32 0 2 C-3.375 2.625 -3.375 2.625 -7 3 C-7.66 2.34 -8.32 1.68 -9 1 C-5.8035914 -0.06546953 -3.34252724 -0.07427838 0 0 Z " fill="#B292D0" transform="translate(426,199)"/>
<path d="M0 0 C-2.64 1.65 -5.28 3.3 -8 5 C-8 4.01 -8 3.02 -8 2 C-3.71900826 -1.23966942 -3.71900826 -1.23966942 0 0 Z " fill="#BFA6D5" transform="translate(92,120)"/>
<path d="M0 0 C2.97 0.33 5.94 0.66 9 1 C8.67 1.99 8.34 2.98 8 4 C5.36 3.01 2.72 2.02 0 1 C0 0.67 0 0.34 0 0 Z " fill="#CDB0E6" transform="translate(458,87)"/>
</svg>
