<?xml version="1.0" encoding="UTF-8"?>
<svg version="1.1" xmlns="http://www.w3.org/2000/svg" width="506" height="535">
<path d="M0 0 C9.59695934 -0.42053913 19.19066765 -0.73854951 28.79488945 -0.93261909 C33.25707262 -1.02586413 37.7128773 -1.15180905 42.17138672 -1.35791016 C74.92781699 -2.83289368 74.92781699 -2.83289368 84.85159302 6.1991272 C88.2738022 9.91654278 91.18101314 13.81601322 94 18 C94.95779311 19.23548401 95.92832996 20.46126733 96.9152832 21.67358398 C98.90999443 24.14178621 100.78696858 26.66533978 102.65869141 29.2265625 C106.03860456 33.69538105 109.68821988 37.95753292 113.26855469 42.26586914 C113.83864258 42.95285889 114.40873047 43.63984863 114.99609375 44.34765625 C115.50325928 44.95617432 116.0104248 45.56469238 116.53295898 46.19165039 C121 51.69795307 121 51.69795307 121 54 C121.66 54 122.32 54 123 54 C123.53625 54.95777344 124.0725 55.91554687 124.625 56.90234375 C126.76904188 60.65535741 129.05695313 64.30659284 131.36328125 67.96142578 C146.68113777 92.30457067 161.6137804 118.31266552 170.30664062 145.84228516 C171.09199562 148.28628779 171.9261074 150.71079928 172.765625 153.13671875 C176.38856959 163.65792508 179.58448554 174.13018495 182 185 C182.30550781 186.34384766 182.30550781 186.34384766 182.6171875 187.71484375 C183.30113779 190.7443412 183.96575893 193.77753519 184.625 196.8125 C184.83141113 197.73587158 185.03782227 198.65924316 185.25048828 199.6105957 C187.25769808 209.11589994 187.96400707 218.15806716 189 228 C231.24 228 273.48 228 317 228 C317.33 224.04 317.66 220.08 318 216 C319.87343033 200.76995488 323.29982016 185.87751555 327 171 C327.22526367 170.08460449 327.45052734 169.16920898 327.68261719 168.22607422 C338.63815636 124.54311347 361.54414777 82.1977184 388 46 C388.82371094 44.81277344 388.82371094 44.81277344 389.6640625 43.6015625 C390.10492188 43.07304688 390.54578125 42.54453125 391 42 C391.66 42 392.32 42 393 42 C393.28101563 41.40960938 393.56203125 40.81921875 393.8515625 40.2109375 C397.73316791 32.73818695 403.85799285 26.26007513 409.49560547 20.06103516 C411.85273376 17.42729142 413.8444934 14.77046348 415.75830078 11.80273438 C420.22800273 5.53838763 425.15179723 0.49381825 433.00115967 -0.83911133 C443.85542426 -2.14042797 454.90005241 -1.5379187 465.79290771 -1.09863281 C470.33078697 -0.93329534 474.87011699 -0.86153792 479.41015625 -0.78125 C488.27722728 -0.610965 497.13787995 -0.33888532 506 0 C505.35447338 3.66803259 504.90381496 5.59307843 502.15625 8.1640625 C501.57391602 8.72311279 500.99158203 9.28216309 500.39160156 9.8581543 C499.76737305 10.44121338 499.14314453 11.02427246 498.5 11.625 C493.32507258 16.61735221 488.60572658 21.70241418 484.14453125 27.35546875 C481.85028181 30.18462516 479.42081359 32.83580773 476.9375 35.5 C472.97366331 39.81143468 469.50168128 44.27559424 466.125 49.0546875 C463.69366301 52.42459208 461.14350635 55.68181654 458.5625 58.9375 C449.19152547 70.80018807 439.99984808 82.5640337 433.421875 96.25390625 C432.06405823 98.87628314 430.56620725 101.37021467 429.00341797 103.87451172 C407.36642047 138.63789195 395.08784357 177.47850659 387.89306641 217.50488281 C387.71000443 218.51773346 387.52694244 219.53058411 387.33833313 220.5741272 C386.8911438 223.04922568 386.44505742 225.52451744 386 228 C387.14814178 227.99555878 388.29628357 227.99111755 389.47921753 227.98654175 C400.28023296 227.94606209 411.08123308 227.91604761 421.88230705 227.89637566 C427.43573026 227.88592226 432.98909241 227.87173477 438.54248047 227.84912109 C443.89816008 227.82744808 449.25378082 227.8154431 454.60950089 227.81024551 C456.65651502 227.80653977 458.7035258 227.79930376 460.75051498 227.78853989 C463.60962733 227.77409858 466.46849399 227.77201896 469.32763672 227.77294922 C470.18071411 227.76575867 471.0337915 227.75856812 471.91271973 227.75115967 C477.77189568 227.77189568 477.77189568 227.77189568 480 230 C481.12414227 233.22991459 481.13821052 236.33187521 481.16113281 239.73071289 C481.17074036 240.8819313 481.1803479 242.03314972 481.19024658 243.21925354 C481.19449646 244.45787643 481.19874634 245.69649933 481.203125 246.97265625 C481.20882507 248.24725204 481.21452515 249.52184784 481.22039795 250.83506775 C481.22984204 253.52916028 481.23674266 256.22314153 481.24023438 258.91723633 C481.24573369 262.36968632 481.26980236 265.82174484 481.29820633 269.27407169 C481.32129142 272.56940364 481.32327838 275.86475473 481.328125 279.16015625 C481.3404718 280.40080338 481.3528186 281.6414505 481.36553955 282.91969299 C481.36253845 284.06775925 481.35953735 285.2158255 481.35644531 286.39868164 C481.36009094 287.41031876 481.36373657 288.42195587 481.36749268 289.46424866 C480.9319337 292.4696671 480.33845386 293.14572919 478 295 C474.97122923 295.28079077 472.15047178 295.3786059 469.12231445 295.34057617 C467.76103424 295.34123329 467.76103424 295.34123329 466.37225342 295.34190369 C463.36904474 295.33981169 460.36639255 295.31646112 457.36328125 295.29296875 C455.28248906 295.28737426 453.20169293 295.28310347 451.12089539 295.28010559 C445.64139924 295.26864526 440.16214124 295.23916773 434.68273926 295.20599365 C429.09256207 295.17531844 423.50234645 295.1616057 417.91210938 295.14648438 C406.94130155 295.11429927 395.97067057 295.06308847 385 295 C385.79633389 299.74267073 386.59725992 304.48453693 387.40211487 309.22576904 C387.67425679 310.83258008 387.94522849 312.43958984 388.21492004 314.04681396 C391.25922242 332.1789604 395.34896396 349.88011087 400.625 367.5 C400.90206787 368.42586914 401.17913574 369.35173828 401.46459961 370.30566406 C403.25420677 376.08624888 405.45489185 381.51600789 408 387 C408.78173923 388.76092461 409.56158712 390.52268971 410.33984375 392.28515625 C418.66076134 410.88087807 427.73409259 429.15046054 439.09765625 446.09765625 C440.45168276 448.16345029 441.7226492 450.28470969 442.93359375 452.4375 C445.0252907 456.14710093 447.4523209 459.53012926 450 462.9375 C450.47421387 463.57719727 450.94842773 464.21689453 451.43701172 464.87597656 C452.44149485 466.22908795 453.44787881 467.5807901 454.45605469 468.93115234 C455.99902603 470.9986949 457.53503501 473.07127142 459.0703125 475.14453125 C467.54619923 486.55937487 476.36798774 497.46983836 486.078125 507.859375 C489.4090221 511.42478116 492.64707995 515.07045475 495.88671875 518.71875 C498.63059599 521.68071729 501.564022 524.41523224 504.56640625 527.11328125 C506.40142331 529.52830371 506.28027702 531.03925553 506 534 C503.16527653 535.41736174 500.73570007 535.17458783 497.56591797 535.22460938 C496.90547989 535.23599945 496.24504181 535.24738953 495.56459045 535.25912476 C488.64651389 535.36989257 481.72737036 535.41723168 474.80859375 535.45996094 C471.5297384 535.48220257 468.25202736 535.523917 464.97363281 535.58300781 C461.00949999 535.65431397 457.04644056 535.69082461 453.08169937 535.70307922 C451.57540959 535.71344576 450.06915003 535.73578947 448.56322861 535.77067566 C435.31765569 536.06155521 435.31765569 536.06155521 430.19165039 531.62402344 C429.09794729 530.44294578 428.03041401 529.23668018 427 528 C426.05253906 527.10796875 425.10507812 526.2159375 424.12890625 525.296875 C418.85009612 520.05823847 413.92858063 514.67684469 409.29296875 508.8515625 C407.30151619 506.37496903 405.25223801 503.96486206 403.16772461 501.56665039 C391.93574244 488.58238997 381.97316865 474.62084881 373.14697266 459.90429688 C372.00266793 458.00442951 370.83795774 456.11851312 369.66796875 454.234375 C364.61033074 446.03444919 360.17626129 437.63620305 355.97070312 428.97216797 C355.04117356 427.08365191 354.08258136 425.2139759 353.109375 423.34765625 C342.41623317 402.74606493 334.18772484 381.35665406 328 359 C327.71785645 357.98695801 327.43571289 356.97391602 327.14501953 355.93017578 C324.06321521 344.6980251 321.56508267 333.43377497 319.6875 321.9375 C319.52797852 320.96353271 319.36845703 319.98956543 319.20410156 318.98608398 C317.97632857 310.9479653 317.54631839 303.1947759 317 295 C274.76 295 232.52 295 189 295 C188.67 299.62 188.34 304.24 188 309 C187.67326246 311.50916726 187.3101853 314.01448618 186.87890625 316.5078125 C186.66556641 317.76207031 186.45222656 319.01632812 186.23242188 320.30859375 C185.90081055 322.19771484 185.90081055 322.19771484 185.5625 324.125 C185.34529297 325.39214844 185.12808594 326.65929687 184.90429688 327.96484375 C184.47631061 330.46078766 184.04365627 332.95593638 183.60595703 335.45019531 C183.21375953 337.74775843 182.84345816 340.04921216 182.49951172 342.35449219 C181.63914583 348.07187712 180.42045264 352.71107825 178 358 C176.57694939 362.24331843 175.29288825 366.52798499 174 370.8125 C173.65710938 371.93720703 173.31421875 373.06191406 172.9609375 374.22070312 C171.03799515 380.53445183 171.03799515 380.53445183 169.16552734 386.86328125 C167.90128763 391.18954013 166.58837597 395.30330085 164.625 399.375 C162.32704866 404.24003212 160.28189873 409.17082433 158.30859375 414.17578125 C157 417 157 417 155.07421875 419.8671875 C152.74301591 423.38813793 151.08863825 426.96762167 149.375 430.8125 C145.18197001 439.92791167 140.29419493 448.48445009 135 457 C134.50870605 457.7930957 134.01741211 458.58619141 133.51123047 459.40332031 C125.73254878 471.87573761 117.23733892 483.57248481 108 495 C107.17628906 496.02609375 106.35257812 497.0521875 105.50390625 498.109375 C101.07376833 503.57400145 96.52339614 508.93478685 91.95776367 514.28613281 C89.24750213 517.47648139 86.64904116 520.72088899 84.125 524.0625 C81.69987353 527.22847656 79.28737851 529.68995024 76 532 C75.43798889 532.52149124 74.87597778 533.04298248 74.29693604 533.58027649 C71.09235927 535.56100774 68.68850284 535.36025439 64.93652344 535.34057617 C63.88226166 535.34123329 63.88226166 535.34123329 62.80670166 535.34190369 C60.49064052 535.33981874 58.1753092 535.31650259 55.859375 535.29296875 C54.25083817 535.28737173 52.64229622 535.28310213 51.03375244 535.28010559 C46.80531634 535.26866513 42.57719063 535.239205 38.34887695 535.20599365 C34.03210651 535.17527544 29.71528579 535.16159652 25.3984375 535.14648438 C16.93214942 535.11433438 8.46611335 535.06314789 0 535 C-0.234375 529.296875 -0.234375 529.296875 1.875 526.625 C4 525 4 525 6 525 C6.27005859 524.40179443 6.54011719 523.80358887 6.81835938 523.18725586 C7.99460923 521.0099785 9.11694607 519.68995946 10.90625 518.00390625 C11.48004395 517.45234863 12.05383789 516.90079102 12.64501953 516.33251953 C13.25716309 515.74841309 13.86930664 515.16430664 14.5 514.5625 C20.52523298 508.66948698 25.76128023 502.55385147 30.72412109 495.7421875 C32.0973611 493.86705533 33.49322769 492.0104955 34.89453125 490.15625 C39.93079361 483.49027395 44.91810965 476.78768791 49.875 470.0625 C50.30288818 469.4845166 50.73077637 468.9065332 51.17163086 468.31103516 C56.77330198 460.68197869 61.84712202 452.75465517 66.6875 444.625 C67.20368896 443.7585083 67.71987793 442.8920166 68.25170898 441.99926758 C69.3180107 440.20593456 70.38287214 438.41174438 71.44628906 436.61669922 C72.90061034 434.16738818 74.36742719 431.72597496 75.8359375 429.28515625 C83.02292361 417.2309287 89.20332763 404.77676929 95 392 C95.40628128 391.11101517 95.40628128 391.11101517 95.82077026 390.20407104 C100.33313798 380.29309943 104.22326808 370.30196621 107.5625 359.9375 C107.79645477 359.21709534 108.03040955 358.49669067 108.27145386 357.75445557 C114.08368921 339.71171689 117.76903207 321.36961898 120.07006836 302.55322266 C120.16040092 301.8223494 120.25073349 301.09147614 120.34380341 300.3384552 C120.56357424 298.55909811 120.78193604 296.77956708 121 295 C119.85407883 295.00666183 118.70815765 295.01332367 117.5275116 295.02018738 C106.74154194 295.08093611 95.95560688 295.12594262 85.16950512 295.15543652 C79.62391735 295.17110923 74.07846742 295.19237688 68.53295898 295.22631836 C63.18375095 295.25885442 57.83467569 295.27684091 52.48537636 295.28463173 C50.44196799 295.29018558 48.39856709 295.30103057 46.35521507 295.31719017 C43.49861172 295.33888791 40.64256084 295.34197013 37.78588867 295.34057617 C36.5116655 295.35675491 36.5116655 295.35675491 35.21170044 295.3732605 C29.43370105 295.3426416 29.43370105 295.3426416 27.28296947 293.64347553 C25.36296835 291.18396661 25.61871568 289.194455 25.61181641 286.10742188 C25.60235992 284.89606567 25.59290344 283.68470947 25.5831604 282.43664551 C25.58923309 281.12723999 25.59530579 279.81783447 25.6015625 278.46875 C25.59954149 277.11258793 25.59662982 275.75642691 25.59286499 274.40026855 C25.58844284 271.55889533 25.59486877 268.71780515 25.60888672 265.87646484 C25.62597903 262.23447897 25.6161372 258.5931563 25.59816933 254.95119476 C25.58732825 252.15105188 25.59077921 249.3510662 25.5985527 246.55091858 C25.60152702 244.5550595 25.5924166 242.55919432 25.5831604 240.56335449 C25.59261688 239.35199829 25.60207336 238.14064209 25.61181641 236.89257812 C25.61420319 235.82463013 25.61658997 234.75668213 25.61904907 233.65637207 C26.06229173 230.56563958 26.59952329 229.89647495 29 228 C31.99888489 227.71924085 34.78766897 227.6213556 37.78588867 227.65942383 C38.68365524 227.65898575 39.58142181 227.65854767 40.50639343 227.65809631 C43.47713891 227.66018821 46.44732172 227.68353824 49.41796875 227.70703125 C51.47634065 227.71262578 53.53471655 227.71689655 55.59309387 227.71989441 C61.01340748 227.73135445 66.43348032 227.76083171 71.85369873 227.79400635 C77.38355248 227.8246822 82.91344509 227.83839444 88.44335938 227.85351562 C99.29567876 227.8857002 110.14781937 227.93691064 121 228 C120.53729162 225.16997944 120.07217189 222.34038909 119.60571289 219.51098633 C119.47679909 218.72097481 119.34788528 217.93096329 119.215065 217.11701202 C117.91288635 209.240213 116.26801576 201.45762723 114.4375 193.6875 C114.2677063 192.96587677 114.0979126 192.24425354 113.92297363 191.50076294 C106.85984321 161.79399574 95.55159562 134.27196992 80 108 C79.01262869 106.19195644 78.03318402 104.379557 77.0625 102.5625 C70.39780802 90.34092006 63.11132471 79.07820529 54.59570312 68.07226562 C52.96980733 65.96079019 51.36550128 63.83436813 49.765625 61.703125 C40.12838752 48.90204594 29.7984213 36.83388635 19 25 C18.09365826 24.00008315 17.18741289 23.00007893 16.28125 22 C15.33368935 20.95800947 14.38577113 19.91634399 13.4375 18.875 C12.97617676 18.36686768 12.51485352 17.85873535 12.03955078 17.33520508 C8.65145598 13.63259597 5.10060556 10.16426991 1.36328125 6.81640625 C-0.41731881 4.4439735 -0.10349342 2.89870541 0 0 Z " fill="#9335E9" transform="translate(0,0)"/>
<path d="M0 0 C0.66 0 1.32 0 2 0 C12 38.93311449 12 38.93311449 12 53 C-19.02 53.33 -50.04 53.66 -82 54 C-82 74.13 -82 94.26 -82 115 C-35.47 115.495 -35.47 115.495 12 116 C12 122.96342591 11.73205294 129.06173164 10.5625 135.8125 C10.42779297 136.63169922 10.29308594 137.45089844 10.15429688 138.29492188 C9.50420979 142.21130015 8.81200628 146.11340684 8 150 C7.34 150 6.68 150 6 150 C6.49981649 142.64063301 7.48231419 135.36936909 8.54296875 128.07421875 C8.68295288 127.10335327 8.82293701 126.13248779 8.96716309 125.13220215 C9.3101619 122.75461333 9.65447335 120.37722254 10 118 C8.85407883 118.00666183 7.70815765 118.01332367 6.5275116 118.02018738 C-4.25845806 118.08093611 -15.04439312 118.12594262 -25.83049488 118.15543652 C-31.37608265 118.17110923 -36.92153258 118.19237688 -42.46704102 118.22631836 C-47.81624905 118.25885442 -53.16532431 118.27684091 -58.51462364 118.28463173 C-60.55803201 118.29018558 -62.60143291 118.30103057 -64.64478493 118.31719017 C-67.50138828 118.33888791 -70.35743916 118.34197013 -73.21411133 118.34057617 C-74.4883345 118.35675491 -74.4883345 118.35675491 -75.78829956 118.3732605 C-81.56629895 118.3426416 -81.56629895 118.3426416 -83.71703053 116.64347553 C-85.63703165 114.18396661 -85.38128432 112.194455 -85.38818359 109.10742188 C-85.39764008 107.89606567 -85.40709656 106.68470947 -85.4168396 105.43664551 C-85.41076691 104.12723999 -85.40469421 102.81783447 -85.3984375 101.46875 C-85.40045851 100.11258793 -85.40337018 98.75642691 -85.40713501 97.40026855 C-85.41155716 94.55889533 -85.40513123 91.71780515 -85.39111328 88.87646484 C-85.37402097 85.23447897 -85.3838628 81.5931563 -85.40183067 77.95119476 C-85.41267175 75.15105188 -85.40922079 72.3510662 -85.4014473 69.55091858 C-85.39847298 67.5550595 -85.4075834 65.55919432 -85.4168396 63.56335449 C-85.40738312 62.35199829 -85.39792664 61.14064209 -85.38818359 59.89257812 C-85.38579681 58.82463013 -85.38341003 57.75668213 -85.38095093 56.65637207 C-84.93770827 53.56563958 -84.40047671 52.89647495 -82 51 C-79.00111511 50.71924085 -76.21233103 50.6213556 -73.21411133 50.65942383 C-72.31634476 50.65898575 -71.41857819 50.65854767 -70.49360657 50.65809631 C-67.52286109 50.66018821 -64.55267828 50.68353824 -61.58203125 50.70703125 C-59.52365935 50.71262578 -57.46528345 50.71689655 -55.40690613 50.71989441 C-49.98659252 50.73135445 -44.56651968 50.76083171 -39.14630127 50.79400635 C-33.61644752 50.8246822 -28.08655491 50.83839444 -22.55664062 50.85351562 C-11.70432124 50.8857002 -0.85218063 50.93691064 10 51 C9.54084866 48.17065513 9.0783595 45.34192087 8.61401367 42.51342773 C8.48621269 41.72374352 8.35841171 40.9340593 8.22673798 40.12044525 C6.94501239 32.34298173 5.17933626 24.72081575 3.3125 17.0625 C2.6793592 14.45019853 2.05161163 11.83673242 1.42578125 9.22265625 C1.01453003 7.53281616 1.01453003 7.53281616 0.5949707 5.80883789 C0 3 0 3 0 0 Z " fill="#D0C3DF" transform="translate(111,177)"/>
<path d="M0 0 C43.23 0 86.46 0 131 0 C131 1.98 131 3.96 131 6 C130.67 4.68 130.34 3.36 130 2 C87.76 2 45.52 2 2 2 C1.67 6.62 1.34 11.24 1 16 C0.67326246 18.50916726 0.3101853 21.01448618 -0.12109375 23.5078125 C-0.33443359 24.76207031 -0.54777344 26.01632812 -0.76757812 27.30859375 C-0.98865234 28.56800781 -1.20972656 29.82742188 -1.4375 31.125 C-1.76331055 33.02572266 -1.76331055 33.02572266 -2.09570312 34.96484375 C-2.5227845 37.45551048 -2.95412763 39.94545093 -3.39013672 42.43457031 C-3.79212875 44.78472709 -4.17445708 47.13834437 -4.53564453 49.49511719 C-4.7004834 50.56665039 -4.86532227 51.63818359 -5.03515625 52.7421875 C-5.17445557 53.68690918 -5.31375488 54.63163086 -5.45727539 55.60498047 C-6 58 -6 58 -8 61 C-8.66 61 -9.32 61 -10 61 C-9.08542926 55.86155651 -8.1528335 50.72884477 -7.1171875 45.61328125 C-4.09257205 30.40684848 -2.13233235 15.45940954 0 0 Z " fill="#D3B0F2" transform="translate(187,293)"/>
<path d="M0 0 C1.98299863 3.96599726 2.25525741 5.46756264 2.2746582 9.73071289 C2.28419022 10.8819313 2.29372223 12.03314972 2.30354309 13.21925354 C2.30263168 14.45787643 2.30172028 15.69649933 2.30078125 16.97265625 C2.30506638 18.24725204 2.3093515 19.52184784 2.31376648 20.83506775 C2.31950945 23.5292643 2.32094525 26.22307764 2.31567383 28.91723633 C2.30986893 32.3697225 2.32683956 35.82167398 2.3500185 39.27407169 C2.36828433 42.56942945 2.36457108 45.86475695 2.36328125 49.16015625 C2.372491 50.40080338 2.38170074 51.6414505 2.39118958 52.91969299 C2.38496078 54.06775925 2.37873199 55.2158255 2.37231445 56.39868164 C2.37294388 57.41031876 2.3735733 58.42195587 2.3742218 59.46424866 C1.93115437 62.4665025 1.33685641 63.14654274 -1 65 C-4.02877077 65.28079077 -6.84952822 65.3786059 -9.87768555 65.34057617 C-11.23896576 65.34123329 -11.23896576 65.34123329 -12.62774658 65.34190369 C-15.63095526 65.33981169 -18.63360745 65.31646112 -21.63671875 65.29296875 C-23.71751094 65.28737426 -25.79830707 65.28310347 -27.87910461 65.28010559 C-33.35860076 65.26864526 -38.83785876 65.23916773 -44.31726074 65.20599365 C-49.90743793 65.17531844 -55.49765355 65.1616057 -61.08789062 65.14648438 C-72.05869845 65.11429927 -83.02932943 65.06308847 -94 65 C-93.84853516 65.8878418 -93.69707031 66.77568359 -93.54101562 67.69042969 C-92.97930842 70.99240388 -92.42055008 74.29484921 -91.86376953 77.59765625 C-91.62243318 79.02558999 -91.37993152 80.45332731 -91.13623047 81.88085938 C-90.7856502 83.93568902 -90.43930052 85.99119431 -90.09375 88.046875 C-89.77954102 89.90070801 -89.77954102 89.90070801 -89.45898438 91.79199219 C-89 95 -89 95 -89 99 C-89.66 99 -90.32 99 -91 99 C-91.65920426 95.6274762 -92.29969211 92.25163003 -92.9375 88.875 C-93.11990234 87.94300781 -93.30230469 87.01101563 -93.49023438 86.05078125 C-94.94791032 78.25884076 -95.42523924 71.04665066 -96 63 C-64.65 62.67 -33.3 62.34 -1 62 C-0.67 41.54 -0.34 21.08 0 0 Z " fill="#D1B4EC" transform="translate(479,230)"/>
<path d="M0 0 C0.99 0.495 0.99 0.495 2 1 C1.71131988 3.70867945 1.41907196 6.4169045 1.125 9.125 C1.04636719 9.86621094 0.96773437 10.60742188 0.88671875 11.37109375 C0.0951258 18.61721381 -0.96701999 25.76913994 -2 33 C-45.56 33 -89.12 33 -134 33 C-137 11 -137 11 -137 7 C-136.34 7 -135.68 7 -135 7 C-134.49515526 10.24926665 -133.99697406 13.49952099 -133.5 16.75 C-133.35691406 17.67039063 -133.21382812 18.59078125 -133.06640625 19.5390625 C-132.93105469 20.42851562 -132.79570312 21.31796875 -132.65625 22.234375 C-132.53056641 23.05131836 -132.40488281 23.86826172 -132.27539062 24.70996094 C-132 27 -132 27 -132 31 C-89.76 31 -47.52 31 -4 31 C-3.67 27.04 -3.34 23.08 -3 19 C-2.51473587 15.57046494 -2.00831601 12.16397136 -1.4375 8.75 C-1.29892578 7.89792969 -1.16035156 7.04585937 -1.01757812 6.16796875 C-0.68250353 4.111304 -0.34187418 2.0555454 0 0 Z " fill="#CCBCDE" transform="translate(321,197)"/>
<path d="M0 0 C0.33 0 0.66 0 1 0 C1.33 19.8 1.66 39.6 2 60 C48.53 60.495 48.53 60.495 96 61 C96 67.96342591 95.73205294 74.06173164 94.5625 80.8125 C94.36043945 82.04129883 94.36043945 82.04129883 94.15429688 83.29492188 C93.50420979 87.21130015 92.81200628 91.11340684 92 95 C91.34 95 90.68 95 90 95 C90.49981649 87.64063301 91.48231419 80.36936909 92.54296875 73.07421875 C92.68295288 72.10335327 92.82293701 71.13248779 92.96716309 70.13220215 C93.3101619 67.75461333 93.65447335 65.37722254 94 63 C92.85407883 63.00666183 91.70815765 63.01332367 90.5275116 63.02018738 C79.74154194 63.08093611 68.95560688 63.12594262 58.16950512 63.15543652 C52.62391735 63.17110923 47.07846742 63.19237688 41.53295898 63.22631836 C36.18375095 63.25885442 30.83467569 63.27684091 25.48537636 63.28463173 C23.44196799 63.29018558 21.39856709 63.30103057 19.35521507 63.31719017 C16.49861172 63.33888791 13.64256084 63.34197013 10.78588867 63.34057617 C9.93640656 63.351362 9.08692444 63.36214783 8.21170044 63.3732605 C2.4342672 63.3426446 2.4342672 63.3426446 0.27933502 61.6423645 C-1.63968373 59.17879693 -1.31992877 57.2369111 -1.2487793 54.15161133 C-1.22853195 52.9505928 -1.20828461 51.74957428 -1.18742371 50.51216125 C-1.15006607 49.21521835 -1.11270844 47.91827545 -1.07421875 46.58203125 C-1.04618083 45.24113128 -1.01949092 43.90020249 -0.99409485 42.55924988 C-0.92367918 39.03252546 -0.83495625 35.50649006 -0.74243164 31.98028564 C-0.65122517 28.38097425 -0.57731431 24.78131247 -0.50195312 21.18164062 C-0.35157413 14.12065452 -0.18185431 7.06025123 0 0 Z " fill="#CEA8F1" transform="translate(27,232)"/>
<path d="M0 0 C0.66 0 1.32 0 2 0 C1.32958014 5.99922099 0.29253134 11.84219146 -0.9375 17.75 C-2.47188467 25.14771771 -3.75632992 32.53797954 -5 40 C25.36 40 55.72 40 87 40 C87 40.66 87 41.32 87 42 C55.98 42 24.96 42 -7 42 C-7 36.29527138 -6.83493709 32.19697838 -5.72265625 26.796875 C-5.52644936 25.82926239 -5.52644936 25.82926239 -5.32627869 24.84210205 C-4.91228884 22.80983027 -4.48751143 20.77999197 -4.0625 18.75 C-3.78120538 17.37514215 -3.50060091 16.0001429 -3.22070312 14.625 C-1.06848147 4.10671833 -1.06848147 4.10671833 0 0 Z " fill="#CBBDDD" transform="translate(391,188)"/>
<path d="M0 0 C4.53787925 0.16533747 9.07720928 0.23709489 13.61724854 0.31738281 C22.48431956 0.48766781 31.34497223 0.75974749 40.20709229 1.09863281 C39.55430303 4.82084219 39.06067523 6.74135197 36.29302979 9.36816406 C35.69957764 9.94356934 35.10612549 10.51897461 34.49468994 11.11181641 C33.86353271 11.70559082 33.23237549 12.29936523 32.58209229 12.91113281 C31.30420809 14.14751252 30.02814911 15.38578163 28.75396729 16.62597656 C27.83454346 17.51712158 27.83454346 17.51712158 26.89654541 18.42626953 C23.80832744 21.4832483 20.97299113 24.75043947 18.20709229 28.09863281 C17.71209229 27.10863281 17.71209229 27.10863281 17.20709229 26.09863281 C22.07907418 20.23453824 27.36857922 14.86839372 32.85040283 9.58032227 C36.22131131 6.3025179 36.22131131 6.3025179 38.20709229 2.09863281 C13.78709229 2.42863281 -10.63290771 2.75863281 -35.79290771 3.09863281 C-35.79290771 3.75863281 -35.79290771 4.41863281 -35.79290771 5.09863281 C-36.72103271 5.22238281 -36.72103271 5.22238281 -37.66790771 5.34863281 C-40.48230323 6.34194888 -40.50770053 7.48144573 -41.79290771 10.09863281 C-43.17816162 11.66333008 -43.17816162 11.66333008 -44.76947021 13.16503906 C-45.35422119 13.72811768 -45.93897217 14.29119629 -46.54144287 14.87133789 C-47.47029297 15.75728638 -47.47029297 15.75728638 -48.41790771 16.66113281 C-53.71621634 21.80042452 -58.13297082 26.86999757 -62.14447021 33.08691406 C-63.98596793 35.33423947 -64.95386987 35.77009787 -67.79290771 36.09863281 C-65.77189033 31.1800122 -62.00963876 27.35509289 -58.45782471 23.4855957 C-55.32537775 20.07205078 -52.4801905 16.7210442 -49.96136475 12.828125 C-37.89009675 -4.11369386 -18.59953601 -0.75008006 0 0 Z " fill="#B98CE1" transform="translate(465.79290771484375,-1.0986328125)"/>
<path d="M0 0 C0.66 0 1.32 0 2 0 C11.88730963 22.23165463 19.73270141 45.22440362 25 69 C25.22300781 70.00160156 25.44601563 71.00320312 25.67578125 72.03515625 C26.48139226 75.84399742 27 79.07977673 27 83 C26.34 83 25.68 83 25 83 C24.85079102 82.24944336 24.70158203 81.49888672 24.54785156 80.72558594 C20.86937241 62.5846167 16.05412903 45.16563837 10.00097656 27.67089844 C9.74426178 26.92858978 9.487547 26.18628113 9.22305298 25.42147827 C8.74086655 24.03397751 8.25478919 22.64782003 7.76400757 21.26333618 C6.57298813 17.86540348 5.59957176 14.55248388 5 11 C4.34 11 3.68 11 3 11 C2.49384702 9.73160474 1.99530901 8.46016898 1.5 7.1875 C1.2215625 6.47980469 0.943125 5.77210937 0.65625 5.04296875 C0 3 0 3 0 0 Z " fill="#C6B4D8" transform="translate(158,120)"/>
<path d="M0 0 C0.57129639 0.73500732 1.14259277 1.47001465 1.73120117 2.22729492 C3.81175162 4.76994116 5.96117156 7.0608287 8.30078125 9.36328125 C9.11353516 10.16830078 9.92628906 10.97332031 10.76367188 11.80273438 C12.45108209 13.4642839 14.13858083 15.12574352 15.82617188 16.78710938 C20.77491796 21.68898494 25.48676217 26.69570049 30 32 C30.845625 32.96421875 31.69125 33.9284375 32.5625 34.921875 C40.3141827 43.91581454 47.40127315 53.37066541 54.45703125 62.91625977 C55.96323798 64.95035382 57.47932151 66.97670987 59 69 C58.67 69.66 58.34 70.32 58 71 C56.20664549 68.77217301 54.41492544 66.5430807 52.625 64.3125 C52.08061279 63.63421143 51.53622559 62.95592285 50.9753418 62.25708008 C47.52571946 57.94542936 44.14687755 53.58853235 40.8125 49.1875 C36.49646615 43.51362246 31.82446877 38.24319625 27 33 C25.89140179 31.73303062 24.7870447 30.46233444 23.6875 29.1875 C20.5350012 25.57312347 17.30910832 22.02968723 14.0625 18.5 C13.54679443 17.93829102 13.03108887 17.37658203 12.49975586 16.79785156 C8.92320689 12.928681 5.22182081 9.23698688 1.328125 5.68359375 C0 4 0 4 0 0 Z " fill="#C6B6D4" transform="translate(0,1)"/>
<path d="M0 0 C0.83773869 2.34257156 1.23738575 3.48786029 0.16870117 5.79345703 C-0.26466553 6.40044434 -0.69803223 7.00743164 -1.14453125 7.6328125 C-4.1836657 12.17737136 -6.44932774 16.89515785 -8.6875 21.875 C-9.1103125 22.81029541 -9.533125 23.74559082 -9.96875 24.70922852 C-16.05300823 38.37525322 -22.20473246 52.49960281 -26 67 C-26.66 67 -27.32 67 -28 67 C-27.46475521 59.99132294 -24.88852437 53.86611363 -22.3125 47.375 C-21.83498291 46.16400635 -21.35746582 44.9530127 -20.86547852 43.70532227 C-8.48280412 12.72420617 -8.48280412 12.72420617 0 0 Z " fill="#B4A2C3" transform="translate(359,93)"/>
<path d="M0 0 C0.66 0 1.32 0 2 0 C0.72475558 7.27621992 -1.18753157 14.17752771 -3.5 21.1875 C-4.11550937 23.07652143 -4.73011381 24.965838 -5.34375 26.85546875 C-5.77772095 28.18553955 -5.77772095 28.18553955 -6.22045898 29.54248047 C-6.88109822 31.62515963 -7.48062244 33.72707186 -8.06640625 35.83203125 C-8.96657808 38.88658922 -10.07970397 41.62367197 -11.4375 44.5 C-13.36733468 48.63943829 -15.22358456 52.79270027 -17 57 C-17.66 57 -18.32 57 -19 57 C-18.34 54.03 -17.68 51.06 -17 48 C-16.34 48 -15.68 48 -15 48 C-14.82259277 47.39486572 -14.64518555 46.78973145 -14.46240234 46.16625977 C-12.64847538 40.04145698 -10.67913677 33.98531412 -8.625 27.9375 C-5.50934383 18.6901528 -2.66914434 9.38505591 0 0 Z " fill="#BFACD1" transform="translate(176,355)"/>
<path d="M0 0 C0.33 0 0.66 0 1 0 C1.42652172 8.50299737 0.10749141 16.52141079 -1.375 24.875 C-1.59671875 26.16019531 -1.8184375 27.44539063 -2.046875 28.76953125 C-2.48428281 31.30392356 -2.92654536 33.83748351 -3.37402344 36.37011719 C-3.78398845 38.74740259 -4.17346904 41.12833301 -4.54003906 43.51269531 C-4.7047168 44.58358398 -4.86939453 45.65447266 -5.0390625 46.7578125 C-5.17779785 47.70027832 -5.3165332 48.64274414 -5.45947266 49.61376953 C-6 52 -6 52 -8 55 C-8.66 55 -9.32 55 -10 55 C-9.07095803 49.78025104 -8.11754923 44.56694446 -7.08203125 39.3671875 C-5.01264744 28.89338652 -3.26837693 18.44161011 -1.95141602 7.84448242 C-1.83983154 6.96252197 -1.72824707 6.08056152 -1.61328125 5.171875 C-1.51829346 4.3890918 -1.42330566 3.60630859 -1.32543945 2.79980469 C-1 1 -1 1 0 0 Z " fill="#C9ACE3" transform="translate(187,299)"/>
<path d="M0 0 C0 3.4056044 -0.37322856 3.82518695 -2.45703125 6.3359375 C-2.98731934 6.98167725 -3.51760742 7.62741699 -4.06396484 8.29272461 C-4.64098145 8.97987549 -5.21799805 9.66702637 -5.8125 10.375 C-6.3998291 11.08599854 -6.9871582 11.79699707 -7.59228516 12.52954102 C-11.76552675 17.56793938 -15.99061537 22.56371272 -20.24194336 27.53637695 C-22.88820003 30.64153337 -25.41555649 33.80797776 -27.875 37.0625 C-31.58854964 41.89895631 -35.71938553 44.98250602 -41 48 C-39.58226538 44.45566346 -38.32387762 43.66193881 -35 42 C-34.7009375 41.39027344 -34.401875 40.78054688 -34.09375 40.15234375 C-32.8611279 37.72671954 -31.49735233 36.40022786 -29.5 34.5625 C-25.25741128 30.46754715 -21.78826735 25.96961305 -18.32617188 21.21704102 C-17.26107919 19.77801926 -16.13529928 18.38430545 -15 17 C-14.34 17 -13.68 17 -13 17 C-12.731875 16.195625 -12.46375 15.39125 -12.1875 14.5625 C-11.795625 13.716875 -11.40375 12.87125 -11 12 C-10.01 11.67 -9.02 11.34 -8 11 C-7.814375 10.13375 -7.814375 10.13375 -7.625 9.25 C-6.69966844 5.91880639 -4.49353241 4.31107882 -2 2 C-1.34 1.34 -0.68 0.68 0 0 Z " fill="#D7CAE5" transform="translate(112,487)"/>
<path d="M0 0 C0.66 0 1.32 0 2 0 C1.01 3.63 0.02 7.26 -1 11 C-1.66 11 -2.32 11 -3 11 C-3.19335938 11.58007812 -3.38671875 12.16015625 -3.5859375 12.7578125 C-5.79296875 19.37890625 -5.79296875 19.37890625 -8 26 C-8.66 26 -9.32 26 -10 26 C-10.41668945 27.09030518 -10.41668945 27.09030518 -10.84179688 28.20263672 C-11.9317822 30.83523618 -13.15498908 33.26523979 -14.53125 35.7578125 C-15.01207031 36.63050781 -15.49289063 37.50320313 -15.98828125 38.40234375 C-16.48714844 39.30082031 -16.98601562 40.19929688 -17.5 41.125 C-18.24830078 42.48431641 -18.24830078 42.48431641 -19.01171875 43.87109375 C-20.92144991 47.32704156 -22.80853864 50.71280796 -25 54 C-25.66 54 -26.32 54 -27 54 C-25.70180951 50.56779254 -24.2037902 47.45231942 -22.34765625 44.2890625 C-21.82333008 43.38446289 -21.29900391 42.47986328 -20.75878906 41.54785156 C-20.19901367 40.58331055 -19.63923828 39.61876953 -19.0625 38.625 C-8.25781317 19.91349447 -8.25781317 19.91349447 0 0 Z " fill="#BAA5CE" transform="translate(96,389)"/>
<path d="M0 0 C0.66 0 1.32 0 2 0 C0.31983478 4.68242766 -2.10125124 8.82469945 -4.5625 13.125 C-11.11201341 24.72977279 -16.81491383 36.7280876 -22 49 C-22.66 49 -23.32 49 -24 49 C-24 47.68 -24 46.36 -24 45 C-23.34 45 -22.68 45 -22 45 C-21.01 41.37 -20.02 37.74 -19 34 C-18.34 34 -17.68 34 -17 34 C-17 32.35 -17 30.7 -17 29 C-16.34 29 -15.68 29 -15 29 C-14.77183594 28.20851563 -14.54367187 27.41703125 -14.30859375 26.6015625 C-12.62210063 21.95993068 -10.38246449 17.72702574 -8.0625 13.375 C-7.61970703 12.529375 -7.17691406 11.68375 -6.72070312 10.8125 C-2.63278904 3.08749992 -2.63278904 3.08749992 0 0 Z " fill="#B9A3CC" transform="translate(431,95)"/>
<path d="M0 0 C0.66 0 1.32 0 2 0 C2.41507812 0.99773437 2.83015625 1.99546875 3.2578125 3.0234375 C7.39771586 12.75018953 12.0538634 22.12812833 17.0625 31.4375 C17.9280249 33.05180908 17.9280249 33.05180908 18.81103516 34.69873047 C22.1961115 40.9272326 25.79147052 46.93330203 29.71264648 52.84008789 C31 55 31 55 31 57 C30.34 57 29.68 57 29 57 C27.54587949 54.86032161 26.22893381 52.73619062 24.9375 50.5 C24.53901855 49.81929443 24.14053711 49.13858887 23.72998047 48.43725586 C22.89265055 47.00180962 22.05906908 45.56417109 21.22900391 44.12451172 C20.0978795 42.16919893 18.94810181 40.226342 17.79296875 38.28515625 C13.00480197 30.12586125 8.8879432 21.7203649 4.9375 13.125 C4.44781738 12.05967041 3.95813477 10.99434082 3.45361328 9.89672852 C0 2.26428026 0 2.26428026 0 0 Z " fill="#B7A1CB" transform="translate(408,391)"/>
<path d="M0 0 C0 4.14189612 -1.65612382 5.05333312 -4.5 8 C-8.68527042 12.44053281 -12.3323422 17.04178897 -15.859375 22.03125 C-18.38213327 25.52996585 -21.01831945 28.92491757 -23.6875 32.3125 C-24.13923584 32.88718018 -24.59097168 33.46186035 -25.05639648 34.05395508 C-27.97856389 37.75372255 -30.96839538 41.38938621 -34 45 C-34 41.32910238 -33.12816014 40.4860602 -30.9296875 37.61328125 C-30.28 36.75669922 -29.6303125 35.90011719 -28.9609375 35.01757812 C-27.92839844 33.67856445 -27.92839844 33.67856445 -26.875 32.3125 C-26.20984375 31.43916016 -25.5446875 30.56582031 -24.859375 29.66601562 C-23.53685401 27.92988268 -22.21151648 26.19589146 -20.88330078 24.46411133 C-19.17296779 22.22631111 -17.48091097 19.97636551 -15.796875 17.71875 C-13.38202126 14.49229365 -10.91142328 11.31993794 -8.375 8.1875 C-7.64023437 7.27355469 -6.90546875 6.35960937 -6.1484375 5.41796875 C-4.22340094 3.2514276 -2.38578858 1.62471123 0 0 Z " fill="#C4ABDB" transform="translate(482,27)"/>
<path d="M0 0 C0.66 0 1.32 0 2 0 C2.14099121 1.03294189 2.28198242 2.06588379 2.42724609 3.13012695 C2.95784613 7.01262537 3.49165515 10.89467728 4.02636719 14.77661133 C4.25606537 16.44739216 4.48492715 18.11828824 4.71289062 19.78930664 C5.95595903 28.89696355 7.21951608 37.97795809 9 47 C8.34 47 7.68 47 7 47 C-0.70209251 14.27588106 -0.70209251 14.27588106 0 0 Z " fill="#CCB0E4" transform="translate(318,300)"/>
<path d="M0 0 C0.66 0 1.32 0 2 0 C9.09349906 27.61720109 9.09349906 27.61720109 11 37.3125 C11.226875 38.46363281 11.45375 39.61476562 11.6875 40.80078125 C12.03690781 44.37784368 11.64340584 47.47467218 11 51 C10.67 51 10.34 51 10 51 C9.86464844 50.04867187 9.72929688 49.09734375 9.58984375 48.1171875 C7.79975279 36.26779997 5.14865009 24.6612863 2.33764648 13.02099609 C1.88627319 11.14081787 1.88627319 11.14081787 1.42578125 9.22265625 C1.15161377 8.09609619 0.87744629 6.96953613 0.5949707 5.80883789 C0 3 0 3 0 0 Z " fill="#C6B4D8" transform="translate(111,177)"/>
<path d="M0 0 C9.5965245 -0.09261098 19.19289558 -0.16371944 28.78976917 -0.20724869 C33.24583005 -0.22813883 37.70158558 -0.2564821 42.1574707 -0.30175781 C46.45631098 -0.3451653 50.75485727 -0.36912636 55.05389977 -0.37950897 C56.69541745 -0.38690957 58.33691875 -0.4013611 59.97831154 -0.42292023 C62.27471524 -0.45188772 64.56989858 -0.45595898 66.86645508 -0.45410156 C68.17439529 -0.46298401 69.48233551 -0.47186646 70.82991028 -0.48101807 C74 0 74 0 75.94584656 2.02838135 C76.46765251 3.00433258 76.46765251 3.00433258 77 4 C73.125 3.125 73.125 3.125 72 2 C69.76142644 1.87588418 67.51894516 1.82196977 65.27709961 1.79467773 C64.5746965 1.78477814 63.8722934 1.77487854 63.14860535 1.76467896 C60.81655296 1.73297878 58.48448016 1.70827312 56.15234375 1.68359375 C54.53950965 1.66303156 52.92668104 1.64203529 51.31385803 1.62062073 C47.06090725 1.56532408 42.80790723 1.51594844 38.55487061 1.46777344 C34.21817625 1.41761369 29.88155373 1.36189885 25.54492188 1.30664062 C17.03000859 1.19896625 8.51503535 1.09754205 0 1 C0 0.67 0 0.34 0 0 Z " fill="#B684E4" transform="translate(2,0)"/>
<path d="M0 0 C0.66 0 1.32 0 2 0 C1.32955714 5.99942685 0.29046562 11.84169221 -0.9375 17.75 C-2.44859566 25.14699087 -3.84725998 32.53752516 -5 40 C-5.66 40 -6.32 40 -7 40 C-6.51766039 30.8535689 -4.94514348 22.17493017 -2.9375 13.25 C-2.65583984 11.96867188 -2.37417969 10.68734375 -2.08398438 9.3671875 C-1.39623864 6.24318992 -0.70147469 3.12093807 0 0 Z " fill="#C4AADA" transform="translate(391,188)"/>
<path d="M0 0 C0.66 0 1.32 0 2 0 C0.53028939 5.3444022 -1.96869852 9.43793296 -5 14 C-5.48404297 14.73677979 -5.96808594 15.47355957 -6.46679688 16.23266602 C-9.74047473 21.18309273 -13.08104966 26.08628668 -16.5 30.9375 C-16.90863281 31.52208984 -17.31726563 32.10667969 -17.73828125 32.70898438 C-19.68365233 35.425347 -21.18155039 37.12103359 -24 39 C-22.95639336 35.66045875 -21.46798038 33.19722417 -19.33203125 30.48046875 C-15.6429335 25.63298544 -12.48193701 20.50920148 -9.3125 15.3125 C-8.74466797 14.38888672 -8.17683594 13.46527344 -7.59179688 12.51367188 C-4.44269146 7.40048792 -4.44269146 7.40048792 -1.44213867 2.19995117 C-0.96623291 1.47396729 -0.49032715 0.7479834 0 0 Z " fill="#B998D5" transform="translate(137,448)"/>
<path d="M0 0 C0.66 0 1.32 0 2 0 C3.29345703 1.73730469 3.29345703 1.73730469 4.7578125 4.171875 C5.56726318 5.50230835 5.56726318 5.50230835 6.39306641 6.85961914 C6.96460449 7.81344482 7.53614258 8.76727051 8.125 9.75 C9.3005558 11.6819199 10.47763335 13.61291467 11.65625 15.54296875 C12.22859375 16.48188965 12.8009375 17.42081055 13.390625 18.38818359 C17.32390877 24.77141627 21.45389655 31.03496123 26 37 C25.67 37.66 25.34 38.32 25 39 C17.7850444 30.74524198 12.13837414 21.58540667 6.40869141 12.27246094 C5.45988889 10.74187968 4.49831142 9.2191527 3.52490234 7.70410156 C3.06680176 6.98963867 2.60870117 6.27517578 2.13671875 5.5390625 C1.72510498 4.90436035 1.31349121 4.2696582 0.8894043 3.61572266 C0 2 0 2 0 0 Z " fill="#C2AFD0" transform="translate(367,448)"/>
<path d="M0 0 C7.5888116 6.32400967 14.33283898 12.92745199 20.375 20.75 C20.80401611 21.30502197 21.23303223 21.86004395 21.67504883 22.43188477 C23.75414613 25.17649236 25.60606638 27.84450191 27 31 C22.8200561 27.73760476 19.36668058 24.27836995 15.92578125 20.25 C13.77648511 17.73885481 11.58250757 15.27260794 9.375 12.8125 C8.62089844 11.97203125 7.86679688 11.1315625 7.08984375 10.265625 C5.4218968 8.45738344 3.7276891 6.7461906 1.9375 5.0625 C0 3 0 3 0 0 Z " fill="#CCB8E0" transform="translate(79,4)"/>
<path d="M0 0 C0.66 0 1.32 0 2 0 C2.17128418 0.72590332 2.34256836 1.45180664 2.51904297 2.19970703 C3.30154098 5.50881242 4.08823028 8.81690777 4.875 12.125 C5.14441406 13.26710938 5.41382813 14.40921875 5.69140625 15.5859375 C5.95566406 16.69453125 6.21992188 17.803125 6.4921875 18.9453125 C6.73308105 19.96125488 6.97397461 20.97719727 7.22216797 22.02392578 C7.97041403 25.05050018 7.97041403 25.05050018 9.09423828 28.12841797 C10 31 10 31 10 35 C9.34 35 8.68 35 8 35 C7.03479426 31.71031008 6.07914599 28.41791312 5.125 25.125 C4.72087891 23.74828125 4.72087891 23.74828125 4.30859375 22.34375 C0 7.42130335 0 7.42130335 0 0 Z " fill="#C7AFDE" transform="translate(389,330)"/>
<path d="M0 0 C3.59384867 1.19794956 3.7263089 1.82085357 5.375 5.078125 C5.80296875 5.90957031 6.2309375 6.74101563 6.671875 7.59765625 C7.11015625 8.47292969 7.5484375 9.34820312 8 10.25 C8.87378539 11.96416135 9.74875308 13.67772063 10.625 15.390625 C11.03363281 16.19564453 11.44226563 17.00066406 11.86328125 17.83007812 C12.78182755 19.58352304 13.78496788 21.29249021 14.8125 22.984375 C16 25 16 25 16 27 C16.66 27.33 17.32 27.66 18 28 C18.625 31.0625 18.625 31.0625 19 34 C18.34 34 17.68 34 17 34 C16.52691406 33.04222656 16.05382812 32.08445313 15.56640625 31.09765625 C11.43554097 22.76940101 7.19907183 14.51011581 2.79516602 6.32250977 C0 1.10244328 0 1.10244328 0 0 Z " fill="#C0ABD4" transform="translate(76,99)"/>
<path d="M0 0 C0.99 0.33 1.98 0.66 3 1 C2.29875 1.66644531 1.5975 2.33289063 0.875 3.01953125 C-4.8923962 8.59417097 -9.82032788 14.13423647 -14.24609375 20.8828125 C-16.15446941 23.18646419 -17.07748085 23.67884405 -20 24 C-18.67959547 21.13500094 -17.20848879 18.8780517 -15.13671875 16.50390625 C-14.57919922 15.86259766 -14.02167969 15.22128906 -13.44726562 14.56054688 C-12.86654297 13.90119141 -12.28582031 13.24183594 -11.6875 12.5625 C-11.11837891 11.90701172 -10.54925781 11.25152344 -9.96289062 10.57617188 C-6.76266173 6.91299368 -3.48495464 3.39341737 0 0 Z " fill="#C5A6E3" transform="translate(418,11)"/>
<path d="M0 0 C0.33 0 0.66 0 1 0 C1.14867645 6.43833671 0.64943638 12.4103804 -0.4375 18.75 C-0.57220703 19.57371094 -0.70691406 20.39742188 -0.84570312 21.24609375 C-1.4948712 25.17910228 -2.18306519 29.0977483 -3 33 C-3.66 33 -4.32 33 -5 33 C-4.49619164 25.58185624 -3.53287902 18.23449622 -2.5 10.875 C-2.36940186 9.9260083 -2.23880371 8.9770166 -2.10424805 7.99926758 C-1.97703369 7.11005615 -1.84981934 6.22084473 -1.71875 5.3046875 C-1.54762695 4.0978833 -1.54762695 4.0978833 -1.37304688 2.86669922 C-1 1 -1 1 0 0 Z " fill="#C7B3D9" transform="translate(122,294)"/>
<path d="M0 0 C0.56912109 0.73355713 1.13824219 1.46711426 1.72460938 2.22290039 C3.83643465 4.80036954 6.02365738 7.10810755 8.40625 9.43359375 C9.23253906 10.24763672 10.05882812 11.06167969 10.91015625 11.90039062 C12.63476719 13.58988505 14.36132759 15.27739183 16.08984375 16.96289062 C20.25942967 21.07718562 24.03348837 24.9322093 27 30 C23.75802326 28.59003712 21.74201154 26.92521488 19.35546875 24.33203125 C18.67806641 23.60306641 18.00066406 22.87410156 17.30273438 22.12304688 C16.60470703 21.36056641 15.90667969 20.59808594 15.1875 19.8125 C13.80707271 18.31800923 12.42557147 16.82450969 11.04296875 15.33203125 C10.37313965 14.60322754 9.70331055 13.87442383 9.01318359 13.12353516 C6.52913511 10.50332491 3.91387514 8.04115045 1.2434082 5.61206055 C0 4 0 4 0 0 Z " fill="#C9BDD2" transform="translate(0,1)"/>
<path d="M0 0 C0.66 0 1.32 0 2 0 C0.32337853 4.44218265 -1.74495879 8.63867269 -3.875 12.875 C-4.21402344 13.55691406 -4.55304688 14.23882812 -4.90234375 14.94140625 C-7.12766011 19.38357768 -9.50003014 23.70632979 -12 28 C-12.77603125 25.72612127 -13.13765549 24.4302984 -12.39501953 22.10888672 C-12.06099121 21.47225098 -11.72696289 20.83561523 -11.3828125 20.1796875 C-11.02316406 19.47972656 -10.66351563 18.77976562 -10.29296875 18.05859375 C-9.90753906 17.33800781 -9.52210938 16.61742187 -9.125 15.875 C-8.74730469 15.14667969 -8.36960938 14.41835938 -7.98046875 13.66796875 C-7.28029165 12.31994095 -6.57522152 10.97443561 -5.86376953 9.63232422 C-5.22727213 8.42949165 -4.6085943 7.2171886 -4 6 C-3.34 6 -2.68 6 -2 6 C-1.34 4.02 -0.68 2.04 0 0 Z " fill="#D4ABED" transform="translate(156,413)"/>
<path d="M0 0 C0.66 0.33 1.32 0.66 2 1 C0.85960382 11.70031314 -0.39175482 22.35820743 -2 33 C-2.33 33 -2.66 33 -3 33 C-4.63212975 26.00955751 -3.24119088 19.55454005 -2.0625 12.5625 C-1.86720703 11.35400391 -1.67191406 10.14550781 -1.47070312 8.90039062 C-0.98965376 5.93196408 -0.49916857 2.96542398 0 0 Z " fill="#CFB1E9" transform="translate(321,197)"/>
<path d="M0 0 C4.6123242 8.38965868 7 20.4460476 7 30 C6.34 30 5.68 30 5 30 C4.15200837 26.50338769 3.3243235 23.00226092 2.5 19.5 C2.14228516 18.02660156 2.14228516 18.02660156 1.77734375 16.5234375 C0.45665793 10.8633554 -0.27671918 5.81110271 0 0 Z " fill="#CAB4DF" transform="translate(178,173)"/>
<path d="M0 0 C0 3 0 3 -2.16015625 5.41796875 C-3.12097534 6.34804298 -4.08886997 7.27084524 -5.0625 8.1875 C-6.0775536 9.16847389 -7.09057126 10.15155872 -8.1015625 11.13671875 C-8.59817383 11.62060059 -9.09478516 12.10448242 -9.60644531 12.60302734 C-12.04808642 15.05065706 -14.26093605 17.6832783 -16.46484375 20.34375 C-18.1556235 22.16789914 -19.97399666 23.56473198 -22 25 C-21.4409112 21.75728494 -20.5867822 20.06942576 -18 18 C-17.34 18 -16.68 18 -16 18 C-15.73719238 17.4112207 -15.47438477 16.82244141 -15.20361328 16.21582031 C-13.94383819 13.89660759 -12.61995979 12.39050597 -10.7421875 10.546875 C-9.80439453 9.61875 -9.80439453 9.61875 -8.84765625 8.671875 C-8.19667969 8.03765625 -7.54570312 7.4034375 -6.875 6.75 C-6.21628906 6.1003125 -5.55757812 5.450625 -4.87890625 4.78125 C-3.25703357 3.18288273 -1.6306719 1.58938103 0 0 Z " fill="#D3C2E4" transform="translate(22,507)"/>
<path d="M0 0 C0.66 0.33 1.32 0.66 2 1 C0.01608025 4.01088998 -1.98955568 7.00676241 -4 10 C-4.37463379 10.56170898 -4.74926758 11.12341797 -5.13525391 11.70214844 C-6.3331086 13.4937989 -7.54060502 15.27862406 -8.75 17.0625 C-9.13857178 17.64668701 -9.52714355 18.23087402 -9.92749023 18.83276367 C-10.9004668 20.25816904 -11.94468998 21.63442883 -13 23 C-13.66 23 -14.32 23 -15 23 C-13.4441739 18.3676816 -10.92381299 14.83103269 -8.0625 10.9375 C-7.61970703 10.32583984 -7.17691406 9.71417969 -6.72070312 9.08398438 C-4.50871761 6.03467498 -2.2710867 3.00562959 0 0 Z " fill="#B19DC3" transform="translate(391,42)"/>
<path d="M0 0 C0.33 0 0.66 0 1 0 C1.24476435 4.50498714 0.67412656 7.39978408 -1.3125 11.4375 C-1.76625 12.38109375 -2.22 13.3246875 -2.6875 14.296875 C-3.3371875 15.63492187 -3.3371875 15.63492187 -4 17 C-5.02551427 19.32343076 -6.01210645 21.66025213 -7 24 C-7.66 24 -8.32 24 -9 24 C-8.34 21.03 -7.68 18.06 -7 15 C-6.34 15 -5.68 15 -5 15 C-4.70996094 14.00419922 -4.70996094 14.00419922 -4.4140625 12.98828125 C-1.82776801 4.21792619 -1.82776801 4.21792619 0 0 Z " fill="#D2C3DC" transform="translate(166,388)"/>
<path d="M0 0 C0 3.51970838 -0.56221289 4.05606856 -2.73828125 6.6875 C-3.31126953 7.38617188 -3.88425781 8.08484375 -4.47460938 8.8046875 C-5.08111328 9.52914063 -5.68761719 10.25359375 -6.3125 11 C-6.90740234 11.72445313 -7.50230469 12.44890625 -8.11523438 13.1953125 C-10.64129586 16.25481044 -13.15503847 19.23014418 -16 22 C-16.66 21.67 -17.32 21.34 -18 21 C-16.625 19 -16.625 19 -15 17 C-14.34 17 -13.68 17 -13 17 C-12.5978125 15.7934375 -12.5978125 15.7934375 -12.1875 14.5625 C-11.795625 13.716875 -11.40375 12.87125 -11 12 C-10.01 11.67 -9.02 11.34 -8 11 C-7.87625 10.4225 -7.7525 9.845 -7.625 9.25 C-6.69966844 5.91880639 -4.49353241 4.31107882 -2 2 C-1.34 1.34 -0.68 0.68 0 0 Z " fill="#C7AAE2" transform="translate(112,487)"/>
<path d="M0 0 C0.66 0 1.32 0 2 0 C0.46653414 4.62653621 -2.04099075 8.02074101 -5 11.8125 C-5.45117188 12.40998047 -5.90234375 13.00746094 -6.3671875 13.62304688 C-7.52637603 15.12347581 -8.75813919 16.56724504 -10 18 C-10.66 18 -11.32 18 -12 18 C-10.18074422 13.90667449 -7.58463422 10.38325725 -5 6.75 C-4.32324219 5.77546875 -4.32324219 5.77546875 -3.6328125 4.78125 C-2.47395032 3.14924291 -1.24218497 1.5695175 0 0 Z " fill="#C1B3CF" transform="translate(49,471)"/>
<path d="M0 0 C0.625 1.79296875 0.625 1.79296875 1 4 C-0.09284716 5.8100281 -1.20235986 7.61176458 -2.38671875 9.36328125 C-4.48163367 12.78717367 -6.13996667 16.35522837 -7.8125 20 C-8.12638672 20.68360596 -8.44027344 21.36721191 -8.76367188 22.0715332 C-9.51320728 23.71249222 -10.25719552 25.35598317 -11 27 C-12.00641963 24.37144623 -12.08371661 23.23371466 -11.11962891 20.54223633 C-10.65991699 19.64786865 -10.20020508 18.75350098 -9.7265625 17.83203125 C-9.2315625 16.85685547 -8.7365625 15.88167969 -8.2265625 14.87695312 C-7.69804687 13.86568359 -7.16953125 12.85441406 -6.625 11.8125 C-6.10421875 10.78962891 -5.5834375 9.76675781 -5.046875 8.71289062 C-1.19631165 1.19631165 -1.19631165 1.19631165 0 0 Z " fill="#C3AED8" transform="translate(359,93)"/>
<path d="M0 0 C4.50229474 -0.09889302 9.00395727 -0.17147709 13.50708008 -0.21972656 C15.03876762 -0.2398398 16.57037839 -0.2671345 18.10180664 -0.30175781 C20.30374073 -0.35029315 22.50465982 -0.37296996 24.70703125 -0.390625 C25.39150833 -0.41127014 26.07598541 -0.43191528 26.78120422 -0.45318604 C28.72192383 -0.45410156 28.72192383 -0.45410156 32 0 C33.95581055 2.02441406 33.95581055 2.02441406 35 4 C31.125 3.125 31.125 3.125 30 2 C27.78312006 1.84126045 25.56144702 1.74866163 23.33984375 1.68359375 C22.34314415 1.6524221 22.34314415 1.6524221 21.3263092 1.62062073 C19.19681457 1.55506342 17.06719332 1.49621215 14.9375 1.4375 C13.49673153 1.39432061 12.05597601 1.35070651 10.61523438 1.30664062 C7.0769596 1.19937607 3.53854131 1.09812629 0 1 C0 0.67 0 0.34 0 0 Z " fill="#C195E9" transform="translate(44,0)"/>
<path d="M0 0 C0.66 0.33 1.32 0.66 2 1 C-2.46564335 7.50165096 -7.09253054 13.8246433 -12 20 C-12 16.27962204 -10.97835759 15.2240134 -8.8125 12.25 C-8.17828125 11.37085938 -7.5440625 10.49171875 -6.890625 9.5859375 C-6.26671875 8.73257812 -5.6428125 7.87921875 -5 7 C-4.0193209 5.62607829 -3.03991522 4.25124556 -2.0625 2.875 C-1.381875 1.92625 -0.70125 0.9775 0 0 Z " fill="#C7B9D2" transform="translate(126,467)"/>
<path d="M0 0 C0.66 0 1.32 0 2 0 C3.65 6.6 5.3 13.2 7 20 C6.01 19.67 5.02 19.34 4 19 C3.1128708 16.34751335 2.41955673 13.84140172 1.8125 11.125 C1.63525391 10.39152344 1.45800781 9.65804687 1.27539062 8.90234375 C0.56128761 5.87498812 0 3.11987067 0 0 Z " fill="#C8ADE1" transform="translate(111,177)"/>
<path d="M0 0 C0.33 0.99 0.66 1.98 1 3 C0.50371094 3.54527344 0.00742187 4.09054688 -0.50390625 4.65234375 C-5.2540276 9.92524885 -9.71862182 15.34055321 -14 21 C-14 17.44547685 -13.32721164 16.76184627 -11.19140625 14.0234375 C-10.60939453 13.270625 -10.02738281 12.5178125 -9.42773438 11.7421875 C-8.81220703 10.96101563 -8.19667969 10.17984375 -7.5625 9.375 C-6.95083984 8.58609375 -6.33917969 7.7971875 -5.70898438 6.984375 C-1.25250362 1.25250362 -1.25250362 1.25250362 0 0 Z " fill="#CABAD8" transform="translate(462,51)"/>
<path d="M0 0 C0.66 0 1.32 0 2 0 C-0.17489796 6.12925787 -3.15280472 12.5626259 -8 17 C-8.33 16.34 -8.66 15.68 -9 15 C-7.63921729 12.37289239 -6.23094597 9.89093298 -4.6875 7.375 C-4.27048828 6.66859375 -3.85347656 5.9621875 -3.42382812 5.234375 C-2.34432752 3.45070255 -1.17813469 1.72011849 0 0 Z " fill="#C9A7E6" transform="translate(441,78)"/>
<path d="M0 0 C0.66 0 1.32 0 2 0 C3.46582355 2.14281033 4.81123514 4.26706396 6.125 6.5 C6.49753906 7.12003906 6.87007813 7.74007813 7.25390625 8.37890625 C8.17578953 9.91537838 9.08873475 11.45720675 10 13 C9.34 13.66 8.68 14.32 8 15 C6.66121428 12.8782637 5.32884524 10.75294812 4 8.625 C3.6184375 8.02171875 3.236875 7.4184375 2.84375 6.796875 C0 2.2265625 0 2.2265625 0 0 Z " fill="#B698CF" transform="translate(367,448)"/>
<path d="M0 0 C0.99 0.33 1.98 0.66 3 1 C1.38113585 2.67262717 -0.2452729 4.33795537 -1.875 6 C-2.77992188 6.928125 -3.68484375 7.85625 -4.6171875 8.8125 C-7 11 -7 11 -9 11 C-7.59155282 7.78475695 -5.89655214 5.67816132 -3.375 3.25 C-2.74335938 2.63640625 -2.11171875 2.0228125 -1.4609375 1.390625 C-0.73777344 0.70226562 -0.73777344 0.70226562 0 0 Z " fill="#C6B2D8" transform="translate(418,11)"/>
<path d="M0 0 C0.66 0.33 1.32 0.66 2 1 C1.67 1.99 1.34 2.98 1 4 C0.0409375 4.2165625 0.0409375 4.2165625 -0.9375 4.4375 C-3.1813345 4.79012093 -3.1813345 4.79012093 -4.125 6.9375 C-4.41375 7.618125 -4.7025 8.29875 -5 9 C-5.66 9.66 -6.32 10.32 -7 11 C-7.99 10.67 -8.98 10.34 -10 10 C-6.7 6.7 -3.4 3.4 0 0 Z " fill="#AD92CA" transform="translate(429,0)"/>
<path d="M0 0 C0.33 0 0.66 0 1 0 C0.53411505 5.70709064 -0.93757784 9.15939723 -4 14 C-5.06528748 11.26980214 -5.07998186 10.20701188 -4.00390625 7.421875 C-3.52824219 6.54015625 -3.05257812 5.6584375 -2.5625 4.75 C-2.08941406 3.85796875 -1.61632812 2.9659375 -1.12890625 2.046875 C-0.75636719 1.37140625 -0.38382813 0.6959375 0 0 Z " fill="#BF9EDD" transform="translate(148,427)"/>
<path d="M0 0 C0.66 0 1.32 0 2 0 C3.5078125 2.1171875 3.5078125 2.1171875 5.125 4.875 C5.66382813 5.77992188 6.20265625 6.68484375 6.7578125 7.6171875 C8 10 8 10 8 12 C7.34 12 6.68 12 6 12 C4.4921875 9.8828125 4.4921875 9.8828125 2.875 7.125 C2.33617187 6.22007812 1.79734375 5.31515625 1.2421875 4.3828125 C0 2 0 2 0 0 Z " fill="#C4AFD7" transform="translate(431,436)"/>
<path d="M0 0 C4.45452031 2.22726015 4.66682591 2.71472933 6.25 7.125 C6.58515625 8.03507813 6.9203125 8.94515625 7.265625 9.8828125 C7.62914063 10.93082031 7.62914063 10.93082031 8 12 C7.01 12.495 7.01 12.495 6 13 C4.02 8.71 2.04 4.42 0 0 Z " fill="#C6ADE0" transform="translate(94,134)"/>
<path d="M0 0 C0.33 0.99 0.66 1.98 1 3 C-1.97 6.3 -4.94 9.6 -8 13 C-8 9.00717059 -6.52191924 7.84668408 -4 4.8125 C-3.2575 3.91144531 -2.515 3.01039063 -1.75 2.08203125 C-1.1725 1.39496094 -0.595 0.70789063 0 0 Z " fill="#D5C2E6" transform="translate(32,494)"/>
<path d="M0 0 C0.99 0.33 1.98 0.66 3 1 C2.05065487 2.67180274 1.09026687 4.33733936 0.125 6 C-0.40867187 6.928125 -0.94234375 7.85625 -1.4921875 8.8125 C-1.98976563 9.534375 -2.48734375 10.25625 -3 11 C-3.66 11 -4.32 11 -5 11 C-3.55049545 7.2089881 -1.84827434 3.6125362 0 0 Z " fill="#BA9BD4" transform="translate(74,432)"/>
<path d="M0 0 C0.66 0.33 1.32 0.66 2 1 C1.34 2.98 0.68 4.96 0 7 C-0.66 7 -1.32 7 -2 7 C-2.33 7.99 -2.66 8.98 -3 10 C-3.66 9.67 -4.32 9.34 -5 9 C-4.3566152 7.686298 -3.71021785 6.37407102 -3.0625 5.0625 C-2.70285156 4.33160156 -2.34320313 3.60070312 -1.97265625 2.84765625 C-1 1 -1 1 0 0 Z " fill="#AE87D0" transform="translate(88,408)"/>
<path d="M0 0 C0.66 0.33 1.32 0.66 2 1 C0.02 3.97 -1.96 6.94 -4 10 C-4.99 9.67 -5.98 9.34 -7 9 C-4.69 6.03 -2.38 3.06 0 0 Z " fill="#D6C8E4" transform="translate(391,42)"/>
<path d="M0 0 C3.45195767 1.4258086 5.1014256 3.09746334 7.25 6.125 C8.03117187 7.21167969 8.03117187 7.21167969 8.828125 8.3203125 C9.40820312 9.15175781 9.40820312 9.15175781 10 10 C7.09217167 8.68515589 4.99358442 7.26624689 2.75 5 C2.22921875 4.484375 1.7084375 3.96875 1.171875 3.4375 C0 2 0 2 0 0 Z " fill="#D0C2DC" transform="translate(17,21)"/>
<path d="M0 0 C0.33 0.99 0.66 1.98 1 3 C-1.31 5.31 -3.62 7.62 -6 10 C-6.33 9.01 -6.66 8.02 -7 7 C-5.71034824 5.62437146 -4.37310707 4.29233607 -3 3 C-2.34 3 -1.68 3 -1 3 C-0.67 2.01 -0.34 1.02 0 0 Z " fill="#DCCEE9" transform="translate(7,522)"/>
<path d="M0 0 C0.99 0.33 1.98 0.66 3 1 C4.52160014 4.6037898 5 7.05220686 5 11 C4.34 11 3.68 11 3 11 C2.01 7.37 1.02 3.74 0 0 Z " fill="#C09EDF" transform="translate(394,354)"/>
<path d="M0 0 C0.66 0 1.32 0 2 0 C2.99 2.97 3.98 5.94 5 9 C4.34 9.66 3.68 10.32 3 11 C2.49384702 9.73160474 1.99530901 8.46016898 1.5 7.1875 C1.2215625 6.47980469 0.943125 5.77210937 0.65625 5.04296875 C0 3 0 3 0 0 Z " fill="#B99AD3" transform="translate(158,120)"/>
<path d="M0 0 C0.66 0 1.32 0 2 0 C0.80100302 3.0831351 -0.47700477 6.06279492 -2 9 C-2.99 8.67 -3.98 8.34 -5 8 C-4.21718695 6.66144944 -3.42348123 5.32926356 -2.625 4 C-2.18414062 3.2575 -1.74328125 2.515 -1.2890625 1.75 C-0.86367188 1.1725 -0.43828125 0.595 0 0 Z " fill="#C0ABD1" transform="translate(431,95)"/>
<path d="M0 0 C0.66 0 1.32 0 2 0 C0.55049545 3.7910119 -1.15172566 7.3874638 -3 11 C-3.66 11 -4.32 11 -5 11 C-3.78065514 6.96678237 -2.44045073 3.45730521 0 0 Z " fill="#B98FDF" transform="translate(365,82)"/>
<path d="M0 0 C0.66 0.33 1.32 0.66 2 1 C-0.64 3.97 -3.28 6.94 -6 10 C-6.66 9.67 -7.32 9.34 -8 9 C-5.36 6.03 -2.72 3.06 0 0 Z " fill="#D1C0E1" transform="translate(94,509)"/>
<path d="M0 0 C0.33 0 0.66 0 1 0 C1.25 6.625 1.25 6.625 -1 10 C-1.66 10 -2.32 10 -3 10 C-2.67 7.69 -2.34 5.38 -2 3 C-1.34 3 -0.68 3 0 3 C0 2.01 0 1.02 0 0 Z " fill="#D7C9E2" transform="translate(180,344)"/>
<path d="M0 0 C0.66 0.66 1.32 1.32 2 2 C1.9765625 4.1640625 1.9765625 4.1640625 1.625 6.625 C1.51414062 7.44226563 1.40328125 8.25953125 1.2890625 9.1015625 C1.19367188 9.72804687 1.09828125 10.35453125 1 11 C0.34 11 -0.32 11 -1 11 C-0.67 7.37 -0.34 3.74 0 0 Z " fill="#CDB8DF" transform="translate(385,217)"/>
<path d="M0 0 C0.99 0 1.98 0 3 0 C2.01 2.97 1.02 5.94 0 9 C-0.66 9 -1.32 9 -2 9 C-1.34 6.03 -0.68 3.06 0 0 Z " fill="#BCA7CF" transform="translate(159,403)"/>
<path d="M0 0 C0.66 0.33 1.32 0.66 2 1 C1.34 3.97 0.68 6.94 0 10 C-0.66 10 -1.32 10 -2 10 C-1.54177532 6.53058454 -1.10868317 3.32604951 0 0 Z " fill="#CDBDDF" transform="translate(333,150)"/>
<path d="M0 0 C4 1 4 1 5.8125 2.875 C6.204375 3.57625 6.59625 4.2775 7 5 C6.67 5.99 6.34 6.98 6 8 C4.02 5.36 2.04 2.72 0 0 Z " fill="#BDA8D1" transform="translate(88,15)"/>
<path d="M0 0 C0.66 0.66 1.32 1.32 2 2 C0.35 4.31 -1.3 6.62 -3 9 C-3.66 8.67 -4.32 8.34 -5 8 C-3.35 5.36 -1.7 2.72 0 0 Z " fill="#BEA5D5" transform="translate(131,458)"/>
<path d="M0 0 C0.66 0.33 1.32 0.66 2 1 C0.38405168 3.04119788 -1.2856382 5.04072937 -3 7 C-3.66 7 -4.32 7 -5 7 C-3.70700306 4.11562221 -2.34058637 2.12780579 0 0 Z " fill="#BCA6CF" transform="translate(408,22)"/>
</svg>
