<?xml version="1.0" encoding="UTF-8"?>
<svg version="1.1" xmlns="http://www.w3.org/2000/svg" width="544" height="536">
<path d="M0 0 C9.39814008 0.07914945 18.67425029 1.22064867 28.00292969 2.28295898 C30.0051596 2.50562185 32.00746059 2.72764637 34.00982666 2.94908142 C39.37854667 3.54453371 44.74626241 4.14862081 50.11383057 4.75435638 C55.73384176 5.38704255 61.35475187 6.01163712 66.97558594 6.63696289 C76.13684285 7.65706166 85.29759788 8.68155319 94.45800781 9.70922852 C106.5655743 11.06723217 118.67453664 12.41236272 130.78417969 13.75170898 C145.05493675 15.33039277 159.32493053 16.91569001 173.59397888 18.50974655 C182.36418908 19.48939456 191.13509717 20.46177675 199.90783691 21.4185791 C204.14959239 21.88188243 208.39077825 22.35024204 212.63183594 22.81988525 C214.47856343 23.02306838 216.32556128 23.22381293 218.17285156 23.42181396 C220.59612857 23.6816719 223.01832455 23.94993114 225.44042969 24.22045898 C227.39287598 24.43303345 227.39287598 24.43303345 229.38476562 24.64990234 C235.46779842 25.64481178 235.46779842 25.64481178 237.70605469 27.19311523 C238.70917409 30.29426774 239.24268241 32.98512566 239.70605469 36.19311523 C239.90099518 37.40830841 240.09593567 38.62350159 240.29678345 39.8755188 C241.01603995 44.39429432 241.68291556 48.92038916 242.35058594 53.44702148 C242.60448013 55.15116449 242.85869317 56.85526003 243.11320496 58.55931091 C243.78311578 63.04940904 244.44939474 67.54003797 245.11468506 72.03082275 C247.17545034 85.93421472 249.24923438 99.83567659 251.3371048 113.7350235 C251.70288627 116.172006 252.06749986 118.6091614 252.43206787 121.04632568 C252.99797429 124.82381594 253.57060214 128.60022994 254.14853477 132.37589836 C254.35867549 133.75465513 254.56676998 135.13372558 254.77265358 136.51312447 C255.05422872 138.39681969 255.34417194 140.27925837 255.63452148 142.16162109 C255.79413864 143.21232285 255.9537558 144.2630246 256.11820984 145.3455658 C256.69770186 148.15265373 257.59683451 150.55835718 258.70605469 153.19311523 C259.03808375 154.99953325 259.30774121 156.81824934 259.52246094 158.64233398 C259.64685547 159.65489258 259.77125 160.66745117 259.89941406 161.71069336 C260.08213867 163.27980469 260.08213867 163.27980469 260.26855469 164.88061523 C260.51662723 166.96824112 260.76777442 169.05550467 261.02246094 171.14233398 C261.13017822 172.06361084 261.23789551 172.9848877 261.34887695 173.93408203 C261.59378608 176.22028039 261.59378608 176.22028039 262.70605469 178.19311523 C262.99798557 180.77649308 263.24773281 183.3541983 263.47949219 185.94311523 C264.31477156 194.51382608 265.53399551 202.99969426 266.87011719 211.50561523 C267.06804871 212.77542236 267.26598022 214.04522949 267.46990967 215.35351562 C268.2941537 220.6267677 269.12152126 225.8994022 269.97070312 231.16870117 C272.39788066 246.26396948 274.4653263 260.88234297 273.70605469 276.19311523 C266.00268638 277.48275975 258.29788751 278.76357735 250.59204102 280.03833008 C247.97179006 280.4722028 245.35214193 280.90933154 242.73266602 281.34790039 C238.96293566 281.97869192 235.19206379 282.60221775 231.42089844 283.22436523 C230.25396957 283.42122925 229.08704071 283.61809326 227.88475037 283.82092285 C215.76777595 285.80465298 215.76777595 285.80465298 211.70605469 285.19311523 C209.2683373 281.87502798 208.25683403 279.03156736 207.69458008 274.98583984 C207.54755142 273.96965073 207.40052277 272.95346161 207.2490387 271.90647888 C207.02860146 270.26752403 207.02860146 270.26752403 206.80371094 268.59545898 C206.63987411 267.45138077 206.47603729 266.30730255 206.30723572 265.1285553 C205.78381319 261.46397523 205.27517892 257.79755229 204.76855469 254.13061523 C202.22776924 235.36729875 202.22776924 235.36729875 198.81152344 216.75170898 C195.83994597 202.69570094 193.85457695 188.4520119 191.70458984 174.25219727 C191.0765413 170.10466801 190.44016821 165.95846417 189.80147171 161.81256294 C189.30579451 158.58911096 188.81439962 155.36501743 188.32430267 152.14071274 C188.09117799 150.61037141 187.85674898 149.08022815 187.62094879 147.55029678 C187.29372752 145.42291846 186.97229179 143.29474244 186.65234375 141.16625977 C186.46899475 139.96083527 186.28564575 138.75541077 186.09674072 137.51345825 C185.72674739 134.36897734 185.63311488 131.35545865 185.70605469 128.19311523 C184.97902344 128.82926758 184.97902344 128.82926758 184.23730469 129.47827148 C183.56699219 130.06479492 182.89667969 130.65131836 182.20605469 131.25561523 C181.47515625 131.89756836 180.74425781 132.53952148 179.99121094 133.20092773 C178.55043653 134.45698748 177.1009965 135.7032399 175.63964844 136.93530273 C172.30462813 139.76778573 169.23673257 142.62710026 166.40185547 145.96557617 C162.96466589 149.93968748 159.35618302 153.68825976 155.63574219 157.39624023 C154.99162384 158.04131531 154.34750549 158.68639038 153.68386841 159.35101318 C152.33555736 160.69999878 150.98600662 162.04774638 149.63525391 163.39428711 C147.57565803 165.44849778 145.52149294 167.5080314 143.46777344 169.56811523 C142.14908375 170.88614453 140.8300841 172.20386381 139.51074219 173.52124023 C138.90229462 174.13171204 138.29384705 174.74218384 137.66696167 175.37115479 C135.25748786 177.76748043 132.91352548 180.03324667 130.21826172 182.11010742 C127.29958477 184.5301416 124.98540978 187.23328883 122.52468872 190.1078186 C119.71253448 193.33231329 116.70021092 196.3419701 113.67089844 199.36108398 C113.02915176 200.00378738 112.38740509 200.64649078 111.72621155 201.30867004 C110.38209671 202.65345951 109.03674186 203.99701068 107.69018555 205.33935547 C105.64158029 207.38258446 103.59839506 209.43112462 101.55566406 211.48022461 C100.24022949 212.79499861 98.92448488 214.10946251 97.60839844 215.42358398 C97.00511215 216.0288945 96.40182587 216.63420502 95.78025818 217.25785828 C93.0932572 219.93019475 90.39399444 222.50333629 87.45996094 224.90405273 C85.26149992 226.73142601 83.5277262 228.38987022 81.74121094 230.58764648 C76.53667296 236.68177573 70.7896686 242.2582635 65.11743164 247.91210938 C63.14125355 249.88291011 61.17049921 251.8590218 59.20019531 253.83569336 C57.93033366 255.10489445 56.66016197 256.37378544 55.38964844 257.64233398 C54.80823593 258.22577072 54.22682343 258.80920746 53.62779236 259.4103241 C51.01967522 262.00369613 48.40380302 264.48449651 45.53930664 266.79370117 C42.83526007 269.08369425 40.83901699 271.33116002 38.69042969 274.13452148 C33.47891222 280.64454991 27.6888424 286.47815196 21.76611328 292.33886719 C19.93941523 294.14708637 18.12106899 295.96340413 16.30371094 297.78100586 C15.13100774 298.94879963 13.9578472 300.11613438 12.78417969 301.28295898 C12.24762756 301.81839828 11.71107544 302.35383759 11.15826416 302.90550232 C8.92927383 305.10667089 6.75565073 307.15515473 4.26367188 309.0625 C1.34042802 311.49769942 -0.98377354 314.19888838 -3.45297241 317.08325195 C-6.38933582 320.44849722 -9.53423605 323.59585293 -12.68847656 326.75561523 C-13.36190598 327.43237305 -14.03533539 328.10913086 -14.72917175 328.80639648 C-16.13707394 330.21931708 -17.54629249 331.63092714 -18.95678711 333.04125977 C-21.12349299 335.21018034 -23.28204183 337.38701431 -25.44042969 339.56420898 C-26.81429013 340.94099872 -28.18862187 342.31731836 -29.56347656 343.69311523 C-30.20928177 344.34610596 -30.85508698 344.99909668 -31.52046204 345.671875 C-32.11836044 346.26669678 -32.71625885 346.86151855 -33.33227539 347.47436523 C-33.8574324 348.00094727 -34.38258942 348.5275293 -34.92366028 349.07006836 C-36.29394531 350.19311523 -36.29394531 350.19311523 -38.29394531 350.19311523 C-38.29394531 350.85311523 -38.29394531 351.51311523 -38.29394531 352.19311523 C-39.92265695 353.92053666 -41.57915576 355.5547272 -43.29394531 357.19311523 C-44.56740704 358.46131472 -45.83819234 359.73220677 -47.10644531 361.00561523 C-48.16894531 362.06811523 -49.23144531 363.13061523 -50.29394531 364.19311523 C-49.44832031 365.16249023 -48.60269531 366.13186523 -47.73144531 367.13061523 C-45.40888238 369.81961501 -43.2694174 372.57883512 -41.16894531 375.44311523 C-37.00947414 380.83400879 -32.01799016 385.22116187 -26.94824219 389.72094727 C-24.08297485 392.27076457 -21.24645029 394.85154023 -18.41894531 397.44311523 C-17.86634033 397.94955566 -17.31373535 398.45599609 -16.74438477 398.9777832 C-13.9443129 401.57184826 -11.29587993 404.1943767 -8.85644531 407.13061523 C-6.39785483 410.25604184 -6.39785483 410.25604184 -3.35644531 412.63061523 C-0.83769562 414.73814049 1.09680854 416.71301262 3.20605469 419.19311523 C5.29609401 421.64982812 7.20795757 423.61136764 9.70605469 425.69311523 C12.09721702 427.68575051 13.8590008 429.45917539 15.83496094 431.81030273 C18.46571017 434.85701626 21.1972457 437.70222653 24.10839844 440.48217773 C24.85283203 441.19631836 25.59726562 441.91045898 26.36425781 442.64624023 C27.90205188 444.111559 29.44919807 445.56711703 31.00488281 447.01342773 C32.10799805 448.08077148 32.10799805 448.08077148 33.23339844 449.16967773 C33.90105225 449.7995459 34.56870605 450.42941406 35.2565918 451.07836914 C36.70605469 453.19311523 36.70605469 453.19311523 37.31567383 456.01318359 C36.4187399 460.6918237 33.79395337 462.87488122 30.42480469 466.09545898 C29.77789673 466.73624893 29.13098877 467.37703888 28.46447754 468.0372467 C26.39199189 470.08282241 24.29938764 472.10640177 22.20605469 474.13061523 C20.82713266 475.48800172 19.44951345 476.84671305 18.07324219 478.20678711 C9.90894601 486.23727941 1.54164944 493.90374956 -7.29394531 501.19311523 C-12.66459318 499.71082922 -15.7364562 496.11641766 -19.50097656 492.24389648 C-20.18520187 491.55305466 -20.86942719 490.86221283 -21.5743866 490.1504364 C-23.75896846 487.94249535 -25.93315622 485.72466793 -28.10644531 483.50561523 C-30.27066538 481.30611816 -32.43707485 479.10884529 -34.60636902 476.91435242 C-35.95321714 475.55078381 -37.29695233 474.18413038 -38.63691711 472.813797 C-42.43527944 468.95602539 -46.34907405 465.31203284 -50.46342468 461.79240417 C-55.59545808 457.30865014 -60.09654639 452.31104405 -64.54785156 447.16577148 C-68.40288991 442.81052682 -72.53185783 438.81143272 -76.95410156 435.03686523 C-81.61108922 430.9812642 -85.95352569 426.6449304 -90.29394531 422.25561523 C-91.06867188 421.47637695 -91.84339844 420.69713867 -92.64160156 419.89428711 C-94.52805288 417.99619103 -96.41210777 416.09578375 -98.29394531 414.19311523 C-101.67836189 415.65673654 -103.86695807 417.5322959 -106.44628906 420.15014648 C-107.22294922 420.93325195 -107.99960938 421.71635742 -108.79980469 422.52319336 C-109.60224609 423.34239258 -110.4046875 424.1615918 -111.23144531 425.00561523 C-112.03001953 425.81321289 -112.82859375 426.62081055 -113.65136719 427.45288086 C-115.14904408 428.96792932 -116.64464996 430.48503004 -118.13745117 432.00488281 C-120.51089559 434.41325849 -122.9010625 436.80403971 -125.29394531 439.19311523 C-126.59954374 440.4985194 -127.9050345 441.80403126 -129.21044922 443.10961914 C-140.23828125 454.13745117 -151.26611328 465.1652832 -162.29394531 476.19311523 C-162.82313568 476.7635556 -163.35232605 477.33399597 -163.89755249 477.92172241 C-165.29394531 479.19311523 -165.29394531 479.19311523 -167.29394531 479.19311523 C-167.55397842 479.77846542 -167.81401154 480.36381561 -168.08192444 480.96690369 C-169.37745152 483.34649749 -170.76689921 484.90713381 -172.6862793 486.8125 C-173.37717148 487.50324112 -174.06806366 488.19398224 -174.77989197 488.90565491 C-175.52574051 489.64118088 -176.27158905 490.37670685 -177.04003906 491.13452148 C-177.80695572 491.89860825 -178.57387238 492.66269501 -179.36402893 493.44993591 C-181.81517795 495.88989852 -184.27318265 498.32282181 -186.73144531 500.75561523 C-188.38359621 502.3977325 -190.03529433 504.04030544 -191.68652344 505.68334961 C-195.32613845 509.3033089 -198.97008518 512.91884202 -202.61790466 516.53053284 C-203.73115819 517.63484717 -204.82216369 518.76207035 -205.88905334 519.91123962 C-207.29394531 521.19311523 -207.29394531 521.19311523 -209.29394531 521.19311523 C-209.51695312 521.73452148 -209.73996094 522.27592773 -209.96972656 522.83374023 C-211.72030517 525.95276524 -214.00979731 528.39454179 -216.48144531 530.94311523 C-217.1669043 531.70301758 -217.1669043 531.70301758 -217.86621094 532.47827148 C-220.39056214 535.07614748 -222.14554199 536.16129021 -225.70019531 536.92358398 C-230.73645373 535.89990972 -233.08925999 533.35720933 -236.60644531 529.75561523 C-237.92871966 528.46068819 -239.25163682 527.16641721 -240.57519531 525.87280273 C-241.21199219 525.23955078 -241.84878906 524.60629883 -242.50488281 523.95385742 C-244.80726968 521.68791664 -247.19268404 519.52702953 -249.60644531 517.38061523 C-250.38117188 516.68838867 -251.15589844 515.99616211 -251.95410156 515.28295898 C-252.72625 514.59331055 -253.49839844 513.90366211 -254.29394531 513.19311523 C-259.45759282 508.52197658 -259.45759282 508.52197658 -262.02050781 506.18139648 C-263.92712144 504.51392855 -265.85118504 503.08193054 -267.91894531 501.63061523 C-270.29394531 499.19311523 -270.29394531 499.19311523 -270.75488281 495.35327148 C-270.64266915 492.0279062 -270.38986314 491.31519247 -268.23144531 488.56811523 C-266.77738281 487.39249023 -266.77738281 487.39249023 -265.29394531 486.19311523 C-264.19269074 485.26376874 -263.09524541 484.32989584 -262.00097656 483.39233398 C-261.40623535 482.88879395 -260.81149414 482.38525391 -260.19873047 481.86645508 C-256.6384644 478.73878735 -253.32171598 475.36463391 -249.98144531 472.00561523 C-249.32466797 471.35270508 -248.66789062 470.69979492 -247.99121094 470.02709961 C-244.84075813 466.87028867 -241.81963044 463.67233402 -238.93847656 460.26733398 C-235.59775442 456.39464375 -231.89954678 453.08127411 -228.06884766 449.70141602 C-223.29889536 445.38974173 -218.77971797 440.82695692 -214.24291992 436.27246094 C-212.60154735 434.6257012 -210.95485712 432.98439428 -209.30761719 431.34350586 C-204.33084851 426.36954738 -199.4094794 421.38701945 -194.88061523 415.99414062 C-192.78734365 413.61807284 -190.54581012 411.41956714 -188.29394531 409.19311523 C-187.24315356 408.14364699 -186.19306345 407.0934759 -185.14355469 406.04272461 C-177.57714844 398.47631836 -170.01074219 390.90991211 -162.44433594 383.34350586 C-161.91040726 382.80920456 -161.37647858 382.27490326 -160.82637024 381.72441101 C-159.37771297 380.27682117 -157.92517936 378.83311355 -156.47241211 377.38964844 C-154.71104128 375.61367025 -153.1383294 373.85018048 -151.60644531 371.88061523 C-150.84332031 370.99374023 -150.08019531 370.10686523 -149.29394531 369.19311523 C-148.63394531 369.19311523 -147.97394531 369.19311523 -147.29394531 369.19311523 C-147.29394531 368.53311523 -147.29394531 367.87311523 -147.29394531 367.19311523 C-146.63394531 367.19311523 -145.97394531 367.19311523 -145.29394531 367.19311523 C-150.21350329 361.40239093 -155.39813664 355.97802291 -160.81542969 350.65332031 C-162.51689168 348.97150701 -164.21834813 347.28968812 -165.9197998 345.60786438 C-166.81122177 344.72867151 -167.70264374 343.84947865 -168.62107849 342.94364357 C-172.87261612 338.74684379 -177.11145246 334.53725108 -181.35176945 330.32912195 C-187.84727662 323.88346201 -194.34718219 317.44239959 -200.86523438 311.01953125 C-205.74969904 306.20628261 -210.61839322 301.37751988 -215.47810364 296.53928185 C-217.33238468 294.69862282 -219.1920789 292.86340081 -221.05717468 291.03370094 C-223.65457479 288.48430304 -226.23295783 285.91705912 -228.80761719 283.34472656 C-229.58567719 282.58980927 -230.36373718 281.83489197 -231.16537476 281.05709839 C-232.20832199 280.00394691 -232.20832199 280.00394691 -233.27233887 278.92951965 C-233.88361382 278.32507428 -234.49488876 277.72062891 -235.12468719 277.09786701 C-236.29394531 275.19311523 -236.29394531 275.19311523 -236.13977814 272.64318371 C-234.88450114 269.00710516 -232.33694612 266.77611 -229.60644531 264.19311523 C-229.08888672 263.68522461 -228.57132813 263.17733398 -228.03808594 262.65405273 C-225.47993878 260.16917753 -222.86503245 257.80811197 -220.10253906 255.55249023 C-217.78349531 253.60436447 -215.94001643 251.77827651 -214.04394531 249.44311523 C-210.57844915 245.37192395 -206.7396515 241.89232245 -202.71582031 238.38061523 C-200.51447463 236.39230301 -198.53978422 234.32073934 -196.54394531 232.13061523 C-194.30369852 229.89560266 -193.42435358 229.23115098 -190.29394531 228.31811523 C-186.44928696 229.43947392 -184.79104921 231.29972843 -182.12988281 234.21655273 C-180.36589699 236.11565236 -178.53769888 237.72864799 -176.54394531 239.38061523 C-172.02165772 243.26312183 -168.13684782 247.67223769 -164.20019531 252.13061523 C-162.17458649 254.34272331 -160.04825394 256.31360865 -157.76660156 258.25952148 C-152.22700265 263.02213769 -147.11972582 268.21798863 -141.96655273 273.39013672 C-140.23499831 275.12705123 -138.49816172 276.85855413 -136.76074219 278.58959961 C-131.5574955 283.79037688 -126.4663664 289.00762199 -121.68823242 294.60742188 C-119.81258388 296.74055745 -117.75975403 298.59420095 -115.60644531 300.44311523 C-109.56379165 305.75953318 -103.93826881 311.46150839 -98.29394531 317.19311523 C-93.03655002 312.79826136 -88.12414597 308.17607567 -83.29394531 303.31811523 C-82.62105469 302.6490918 -81.94816406 301.98006836 -81.25488281 301.29077148 C-77.97489872 298.00445538 -74.80765326 294.67639333 -71.78613281 291.15014648 C-68.2530645 287.05659141 -64.4025248 283.40531089 -60.41894531 279.75561523 C-55.2534151 274.97394552 -50.18649145 270.1354375 -45.25097656 265.11499023 C-43.23060708 263.13091481 -41.13276045 261.28372855 -38.98144531 259.44311523 C-36.02967555 256.91136014 -33.659484 254.29278661 -31.29394531 251.19311523 C-29.62727865 249.52644857 -27.96061198 247.8597819 -26.29394531 246.19311523 C-25.53082031 245.24436523 -24.76769531 244.29561523 -23.98144531 243.31811523 C-22.09297348 241.00921719 -20.09855679 239.10160999 -17.81738281 237.18139648 C-12.8837469 232.91100748 -8.27672791 228.32659704 -3.67553711 223.70507812 C-2.2336931 222.25787138 -0.78657416 220.81609497 0.66113281 219.37475586 C4.6977596 215.34042003 8.68582987 211.29805237 12.40136719 206.96264648 C15.84542761 202.94704248 19.62495386 199.39238742 23.51855469 195.81811523 C29.89931092 189.88371437 36.16454001 183.85001576 42.33105469 177.69311523 C43.06428955 176.96431152 43.79752441 176.23550781 44.55297852 175.48461914 C47.90515668 172.12360226 51.15108612 168.7271501 54.24121094 165.12280273 C57.7465368 161.05949435 61.56883864 157.44390042 65.51855469 153.81811523 C71.89931092 147.88371437 78.16454001 141.85001576 84.33105469 135.69311523 C85.06428955 134.96431152 85.79752441 134.23550781 86.55297852 133.48461914 C89.90515668 130.12360226 93.15108612 126.7271501 96.24121094 123.12280273 C99.74652486 119.0595082 103.5687487 115.44379147 107.51855469 111.81811523 C114.00841716 105.78452029 120.37285107 99.64181875 126.64355469 93.38061523 C127.41868408 92.60991699 128.19381348 91.83921875 128.99243164 91.04516602 C129.71132568 90.32441895 130.43021973 89.60367188 131.17089844 88.86108398 C131.80632568 88.22452881 132.44175293 87.58797363 133.09643555 86.93212891 C134.89517874 85.0807123 134.89517874 85.0807123 136.70605469 82.19311523 C113.99802201 79.53614763 91.287031 76.90688817 68.56933594 74.33374023 C67.52201168 74.21511124 66.47468742 74.09648224 65.39562607 73.97425842 C59.0152531 73.25177964 52.63478173 72.53017283 46.25427246 71.80889893 C37.58689007 70.82908939 28.91958209 69.84862411 20.25237083 68.86730194 C17.26784619 68.529559 14.28325621 68.19239801 11.29866028 67.85528564 C9.47783125 67.64923546 7.65700489 67.44316174 5.83618164 67.23706055 C5.02547714 67.14565292 4.21477264 67.0542453 3.37950134 66.96006775 C1.87379041 66.78941787 0.36828104 66.61697657 -1.13698387 66.44243622 C-2.61288959 66.27183777 -4.08940573 66.10646138 -5.56640053 65.94556427 C-11.06928283 65.31831549 -11.06928283 65.31831549 -13.30566406 64.07202148 C-14.89088231 61.05822711 -14.39609857 58.48037002 -14.10644531 55.13061523 C-14.00976562 53.88151367 -13.91308594 52.63241211 -13.81347656 51.34545898 C-13.5002068 48.46963572 -13.00613827 45.68569116 -12.40332031 42.85717773 C-10.56294559 34.02861558 -9.58103247 25.03495766 -8.39575195 16.10009766 C-8.07235802 13.67098162 -7.74394259 11.24258414 -7.41503906 8.81420898 C-7.31710556 8.06328476 -7.21917206 7.31236053 -7.11827087 6.53868103 C-6.29175136 0.45816067 -6.09346825 0.04369806 0 0 Z " fill="#9334E9" transform="translate(270.2939453125,-0.193115234375)"/>
<path d="M0 0 C12.13626785 0.62392398 24.16412892 1.79404026 36.23828125 3.14453125 C38.17177464 3.35803224 40.10530313 3.57121561 42.03886414 3.78410339 C47.10717995 4.3430671 52.17497355 4.90663472 57.24267578 5.47113037 C62.28058495 6.03135436 67.31903545 6.5866659 72.35742188 7.14257812 C81.13395073 8.11148551 89.90934134 9.09025756 98.68420601 10.07411385 C104.13417637 10.68390512 109.58525642 11.2818932 115.0378046 11.86818027 C118.33416118 12.22355505 121.62982243 12.58510441 124.92537498 12.94785118 C126.44654433 13.11373278 127.96802925 13.27674885 129.48983192 13.43671608 C131.55815708 13.6544043 133.6251569 13.88201732 135.69213867 14.11206055 C136.84558273 14.23614792 137.99902679 14.36023529 139.18742371 14.48808289 C142 15 142 15 145 17 C143.74959128 18.24902603 143.74959128 18.24902603 142.47392178 19.52328491 C122.66707083 39.30845819 102.86281914 59.09623042 83.06174725 78.88718742 C80.62231996 81.32536407 78.18287083 83.76351887 75.7434082 86.20166016 C75.01495715 86.92971774 75.01495715 86.92971774 74.27178992 87.67248356 C66.4178529 95.52207431 58.56214995 103.36989544 50.70578807 111.21705914 C42.63899558 119.27448608 34.57415305 127.33386001 26.51099116 135.39492035 C21.98429655 139.92031244 17.45672894 144.44482321 12.92704582 148.96722412 C8.66092024 153.22654693 4.39716418 157.48822753 0.13518906 161.75170326 C-1.42678504 163.31340294 -2.98961202 164.87425013 -4.55336952 166.43416405 C-6.69461653 168.57040727 -8.83272198 170.70974823 -10.97010803 172.84985352 C-11.58394271 173.46077536 -12.1977774 174.0716972 -12.83021313 174.70113182 C-16.5057627 178.38926143 -19.98622795 182.19862849 -23.37753099 186.15003872 C-26.09828415 189.25227856 -29.01101557 192.15576687 -31.9375 195.0625 C-32.50662109 195.63548828 -33.07574219 196.20847656 -33.66210938 196.79882812 C-36.53027012 199.6605508 -39.44546849 202.40775013 -42.53344727 205.03125 C-47.95607007 209.75761676 -52.99277255 214.86805295 -58.0625 219.96484375 C-59.1045974 221.00881066 -60.14691909 222.05255372 -61.18945312 223.09608459 C-63.90744446 225.81785922 -66.6224169 228.54262523 -69.33673096 231.26806641 C-72.11717018 234.05881073 -74.90051029 236.84665871 -77.68359375 239.63476562 C-83.12520842 245.08704358 -88.56363103 250.54249109 -94 256 C-96.92823109 254.59407301 -98.99666089 253.24340463 -101.27734375 250.91796875 C-102.17163086 250.01401367 -102.17163086 250.01401367 -103.08398438 249.09179688 C-103.69564453 248.46337891 -104.30730469 247.83496094 -104.9375 247.1875 C-105.54529297 246.57068359 -106.15308594 245.95386719 -106.77929688 245.31835938 C-107.97285504 244.10677552 -109.16455204 242.89335497 -110.35424805 241.67797852 C-112.55339398 239.43576965 -114.77545376 237.21697975 -117 235 C-119.33333333 232.66666667 -121.66666667 230.33333333 -124 228 C-123.505 227.01 -123.505 227.01 -123 226 C-122.5875 226.42410156 -122.175 226.84820312 -121.75 227.28515625 C-118.72154425 230.36093162 -115.66631037 233.33088758 -112.375 236.125 C-106.24927366 241.39118766 -100.66912946 247.25309285 -95 253 C-89.74260471 248.60514612 -84.83020066 243.98296044 -80 239.125 C-79.32710937 238.45597656 -78.65421875 237.78695312 -77.9609375 237.09765625 C-74.68095341 233.81134014 -71.51370795 230.4832781 -68.4921875 226.95703125 C-64.95911919 222.86347618 -61.10857949 219.21219566 -57.125 215.5625 C-51.95946978 210.78083029 -46.89254614 205.94232227 -41.95703125 200.921875 C-39.93666177 198.93779958 -37.83881514 197.09061331 -35.6875 195.25 C-32.73573023 192.7182449 -30.36553868 190.09967138 -28 187 C-26.33333333 185.33333333 -24.66666667 183.66666667 -23 182 C-22.236875 181.05125 -21.47375 180.1025 -20.6875 179.125 C-18.79902817 176.81610196 -16.80461148 174.90849476 -14.5234375 172.98828125 C-9.58980159 168.71789224 -4.9827826 164.13348181 -0.3815918 159.51196289 C1.06025221 158.06475615 2.50737116 156.62297974 3.95507812 155.18164062 C7.99170491 151.1473048 11.97977518 147.10493714 15.6953125 142.76953125 C19.13937292 138.75392724 22.91889917 135.19927218 26.8125 131.625 C33.19325624 125.69059913 39.45848533 119.65690053 45.625 113.5 C46.35823486 112.77119629 47.09146973 112.04239258 47.84692383 111.29150391 C51.199102 107.93048703 54.44503143 104.53403487 57.53515625 100.9296875 C61.04048212 96.86637912 64.86278395 93.25078519 68.8125 89.625 C75.19325624 83.69059913 81.45848533 77.65690053 87.625 71.5 C88.35823486 70.77119629 89.09146973 70.04239258 89.84692383 69.29150391 C93.199102 65.93048703 96.44503143 62.53403487 99.53515625 58.9296875 C103.04047018 54.86639296 106.86269401 51.25067623 110.8125 47.625 C117.30236248 41.59140506 123.66679638 35.44870351 129.9375 29.1875 C130.71262939 28.41680176 131.48775879 27.64610352 132.28637695 26.85205078 C133.005271 26.13130371 133.72416504 25.41055664 134.46484375 24.66796875 C135.100271 24.03141357 135.73569824 23.3948584 136.39038086 22.73901367 C138.18912405 20.88759707 138.18912405 20.88759707 140 18 C109.70111829 14.45547341 79.39400128 10.98708659 49.08190918 7.55749512 C43.51483883 6.92747644 37.94785347 6.29670762 32.38085938 5.66601562 C21.58731922 4.44330646 10.79369078 3.22137868 0 2 C0 1.34 0 0.68 0 0 Z " fill="#CEB7E3" transform="translate(267,64)"/>
<path d="M0 0 C-1.29840818 2.86122088 -2.6708277 4.9192895 -4.8984375 7.12890625 C-5.46046875 7.68900391 -6.0225 8.24910156 -6.6015625 8.82617188 C-7.18679687 9.39916016 -7.77203125 9.97214844 -8.375 10.5625 C-8.9525 11.13935547 -9.53 11.71621094 -10.125 12.31054688 C-12.41422202 14.57624949 -14.60141821 16.71539861 -17.2265625 18.58984375 C-19.1586936 19.94911688 -19.1586936 19.94911688 -20.33056641 22.30664062 C-22.11182181 25.1804063 -24.03233233 27.18370733 -26.484375 29.50390625 C-27.33644531 30.32697266 -28.18851563 31.15003906 -29.06640625 31.99804688 C-30.86559613 33.71736005 -32.67036343 35.43085434 -34.48046875 37.13867188 C-35.32738281 37.96044922 -36.17429688 38.78222656 -37.046875 39.62890625 C-37.82901367 40.37213135 -38.61115234 41.11535645 -39.41699219 41.88110352 C-41.23261649 43.81549574 -41.23261649 43.81549574 -40.81567574 45.89524841 C-39.80856693 48.49396965 -38.51676563 49.8386528 -36.53219604 51.79492188 C-35.78893066 52.53508545 -35.04566528 53.27524902 -34.27987671 54.0378418 C-33.45903595 54.8400415 -32.63819519 55.64224121 -31.79248047 56.46875 C-30.93241394 57.32122314 -30.07234741 58.17369629 -29.18621826 59.05200195 C-27.31611079 60.90398174 -25.44355219 62.75303941 -23.56646347 64.59790039 C-20.60038623 67.51387594 -17.64684133 70.44232539 -14.69534302 73.37304688 C-6.83206727 81.17713719 1.04713085 88.96508539 8.93489254 96.74442291 C14.11912439 101.85749272 19.29620041 106.97757394 24.45985878 112.11142731 C27.39441668 115.02788768 30.34006877 117.93251162 33.29441476 120.82891846 C35.5566245 123.05303828 37.80266983 125.29338385 40.05126953 127.53125 C40.87615875 128.33344971 41.70104797 129.13564941 42.55093384 129.9621582 C43.28855957 130.70232178 44.0261853 131.44248535 44.78616333 132.20507812 C45.43472857 132.84513794 46.0832938 133.48519775 46.75151253 134.14465332 C48 136 48 136 47.80096245 138.13464355 C46.76018243 140.55850963 45.43423813 141.61215037 43.375 143.25 C40.42454312 145.70520162 37.85316339 148.1932442 35.375 151.125 C32.51807732 154.49901276 29.40012445 157.16656296 26 160 C24.11987514 162.06971728 22.30719724 164.18146638 20.515625 166.328125 C19 168 19 168 17 169 C16.67 169.99 16.34 170.98 16 172 C14.46181488 173.51873875 14.46181488 173.51873875 12.4876709 175.14442444 C7.82259337 179.10624052 3.51322016 183.35324282 -0.80273438 187.68920898 C-1.64270966 188.52903824 -2.48268494 189.36886749 -3.34811401 190.23414612 C-6.0990389 192.98576266 -8.84641368 195.74089462 -11.59375 198.49609375 C-13.50995895 200.41472856 -15.42692438 202.33260686 -17.34387207 204.25050354 C-21.85761384 208.76733977 -26.36880285 213.28671649 -30.8790555 217.80703646 C-36.01862346 222.95782445 -41.16106858 228.1057359 -46.30374432 233.25342071 C-56.87234273 243.83244076 -67.43736497 254.41502554 -78 265 C-78.495 263.515 -78.495 263.515 -79 262 C-78.319375 261.3915625 -77.63875 260.783125 -76.9375 260.15625 C-70.70472908 254.52023374 -64.63802796 248.74632863 -58.6875 242.8125 C-58.03072266 242.16023437 -57.37394531 241.50796875 -56.69726562 240.8359375 C-53.5481544 237.67729315 -50.52594126 234.47952149 -47.64453125 231.07421875 C-44.30380911 227.20152852 -40.60560147 223.88815888 -36.77490234 220.50830078 C-32.00495005 216.1966265 -27.48577266 211.63384169 -22.94897461 207.0793457 C-21.30760204 205.43258596 -19.66091181 203.79127905 -18.01367188 202.15039062 C-13.0369032 197.17643215 -8.11553409 192.19390421 -3.58666992 186.80102539 C-1.49339833 184.42495761 0.7481352 182.22645191 3 180 C4.05079175 178.95053175 5.10088186 177.90036066 6.15039062 176.84960938 C17.5 165.5 17.5 165.5 28.84960938 154.15039062 C29.38353806 153.61608932 29.91746674 153.08178802 30.46757507 152.53129578 C31.91623234 151.08370594 33.36876595 149.63999832 34.8215332 148.1965332 C36.58290404 146.42055501 38.15561592 144.65706525 39.6875 142.6875 C40.450625 141.800625 41.21375 140.91375 42 140 C42.66 140 43.32 140 44 140 C44 139.34 44 138.68 44 138 C44.66 138 45.32 138 46 138 C41.08044202 132.20927569 35.89580867 126.78490768 30.47851562 121.46020508 C28.77705364 119.77839178 27.07559718 118.09657288 25.37414551 116.41474915 C24.48272354 115.53555628 23.59130157 114.65636341 22.67286682 113.75052834 C18.4213292 109.55372856 14.18249285 105.34413585 9.94217587 101.13600671 C3.44666869 94.69034677 -3.05323687 88.24928436 -9.57128906 81.82641602 C-14.45575373 77.01316738 -19.3244479 72.18440464 -24.18415833 67.34616661 C-26.03843937 65.50550758 -27.89813359 63.67028557 -29.76322937 61.84058571 C-32.36062948 59.29118781 -34.93901252 56.72394388 -37.51367188 54.15161133 C-38.29173187 53.39669403 -39.06979187 52.64177673 -39.87142944 51.86398315 C-40.5667276 51.16188217 -41.26202576 50.45978119 -41.97839355 49.73640442 C-42.5896685 49.13195905 -43.20094345 48.52751368 -43.83074188 47.90475178 C-45 46 -45 46 -44.84583282 43.45006847 C-43.59055583 39.81398992 -41.04300081 37.58299477 -38.3125 35 C-37.79494141 34.49210937 -37.27738281 33.98421875 -36.74414062 33.4609375 C-34.18599346 30.9760623 -31.57108714 28.61499674 -28.80859375 26.359375 C-26.48955 24.41124923 -24.64607112 22.58516127 -22.75 20.25 C-19.28742141 16.18223621 -15.44703572 12.70806795 -11.4375 9.1875 C-8.61227697 6.65204343 -5.97878264 3.97510371 -3.375 1.21484375 C-2 0 -2 0 0 0 Z " fill="#CCB7DF" transform="translate(79,229)"/>
<path d="M0 0 C5.98415502 35.52747251 5.98415502 35.52747251 7.875 47.8125 C7.99464111 48.56692383 8.11428223 49.32134766 8.23754883 50.09863281 C8.89397075 54.46265105 9.10344877 58.60342721 9 63 C9.66 63 10.32 63 11 63 C12.82799371 74.94309869 14.65359476 86.8865604 16.47612 98.83049488 C17.32241543 104.37619189 18.16954266 109.9217592 19.01855469 115.46704102 C19.8374683 120.81593912 20.65421803 126.16516351 21.4694519 131.51462364 C21.78126563 133.55813113 22.0938663 135.6015187 22.40725708 137.64478493 C22.84518702 140.50091606 23.28034747 143.35745613 23.71484375 146.21411133 C23.84575409 147.06359344 23.97666443 147.91307556 24.11154175 148.78829956 C24.5807712 151.88823466 25 154.85970025 25 158 C24.34 158 23.68 158 23 158 C21.38206663 150.32614638 20.10335714 142.62055676 18.90625 134.87109375 C18.51175025 132.34700028 18.11721802 129.8229119 17.72265625 127.29882812 C17.10961121 123.36024727 16.49751592 119.42152024 15.88623047 115.48266602 C15.29116987 111.65342483 14.69260935 107.8247424 14.09375 103.99609375 C13.91348267 102.82711044 13.73321533 101.65812714 13.54748535 100.45372009 C12.82511341 95.84172565 12.10301954 91.25893893 11.03173828 86.71386719 C9.4178334 79.74898046 8.47504678 72.64565421 7.3984375 65.58203125 C7.15480898 63.99498954 6.91104234 62.40796902 6.66714478 60.82096863 C6.15916688 57.51059698 5.65351748 54.19987979 5.14941406 50.88891602 C4.50448849 46.65492811 3.85269507 42.42202965 3.19904137 38.1893816 C2.69490236 34.91870956 2.19491907 31.64741229 1.69612503 28.37592125 C1.45750851 26.8148634 1.21749287 25.25401871 0.97602463 23.69339943 C0.63905757 21.51213211 0.30783778 19.33006437 -0.02197266 17.14770508 C-0.21135406 15.90910233 -0.40073547 14.67049957 -0.59585571 13.3943634 C-0.97352955 10.22232236 -1.0763767 7.19026211 -1 4 C-2.27200971 5.10281127 -3.54255853 6.20730769 -4.8125 7.3125 C-5.52019531 7.92738281 -6.22789062 8.54226562 -6.95703125 9.17578125 C-8.70136739 10.73334335 -10.36778041 12.32658875 -12 14 C-12.66 13.67 -13.32 13.34 -14 13 C-12.56354149 11.39490066 -11.12579294 9.79095576 -9.6875 8.1875 C-8.88699219 7.29417969 -8.08648437 6.40085938 -7.26171875 5.48046875 C-2.26456693 0 -2.26456693 0 0 0 Z " fill="#D1B2EE" transform="translate(457,124)"/>
<path d="M0 0 C1.375 1.3984375 1.375 1.3984375 3 3.375 C8.30700734 9.60880279 14.00316838 15.48329032 20.27099609 20.75561523 C26.27575421 25.99887098 31.77966486 31.75271319 37.36035728 37.4380188 C40.84859798 40.98757639 44.35257147 44.52157326 47.85351562 48.05859375 C52.29245 52.54555744 56.72660648 57.03699438 61.14575195 61.54345703 C64.73412286 65.2019111 68.33682636 68.84568403 71.94965553 72.47998047 C73.32142835 73.8653617 74.68776427 75.25614818 76.04852867 76.65234375 C77.94416314 78.59603083 79.85749472 80.52045229 81.77612305 82.44140625 C82.33467484 83.02310074 82.89322662 83.60479523 83.46870422 84.20411682 C85.20075087 85.98219165 85.20075087 85.98219165 88 88 C91.01161492 87.92191057 92.33447848 87.49652857 94.72583008 85.71240234 C95.48996216 84.90730225 95.48996216 84.90730225 96.26953125 84.0859375 C96.84396973 83.49353271 97.4184082 82.90112793 98.01025391 82.29077148 C98.60499512 81.65856689 99.19973633 81.0263623 99.8125 80.375 C101.06445792 79.08014463 102.31834569 77.7871522 103.57421875 76.49609375 C104.17024902 75.8810498 104.7662793 75.26600586 105.38037109 74.63232422 C107.21023667 72.78811541 109.12369859 71.09331358 111.125 69.4375 C115.45219583 65.80490827 119.14399625 61.58004395 122.87744141 57.35327148 C126.68454851 53.1051505 126.68454851 53.1051505 130 52 C130.33 51.01 130.66 50.02 131 49 C131.66 49 132.32 49 133 49 C133 48.34 133 47.68 133 47 C133.66 47 134.32 47 135 47 C133.34800863 51.26732045 130.14991497 54.12026364 126.9609375 57.26953125 C126.36125153 57.868759 125.76156555 58.46798676 125.14370728 59.08537292 C123.87339709 60.35266537 122.6006607 61.61752983 121.32568359 62.88012695 C119.3976141 64.79009818 117.47750968 66.70779036 115.55859375 68.62695312 C109.54538768 74.62268975 103.53438598 80.56573995 97 86 C96.40558105 86.49983398 95.81116211 86.99966797 95.19873047 87.51464844 C93.8043074 88.68261303 92.40308474 89.84245509 91 91 C85.62935213 89.51771398 82.55748911 85.92330242 78.79296875 82.05078125 C78.10874344 81.35993942 77.42451813 80.6690976 76.71955872 79.95732117 C74.53497685 77.74938011 72.3607891 75.53155269 70.1875 73.3125 C68.02327993 71.11300293 65.85687046 68.91573006 63.68757629 66.72123718 C62.34072818 65.35766858 60.99699298 63.99101515 59.6570282 62.62068176 C55.85866587 58.76291015 51.94487126 55.11891761 47.83052063 51.59928894 C42.69848723 47.11553491 38.19739892 42.11792882 33.74609375 36.97265625 C29.8910554 32.61741158 25.76208748 28.61831749 21.33984375 24.84375 C16.68285609 20.78814897 12.34041962 16.45181517 8 12.0625 C6.83791016 10.89364258 6.83791016 10.89364258 5.65234375 9.70117188 C3.76589243 7.8030758 1.88183755 5.90266851 0 4 C-3.46629835 5.48653506 -5.69022036 7.45722351 -8.328125 10.1328125 C-9.12734375 10.93847656 -9.9265625 11.74414062 -10.75 12.57421875 C-11.575 13.41597656 -12.4 14.25773437 -13.25 15.125 C-14.09046875 15.97449219 -14.9309375 16.82398438 -15.796875 17.69921875 C-17.86915683 19.79504923 -19.93662393 21.89540713 -22 24 C-22.66 23.67 -23.32 23.34 -24 23 C-2.6890625 0 -2.6890625 0 0 0 Z " fill="#C8B1DB" transform="translate(172,410)"/>
<path d="M0 0 C0.33 0.99 0.66 1.98 1 3 C0.46430893 3.53347046 -0.07138214 4.06694092 -0.62330627 4.61657715 C-5.70075028 9.6738847 -10.7757092 14.73366748 -15.84797764 19.79616547 C-18.45501289 22.3980086 -21.06295874 24.99892444 -23.6730957 27.59765625 C-26.19758893 30.11118893 -28.71954611 32.62724172 -31.239851 35.14497375 C-32.65766679 36.56007513 -34.07801749 37.97263528 -35.49842834 39.38513184 C-39.9959724 43.88229003 -44.36976227 48.41987999 -48.49279785 53.26451111 C-51.16254465 56.33862822 -54.05003816 59.19452609 -56.9375 62.0625 C-57.50662109 62.63548828 -58.07574219 63.20847656 -58.66210938 63.79882812 C-61.53027012 66.6605508 -64.44546849 69.40775013 -67.53344727 72.03125 C-72.95607007 76.75761676 -77.99277255 81.86805295 -83.0625 86.96484375 C-84.1045974 88.00881066 -85.14691909 89.05255372 -86.18945312 90.09608459 C-88.90744446 92.81785922 -91.6224169 95.54262523 -94.33673096 98.26806641 C-97.11717018 101.05881073 -99.90051029 103.84665871 -102.68359375 106.63476562 C-108.12520842 112.08704358 -113.56363103 117.54249109 -119 123 C-121.92823109 121.59407301 -123.99666089 120.24340463 -126.27734375 117.91796875 C-126.87353516 117.31533203 -127.46972656 116.71269531 -128.08398438 116.09179688 C-128.69564453 115.46337891 -129.30730469 114.83496094 -129.9375 114.1875 C-130.54529297 113.57068359 -131.15308594 112.95386719 -131.77929688 112.31835938 C-132.97285504 111.10677552 -134.16455204 109.89335497 -135.35424805 108.67797852 C-137.55339398 106.43576965 -139.77545376 104.21697975 -142 102 C-144.33333333 99.66666667 -146.66666667 97.33333333 -149 95 C-148.505 94.01 -148.505 94.01 -148 93 C-147.5875 93.42410156 -147.175 93.84820312 -146.75 94.28515625 C-143.72154425 97.36093162 -140.66631037 100.33088758 -137.375 103.125 C-131.24927366 108.39118766 -125.66912946 114.25309285 -120 120 C-114.74260471 115.60514612 -109.83020066 110.98296044 -105 106.125 C-104.32710937 105.45597656 -103.65421875 104.78695312 -102.9609375 104.09765625 C-99.68095341 100.81134014 -96.51370795 97.4832781 -93.4921875 93.95703125 C-89.95911919 89.86347618 -86.10857949 86.21219566 -82.125 82.5625 C-76.95946978 77.78083029 -71.89254614 72.94232227 -66.95703125 67.921875 C-64.93666177 65.93779958 -62.83881514 64.09061331 -60.6875 62.25 C-57.73573023 59.7182449 -55.36553868 57.09967138 -53 54 C-51.33333333 52.33333333 -49.66666667 50.66666667 -48 49 C-47.236875 48.05125 -46.47375 47.1025 -45.6875 46.125 C-43.79902817 43.81610196 -41.80461148 41.90849476 -39.5234375 39.98828125 C-34.58980159 35.71789224 -29.9827826 31.13348181 -25.3815918 26.51196289 C-23.93974779 25.06475615 -22.49262884 23.62297974 -21.04492188 22.18164062 C-16.35499087 17.49477083 -11.77509236 12.75948971 -7.48242188 7.70288086 C-5.1240282 4.99375769 -2.57012712 2.50744109 0 0 Z " fill="#D4C8DF" transform="translate(292,197)"/>
<path d="M0 0 C5.86072348 -0.07573882 11.5177563 0.13872605 17.3347168 0.82275391 C18.51015863 0.95477077 18.51015863 0.95477077 19.70934677 1.08945465 C22.28986238 1.38044912 24.86951039 1.67850362 27.44921875 1.9765625 C29.28641157 2.18501761 31.12365752 2.39300492 32.96095276 2.60055542 C37.86016771 3.15519988 42.75868087 3.71581815 47.65705872 4.27780151 C52.71145353 4.85688491 57.76637558 5.43132394 62.82128906 6.00585938 C64.84402485 6.23577709 66.86676045 6.46569652 68.88949585 6.69561768 C69.88751598 6.80904762 70.88553612 6.92247757 71.91379929 7.03934479 C74.93116915 7.38253673 77.94845497 7.7264601 80.96572876 8.07049561 C91.88149386 9.31392969 102.79906943 10.53661657 113.72216225 11.7140007 C115.68213285 11.9253184 117.64199388 12.13765154 119.60185242 12.3500061 C126.61199423 13.10960974 126.61199423 13.10960974 133.62362671 13.85528564 C136.69248743 14.1786512 139.76034446 14.51031857 142.828125 14.84375 C144.1373568 14.97751541 144.1373568 14.97751541 145.47303772 15.11398315 C149.59014141 15.56901954 153.28066563 16.03258239 157 18 C157.92578125 19.953125 157.92578125 19.953125 158.3125 22.25 C158.45042969 23.04792969 158.58835937 23.84585938 158.73046875 24.66796875 C159.05383729 27.46580959 159.14424224 30.18727638 159 33 C158.34 33 157.68 33 157 33 C156.34 28.71 155.68 24.42 155 20 C147.69298037 18.60413277 140.44610192 17.50007589 133.05029297 16.71899414 C132.01595123 16.60647812 130.9816095 16.4939621 129.91592407 16.3780365 C126.52506573 16.01005805 123.1336379 15.6476336 119.7421875 15.28515625 C117.35153056 15.02654765 114.96091645 14.76754283 112.57034302 14.50816345 C106.2839544 13.82696127 99.99708955 13.15026509 93.71008301 12.47479248 C83.70077214 11.3987366 73.69216422 10.31617281 63.68362808 9.23293877 C60.22974959 8.85981633 56.77564761 8.48882601 53.32150269 8.11817932 C42.18579115 6.91974486 31.05447506 5.68489504 19.93017578 4.38452148 C18.84678862 4.26080956 17.76340145 4.13709764 16.64718437 4.00963688 C15.65752741 3.89220851 14.66787045 3.77478014 13.64822388 3.65379333 C12.77232668 3.55147117 11.89642948 3.449149 10.99398994 3.34372616 C9 3 9 3 8 2 C6.65252916 1.76924918 5.29622435 1.58846937 3.9375 1.4375 C2.638125 1.293125 1.33875 1.14875 0 1 C0 0.67 0 0.34 0 0 Z " fill="#CBB8DD" transform="translate(351,9)"/>
<path d="M0 0 C12.24234045 0.62644991 24.37518806 1.81754598 36.5546875 3.1796875 C38.50974145 3.39558506 40.46483057 3.61116447 42.41995239 3.82644653 C47.53610423 4.39072763 52.6517344 4.95960867 57.76727295 5.52941895 C62.89398793 6.09951263 68.02124436 6.66469459 73.1484375 7.23046875 C81.87156392 8.19347357 90.59352207 9.16655822 99.31490707 10.14519882 C104.08537338 10.6791145 108.85673251 11.20193331 113.63043785 11.70607567 C115.55228293 11.90949147 117.47367925 12.11713378 119.39505005 12.32498169 C121.60151996 12.5635397 123.80874562 12.79525708 126.01681519 13.01852417 C127.41252243 13.17201828 127.41252243 13.17201828 128.83642578 13.32861328 C129.62687286 13.41120392 130.41731995 13.49379456 131.23171997 13.57888794 C131.81525238 13.71785492 132.39878479 13.8568219 133 14 C133.33 14.66 133.66 15.32 134 16 C127.35011733 16.11599125 120.93723212 15.68762627 114.33398438 14.93017578 C113.30659149 14.81634552 112.27919861 14.70251526 111.22067261 14.5852356 C107.84448683 14.20997433 104.46913475 13.82770608 101.09375 13.4453125 C98.72599881 13.18064301 96.3582001 12.91639836 93.99035645 12.65255737 C87.76247991 11.95739053 81.53529458 11.25620892 75.30822754 10.55383301 C69.02101871 9.8458494 62.73312494 9.14400477 56.4453125 8.44140625 C17.5428946 4.08931028 17.5428946 4.08931028 0 2 C0 1.34 0 0.68 0 0 Z " fill="#C9BAD7" transform="translate(267,64)"/>
<path d="M0 0 C0.66 0 1.32 0 2 0 C2.13277344 0.91523438 2.26554688 1.83046875 2.40234375 2.7734375 C2.57894531 3.96195313 2.75554688 5.15046875 2.9375 6.375 C3.11152344 7.55835938 3.28554688 8.74171875 3.46484375 9.9609375 C3.83462786 12.90702381 3.83462786 12.90702381 5 15 C5.29221872 17.57558437 5.54192714 20.14537165 5.7734375 22.7265625 C6.6173341 31.37273671 7.8354707 39.93939589 9.1640625 48.5234375 C9.46095978 50.44944794 9.46095978 50.44944794 9.76385498 52.41436768 C10.59015109 57.75348006 11.42187666 63.09168572 12.26464844 68.42822266 C12.68535216 71.09470276 13.10069236 73.76192167 13.5105896 76.43008423 C13.89194021 78.91017278 14.28089223 81.38911006 14.67910767 83.86654663 C15.86400014 91.63438877 16.22199475 99.14633936 16 107 C15.67 107 15.34 107 15 107 C14.87693985 106.18789566 14.7538797 105.37579132 14.62709045 104.53907776 C13.46893925 96.90107708 12.30685372 89.26369051 11.14029789 81.62696934 C10.54064199 77.70045375 9.94253235 73.77371536 9.34790039 69.84643555 C8.77443117 66.05930447 8.19697367 62.27280152 7.61669731 58.48670769 C7.39556944 57.0391822 7.1759012 55.59143298 6.95768929 54.14346504 C6.65277534 52.12183794 6.34227693 50.10105547 6.03149414 48.08032227 C5.85606583 46.92782486 5.68063751 45.77532745 5.49989319 44.58790588 C5.26592239 42.07920123 5.26592239 42.07920123 4 41 C3.71163105 39.0848376 3.48376011 37.1605093 3.28125 35.234375 C3.15363281 34.03296875 3.02601563 32.8315625 2.89453125 31.59375 C2.76433594 30.3253125 2.63414062 29.056875 2.5 27.75 C2.36980469 26.52796875 2.23960937 25.3059375 2.10546875 24.046875 C1.2657638 16.03999141 0.57334742 8.03023644 0 0 Z " fill="#C8BAD3" transform="translate(528,163)"/>
<path d="M0 0 C5.5485825 3.76794858 10.24059654 8.10155587 14.92431641 12.89526367 C17.58188501 15.60767977 20.28434846 18.17813947 23.1875 20.625 C26.87705513 23.76376264 29.96427837 27.28326915 33.12890625 30.94140625 C35.52849736 33.58145743 38.25699877 35.7238926 41 38 C42.80136749 39.99832794 44.5379988 42.04466525 46.28125 44.09375 C48.10720529 46.20952284 48.10720529 46.20952284 51 48.5 C53.38488787 50.48740656 55.15365353 52.25961757 57.12890625 54.6015625 C61.88049013 60.09944882 67.09338732 65.10851819 72.29882812 70.171875 C73.03423828 70.89632812 73.76964844 71.62078125 74.52734375 72.3671875 C75.19499756 73.01800293 75.86265137 73.66881836 76.55053711 74.33935547 C78 76 78 76 78 78 C74.76951252 76.5800745 72.61757512 74.86380613 70.13671875 72.3671875 C69.41419922 71.64273438 68.69167969 70.91828125 67.94726562 70.171875 C67.20154297 69.41390625 66.45582031 68.6559375 65.6875 67.875 C64.95337891 67.14023437 64.21925781 66.40546875 63.46289062 65.6484375 C59.33836082 61.49097001 55.39856762 57.22923859 51.57446289 52.79492188 C49.44118926 50.36294362 47.17856864 48.08273726 44.875 45.8125 C43.66457031 44.61560547 43.66457031 44.61560547 42.4296875 43.39453125 C41.62789063 42.60433594 40.82609375 41.81414062 40 41 C39.13375 40.1234375 38.2675 39.246875 37.375 38.34375 C34.99564221 35.91661786 34.99564221 35.91661786 32.125 33.6875 C28.92997204 31.09051573 26.39633683 28.05299748 23.734375 24.92578125 C21.36467079 22.29455563 18.76936152 20.20290121 16 18 C14.9805881 17.01979625 13.97753644 16.02196992 13 15 C12.38125 14.38125 11.7625 13.7625 11.125 13.125 C8.75 10.75 6.375 8.375 4 6 C3.236875 5.278125 2.47375 4.55625 1.6875 3.8125 C0 2 0 2 0 0 Z " fill="#D3CCD9" transform="translate(229,377)"/>
<path d="M0 0 C-1.29840818 2.86122088 -2.6708277 4.9192895 -4.8984375 7.12890625 C-5.46046875 7.68900391 -6.0225 8.24910156 -6.6015625 8.82617188 C-7.18679687 9.39916016 -7.77203125 9.97214844 -8.375 10.5625 C-8.9525 11.13935547 -9.53 11.71621094 -10.125 12.31054688 C-12.41422202 14.57624949 -14.60141821 16.71539861 -17.2265625 18.58984375 C-19.15765775 19.94962662 -19.15765775 19.94962662 -20.3371582 22.30224609 C-22.09401764 25.15253192 -23.99833844 27.2261348 -26.37890625 29.57421875 C-27.21744141 30.40630859 -28.05597656 31.23839844 -28.91992188 32.09570312 C-29.79197266 32.95099609 -30.66402344 33.80628906 -31.5625 34.6875 C-32.43841797 35.55439453 -33.31433594 36.42128906 -34.21679688 37.31445312 C-35.83441444 38.91463679 -37.45407559 40.51275908 -39.07641602 42.1081543 C-40.38978834 43.39985656 -41.69741764 44.69741764 -43 46 C-43.66 45.67 -44.32 45.34 -45 45 C-44.60012906 40.49334645 -41.39008753 38.02186088 -38.3125 35.0625 C-37.79494141 34.55009766 -37.27738281 34.03769531 -36.74414062 33.50976562 C-34.18714602 31.00371986 -31.58255903 28.61959626 -28.80859375 26.35546875 C-26.48769043 24.40900881 -24.64620079 22.58532098 -22.75 20.25 C-19.28742141 16.18223621 -15.44703572 12.70806795 -11.4375 9.1875 C-8.61227697 6.65204343 -5.97878264 3.97510371 -3.375 1.21484375 C-2 0 -2 0 0 0 Z " fill="#A154E6" transform="translate(79,229)"/>
<path d="M0 0 C5.8113311 34.30024631 5.8113311 34.30024631 8.375 51.375 C8.54225586 52.47110596 8.70951172 53.56721191 8.88183594 54.6965332 C9.591161 59.50278253 10.21776669 64.12537644 10 69 C9.34 69 8.68 69 8 69 C6.82122958 61.41179701 5.64735113 53.82285081 4.47963715 46.23293877 C3.93721363 42.7083038 3.39313632 39.18394106 2.84521484 35.66015625 C2.21473325 31.60492646 1.59156271 27.54860223 0.96875 23.4921875 C0.77188599 22.23260223 0.57502197 20.97301697 0.37219238 19.67526245 C0.19200562 18.49449127 0.01181885 17.31372009 -0.17382812 16.09716797 C-0.33371216 15.06236298 -0.49359619 14.02755798 -0.6583252 12.96139526 C-1.00613159 9.94685575 -1.05977403 7.03169505 -1 4 C-2.27200971 5.10281127 -3.54255853 6.20730769 -4.8125 7.3125 C-5.52019531 7.92738281 -6.22789062 8.54226562 -6.95703125 9.17578125 C-8.70136739 10.73334335 -10.36778041 12.32658875 -12 14 C-12.66 13.67 -13.32 13.34 -14 13 C-12.56354149 11.39490066 -11.12579294 9.79095576 -9.6875 8.1875 C-8.88699219 7.29417969 -8.08648437 6.40085938 -7.26171875 5.48046875 C-2.26456693 0 -2.26456693 0 0 0 Z " fill="#C5B4D3" transform="translate(457,124)"/>
<path d="M0 0 C7.84504601 -0.20791414 15.43776822 0.60567993 23.22265625 1.53125 C24.57737619 1.68863993 25.93214916 1.84557392 27.28697205 2.0020752 C30.82360979 2.41183041 34.35950071 2.82770684 37.89526367 3.24493408 C41.51502527 3.6709503 45.13547033 4.09107416 48.75585938 4.51171875 C55.83791304 5.33543378 62.91919329 6.16562812 70 7 C70 7.33 70 7.66 70 8 C57.05338592 8.32839005 44.5208635 7.55328169 31.67724609 5.91870117 C28.81618501 5.55502387 25.95336641 5.20894429 23.08984375 4.86523438 C21.26550378 4.64161172 19.44127976 4.41704053 17.6171875 4.19140625 C16.76325409 4.08719864 15.90932068 3.98299103 15.0295105 3.87562561 C9.11686442 3.11686442 9.11686442 3.11686442 8 2 C6.65252916 1.76924918 5.29622435 1.58846937 3.9375 1.4375 C2.638125 1.293125 1.33875 1.14875 0 1 C0 0.67 0 0.34 0 0 Z " fill="#D0B7E7" transform="translate(351,9)"/>
<path d="M0 0 C2.31 1.98 4.62 3.96 7 6 C5.93630646 10.25477416 5.58704408 10.6952468 2.375 13.25 C-0.57545688 15.70520162 -3.14683661 18.1932442 -5.625 21.125 C-8.48192268 24.49901276 -11.59987555 27.16656296 -15 30 C-16.88012486 32.06971728 -18.69280276 34.18146638 -20.484375 36.328125 C-22 38 -22 38 -24 39 C-24.33 39.99 -24.66 40.98 -25 42 C-26.7421875 43.75390625 -26.7421875 43.75390625 -28.875 45.5625 C-29.57367188 46.16191406 -30.27234375 46.76132812 -30.9921875 47.37890625 C-33 49 -33 49 -36 51 C-35.58949336 46.51863582 -32.44012291 44.06096978 -29.390625 41.09765625 C-28.82680115 40.53807724 -28.26297729 39.97849823 -27.68206787 39.40196228 C-25.87830721 37.61496768 -24.06442298 35.83866127 -22.25 34.0625 C-21.04358295 32.87113888 -19.83784595 31.6790887 -18.6328125 30.48632812 C-16.40556112 28.28352948 -14.17437687 26.08488716 -11.93847656 23.89086914 C-6.37201786 18.52110337 -6.37201786 18.52110337 -1.3125 12.6875 C-0.549375 11.800625 0.21375 10.91375 1 10 C1.66 10 2.32 10 3 10 C3 9.34 3 8.68 3 8 C3.66 8 4.32 8 5 8 C4.175 7.05125 3.35 6.1025 2.5 5.125 C0 2.25 0 2.25 0 0 Z " fill="#DBD2E3" transform="translate(120,359)"/>
<path d="M0 0 C1.375 1.3984375 1.375 1.3984375 3 3.375 C9.26996733 10.73993044 16.13059897 17.48286398 23.6015625 23.625 C24.06304687 24.07875 24.52453125 24.5325 25 25 C25 25.66 25 26.32 25 27 C21.23396131 25.43717018 18.86360849 23.0936525 16.015625 20.2109375 C15.55516785 19.74765045 15.09471069 19.2843634 14.62030029 18.80703735 C13.15874922 17.33434102 11.70432832 15.85482597 10.25 14.375 C9.25697389 13.37193678 8.26348911 12.36932743 7.26953125 11.3671875 C4.84102059 8.91669165 2.41885325 6.4600333 0 4 C-3.46629835 5.48653506 -5.69022036 7.45722351 -8.328125 10.1328125 C-9.12734375 10.93847656 -9.9265625 11.74414062 -10.75 12.57421875 C-11.575 13.41597656 -12.4 14.25773437 -13.25 15.125 C-14.09046875 15.97449219 -14.9309375 16.82398438 -15.796875 17.69921875 C-17.86915683 19.79504923 -19.93662393 21.89540713 -22 24 C-22.66 23.67 -23.32 23.34 -24 23 C-2.6890625 0 -2.6890625 0 0 0 Z " fill="#D9CEE3" transform="translate(172,410)"/>
<path d="M0 0 C10.50975631 8.91044557 20.42480354 18.28801013 30.125 28.0625 C31.28361712 29.22614753 32.4424699 30.38956046 33.6015625 31.55273438 C36.40375764 34.36580065 39.20277314 37.18199374 42 40 C41.505 40.99 41.505 40.99 41 42 C34.42540885 36.46141211 28.36046395 30.47852828 22.3125 24.375 C21.38888672 23.446875 20.46527344 22.51875 19.51367188 21.5625 C17.79741212 19.83759098 16.08219003 18.11164833 14.3684082 16.38427734 C9.70709145 11.68448456 9.70709145 11.68448456 4.98046875 7.05078125 C4.38878906 6.47714844 3.79710938 5.90351563 3.1875 5.3125 C2.58292969 4.73113281 1.97835937 4.14976562 1.35546875 3.55078125 C0 2 0 2 0 0 Z " fill="#D4C9DD" transform="translate(101,248)"/>
<path d="M0 0 C0 3 0 3 -1.36669922 4.72746277 C-2.00623535 5.36033707 -2.64577148 5.99321136 -3.3046875 6.64526367 C-4.02543457 7.36578415 -4.74618164 8.08630463 -5.48876953 8.82865906 C-6.27622559 9.60063126 -7.06368164 10.37260345 -7.875 11.16796875 C-9.07358643 12.36018791 -9.07358643 12.36018791 -10.29638672 13.57649231 C-12.85732394 16.12059854 -15.42848137 18.65409392 -18 21.1875 C-19.73505674 22.9075157 -21.46944074 24.6282103 -23.203125 26.34960938 C-27.46096689 30.57432329 -31.72725243 34.79036476 -36 39 C-36.66 38.67 -37.32 38.34 -38 38 C-30.67165698 29.66826527 -22.8987182 21.78715494 -15.0625 13.9375 C-14.54895966 13.4214621 -14.03541931 12.90542419 -13.50631714 12.37374878 C-12.01883584 10.88034114 -10.5276705 9.39071976 -9.03515625 7.90234375 C-8.1625415 7.03085693 -7.28992676 6.15937012 -6.39086914 5.26147461 C-4.34356506 3.32497122 -2.29622072 1.62628178 0 0 Z " fill="#C9B7D9" transform="translate(144,437)"/>
<path d="M0 0 C0 3 0 3 -1.36669922 4.72746277 C-2.00623535 5.36033707 -2.64577148 5.99321136 -3.3046875 6.64526367 C-4.02543457 7.36578415 -4.74618164 8.08630463 -5.48876953 8.82865906 C-6.27622559 9.60063126 -7.06368164 10.37260345 -7.875 11.16796875 C-9.07358643 12.36018791 -9.07358643 12.36018791 -10.29638672 13.57649231 C-12.85732394 16.12059854 -15.42848137 18.65409392 -18 21.1875 C-19.73505674 22.9075157 -21.46944074 24.6282103 -23.203125 26.34960938 C-27.46096689 30.57432329 -31.72725243 34.79036476 -36 39 C-36.66 38.67 -37.32 38.34 -38 38 C-30.83613805 29.87638621 -23.27406448 22.16287996 -15.625 14.5 C-14.89697174 13.7682254 -14.89697174 13.7682254 -14.15423584 13.02166748 C-12.74378042 11.60526554 -11.32897796 10.19319659 -9.9140625 8.78125 C-9.0885791 7.95689453 -8.2630957 7.13253906 -7.41259766 6.28320312 C-5.04004199 4.03789442 -2.57989162 2.00141225 0 0 Z " fill="#C4A8D9" transform="translate(102,479)"/>
<path d="M0 0 C0 3 0 3 -1.32873535 4.6894989 C-1.95050659 5.30460831 -2.57227783 5.91971771 -3.21289062 6.5534668 C-3.91361694 7.25396652 -4.61434326 7.95446625 -5.33630371 8.67619324 C-6.10188599 9.42629166 -6.86746826 10.17639008 -7.65625 10.94921875 C-8.43311157 11.72183548 -9.20997314 12.49445221 -10.01037598 13.29048157 C-12.49998527 15.76326115 -14.99980958 18.2254237 -17.5 20.6875 C-19.18687966 22.35933845 -20.87308657 24.03185599 -22.55859375 25.70507812 C-26.69794714 29.81130525 -30.84574107 33.90885641 -35 38 C-35.66 37.67 -36.32 37.34 -37 37 C-31.2526115 30.09866522 -24.93889104 23.78552752 -18.58325195 17.45288086 C-16.80237224 15.67740296 -15.02695394 13.89658756 -13.25195312 12.11523438 C-12.1123 10.97624139 -10.97233707 9.83755829 -9.83203125 8.69921875 C-9.30591751 8.17108078 -8.77980377 7.64294281 -8.23774719 7.09880066 C-5.62765192 4.50523818 -3.01791499 2.11060333 0 0 Z " fill="#C4ACD8" transform="translate(396,184)"/>
<path d="M0 0 C0 3 0 3 -1.36669922 4.72746277 C-2.00623535 5.36033707 -2.64577148 5.99321136 -3.3046875 6.64526367 C-4.02543457 7.36578415 -4.74618164 8.08630463 -5.48876953 8.82865906 C-6.27622559 9.60063126 -7.06368164 10.37260345 -7.875 11.16796875 C-9.07358643 12.36018791 -9.07358643 12.36018791 -10.29638672 13.57649231 C-12.85732394 16.12059854 -15.42848137 18.65409392 -18 21.1875 C-19.73505674 22.9075157 -21.46944074 24.6282103 -23.203125 26.34960938 C-27.46096689 30.57432329 -31.72725243 34.79036476 -36 39 C-36.66 38.67 -37.32 38.34 -38 38 C-29.97534261 29.23133464 -21.77111818 20.66445699 -13.375 12.25 C-12.51036133 11.38084961 -11.64572266 10.51169922 -10.75488281 9.61621094 C-9.93600586 8.79926758 -9.11712891 7.98232422 -8.2734375 7.140625 C-7.54560059 6.41391602 -6.81776367 5.68720703 -6.06787109 4.93847656 C-4.13412306 3.12573047 -2.15294989 1.5420678 0 0 Z " fill="#C5AAD8" transform="translate(270,311)"/>
<path d="M0 0 C0 3 0 3 -1.32873535 4.6894989 C-1.95050659 5.30460831 -2.57227783 5.91971771 -3.21289062 6.5534668 C-3.91361694 7.25396652 -4.61434326 7.95446625 -5.33630371 8.67619324 C-6.10188599 9.42629166 -6.86746826 10.17639008 -7.65625 10.94921875 C-8.43311157 11.72183548 -9.20997314 12.49445221 -10.01037598 13.29048157 C-12.49998527 15.76326115 -14.99980958 18.2254237 -17.5 20.6875 C-19.18687966 22.35933845 -20.87308657 24.03185599 -22.55859375 25.70507812 C-26.69794714 29.81130525 -30.84574107 33.90885641 -35 38 C-35.66 37.67 -36.32 37.34 -37 37 C-30.67435793 29.79152313 -24.07933989 22.92178635 -17.28686523 16.15649414 C-15.66856491 14.5436285 -14.05577743 12.92538475 -12.44335938 11.30664062 C-11.40396687 10.26790782 -10.36426481 9.22948467 -9.32421875 8.19140625 C-7.9333606 6.80223999 -7.9333606 6.80223999 -6.5144043 5.38500977 C-4.42303097 3.40126124 -2.35145951 1.65797006 0 0 Z " fill="#C3A5D9" transform="translate(438,142)"/>
<path d="M0 0 C0 4.04347043 -1.97362122 5.53856742 -4.625 8.3125 C-5.13192383 8.85285889 -5.63884766 9.39321777 -6.16113281 9.94995117 C-15.22042243 19.50835735 -24.64826081 28.72939576 -34 38 C-34.66 37.67 -35.32 37.34 -36 37 C-28.68300345 28.78046643 -21.03795333 20.95209931 -13.19580078 13.23291016 C-9.54875231 9.62693738 -6.18417896 6.02727127 -3 2 C-2.01 1.34 -1.02 0.68 0 0 Z " fill="#CABDD7" transform="translate(311,269)"/>
<path d="M0 0 C0.495 1.485 0.495 1.485 1 3 C-13.85 17.85 -28.7 32.7 -44 48 C-44.66 47.34 -45.32 46.68 -46 46 C-45.29359375 45.36578125 -44.5871875 44.7315625 -43.859375 44.078125 C-36.59199991 37.49078068 -29.56822156 30.67786611 -22.625 23.75 C-21.78163086 22.91114258 -20.93826172 22.07228516 -20.06933594 21.20800781 C-15.72325752 16.85161026 -11.5195173 12.43413523 -7.52856445 7.74902344 C-5.15040231 5.02786809 -2.58600928 2.52293589 0 0 Z " fill="#DACFE4" transform="translate(292,197)"/>
<path d="M0 0 C0 3 0 3 -1.29077148 4.65153503 C-1.89477783 5.24887955 -2.49878418 5.84622406 -3.12109375 6.46166992 C-3.80179932 7.1421489 -4.48250488 7.82262787 -5.18383789 8.52372742 C-5.92754639 9.25195206 -6.67125488 9.9801767 -7.4375 10.73046875 C-8.19216553 11.48088943 -8.94683105 12.23131012 -9.72436523 13.00447083 C-12.14264671 15.40592396 -14.57113771 17.79675349 -17 20.1875 C-18.63870258 21.81116119 -20.2767324 23.43550167 -21.9140625 25.06054688 C-25.93492745 29.04828738 -29.96422965 33.02734819 -34 37 C-34.66 36.67 -35.32 36.34 -36 36 C-28.10955954 27.38873627 -20.06221994 18.95614674 -11.8125 10.6875 C-10.57439575 9.44262817 -10.57439575 9.44262817 -9.3112793 8.17260742 C-8.53437744 7.39763916 -7.75747559 6.6226709 -6.95703125 5.82421875 C-6.26585205 5.13416748 -5.57467285 4.44411621 -4.86254883 3.7331543 C-3 2 -3 2 0 0 Z " fill="#B799D4" transform="translate(353,227)"/>
<path d="M0 0 C1.79244141 0.01740234 1.79244141 0.01740234 3.62109375 0.03515625 C5.41740234 0.04869141 5.41740234 0.04869141 7.25 0.0625 C8.17683594 0.07410156 9.10367187 0.08570313 10.05859375 0.09765625 C10.05859375 0.42765625 10.05859375 0.75765625 10.05859375 1.09765625 C6.09859375 1.09765625 2.13859375 1.09765625 -1.94140625 1.09765625 C-2.04453125 2.93328125 -2.14765625 4.76890625 -2.25390625 6.66015625 C-2.99163618 17.19450572 -4.50478173 27.63989472 -5.94140625 38.09765625 C-6.93140625 37.76765625 -7.92140625 37.43765625 -8.94140625 37.09765625 C-8.25299912 31.98827198 -7.55912981 26.87967135 -6.86010742 21.77172852 C-6.62291232 20.03267708 -6.38723156 18.29341841 -6.15307617 16.55395508 C-5.81693716 14.05885133 -5.47542226 11.56453488 -5.1328125 9.0703125 C-5.02860489 8.28801773 -4.92439728 7.50572296 -4.81703186 6.69972229 C-3.90511503 0.12965189 -3.90511503 0.12965189 0 0 Z " fill="#D0AEEF" transform="translate(267.94140625,-0.09765625)"/>
<path d="M0 0 C0.66 0 1.32 0 2 0 C3.234375 1.29296875 3.234375 1.29296875 4.75 3.1875 C8.32520756 7.39897331 12.21641931 11.17375695 16.25 14.9375 C16.86456055 15.51717529 17.47912109 16.09685059 18.11230469 16.6940918 C18.69915039 17.23718994 19.28599609 17.78028809 19.890625 18.33984375 C20.41688477 18.82831787 20.94314453 19.31679199 21.48535156 19.82006836 C23.11219743 21.22270229 23.11219743 21.22270229 26 22 C27.47265625 23.53125 27.47265625 23.53125 29.0625 25.5 C33.27625053 30.49139547 38.07826843 34.72195566 43 39 C38.73392069 39 36.97214214 36.49791577 34.0625 33.6875 C32.89349777 32.58304896 31.72422071 31.47888875 30.5546875 30.375 C29.66668457 29.53001953 29.66668457 29.53001953 28.76074219 28.66796875 C26.09697879 26.14455895 23.39479131 23.66403152 20.6875 21.1875 C20.19040527 20.73181641 19.69331055 20.27613281 19.18115234 19.80664062 C14.53104982 15.55245668 9.85861798 11.3120371 4.95703125 7.34765625 C4.31121094 6.82042969 3.66539062 6.29320312 3 5.75 C2.4225 5.29109375 1.845 4.8321875 1.25 4.359375 C0 3 0 3 0 0 Z " fill="#CFBCE2" transform="translate(0,496)"/>
<path d="M0 0 C0.66 0.66 1.32 1.32 2 2 C-1.16239582 5.19176092 -4.33068759 8.3776081 -7.5 11.5625 C-8.386875 12.45775391 -9.27375 13.35300781 -10.1875 14.27539062 C-14.73051342 18.8351063 -19.32239313 23.24471224 -24.20898438 27.43383789 C-26.93034892 29.81354803 -29.46815825 32.35930058 -32 34.9375 C-32.48855469 35.43056641 -32.97710937 35.92363281 -33.48046875 36.43164062 C-34.65603525 37.61873229 -35.82838826 38.80900498 -37 40 C-37 37 -37 37 -35.47460938 35.11816406 C-34.77142578 34.42432617 -34.06824219 33.73048828 -33.34375 33.015625 C-32.56773437 32.24476563 -31.79171875 31.47390625 -30.9921875 30.6796875 C-30.16976562 29.87789063 -29.34734375 29.07609375 -28.5 28.25 C-27.70851562 27.46367187 -26.91703125 26.67734375 -26.1015625 25.8671875 C-21.74336023 21.56614198 -17.29875735 17.42433156 -12.62963867 13.46240234 C-10.46277609 11.51790693 -8.76300945 9.31015032 -7 7 C-5.35305515 5.31384218 -3.68873879 3.64429829 -2 2 C-1.34 1.34 -0.68 0.68 0 0 Z " fill="#D3C2E3" transform="translate(246,244)"/>
<path d="M0 0 C15.08627815 0.57189813 30.01275066 2.22629191 45 4 C45 4.33 45 4.66 45 5 C29.79610257 5.49458462 15.06524122 3.989649 0 2 C0 1.34 0 0.68 0 0 Z " fill="#D0B0EE" transform="translate(305,4)"/>
<path d="M0 0 C-1.6713347 4.33700775 -4.87935716 7.18014898 -8.125 10.375 C-8.70741455 10.95427246 -9.2898291 11.53354492 -9.88989258 12.13037109 C-13.54391701 15.71505055 -17.25337966 18.98835378 -21.51171875 21.8515625 C-23.30195664 23.10642402 -23.30195664 23.10642402 -25 26 C-25.66 25.67 -26.32 25.34 -27 25 C-22.2640488 19.55146355 -17.52051678 14.38358523 -11.98828125 9.73828125 C-9.04102046 7.16159942 -6.36278321 4.3370254 -3.6640625 1.50390625 C-2 0 -2 0 0 0 Z " fill="#BCA5D3" transform="translate(79,229)"/>
<path d="M0 0 C5.77363568 4.80490486 11.12543893 9.9422194 16.4375 15.25 C17.26443359 16.0646875 18.09136719 16.879375 18.94335938 17.71875 C20.11415039 18.88664062 20.11415039 18.88664062 21.30859375 20.078125 C22.01814209 20.78356445 22.72769043 21.48900391 23.45874023 22.21582031 C25 24 25 24 25 26 C21.71893495 24.56476266 19.54874414 22.79474921 17.03125 20.26171875 C16.29519531 19.52373047 15.55914062 18.78574219 14.80078125 18.02539062 C13.66189453 16.86813477 13.66189453 16.86813477 12.5 15.6875 C11.74074219 14.92759766 10.98148437 14.16769531 10.19921875 13.38476562 C0 3.10516774 0 3.10516774 0 0 Z " fill="#BEA4D4" transform="translate(282,429)"/>
<path d="M0 0 C1.29486328 0.14759766 2.58972656 0.29519531 3.92382812 0.44726562 C7.09618687 0.81015537 10.26719968 1.18211498 13.4375 1.5625 C13.4375 2.2225 13.4375 2.8825 13.4375 3.5625 C5.29777217 3.81635233 -2.61140144 3.0222933 -10.6875 2.0625 C-11.93015625 1.91941406 -13.1728125 1.77632812 -14.453125 1.62890625 C-17.49020585 1.27847384 -20.5265885 0.92289867 -23.5625 0.5625 C-23.5625 0.2325 -23.5625 -0.0975 -23.5625 -0.4375 C-15.50300581 -1.76174768 -8.07525494 -0.97068282 0 0 Z " fill="#C8ACE0" transform="translate(435.5625,17.4375)"/>
<path d="M0 0 C0 3 0 3 -1.75 5.04296875 C-2.4925 5.75066406 -3.235 6.45835937 -4 7.1875 C-4.7425 7.90292969 -5.485 8.61835938 -6.25 9.35546875 C-6.8275 9.89816406 -7.405 10.44085938 -8 11 C-7.60167969 11.45890625 -7.20335937 11.9178125 -6.79296875 12.390625 C-4.08857938 15.52271585 -1.42008229 18.63877459 1 22 C0.67 22.66 0.34 23.32 0 24 C-3.96 20.04 -7.92 16.08 -12 12 C-8.26704728 7.46712884 -4.61513452 3.62617712 0 0 Z " fill="#CCBED9" transform="translate(228,353)"/>
<path d="M0 0 C0.66 0.33 1.32 0.66 2 1 C0.7121669 2.48250555 -0.58039064 3.96090818 -1.875 5.4375 C-2.59429687 6.26121094 -3.31359375 7.08492188 -4.0546875 7.93359375 C-6 10 -6 10 -8 11 C-8.33 11.99 -8.66 12.98 -9 14 C-10.7421875 15.75390625 -10.7421875 15.75390625 -12.875 17.5625 C-13.57367188 18.16191406 -14.27234375 18.76132812 -14.9921875 19.37890625 C-17 21 -17 21 -20 23 C-19.45634458 19.01583909 -17.56534815 17.21636772 -14.74609375 14.453125 C-13.89208984 13.60878906 -13.03808594 12.76445312 -12.15820312 11.89453125 C-11.26037109 11.02183594 -10.36253906 10.14914062 -9.4375 9.25 C-8.53580078 8.36183594 -7.63410156 7.47367187 -6.70507812 6.55859375 C-4.47662902 4.36551685 -2.24148407 2.17973956 0 0 Z " fill="#DACBE7" transform="translate(104,387)"/>
<path d="M0 0 C0.99 0.33 1.98 0.66 3 1 C-3.6 7.6 -10.2 14.2 -17 21 C-17.66 20.67 -18.32 20.34 -19 20 C-16.77234548 17.60275688 -14.54260279 15.20746553 -12.3125 12.8125 C-11.68666016 12.13896484 -11.06082031 11.46542969 -10.41601562 10.77148438 C-7.00692833 7.11251634 -3.56346011 3.50895212 0 0 Z " fill="#D6C9E2" transform="translate(167,413)"/>
<path d="M0 0 C0.33 0 0.66 0 1 0 C0.67 7.92 0.34 15.84 0 24 C2.31 24 4.62 24 7 24 C7 24.33 7 24.66 7 25 C0.56640914 26.33527357 0.56640914 26.33527357 -1.7421875 24.96875 C-3.69908921 21.90577341 -3.11652257 19.37850592 -2.8125 15.8125 C-2.75715088 15.14210693 -2.70180176 14.47171387 -2.64477539 13.78100586 C-2.20943376 9.00843592 -1.40008181 4.57360059 0 0 Z " fill="#E1D1EF" transform="translate(259,39)"/>
<path d="M0 0 C3.16018158 1.40794082 5.38967063 3.09662205 7.890625 5.4765625 C8.59960938 6.146875 9.30859375 6.8171875 10.0390625 7.5078125 C10.76867187 8.20648438 11.49828125 8.90515625 12.25 9.625 C12.99507812 10.33140625 13.74015625 11.0378125 14.5078125 11.765625 C16.34255477 13.50627793 18.173073 15.25115223 20 17 C19.67 17.66 19.34 18.32 19 19 C16.76858068 17.10676602 14.53984004 15.21052304 12.3125 13.3125 C11.68666016 12.78205078 11.06082031 12.25160156 10.41601562 11.70507812 C6.78737032 8.60838082 3.22474115 5.5207021 0 2 C0 1.34 0 0.68 0 0 Z " fill="#BAA6CE" transform="translate(81,229)"/>
<path d="M0 0 C0.33 0 0.66 0 1 0 C1.5073957 3.20720862 2.004579 6.41592163 2.5 9.625 C2.64308594 10.52863281 2.78617187 11.43226563 2.93359375 12.36328125 C3.63734167 16.95439866 4.18584778 21.33831815 4 26 C3.67 26 3.34 26 3 26 C3 24.35 3 22.7 3 21 C2.34 21 1.68 21 1 21 C-1.39900513 13.80298461 -0.84349132 7.47743661 0 0 Z " fill="#C39CE5" transform="translate(467,187)"/>
<path d="M0 0 C7.15093295 4.85607768 13.00168024 10.82725414 19 17 C19.99786097 18.00213446 20.99667224 19.00333887 22 20 C21.34 20.33 20.68 20.66 20 21 C16.19200859 17.79101847 12.46633743 14.58188201 9 11 C8.175 10.175 7.35 9.35 6.5 8.5 C5.675 7.675 4.85 6.85 4 6 C3.236875 5.278125 2.47375 4.55625 1.6875 3.8125 C0 2 0 2 0 0 Z " fill="#C2A6DB" transform="translate(229,377)"/>
<path d="M0 0 C0.33 0.99 0.66 1.98 1 3 C-5.6 9.6 -12.2 16.2 -19 23 C-19.66 22.67 -20.32 22.34 -21 22 C-20.43152344 21.443125 -19.86304688 20.88625 -19.27734375 20.3125 C-14.85890196 15.94569275 -10.61905057 11.5111312 -6.57421875 6.796875 C-4.48662489 4.41401353 -2.27363401 2.20473601 0 0 Z " fill="#D7C7E4" transform="translate(207,282)"/>
<path d="M0 0 C0.66 0 1.32 0 2 0 C2.13277344 0.90363281 2.26554688 1.80726563 2.40234375 2.73828125 C2.57894531 3.91777344 2.75554688 5.09726563 2.9375 6.3125 C3.11152344 7.48425781 3.28554688 8.65601563 3.46484375 9.86328125 C3.92093031 13.01641403 3.92093031 13.01641403 5 16 C4.91538508 17.73324119 4.76395645 19.46392812 4.5625 21.1875 C4.46066406 22.08855469 4.35882812 22.98960937 4.25390625 23.91796875 C4.17011719 24.60503906 4.08632813 25.29210937 4 26 C3.67 26 3.34 26 3 26 C2.4926043 22.79279138 1.995421 19.58407837 1.5 16.375 C1.35691406 15.47136719 1.21382812 14.56773437 1.06640625 13.63671875 C0.36265833 9.04560134 -0.18584778 4.66168185 0 0 Z " fill="#EFEAF4" transform="translate(528,163)"/>
<path d="M0 0 C-1.32120828 2.93230193 -2.74638197 4.98664899 -5.0390625 7.234375 C-5.90917969 8.09482422 -5.90917969 8.09482422 -6.796875 8.97265625 C-7.40015625 9.55917969 -8.0034375 10.14570313 -8.625 10.75 C-9.23601562 11.35199219 -9.84703125 11.95398438 -10.4765625 12.57421875 C-11.97988624 14.05405305 -13.48934856 15.52764676 -15 17 C-15.66 16.67 -16.32 16.34 -17 16 C-3.38297872 0 -3.38297872 0 0 0 Z " fill="#C8AEDD" transform="translate(376,205)"/>
<path d="M0 0 C0.66 0.33 1.32 0.66 2 1 C-2.62 5.62 -7.24 10.24 -12 15 C-16.85714286 12.57142857 -16.85714286 12.57142857 -19 10 C-19 9.34 -19 8.68 -19 8 C-16.50638429 9.20381448 -14.31856917 10.45428722 -12 12 C-8.04 8.04 -4.08 4.08 0 0 Z " fill="#CEBBE0" transform="translate(185,305)"/>
<path d="M0 0 C0.33 0.99 0.66 1.98 1 3 C-3.95 7.95 -8.9 12.9 -14 18 C-14.66 17.67 -15.32 17.34 -16 17 C-12.4914429 12.81625666 -8.91473058 8.81435287 -5 5 C-3.6078125 3.6078125 -3.6078125 3.6078125 -2.1875 2.1875 C-1.1046875 1.1046875 -1.1046875 1.1046875 0 0 Z " fill="#D1BEE2" transform="translate(376,113)"/>
<path d="M0 0 C0.66 0.66 1.32 1.32 2 2 C-3.94 7.94 -9.88 13.88 -16 20 C-16 17 -16 17 -14.49609375 15.23828125 C-13.81675781 14.60277344 -13.13742188 13.96726562 -12.4375 13.3125 C-8.86757269 9.88232074 -5.5726818 6.32036538 -2.34765625 2.56640625 C-1.59150381 1.68751602 -0.81982149 0.81982149 0 0 Z " fill="#C7AFDD" transform="translate(246,244)"/>
<path d="M0 0 C0 3 0 3 -2.625 5.91796875 C-3.74249406 7.01550756 -4.86785643 8.10507895 -6 9.1875 C-6.57234375 9.74630859 -7.1446875 10.30511719 -7.734375 10.88085938 C-9.14962788 12.26073093 -10.57397155 13.63126734 -12 15 C-12.99 14.67 -13.98 14.34 -15 14 C-13.44073252 12.41348318 -11.87743482 10.83092685 -10.3125 9.25 C-9.44238281 8.36828125 -8.57226562 7.4865625 -7.67578125 6.578125 C-5.21997532 4.21194702 -2.69858952 2.08107444 0 0 Z " fill="#C9B0DC" transform="translate(60,521)"/>
<path d="M0 0 C3.94748746 0.52633166 5.39338893 2.24017453 7.875 5.25 C11.02464867 8.94818298 14.16643076 12.02898384 18 15 C17.34 15.66 16.68 16.32 16 17 C14.08014172 15.10730953 12.16408963 13.21100983 10.25 11.3125 C9.71117187 10.78205078 9.17234375 10.25160156 8.6171875 9.70507812 C5.51387173 6.62068501 2.66327598 3.48423727 0 0 Z " fill="#EEE6F6" transform="translate(265,413)"/>
<path d="M0 0 C0.33 0 0.66 0 1 0 C1.16950701 2.83318859 1.33567534 5.66650988 1.5 8.5 C1.54769531 9.29148438 1.59539063 10.08296875 1.64453125 10.8984375 C1.93392637 15.942181 2.04634887 20.94797268 2 26 C1.34 25.67 0.68 25.34 0 25 C-1.2317047 16.69938138 -1.26841518 8.29348388 0 0 Z " fill="#A187BA" transform="translate(532,179)"/>
<path d="M0 0 C0.33 0.66 0.66 1.32 1 2 C0.154375 2.66 -0.69125 3.32 -1.5625 4 C-4.96178964 6.80178979 -7.69589285 10.02810367 -10.484375 13.42578125 C-10.98453125 13.94527344 -11.4846875 14.46476562 -12 15 C-12.66 15 -13.32 15 -14 15 C-12.41948722 11.14750011 -9.94555446 8.71095984 -7 5.8125 C-6.113125 4.93207031 -5.22625 4.05164063 -4.3125 3.14453125 C-2 1 -2 1 0 0 Z " fill="#CBB9DB" transform="translate(49,257)"/>
<path d="M0 0 C0.33 0.99 0.66 1.98 1 3 C-3.29 7.29 -7.58 11.58 -12 16 C-12.66 15.67 -13.32 15.34 -14 15 C-13.2575 14.278125 -12.515 13.55625 -11.75 12.8125 C-9.036498 10.1304054 -9.036498 10.1304054 -7 7.5 C-4.83775131 4.79718914 -2.47992807 2.41104118 0 0 Z " fill="#C4B1D8" transform="translate(83,408)"/>
<path d="M0 0 C0.66 0.33 1.32 0.66 2 1 C-0.28356246 3.34138543 -2.57813374 5.67166982 -4.875 8 C-5.85146484 9.00160156 -5.85146484 9.00160156 -6.84765625 10.0234375 C-7.47285156 10.65507812 -8.09804688 11.28671875 -8.7421875 11.9375 C-9.3182373 12.52402344 -9.89428711 13.11054688 -10.48779297 13.71484375 C-12 15 -12 15 -14 15 C-12.46000416 11.16751036 -10.08835992 9.05935935 -7 6.375 C-6.113125 5.59898437 -5.22625 4.82296875 -4.3125 4.0234375 C-3.1678125 3.02183594 -3.1678125 3.02183594 -2 2 C-1.34 1.34 -0.68 0.68 0 0 Z " fill="#D2CBD8" transform="translate(290,473)"/>
<path d="M0 0 C0.33 0.99 0.66 1.98 1 3 C-2.63 6.63 -6.26 10.26 -10 14 C-10.66 13.67 -11.32 13.34 -12 13 C-8.04 8.71 -4.08 4.42 0 0 Z " fill="#D7C7E5" transform="translate(244,336)"/>
<path d="M0 0 C0.33 0.99 0.66 1.98 1 3 C-2.3 6.3 -5.6 9.6 -9 13 C-9.66 12.67 -10.32 12.34 -11 12 C-7.37 8.04 -3.74 4.08 0 0 Z " fill="#D1BEE2" transform="translate(117,463)"/>
<path d="M0 0 C0.99 0.33 1.98 0.66 3 1 C-0.63 4.63 -4.26 8.26 -8 12 C-8.66 11.67 -9.32 11.34 -10 11 C-6.7 7.37 -3.4 3.74 0 0 Z " fill="#D5C8E1" transform="translate(285,295)"/>
<path d="M0 0 C4.52615993 3.67832017 8.39424999 7.41086363 12 12 C9 12 9 12 6.73828125 9.8828125 C5.93777344 8.97273438 5.13726562 8.06265625 4.3125 7.125 C3.50425781 6.22007812 2.69601562 5.31515625 1.86328125 4.3828125 C0 2 0 2 0 0 Z " fill="#AD96C2" transform="translate(282,429)"/>
<path d="M0 0 C0 2 0 2 -1.64453125 3.65625 C-2.35996094 4.2646875 -3.07539062 4.873125 -3.8125 5.5 C-4.87404297 6.41265625 -4.87404297 6.41265625 -5.95703125 7.34375 C-8 9 -8 9 -11 11 C-10.42073787 7.46180427 -9.15676523 5.74971757 -6.625 3.25 C-6.01914063 2.63640625 -5.41328125 2.0228125 -4.7890625 1.390625 C-3 0 -3 0 0 0 Z " fill="#D1BDE3" transform="translate(95,399)"/>
<path d="M0 0 C0.99 0.33 1.98 0.66 3 1 C-0.3 4.3 -3.6 7.6 -7 11 C-7.66 10.67 -8.32 10.34 -9 10 C-6.03 6.7 -3.06 3.4 0 0 Z " fill="#CCB6DF" transform="translate(73,507)"/>
<path d="M0 0 C0.33 0 0.66 0 1 0 C1.66 5.61 2.32 11.22 3 17 C2.34 17 1.68 17 1 17 C-0.53266582 13.93466836 -0.10276471 10.73245728 -0.0625 7.375 C-0.05798828 6.66859375 -0.05347656 5.9621875 -0.04882812 5.234375 C-0.03703875 3.48954725 -0.01910324 1.744763 0 0 Z " fill="#C9A2EC" transform="translate(479,265)"/>
<path d="M0 0 C0.99 0.33 1.98 0.66 3 1 C0.03 3.97 -2.94 6.94 -6 10 C-6.33 9.01 -6.66 8.02 -7 7 C-4.69 4.69 -2.38 2.38 0 0 Z " fill="#C7B9D5" transform="translate(167,413)"/>
<path d="M0 0 C0.66 0.66 1.32 1.32 2 2 C-0.97 4.97 -3.94 7.94 -7 11 C-7.99 10.67 -8.98 10.34 -10 10 C-6.66666667 6.66666667 -3.33333333 3.33333333 0 0 Z " fill="#D5C4E3" transform="translate(39,452)"/>
<path d="M0 0 C0.99 0.33 1.98 0.66 3 1 C2.51789062 1.39832031 2.03578125 1.79664063 1.5390625 2.20703125 C0.90742187 2.73683594 0.27578125 3.26664063 -0.375 3.8125 C-1.00148438 4.33457031 -1.62796875 4.85664063 -2.2734375 5.39453125 C-4.2221048 7.08225739 -4.2221048 7.08225739 -6 10 C-6.66 9.67 -7.32 9.34 -8 9 C-5.36 6.03 -2.72 3.06 0 0 Z " fill="#D1C5DC" transform="translate(60,245)"/>
<path d="M0 0 C3 3 3 3 3.29296875 5.04296875 C3.1953125 7.02864583 3.09765625 9.01432292 3 11 C2.01 11.495 2.01 11.495 1 12 C0.67 8.04 0.34 4.08 0 0 Z " fill="#F5F2F9" transform="translate(526,150)"/>
<path d="M0 0 C0.33 0.99 0.66 1.98 1 3 C-1.31 4.98 -3.62 6.96 -6 9 C-6 6 -6 6 -4.6875 4.39453125 C-4.130625 3.87246094 -3.57375 3.35039063 -3 2.8125 C-2.443125 2.28269531 -1.88625 1.75289063 -1.3125 1.20703125 C-0.6628125 0.60955078 -0.6628125 0.60955078 0 0 Z " fill="#DED0EB" transform="translate(376,113)"/>
<path d="M0 0 C3.36591866 1.44253657 5.51047079 3.33264727 8 6 C7.67 6.66 7.34 7.32 7 8 C5.8274869 7.04882866 4.66212985 6.08882991 3.5 5.125 C2.8503125 4.59132813 2.200625 4.05765625 1.53125 3.5078125 C1.0259375 3.01023437 0.520625 2.51265625 0 2 C0 1.34 0 0.68 0 0 Z " fill="#CCC3D5" transform="translate(135,282)"/>
<path d="M0 0 C0.99 0.33 1.98 0.66 3 1 C0.36 3.64 -2.28 6.28 -5 9 C-5.66 8.67 -6.32 8.34 -7 8 C-4.69 5.36 -2.38 2.72 0 0 Z " fill="#CEBDDD" transform="translate(324,255)"/>
<path d="M0 0 C0.33 0.99 0.66 1.98 1 3 C-0.65 4.65 -2.3 6.3 -4 8 C-4.99 7.67 -5.98 7.34 -7 7 C-4.69 4.69 -2.38 2.38 0 0 Z " fill="#E3DBEB" transform="translate(292,197)"/>
<path d="M0 0 C0.33 0.99 0.66 1.98 1 3 C-0.65 4.65 -2.3 6.3 -4 8 C-4.99 7.67 -5.98 7.34 -7 7 C-4.69 4.69 -2.38 2.38 0 0 Z " fill="#E0D1EA" transform="translate(334,155)"/>
<path d="M0 0 C0 3 0 3 -1.53125 4.60546875 C-2.1809375 5.12753906 -2.830625 5.64960938 -3.5 6.1875 C-4.1496875 6.71730469 -4.799375 7.24710938 -5.46875 7.79296875 C-5.9740625 8.19128906 -6.479375 8.58960938 -7 9 C-7 6 -7 6 -5.46875 4.39453125 C-4.49421875 3.61142578 -4.49421875 3.61142578 -3.5 2.8125 C-2.8503125 2.28269531 -2.200625 1.75289062 -1.53125 1.20703125 C-1.0259375 0.80871094 -0.520625 0.41039062 0 0 Z " fill="#C8B3DB" transform="translate(438,142)"/>
<path d="M0 0 C1.14926266 0.95421808 2.29430541 1.91352045 3.4375 2.875 C4.07558594 3.40867187 4.71367187 3.94234375 5.37109375 4.4921875 C7 6 7 6 8 8 C3.75177626 7.52797514 1.80010291 5.03344482 -1 2 C-0.67 1.34 -0.34 0.68 0 0 Z " fill="#B8A6C7" transform="translate(259,405)"/>
<path d="M0 0 C3.25543229 0.34879632 4.01873107 1.02133261 6.25 3.5625 C6.8275 4.366875 7.405 5.17125 8 6 C5 6 5 6 3.61328125 4.6875 C2.40885417 3.125 1.20442708 1.5625 0 0 Z " fill="#BEB1C9" transform="translate(113,261)"/>
<path d="M0 0 C0 3 0 3 -1.3125 4.38671875 C-2.875 5.59114583 -4.4375 6.79557292 -6 8 C-6 5 -6 5 -4.6875 3.61328125 C-3.125 2.40885417 -1.5625 1.20442708 0 0 Z " fill="#D4C7DF" transform="translate(144,437)"/>
<path d="M0 0 C0.33 0.99 0.66 1.98 1 3 C-0.32 4.32 -1.64 5.64 -3 7 C-3.99 6.67 -4.98 6.34 -6 6 C-4.02 4.02 -2.04 2.04 0 0 Z " fill="#DFD0E9" transform="translate(207,282)"/>
<path d="M0 0 C0 3 0 3 -1.3125 4.38671875 C-2.875 5.59114583 -4.4375 6.79557292 -6 8 C-5.65120368 4.74456771 -4.97866739 3.98126893 -2.4375 1.75 C-1.633125 1.1725 -0.82875 0.595 0 0 Z " fill="#C0ACD2" transform="translate(353,227)"/>
<path d="M0 0 C-1.39332574 3.36720387 -2.9789286 4.9859524 -6 7 C-6 4 -6 4 -4.125 1.8125 C-2 0 -2 0 0 0 Z " fill="#BC9FD4" transform="translate(382,199)"/>
<path d="M0 0 C3.36720387 1.39332574 4.9859524 2.9789286 7 6 C3.75728494 5.4409112 2.06942576 4.5867822 0 2 C0 1.34 0 0.68 0 0 Z " fill="#B69DCD" transform="translate(293,441)"/>
<path d="M0 0 C2.88437779 1.29299694 4.87219421 2.65941363 7 5 C6.67 5.66 6.34 6.32 6 7 C3.95880212 5.38405168 1.95927063 3.7143618 0 2 C0 1.34 0 0.68 0 0 Z " fill="#DBD4E0" transform="translate(94,241)"/>
</svg>
