<?xml version="1.0" encoding="UTF-8"?>
<svg version="1.1" xmlns="http://www.w3.org/2000/svg" width="588" height="485">
<path d="M0 0 C1.02738281 0.64582031 2.05476563 1.29164062 3.11328125 1.95703125 C13.04646992 8.28283622 21.68236681 15.89747937 29.24609375 24.9375 C31.31455687 27.36990206 33.50187868 29.67236525 35.6875 32 C56.51368802 55.00677523 71.70606835 84.26236586 77 115 C77.17370117 115.90717773 77.34740234 116.81435547 77.52636719 117.74902344 C79.04421495 126.34836978 79.30839449 134.72569139 79.26074219 143.42773438 C79.25007704 145.73334436 79.26067233 148.03816432 79.2734375 150.34375 C79.28753922 164.09731842 78.20089139 177.73881229 74.875 191.125 C74.66109619 191.98988037 74.44719238 192.85476074 74.22680664 193.74584961 C69.06996059 213.84944947 61.50115112 230.74827332 50 248 C50.65875594 247.99907821 51.31751188 247.99815641 51.99623013 247.99720669 C68.00267491 247.97515164 84.00911444 247.95858854 100.01557064 247.94818783 C107.75607282 247.94302483 115.49656487 247.93598207 123.23706055 247.92456055 C129.98127151 247.91461381 136.72547515 247.9081466 143.46969324 247.90591151 C147.04286866 247.90460438 150.6160231 247.90151842 154.18919182 247.89426994 C158.17162351 247.88625628 162.15403441 247.88600886 166.13647461 247.88647461 C167.32977386 247.88287933 168.52307312 247.87928406 169.75253296 247.87557983 C171.37011253 247.87764183 171.37011253 247.87764183 173.02037048 247.87974548 C173.96336471 247.87882369 174.90635893 247.8779019 175.87792873 247.87695217 C178 248 178 248 179 249 C179.0942174 251.11681317 179.11742761 253.23680758 179.11352539 255.35571289 C179.11367142 256.01910172 179.11381744 256.68249054 179.1139679 257.36598206 C179.11326881 259.56823956 179.10547665 261.77041345 179.09765625 263.97265625 C179.09579206 265.49580336 179.09436816 267.01895107 179.09336853 268.542099 C179.08954346 272.55837651 179.07971328 276.57461808 179.06866455 280.59088135 C179.05845019 284.68623366 179.05387086 288.78159176 179.04882812 292.87695312 C179.038091 300.91798528 179.02101472 308.95898817 179 317 C150.23700871 317.0700052 121.47403013 317.12294649 92.71097088 317.15543652 C79.35651771 317.17092152 66.00212373 317.1920422 52.64770508 317.22631836 C41.01131923 317.25617075 29.37497165 317.27556311 17.73854858 317.28226548 C11.57414725 317.2861848 5.40985543 317.29542958 -0.75451088 317.31719017 C-6.55170086 317.33748961 -12.3487358 317.34384708 -18.14595795 317.33932304 C-20.2781197 317.34015118 -22.41028642 317.34615558 -24.54241753 317.35761642 C-27.44487869 317.37245813 -30.34674804 317.36898411 -33.2492218 317.36076355 C-34.10038285 317.36950207 -34.9515439 317.3782406 -35.82849771 317.38724393 C-41.56350269 317.3430884 -41.56350269 317.3430884 -43.71497697 315.65202218 C-45.69080278 313.1119058 -45.38150762 310.93354232 -45.38818359 307.75610352 C-45.39764008 306.467892 -45.40709656 305.17968048 -45.4168396 303.85243225 C-45.41146934 302.44458713 -45.40531626 301.03674481 -45.3984375 299.62890625 C-45.40045855 298.18545891 -45.40337025 296.74201257 -45.40713501 295.29856873 C-45.41155835 292.27308431 -45.40512823 289.24786563 -45.39111328 286.22241211 C-45.37403634 282.34736969 -45.38385249 278.4729513 -45.40183067 274.59793186 C-45.41268152 271.61674821 -45.40921601 268.63571199 -45.4014473 265.65452385 C-45.39944807 264.22600162 -45.40189483 262.79746595 -45.40888596 261.36895943 C-45.41651919 259.37040595 -45.40281845 257.37180548 -45.38818359 255.37329102 C-45.38579681 254.23650406 -45.38341003 253.0997171 -45.38095093 251.92848206 C-44.96131857 248.70264443 -44.28415284 247.28548102 -42 245 C-41.34 245 -40.68 245 -40 245 C-40 244.34 -40 243.68 -40 243 C-38.68 242.67 -37.36 242.34 -36 242 C-36 241.34 -36 240.68 -36 240 C-34.3623728 238.54597658 -32.66265804 237.16151322 -30.9375 235.8125 C-9.31274387 218.40788123 3.80328494 194.66554384 7 167 C7.31793922 161.45536464 7.39081989 155.92770447 7.375 150.375 C7.37412384 149.62299316 7.37324768 148.87098633 7.37234497 148.09619141 C7.32836501 136.64983595 6.73513839 125.89766081 3 115 C2.74798828 114.24348145 2.49597656 113.48696289 2.23632812 112.70751953 C-1.04646699 103.06972117 -4.91308964 94.23445666 -11 86 C-11.61617188 85.16339844 -12.23234375 84.32679687 -12.8671875 83.46484375 C-19.20835701 75.2264167 -26.17918398 67.5710417 -35 62 C-35 61.34 -35 60.68 -35 60 C-35.74378906 59.72542969 -36.48757813 59.45085937 -37.25390625 59.16796875 C-39.79466728 58.08733212 -41.71164317 56.92128761 -43.9375 55.3125 C-71.99414929 36.37771698 -109.12339345 31.62974843 -142 38 C-169.64546353 43.64951056 -191.70353655 57.93735344 -211 78 C-211.83660156 78.78890625 -212.67320312 79.5778125 -213.53515625 80.390625 C-216.48115399 83.50936746 -218.69193974 86.79605094 -220.9375 90.4375 C-221.58936279 91.49420898 -221.58936279 91.49420898 -222.25439453 92.57226562 C-237.03213922 117.05701417 -241.86716005 150.0252794 -235.375 178.0625 C-234.68342466 180.74703568 -233.88319008 183.37276332 -233 186 C-232.79101074 186.64098633 -232.58202148 187.28197266 -232.36669922 187.94238281 C-226.89954397 204.2168959 -217.57392351 217.50637359 -206 230 C-205.19175781 230.87914062 -204.38351563 231.75828125 -203.55078125 232.6640625 C-199.39711704 236.99895115 -195.18011128 240.49730955 -190.04296875 243.61328125 C-187.62843274 245.25221105 -185.86763677 246.73987582 -184 249 C-183.49206543 251.88378906 -183.49206543 251.88378906 -183.48242188 255.265625 C-183.46981323 256.53374023 -183.45720459 257.80185547 -183.44421387 259.10839844 C-183.4513737 260.48893795 -183.45957769 261.86947239 -183.46875 263.25 C-183.46605438 264.66959906 -183.46217137 266.08919631 -183.45715332 267.50878906 C-183.45126142 270.48129894 -183.45981046 273.45332741 -183.47851562 276.42578125 C-183.501306 280.23258787 -183.48818112 284.03826649 -183.46422577 287.84503174 C-183.44975886 290.77563956 -183.45437765 293.70598074 -183.46473694 296.63659668 C-183.46740181 298.03999974 -183.46414283 299.44342715 -183.45481873 300.84680176 C-183.44464059 302.80932135 -183.4629096 304.77192602 -183.48242188 306.734375 C-183.48560425 307.85038086 -183.48878662 308.96638672 -183.49206543 310.11621094 C-184.1468129 313.83352748 -184.96199613 314.76685747 -188 317 C-191.0489877 317.38630046 -193.73389472 317.52758924 -196.78164673 317.48774719 C-197.67795126 317.49187046 -198.5742558 317.49599372 -199.49772108 317.50024194 C-202.50741592 317.50918711 -205.51624396 317.48949442 -208.52587891 317.4699707 C-210.68083298 317.47047935 -212.83578726 317.4727341 -214.99073792 317.47660828 C-220.84801053 317.48203661 -226.70496793 317.46259261 -232.56218386 317.43850732 C-238.68315955 317.4172497 -244.80413364 317.41780771 -250.92514038 317.41581726 C-261.20307865 317.40936568 -271.48089808 317.38810175 -281.75878906 317.35668945 C-294.96614155 317.31637796 -308.1734166 317.299 -321.38082314 317.28938007 C-332.71838502 317.28108852 -344.05593039 317.26384807 -355.39347792 317.24434257 C-359.04661587 317.23826869 -362.69975445 317.23312965 -366.35289383 317.2279911 C-372.08363076 317.21922729 -377.81432904 317.20493719 -383.54504204 317.1862812 C-385.65342599 317.18014412 -387.76181563 317.1757021 -389.87020683 317.17303848 C-392.73761523 317.16907486 -395.6049353 317.15897427 -398.47232056 317.14717102 C-399.31588407 317.14735538 -400.15944759 317.14753975 -401.02857363 317.14772969 C-406.7715262 317.1142369 -406.7715262 317.1142369 -409 316 C-409 293.56 -409 271.12 -409 248 C-366.43 247.67 -323.86 247.34 -280 247 C-282.64 243.37 -285.28 239.74 -288 236 C-290.0167966 232.19137755 -291.87967901 228.48493387 -293.625 224.5625 C-294.32592773 223.00160645 -294.32592773 223.00160645 -295.04101562 221.40917969 C-314.48276741 177.07711842 -313.28800486 125.63822075 -295.94360352 80.89990234 C-289.14854707 63.85432799 -280.26988678 46.92067923 -267 34 C-266.13217872 32.82244186 -265.27962876 31.63356693 -264.4375 30.4375 C-252.82029868 14.77188004 -233.70202619 -1.76599127 -215 -8 C-215 -8.66 -215 -9.32 -215 -10 C-196.70550154 -19.7446748 -177.37812688 -27.87899823 -157 -32 C-155.79827148 -32.24339111 -155.79827148 -32.24339111 -154.57226562 -32.49169922 C-100.11223117 -42.82289996 -45.70497229 -30.41537582 0 0 Z " fill="#9435E9" transform="translate(409,35)"/>
<path d="M0 0 C0.98771873 -0.00145344 1.97543746 -0.00290688 2.99308705 -0.00440437 C6.34103833 -0.00808724 9.68894472 -0.0045674 13.03689575 -0.0011425 C15.44608013 -0.00229342 17.85526433 -0.00388074 20.26444817 -0.00586975 C25.52219734 -0.00918829 30.77993296 -0.00936553 36.03768158 -0.00682259 C43.85593454 -0.00305145 51.6741788 -0.00496792 59.4924317 -0.00803089 C73.45307518 -0.01330637 87.41371408 -0.01283638 101.374358 -0.00995198 C113.59127781 -0.00744013 125.80819595 -0.00677799 138.02511597 -0.00797462 C139.23891415 -0.0080892 139.23891415 -0.0080892 140.47723351 -0.00820609 C143.76172563 -0.00851741 147.04621775 -0.00883581 150.33070987 -0.00916586 C181.16533855 -0.01222744 211.99996432 -0.00944731 242.83459255 -0.00406896 C270.25180065 0.00067693 297.6690041 0.00025231 325.08621216 -0.00452995 C355.86309696 -0.00988024 386.63997919 -0.01201034 417.4168644 -0.00891769 C420.69550196 -0.00859695 423.97413953 -0.00828411 427.2527771 -0.00797462 C428.06010913 -0.00789555 428.86744117 -0.00781647 429.69923781 -0.007735 C441.91089191 -0.00659573 454.12254415 -0.00793114 466.334198 -0.01045418 C480.21417673 -0.01330754 494.09415017 -0.01261123 507.97412825 -0.00717343 C515.74996925 -0.00422788 523.5257988 -0.00405878 531.30163952 -0.00781961 C537.09347283 -0.01031282 542.88529592 -0.00762673 548.67712808 -0.00284503 C551.03105852 -0.00172051 553.38499049 -0.00231279 555.73891997 -0.00472082 C558.91860018 -0.00772608 562.09821631 -0.00467894 565.27789307 0 C566.20900508 -0.00234117 567.1401171 -0.00468233 568.09944463 -0.00709444 C574.41064581 0.01169078 574.41064581 0.01169078 576.63894653 1.12584114 C576.63894653 22.57584114 576.63894653 44.02584114 576.63894653 66.12584114 C382.59894653 66.12584114 188.55894653 66.12584114 -11.36105347 66.12584114 C-11.36105347 44.67584114 -11.36105347 23.22584114 -11.36105347 1.12584114 C-7.88029308 -0.61453905 -3.83185891 -0.00963474 0 0 Z " fill="#9437E9" transform="translate(11.361053466796875,418.87415885925293)"/>
<path d="M0 0 C0.66 0 1.32 0 2 0 C1 3 1 3 -1 4 C-3.85960732 4.09597373 -6.69478572 4.13009766 -9.55459595 4.12025452 C-10.45060276 4.12110894 -11.34660958 4.12196337 -12.26976812 4.12284368 C-15.29005417 4.12449862 -18.31028542 4.11897686 -21.33056641 4.11352539 C-23.48846943 4.1132435 -25.64637255 4.1134013 -27.80427551 4.1139679 C-33.67794504 4.11425578 -39.55159431 4.10836048 -45.42525911 4.10139394 C-51.55786824 4.09515893 -57.69047779 4.09455648 -63.8230896 4.09336853 C-75.44300637 4.09025565 -87.06291377 4.08204284 -98.6828264 4.07201904 C-111.9087384 4.06085657 -125.13465084 4.05534711 -138.36056638 4.05032361 C-165.57371612 4.0398602 -192.78685754 4.02226159 -220 4 C-220 3.34 -220 2.68 -220 2 C-218.87225442 1.99576806 -217.74450884 1.99153612 -216.58258915 1.98717594 C-189.18491803 1.8841374 -161.78727404 1.77540925 -134.38964939 1.66066074 C-121.14055338 1.60530275 -107.89145467 1.55181659 -94.64233398 1.50268555 C-83.09897423 1.4598752 -71.55563452 1.41360529 -60.01230568 1.36312145 C-53.8960892 1.33649506 -47.77987676 1.31164145 -41.66363716 1.29092598 C-35.9140753 1.2713979 -30.16455166 1.24726583 -24.4150238 1.21950912 C-22.29816314 1.21011833 -20.18129406 1.20245041 -18.0644207 1.19658089 C-15.18768521 1.18835402 -12.31104337 1.17408729 -9.43434143 1.15821838 C-8.5851366 1.15724028 -7.73593176 1.15626217 -6.86099344 1.15525442 C-3.12592943 1.48692579 -3.12592943 1.48692579 0 0 Z " fill="#D1C8D8" transform="translate(222,348)"/>
<path d="M0 0 C40.13034541 -0.80421534 78.59104412 2.12171716 114 23 C113.34 23.33 112.68 23.66 112 24 C109.4470532 22.87852694 106.98553843 21.69408083 104.5 20.4375 C77.55898337 7.37267825 48.25717243 2.90158882 18.5625 2.375 C16.7519368 2.33670181 14.9413895 2.29764384 13.13085938 2.2578125 C8.75403961 2.1631429 4.37713555 2.0786599 0 2 C0 1.34 0 0.68 0 0 Z " fill="#BCA9CF" transform="translate(275,0)"/>
<path d="M0 0 C0.66 0 1.32 0 2 0 C1.65354653 6.35164703 -1.66691916 10.94165547 -4.9375 16.1875 C-5.48857422 17.08919922 -6.03964844 17.99089844 -6.60742188 18.91992188 C-8.68899007 22.31669719 -10.79000745 25.68501118 -13 29 C28.91 29 70.82 29 114 29 C114 29.33 114 29.66 114 30 C71.43 30 28.86 30 -15 30 C-14.07673914 25.3836957 -13.41050429 23.75205669 -10.875 20.0625 C-6.64451806 13.65108637 -3.31898698 6.91035283 0 0 Z " fill="#F7F0FD" transform="translate(472,254)"/>
<path d="M0 0 C3 1 3 1 4.76171875 4.17578125 C5.41117405 5.5511578 6.0526282 6.93033119 6.6875 8.3125 C9.82008613 14.89240851 13.3123532 20.78705241 17.53125 26.7421875 C19 29 19 29 19 31 C-24.56 31 -68.12 31 -113 31 C-113 30.67 -113 30.34 -113 30 C-70.43 29.67 -27.86 29.34 16 29 C13.36 25.37 10.72 21.74 8 18 C6.37614702 14.94775783 4.88485736 12.01930729 3.5 8.875 C3.15453125 8.1221875 2.8090625 7.369375 2.453125 6.59375 C0 1.20076885 0 1.20076885 0 0 Z " fill="#F7F0FD" transform="translate(113,253)"/>
<path d="M0 0 C0.33 0 0.66 0 1 0 C3.80337217 12.34818694 4.30989311 24.5174372 4.3125 37.125 C4.31572266 37.87978638 4.31894531 38.63457275 4.32226562 39.41223145 C4.36087267 54.25583466 3.18782726 68.76027276 -0.5 83.1875 C-0.71269531 84.06212891 -0.92539062 84.93675781 -1.14453125 85.83789062 C-2.24544003 90.29893508 -3.46701163 94.66363013 -5 99 C-5.66 99 -6.32 99 -7 99 C-6.72285156 97.7728125 -6.44570313 96.545625 -6.16015625 95.28125 C-4.84739181 89.36860521 -3.63552656 83.43680818 -2.4375 77.5 C-2.10588867 75.88544922 -2.10588867 75.88544922 -1.76757812 74.23828125 C0.46197427 63.1780848 1.16199216 52.66332305 1.13037109 41.39892578 C1.12502829 39.13697557 1.13033324 36.87522531 1.13671875 34.61328125 C1.13971672 27.4495543 0.97932413 20.3708526 0.22265625 13.23925781 C-0.05733412 10.42338978 -0.09923016 7.64072211 -0.0625 4.8125 C-0.05347656 3.89082031 -0.04445313 2.96914062 -0.03515625 2.01953125 C-0.02355469 1.35308594 -0.01195312 0.68664062 0 0 Z " fill="#C9A3EC" transform="translate(484,144)"/>
<path d="M0 0 C0.66 0 1.32 0 2 0 C2.9536462 2.34862381 3.88736409 4.70263795 4.8125 7.0625 C5.07353516 7.69994141 5.33457031 8.33738281 5.60351562 8.99414062 C10.30541777 21.12620912 11.50080825 33.39316678 11.39111328 46.26123047 C11.37500726 48.49899187 11.39108071 50.73494835 11.41015625 52.97265625 C11.4309013 67.04156321 8.86344621 79.74278876 4 93 C3.34 93 2.68 93 2 93 C3.00323674 87.53444986 4.56761714 82.2342225 6.0625 76.88671875 C8.31194631 67.56088926 8.28116876 58.16420628 8.3125 48.625 C8.31511841 47.86532928 8.31773682 47.10565857 8.32043457 46.32296753 C8.32601411 31.22970239 6.40105495 18.09186003 0.734375 3.96875 C0 2 0 2 0 0 Z " fill="#C7B4D8" transform="translate(408,137)"/>
<path d="M0 0 C0.66 0 1.32 0 2 0 C1.14368114 4.99358974 -0.47203132 9.71766201 -2.09570312 14.50195312 C-5.5418696 25.10952259 -6.35115576 35.70882996 -6.31567383 46.80810547 C-6.31251367 48.86609994 -6.33607732 50.9226504 -6.36132812 52.98046875 C-6.39792413 61.0699968 -5.57727124 68.36705713 -3.64526367 76.21142578 C-3 79 -3 79 -3 82 C-3.66 82 -4.32 82 -5 82 C-5.48473678 80.31409158 -5.96248926 78.62617455 -6.4375 76.9375 C-6.83775391 75.52791016 -6.83775391 75.52791016 -7.24609375 74.08984375 C-13.21926639 49.60912065 -8.81039714 23.03819057 0 0 Z " fill="#CDBDD9" transform="translate(178,138)"/>
<path d="M0 0 C15.14016146 -0.35386508 29.97994199 0.31019084 44.71923828 4.06201172 C44.71923828 4.72201172 44.71923828 5.38201172 44.71923828 6.06201172 C43.56423828 5.93826172 42.40923828 5.81451172 41.21923828 5.68701172 C39.97207031 5.55359375 39.97207031 5.55359375 38.69970703 5.41748047 C36.57279065 5.16381154 34.45046966 4.87030619 32.33251953 4.55029297 C14.14531038 1.91473645 -5.60622315 1.44846436 -23.50732422 6.13232422 C-27.28076172 7.06201172 -27.28076172 7.06201172 -31.28076172 7.06201172 C-31.28076172 6.40201172 -31.28076172 5.74201172 -31.28076172 5.06201172 C-20.79549421 2.39100163 -10.85629224 0.29517215 0 0 Z " fill="#CDAFE8" transform="translate(286.28076171875,67.93798828125)"/>
<path d="M0 0 C3.03169184 1.34737277 5.02907987 2.81581459 7.28515625 5.23828125 C8.196604 6.21124146 8.196604 6.21124146 9.12646484 7.20385742 C9.76535645 7.89970947 10.40424805 8.59556152 11.0625 9.3125 C11.72717285 10.03091064 12.3918457 10.74932129 13.07666016 11.48950195 C48 49.45970358 48 49.45970358 48 63 C47.34 63 46.68 63 46 63 C45.42894531 61.83726563 44.85789062 60.67453125 44.26953125 59.4765625 C33.3917691 37.80323792 18.94364735 20.3098452 1.4765625 3.63671875 C0 2 0 2 0 0 Z " fill="#D4BDE9" transform="translate(424,47)"/>
<path d="M0 0 C0 0.66 0 1.32 0 2 C-0.54712646 2.12004395 -1.09425293 2.24008789 -1.65795898 2.36376953 C-11.41221764 4.52911921 -21.07069643 6.78859055 -30.5 10.125 C-31.18634521 10.36621582 -31.87269043 10.60743164 -32.57983398 10.85595703 C-36.3344572 12.23041312 -39.60171282 13.91645999 -43 16 C-44.85426952 16.79988097 -46.73052128 17.55066075 -48.625 18.25 C-50.03652344 18.78367187 -50.03652344 18.78367187 -51.4765625 19.328125 C-54 20 -54 20 -57 19 C-41.20041251 10.16470436 -18.50761675 -0.80164818 0 0 Z " fill="#C2ACD5" transform="translate(257,3)"/>
<path d="M0 0 C0 0.99 0 1.98 0 3 C-0.88300781 3.47308594 -1.76601562 3.94617188 -2.67578125 4.43359375 C-14.49963621 10.89456282 -24.1454915 18.85197852 -33.4921875 28.51953125 C-35.87677409 30.87811768 -38.34310776 32.95733553 -41 35 C-41 31 -41 31 -39.56640625 29.39453125 C-38.90511719 28.87246094 -38.24382812 28.35039063 -37.5625 27.8125 C-34.42256449 25.23797246 -31.59708169 22.57975057 -28.8125 19.625 C-22.43476235 13.15852861 -14.61523182 7.0472394 -6 4 C-6 3.34 -6 2.68 -6 2 C-2.25 0 -2.25 0 0 0 Z " fill="#B9A4CB" transform="translate(234,82)"/>
<path d="M0 0 C0.66 0 1.32 0 2 0 C1.608125 1.175625 1.21625 2.35125 0.8125 3.5625 C0.53921875 4.39136719 0.2659375 5.22023438 -0.015625 6.07421875 C-0.71289923 8.14667271 -1.43410261 10.21114628 -2.171875 12.26953125 C-6.47893342 24.53933039 -9.28593699 37.11024615 -11 50 C-11.66 50 -12.32 50 -13 50 C-12.94064749 32.60971453 -7.49092779 15.56625421 0 0 Z " fill="#C9A5E8" transform="translate(115,112)"/>
<path d="M0 0 C1.258125 0.12375 2.51625 0.2475 3.8125 0.375 C4.87404297 0.47941406 4.87404297 0.47941406 5.95703125 0.5859375 C8 1 8 1 11 3 C11 3.66 11 4.32 11 5 C12.29164063 5.36931641 12.29164063 5.36931641 13.609375 5.74609375 C27.07790305 10.72696645 38.20572914 22.95950445 48 33 C47.505 33.99 47.505 33.99 47 35 C46.13117188 34.10796875 45.26234375 33.2159375 44.3671875 32.296875 C43.20339795 31.11431465 42.03932008 29.932038 40.875 28.75 C40.30523437 28.16347656 39.73546875 27.57695313 39.1484375 26.97265625 C36.43522747 24.22861429 33.83782299 21.77389297 30.5703125 19.703125 C29.72210938 19.14109375 28.87390625 18.5790625 28 18 C28 17.34 28 16.68 28 16 C26.88431641 15.58814453 26.88431641 15.58814453 25.74609375 15.16796875 C23.20533272 14.08733212 21.28835683 12.92128761 19.0625 11.3125 C13.06264331 7.19395431 6.54304708 4.1458747 0 1 C0 0.67 0 0.34 0 0 Z " fill="#D5C3E5" transform="translate(346,79)"/>
<path d="M0 0 C-1.42010296 3.40972637 -3.02531599 5.03616603 -6 7.1875 C-14.22285001 13.3809928 -21.42075047 20.18810582 -28.08984375 28.03125 C-30 30 -30 30 -33 31 C-31.51053187 25.70634974 -28.06788468 22.61162258 -24.25 18.875 C-23.58911377 18.22136475 -22.92822754 17.56772949 -22.24731445 16.89428711 C-4.87864253 0 -4.87864253 0 0 0 Z " fill="#C7B2DA" transform="translate(176,38)"/>
<path d="M0 0 C0.66 0 1.32 0 2 0 C1.65354653 6.35164703 -1.66691916 10.94165547 -4.9375 16.1875 C-5.48857422 17.08919922 -6.03964844 17.99089844 -6.60742188 18.91992188 C-8.68899007 22.31669719 -10.79000745 25.68501118 -13 29 C-13.66 29 -14.32 29 -15 29 C-13.03177417 23.37332052 -9.79714573 18.48325177 -6.72070312 13.4140625 C-4.10190295 9.04289082 -1.89208923 4.73334533 0 0 Z " fill="#B99FD1" transform="translate(472,254)"/>
<path d="M0 0 C0.66 0 1.32 0 2 0 C1.25798671 4.32702133 -0.06715261 8.40420446 -1.4375 12.5625 C-3.61268808 19.30519392 -5.10638093 25.95774826 -6 33 C-6.66 33 -7.32 33 -8 33 C-8.18872825 27.80323271 -7.56724631 23.18963978 -6.25 18.1875 C-6.07243164 17.49333984 -5.89486328 16.79917969 -5.71191406 16.08398438 C-4.24608349 10.53495265 -2.36544086 5.234167 0 0 Z " fill="#C7B4D8" transform="translate(178,138)"/>
<path d="M0 0 C3 1 3 1 4.76171875 4.17578125 C5.41104401 5.55121919 6.05250873 6.93038607 6.6875 8.3125 C10.20807232 15.69241669 14.24936649 22.32889762 19 29 C18.01 29 17.02 29 16 29 C10.29670971 23.1449592 0 8.53554494 0 0 Z " fill="#C7ABE1" transform="translate(113,253)"/>
<path d="M0 0 C5.27183051 4.5089311 8.0888085 10.12006606 11.3125 16.1875 C11.86228516 17.19748047 12.41207031 18.20746094 12.97851562 19.24804688 C17 26.71651786 17 26.71651786 17 29 C16.34 29 15.68 29 15 29 C14.72325439 28.46109131 14.44650879 27.92218262 14.16137695 27.36694336 C12.88404778 24.88751585 11.59834398 22.41252167 10.3125 19.9375 C9.65991211 18.66616211 9.65991211 18.66616211 8.99414062 17.36914062 C6.92757085 13.40438825 4.8442061 9.6545467 2.16796875 6.06640625 C0 3 0 3 0 0 Z " fill="#CCBADD" transform="translate(455,81)"/>
<path d="M0 0 C0 0.66 0 1.32 0 2 C-4.29705944 3.8799635 -8.60609563 5.62610869 -13.01171875 7.234375 C-14.98861044 7.99561423 -16.89080221 8.8599505 -18.8125 9.75 C-22 11 -22 11 -25 10 C-5.6 0 -5.6 0 0 0 Z " fill="#BBA1D1" transform="translate(225,12)"/>
<path d="M0 0 C0.66 0 1.32 0 2 0 C-0.22992698 4.58143932 -2.86533213 8.89292652 -5.5 13.25 C-6.24830078 14.51070312 -6.24830078 14.51070312 -7.01171875 15.796875 C-7.49253906 16.5909375 -7.97335938 17.385 -8.46875 18.203125 C-8.90638672 18.93176758 -9.34402344 19.66041016 -9.79492188 20.41113281 C-10.39143555 21.19762207 -10.39143555 21.19762207 -11 22 C-11.66 22 -12.32 22 -13 22 C-11.54728081 16.66229465 -9.03627576 12.6800674 -5.9375 8.1875 C-5.47794922 7.50751953 -5.01839844 6.82753906 -4.54492188 6.12695312 C-1.19907318 1.19907318 -1.19907318 1.19907318 0 0 Z " fill="#C0AECF" transform="translate(135,77)"/>
<path d="M0 0 C4.54452713 2.47883298 8.91009615 5.17695575 13.25 8 C14.26578125 8.66 15.2815625 9.32 16.328125 10 C18.78839233 11.84160362 20.33491438 13.44534809 22 16 C17.69273656 15.47343968 14.82117443 12.75428474 11.5625 10.125 C8.4753371 7.65953274 5.51053732 5.29741369 2.08984375 3.3046875 C1.40019531 2.87414063 0.71054687 2.44359375 0 2 C0 1.34 0 0.68 0 0 Z " fill="#D1BAE6" transform="translate(402,31)"/>
<path d="M0 0 C0.33 0.99 0.66 1.98 1 3 C-0.55926748 4.58651682 -2.12256518 6.16907315 -3.6875 7.75 C-4.55761719 8.63171875 -5.42773438 9.5134375 -6.32421875 10.421875 C-8.78002468 12.78805298 -11.30141048 14.91892556 -14 17 C-14 13 -14 13 -12.4609375 11.2890625 C-11.42839844 10.46535156 -11.42839844 10.46535156 -10.375 9.625 C-6.68952218 6.58874336 -3.3336829 3.41702497 0 0 Z " fill="#DBCAEB" transform="translate(207,100)"/>
<path d="M0 0 C1.258125 0.12375 2.51625 0.2475 3.8125 0.375 C4.87404297 0.47941406 4.87404297 0.47941406 5.95703125 0.5859375 C8 1 8 1 11 3 C11 3.66 11 4.32 11 5 C11.845625 5.226875 12.69125 5.45375 13.5625 5.6875 C17.67404851 7.25736398 20.50393484 9.34299048 24 12 C20.02659148 12 17.55265656 10.17675833 14.25 8.1875 C9.60566541 5.40793611 5.01940078 3.03993596 0 1 C0 0.67 0 0.34 0 0 Z " fill="#C5AFD5" transform="translate(346,79)"/>
<path d="M0 0 C0 4.21226525 -2.37561148 5.97603335 -5.125 8.875 C-5.8365625 9.65037109 -5.8365625 9.65037109 -6.5625 10.44140625 C-9.82296629 13.93979846 -13.27388379 17.00362762 -17 20 C-17 17 -17 17 -15.56640625 15.52734375 C-14.90511719 15.00269531 -14.24382812 14.47804688 -13.5625 13.9375 C-8.52665255 9.73945901 -4.2932475 4.93922224 0 0 Z " fill="#D3C4E0" transform="translate(396,253)"/>
<path d="M0 0 C0.66 0 1.32 0 2 0 C-2.98969072 15.98969072 -2.98969072 15.98969072 -7 20 C-6.41161801 15.15888235 -4.92346884 11.03928805 -2.9375 6.625 C-2.65583984 5.98433594 -2.37417969 5.34367187 -2.08398438 4.68359375 C-1.39540579 3.11970341 -0.69855289 1.55946059 0 0 Z " fill="#BD9ADD" transform="translate(115,112)"/>
<path d="M0 0 C-1.4657804 3.58918119 -3.36776668 5.36377741 -6.4375 7.6875 C-7.21996094 8.28949219 -8.00242188 8.89148438 -8.80859375 9.51171875 C-11 11 -11 11 -14 12 C-12.48238697 8.17147621 -10.20656585 6.26678134 -7 3.75 C-6.113125 3.04359375 -5.22625 2.3371875 -4.3125 1.609375 C-2 0 -2 0 0 0 Z " fill="#B8A3CB" transform="translate(176,38)"/>
<path d="M0 0 C2.25056722 0.11433363 4.50046674 0.24186436 6.75 0.375 C8.62945312 0.47941406 8.62945312 0.47941406 10.546875 0.5859375 C13.60998121 0.95323304 15.41974266 1.39711286 18 3 C13.77897638 4.13673517 10.47303491 3.79839993 6.1875 3.0625 C5.02605469 2.86785156 3.86460937 2.67320313 2.66796875 2.47265625 C1.78753906 2.31667969 0.90710938 2.16070312 0 2 C0 1.34 0 0.68 0 0 Z " fill="#CDB9E0" transform="translate(322,2)"/>
<path d="M0 0 C0.66 0.33 1.32 0.66 2 1 C0.58707905 5.8274799 -1.42974154 9.7162359 -4 14 C-4.66 14 -5.32 14 -6 14 C-4.16508812 9.25981099 -2.08058541 4.63586749 0 0 Z " fill="#C19AE4" transform="translate(408,232)"/>
<path d="M0 0 C-2.84502097 1.89668064 -5.57299885 3.23263478 -8.6875 4.625 C-9.68136719 5.07101563 -10.67523438 5.51703125 -11.69921875 5.9765625 C-12.45847656 6.31429687 -13.21773437 6.65203125 -14 7 C-13.69921875 5.109375 -13.69921875 5.109375 -13 3 C-8.47170884 0.51387936 -5.23158464 -0.38279888 0 0 Z " fill="#C6A0E1" transform="translate(249,77)"/>
<path d="M0 0 C3.18005028 3.88672813 6.10554447 7.89952133 9 12 C8.01 12 7.02 12 6 12 C4.39453125 10.390625 4.39453125 10.390625 2.8125 8.25 C2.01779297 7.20585937 2.01779297 7.20585937 1.20703125 6.140625 C0 4 0 4 0 0 Z " fill="#B59DC8" transform="translate(123,270)"/>
<path d="M0 0 C5.8022175 -0.36263859 9.63999211 0.74315457 15 3 C15 3.66 15 4.32 15 5 C9.88634986 3.9318153 4.92772031 2.76892524 0 1 C0 0.67 0 0.34 0 0 Z " fill="#C8ABE3" transform="translate(331,74)"/>
<path d="M0 0 C0.66 0 1.32 0 2 0 C0.43358249 4.30764815 -1.68336156 8.06171464 -4 12 C-4.66 11.34 -5.32 10.68 -6 10 C-5.18957164 8.51969728 -4.37659652 7.04078858 -3.5625 5.5625 C-2.88380859 4.32693359 -2.88380859 4.32693359 -2.19140625 3.06640625 C-1 1 -1 1 0 0 Z " fill="#BA97DC" transform="translate(186,124)"/>
<path d="M0 0 C0.66 0 1.32 0 2 0 C1.49287967 3.71888239 0.88391785 6.73454239 -1 10 C-1.99 9.67 -2.98 9.34 -4 9 C-2.68 6.03 -1.36 3.06 0 0 Z " fill="#CBBBD9" transform="translate(472,254)"/>
<path d="M0 0 C0.66 0 1.32 0 2 0 C1.39301257 4.12751449 -0.03810791 7.3321148 -2 11 C-2.66 10.67 -3.32 10.34 -4 10 C-2.68 6.7 -1.36 3.4 0 0 Z " fill="#B79AD3" transform="translate(178,138)"/>
<path d="M0 0 C-4.455 3.465 -4.455 3.465 -9 7 C-9.33 6.01 -9.66 5.02 -10 4 C-4.5 -1.125 -4.5 -1.125 0 0 Z " fill="#AF9FBE" transform="translate(218,95)"/>
<path d="M0 0 C0 0.66 0 1.32 0 2 C-0.9590625 2.1546875 -0.9590625 2.1546875 -1.9375 2.3125 C-2.618125 2.539375 -3.29875 2.76625 -4 3 C-4.33 3.99 -4.66 4.98 -5 6 C-6.32 5.67 -7.64 5.34 -9 5 C-8.01 4.67 -7.02 4.34 -6 4 C-6 3.34 -6 2.68 -6 2 C-2.25 0 -2.25 0 0 0 Z " fill="#D18FEA" transform="translate(200,23)"/>
<path d="M0 0 C7.50769231 0.61538462 7.50769231 0.61538462 10 2.5625 C10.33 3.036875 10.66 3.51125 11 4 C6.44262737 3.56179109 3.42346555 3.14958831 0 0 Z " fill="#CAA2EE" transform="translate(346,79)"/>
<path d="M0 0 C0 0.99 0 1.98 0 3 C-1.98 3.66 -3.96 4.32 -6 5 C-6 4.01 -6 3.02 -6 2 C-2.25 0 -2.25 0 0 0 Z " fill="#BD8EDC" transform="translate(234,82)"/>
<path d="M0 0 C0.6875 1.6875 0.6875 1.6875 1 4 C-0.3125 6.75 -0.3125 6.75 -2 9 C-2.66 9 -3.32 9 -4 9 C-2.94124926 5.59687262 -1.99097846 2.98646769 0 0 Z " fill="#B3A2C1" transform="translate(126,90)"/>
</svg>
