<?xml version="1.0" encoding="UTF-8"?>
<svg version="1.1" xmlns="http://www.w3.org/2000/svg" width="581" height="326">
<path d="M0 0 C8.36053039 7.76558628 16.26184162 15.77494027 23 25 C33.70988577 39.72108012 33.70988577 39.72108012 49.07421875 48.4453125 C54.21913441 48.73930768 57.09838413 47.15449794 61 44 C61.5775 43.54109375 62.155 43.0821875 62.75 42.609375 C65.75142868 40.15130841 68.38351542 37.65408666 70.8125 34.625 C71.8953125 33.325625 71.8953125 33.325625 73 32 C73.66 32 74.32 32 75 32 C75 31.34 75 30.68 75 30 C76.46875 28.5546875 76.46875 28.5546875 78.5 26.875 C84.1746597 22.04103062 89.4290927 16.93040536 94.1875 11.1875 C108.94836757 -5.72461508 132.14817063 -19.55604351 154.82617188 -21.20556641 C157.80404346 -21.3030622 160.77060004 -21.32896737 163.75 -21.3125 C165.33216309 -21.30512817 165.33216309 -21.30512817 166.94628906 -21.29760742 C193.66193906 -20.89748824 212.71625244 -8.31254086 231 10 C232.27617188 11.24136719 232.27617188 11.24136719 233.578125 12.5078125 C239.07949908 17.89658535 244.06827238 23.41810949 248.890625 29.4375 C259.17212661 42.01382415 259.17212661 42.01382415 273.0625 49.1875 C290.1136414 48.37554089 302.87094356 32.26103476 314.125 20.8125 C327.96824502 6.80225137 351.41422557 -14.00328158 372.5625 -14.1875 C374.2640625 -14.0946875 374.2640625 -14.0946875 376 -14 C380.88821957 -2.43208039 385.40379581 9.26589121 389.86230469 21.00488281 C390.55291193 22.82298789 391.24567371 24.64027914 391.94238281 26.45605469 C392.68028386 28.38343456 393.40351333 30.31641574 394.125 32.25 C394.49882813 33.24515625 394.87265625 34.2403125 395.2578125 35.265625 C396.07612535 38.2804618 396.13801118 40.89014808 396 44 C395.04480469 44.42410156 394.08960938 44.84820312 393.10546875 45.28515625 C380.49819825 50.96587676 370.13891175 57.501086 360 67 C357.97276547 68.7782759 355.93226747 70.53974421 353.88671875 72.296875 C350.33271189 75.50504682 347.03312424 78.96236741 343.72265625 82.41796875 C329.56020989 97.09023216 311.75170482 112.53635895 290.15625 113.0703125 C289.4446875 113.04710937 288.733125 113.02390625 288 113 C288 113.66 288 114.32 288 115 C273.35728512 115.60094486 260.76294711 115.20269649 247 110 C246.07445312 109.7009375 245.14890625 109.401875 244.1953125 109.09375 C233.19327912 105.29752123 224.25560955 97.50501696 215.8125 89.75 C215.16450439 89.15977051 214.51650879 88.56954102 213.84887695 87.96142578 C210.58494069 84.8800051 208.23108697 82.45536236 207 78 C206.34 78 205.68 78 205 78 C203.6559907 76.00715862 202.32458708 74.00580329 201 72 C199.35697047 70.31002677 197.68528688 68.64783606 196 67 C194.59907014 65.42117428 193.20383003 63.837292 191.8125 62.25 C181.89156926 50.84012879 181.89156926 50.84012879 168.578125 44.49609375 C160.48884109 44.29250439 155.19155731 47.12616657 149.29296875 52.57763672 C146.22541012 55.54091806 143.24696821 58.58043516 140.296875 61.66015625 C137.35805027 64.69330721 134.35755322 67.43331553 131 70 C130.34 70 129.68 70 129 70 C129 70.66 129 71.32 129 72 C127.37644764 73.70869344 125.70023275 75.36758947 124 77 C123.13503906 77.89976562 122.27007812 78.79953125 121.37890625 79.7265625 C105.78561681 95.87784574 88.05161035 108.45697226 66 114 C64.89527344 114.35449219 63.79054687 114.70898438 62.65234375 115.07421875 C58.65229984 116.08813362 54.91083586 116.34479616 50.8125 116.3125 C50.06709961 116.30758545 49.32169922 116.3026709 48.55371094 116.29760742 C42.04163281 116.16094629 36.18742928 115.07086048 30 113 C28.44925781 112.50693359 28.44925781 112.50693359 26.8671875 112.00390625 C13.69032669 107.41581857 2.92845404 99.68824951 -7 90 C-7.88171875 89.16855469 -8.7634375 88.33710938 -9.671875 87.48046875 C-17.71186616 79.72437558 -24.42447485 71.14648406 -31.08203125 62.203125 C-36.63851725 54.91518817 -43.45236584 46.88968552 -52.5625 44.25 C-59.7273064 43.29213818 -65.85654849 45.86260441 -71.5 50.125 C-73.01654622 51.39719902 -74.51614655 52.68981615 -76 54 C-76.77988281 54.67160156 -77.55976562 55.34320313 -78.36328125 56.03515625 C-86.12017217 62.85181797 -93.36641054 70.20982227 -100.54296875 77.62890625 C-102.91539419 79.91835337 -105.30555413 81.79399459 -108 83.6875 C-112.13830035 86.62453607 -116.11063109 89.6925215 -120.0625 92.875 C-130.94350878 101.41575844 -143.40831592 107.65066274 -156.1796875 112.84375 C-158.92792539 113.88488514 -158.92792539 113.88488514 -161.0078125 115.21875 C-163.87265508 116.34221768 -166.06021825 115.66813222 -169 115 C-169.31453125 114.03320312 -169.6290625 113.06640625 -169.953125 112.0703125 C-170.38524878 110.75515316 -170.81755015 109.44005216 -171.25 108.125 C-171.45496094 107.49335938 -171.65992188 106.86171875 -171.87109375 106.2109375 C-173.10643579 102.46747678 -174.45859035 98.79904777 -175.9375 95.14453125 C-178.01964194 89.99728726 -179.93478064 84.80949674 -181.75 79.5625 C-182.06582031 78.69818359 -182.38164062 77.83386719 -182.70703125 76.94335938 C-184.80997914 70.82114095 -186.63436058 64.43302485 -185 58 C-182.71429315 55.33321586 -180.00431861 54.01841399 -176.875 52.5 C-175.20570697 51.58656994 -173.5403697 50.66587647 -171.87890625 49.73828125 C-171.04891113 49.28404785 -170.21891602 48.82981445 -169.36376953 48.36181641 C-158.88521784 42.32490654 -150.06010431 33.45362489 -141.359375 25.171875 C-138.76140472 22.70105788 -136.10794801 20.32197839 -133.375 18 C-131.12530138 16.06892822 -129.42536694 14.31044032 -127.5 12 C-113.08267572 -5.30078913 -90.31010365 -19.32966755 -67.75 -21.81640625 C-42.63134806 -23.04617358 -19.06807012 -17.04989608 0 0 Z " fill="#9335E9" transform="translate(185,210)"/>
<path d="M0 0 C5.35756117 4.30985336 10.37644321 8.94927267 15.32421875 13.71875 C15.95585937 14.29882812 16.5875 14.87890625 17.23828125 15.4765625 C21.10637294 19.12466793 24.32667458 23.20854852 27.57421875 27.40625 C39.79721949 43.55247587 39.79721949 43.55247587 56.32421875 54.71875 C64.66202919 54.71875 69.92684144 49.21885872 75.55859375 43.64794922 C77.0684632 42.11101048 78.57345528 40.56926913 80.07421875 39.0234375 C81.75231325 37.32002585 83.43070854 35.61691049 85.109375 33.9140625 C87.70843617 31.26574159 90.30416066 28.61433022 92.89404297 25.95703125 C107.81743572 10.67090723 122.46455338 -2.88614707 142.32421875 -11.28125 C143.85755859 -11.961875 143.85755859 -11.961875 145.421875 -12.65625 C164.38822925 -19.56182525 188.44405982 -16.85048729 206.43164062 -8.59423828 C214.48535567 -4.72051478 221.3600934 0.15206937 228.32421875 5.71875 C229.31421875 6.37875 230.30421875 7.03875 231.32421875 7.71875 C231.32421875 8.37875 231.32421875 9.03875 231.32421875 9.71875 C232.31421875 10.04875 233.30421875 10.37875 234.32421875 10.71875 C234.32421875 11.37875 234.32421875 12.03875 234.32421875 12.71875 C234.89785156 12.96882813 235.47148437 13.21890625 236.0625 13.4765625 C242.51414123 17.01995095 247.2427832 23.45951123 251.44921875 29.34375 C255.23791884 34.52408159 259.3849727 39.14577732 263.88671875 43.71875 C264.4998291 44.35377441 265.11293945 44.98879883 265.74462891 45.64306641 C270.66188623 50.53937136 275.68038768 54.01801326 282.57421875 55.34375 C294.11785587 53.41981048 303.10608978 45.79396356 310.44921875 37.09375 C326.87261517 17.88927501 352.14372749 -2.68558528 377.32421875 -8.28125 C379.65736596 -8.31072133 381.99112235 -8.31450078 384.32421875 -8.28125 C388.86303561 3.26583119 393.27450819 14.85101593 397.51318359 26.51171875 C398.28366033 28.60838029 399.075382 30.69555829 399.875 32.78125 C400.56142578 34.6065625 400.56142578 34.6065625 401.26171875 36.46875 C401.66261719 37.51546875 402.06351563 38.5621875 402.4765625 39.640625 C403.43234931 43.11140843 403.47277823 46.13531527 403.32421875 49.71875 C401.88992874 50.39229499 400.45164818 51.05734701 399.01171875 51.71875 C398.21121094 52.09 397.41070313 52.46125 396.5859375 52.84375 C394.32421875 53.71875 394.32421875 53.71875 391.32421875 53.71875 C391.32421875 54.37875 391.32421875 55.03875 391.32421875 55.71875 C389.46946744 56.92995421 387.56187232 58.06039335 385.63671875 59.15625 C380.49562869 62.18398686 375.85573297 65.52519867 371.32421875 69.40625 C370.79739502 69.85734131 370.27057129 70.30843262 369.7277832 70.77319336 C367.2350858 72.94579354 364.8785844 75.17767742 362.57421875 77.55078125 C360.32421875 79.71875 360.32421875 79.71875 358.32421875 79.71875 C358.11796875 80.29625 357.91171875 80.87375 357.69921875 81.46875 C356.18838286 83.94102692 354.6565042 84.83047322 352.234375 86.32421875 C346.89924147 90.21919353 342.45009038 95.47917697 337.9140625 100.2578125 C321.95738435 115.42026685 299.82985168 121.27200408 278.36254883 121.06591797 C252.93697146 120.40380498 234.28825527 106.50762695 217.1484375 88.84375 C213.23568969 84.70413426 209.71324303 80.34331556 206.26757812 75.81347656 C194.14239334 59.8369091 194.14239334 59.8369091 177.32421875 49.71875 C171.23246793 49.12151953 167.29301123 50.37041056 162.32421875 53.71875 C159.80223932 55.80229919 157.39406626 57.96553199 155.01171875 60.20703125 C152.95967251 62.12485935 150.88572258 63.9498351 148.75 65.76953125 C142.49261879 71.21816023 136.76889138 77.24430832 130.96850586 83.17041016 C124.08798439 90.18974437 117.08207623 96.65908836 109.32421875 102.71875 C108.40995117 103.44151123 107.49568359 104.16427246 106.55371094 104.90893555 C92.05901531 116.21953646 75.89099785 121.31699031 57.57421875 121.21875 C56.34646729 121.21375488 55.11871582 121.20875977 53.85375977 121.20361328 C44.13852619 121.01758372 36.20327715 119.71592515 27.32421875 115.71875 C26.36386719 115.30753906 25.40351563 114.89632812 24.4140625 114.47265625 C16.6470532 110.7064949 10.39597075 104.9980476 4.04101562 99.25927734 C2.4294272 97.81315633 0.79618265 96.39750701 -0.84765625 94.98828125 C-10.36387479 86.71708986 -17.5910145 77.07879209 -24.86328125 66.84375 C-30.54436923 58.98741856 -36.85492475 51.20911285 -46.828125 49.30859375 C-53.29529075 48.8653258 -58.42810416 51.06580112 -63.67578125 54.71875 C-66.60688617 57.37557555 -69.35542252 60.13764963 -72.07421875 63.0078125 C-74.86137053 65.91214183 -77.80023898 68.50919679 -80.859375 71.1171875 C-82.65979275 72.70465261 -84.32127102 74.36762594 -85.98828125 76.09375 C-89.66374778 79.82755727 -93.66906503 83.08385772 -97.75 86.36328125 C-99.77023606 87.98971962 -101.7712619 89.62672824 -103.7578125 91.29296875 C-105.23314453 92.52466797 -105.23314453 92.52466797 -106.73828125 93.78125 C-107.63675781 94.53535156 -108.53523438 95.28945312 -109.4609375 96.06640625 C-111.67578125 97.71875 -111.67578125 97.71875 -113.67578125 97.71875 C-113.67578125 98.37875 -113.67578125 99.03875 -113.67578125 99.71875 C-115.80844365 101.36727352 -117.92684804 102.86757554 -120.17578125 104.34375 C-120.84706055 104.7867041 -121.51833984 105.2296582 -122.20996094 105.68603516 C-133.07367082 112.70438458 -147.44784195 121.92725843 -160.67578125 121.71875 C-164.32324219 110.77636719 -164.32324219 110.77636719 -167.97070312 99.83398438 C-168.23400421 99.04464508 -168.4973053 98.25530579 -168.76858521 97.44204712 C-169.29833373 95.85166121 -169.82671303 94.26081857 -170.35372925 92.66952515 C-171.59972209 88.91254528 -172.86361055 85.16491088 -174.18603516 81.43408203 C-174.42014603 80.76333145 -174.6542569 80.09258087 -174.89546204 79.40150452 C-175.52423926 77.60434215 -176.16368046 75.81092064 -176.80395508 74.01782227 C-177.74469551 70.45797194 -177.83251438 67.38467684 -177.67578125 63.71875 C-176.7321875 63.24566406 -175.78859375 62.77257812 -174.81640625 62.28515625 C-161.73226565 55.59999155 -150.90170372 47.19626978 -140.23706055 37.15185547 C-138.45897908 35.51974628 -136.63417087 33.9492325 -134.8046875 32.375 C-130.61351997 28.72744425 -126.74229632 24.81751525 -122.86328125 20.84375 C-116.75479246 14.66296301 -110.52987593 9.06645024 -103.67578125 3.71875 C-102.90621094 3.04714844 -102.13664062 2.37554688 -101.34375 1.68359375 C-73.17912335 -22.55760232 -29.17267483 -22.55147984 0 0 Z " fill="#9435E9" transform="translate(177.67578125,16.28125)"/>
<path d="M0 0 C0 0.66 0 1.32 0 2 C-1.63195312 2.72703125 -1.63195312 2.72703125 -3.296875 3.46875 C-11.59152087 7.23001139 -19.24177857 11.14004018 -26.6796875 16.43359375 C-29 18 -29 18 -32 19 C-32.185625 19.9590625 -32.185625 19.9590625 -32.375 20.9375 C-32.58125 21.618125 -32.7875 22.29875 -33 23 C-33.72703125 23.27714844 -34.4540625 23.55429688 -35.203125 23.83984375 C-42.94966188 27.05314187 -49.29646261 34.95568735 -54.46484375 41.40625 C-56.16386133 43.17011558 -57.76484913 44.03449206 -60 45 C-60 45.66 -60 46.32 -60 47 C-67.86640726 54.29161759 -77.46694901 62.31517718 -88.4375 63.3125 C-96.55719078 62.60024642 -101.10035266 58.50257902 -106.6875 53 C-107.98147468 51.74834561 -109.27700007 50.49829198 -110.57421875 49.25 C-111.13713623 48.69828125 -111.70005371 48.1465625 -112.2800293 47.578125 C-114.00691169 45.93532517 -114.00691169 45.93532517 -116.10864258 44.45703125 C-119.01866126 42.21526134 -120.38244845 39.2351031 -122 36 C-117.77883762 37.58667806 -115.32207704 40.76182413 -112.4375 44.0625 C-103.19376594 55.01581187 -103.19376594 55.01581187 -90.875 61.25 C-73.80095858 60.14844894 -61.19448521 44.32759418 -49.875 32.8125 C-39.09827823 21.90576887 -16.85240505 0 0 0 Z " fill="#BEA8D0" transform="translate(549,198)"/>
<path d="M0 0 C20.42705322 6.22481207 37.64196162 24.18101118 50 41 C60.71031264 55.72078321 60.71031264 55.72078321 76.07421875 64.4453125 C81.234688 64.74019646 84.06090403 63.11845098 88 60 C89.45652031 58.91423031 90.91491686 57.83097384 92.375 56.75 C93.58453576 55.83492051 94.79329585 54.91881027 96 54 C95.64154938 56.8487391 95.12645301 57.88047592 93.00390625 59.88671875 C92.19824219 60.48097656 91.39257812 61.07523438 90.5625 61.6875 C89.75941406 62.28949219 88.95632812 62.89148438 88.12890625 63.51171875 C84.75464768 65.8706041 82.46169457 66.22986207 78.375 66.5625 C77.37210937 66.64628906 76.36921875 66.73007812 75.3359375 66.81640625 C74.56507813 66.87699219 73.79421875 66.93757813 73 67 C73 66.34 73 65.68 73 65 C72.41863281 64.88914062 71.83726562 64.77828125 71.23828125 64.6640625 C60.87548382 61.58958508 52.04183016 49.29189104 46 41 C45.65582031 40.28199219 45.31164062 39.56398437 44.95703125 38.82421875 C44.00649932 36.65830896 44.00649932 36.65830896 41 35 C41 34.34 41 33.68 41 33 C40.34 33 39.68 33 39 33 C37.5 30.5 37.5 30.5 36 28 C25.54481934 17.02115744 13.59245933 8.63393164 0 2 C0 1.34 0 0.68 0 0 Z " fill="#BDA5D1" transform="translate(158,194)"/>
<path d="M0 0 C0 0.99 0 1.98 0 3 C-2.18990358 4.97959968 -4.54774832 6.64272765 -6.93359375 8.37890625 C-10.53885177 11.25068286 -13.4377042 14.75986151 -16.48217773 18.20239258 C-20.47183752 22.63539088 -24.65115796 26.87430322 -28.85864258 31.09887695 C-30.3355039 32.58565842 -31.80137284 34.08279579 -33.26757812 35.58007812 C-34.21549114 36.53450484 -35.164035 37.48830553 -36.11328125 38.44140625 C-36.95673096 39.29420166 -37.80018066 40.14699707 -38.66918945 41.02563477 C-40.90989067 42.92367088 -42.13284186 43.63608035 -45 44 C-45 41 -45 41 -43.625 39.3125 C-42 38 -42 38 -40 38 C-40 37.34 -40 36.68 -40 36 C-38.53125 34.5546875 -38.53125 34.5546875 -36.5 32.875 C-30.8253403 28.04103062 -25.5709073 22.93040536 -20.8125 17.1875 C-17.61190217 13.46087799 -14.04796068 10.29726336 -10.3125 7.125 C-9.75344971 6.64828857 -9.19439941 6.17157715 -8.6184082 5.68041992 C-5.88369545 3.39869388 -3.29230252 1.39382151 0 0 Z " fill="#9A46E6" transform="translate(300,204)"/>
<path d="M0 0 C0.495 0.99 0.495 0.99 1 2 C-2.4718786 0.67831894 -5.78287979 -0.86127289 -9.10888672 -2.51342773 C-27.26651342 -11.3859577 -49.0649702 -13.51005217 -68.55078125 -7.35546875 C-73.83924793 -5.27721514 -78.96863826 -2.9289307 -84.05078125 -0.390625 C-87 1 -87 1 -89 1 C-89 1.99 -89 2.98 -89 4 C-90.98199979 5.49858521 -92.87068275 6.74746044 -95 8 C-95.93392578 8.58394531 -95.93392578 8.58394531 -96.88671875 9.1796875 C-98.54995582 10.19087985 -100.27248768 11.10302245 -102 12 C-102.66 11.67 -103.32 11.34 -104 11 C-74.30653526 -15.1787281 -34.68054827 -20.38474974 0 0 Z " fill="#A07FBD" transform="translate(394,13)"/>
<path d="M0 0 C5.38322416 4.15588012 10.24219237 8.96525205 14.70703125 14.08984375 C14.70703125 14.74984375 14.70703125 15.40984375 14.70703125 16.08984375 C10.9720431 14.55491711 8.8118041 12.27412727 6.08203125 9.33984375 C0.24180116 3.43110657 -5.66146911 -2.03976721 -14.29296875 -2.66015625 C-25.44947985 -1.7939675 -32.73022614 7.16486825 -39.99609375 14.75 C-42.93491848 17.78315096 -45.93541553 20.52315928 -49.29296875 23.08984375 C-49.95296875 23.08984375 -50.61296875 23.08984375 -51.29296875 23.08984375 C-51.29296875 22.42984375 -51.29296875 21.76984375 -51.29296875 21.08984375 C-50 19.8203125 -50 19.8203125 -48.10546875 18.27734375 C-44.7107027 15.4182766 -41.61006674 12.39506654 -38.53588867 9.20336914 C-27.28029586 -2.44141894 -15.25261165 -9.82412309 0 0 Z " fill="#B499CB" transform="translate(365.29296875,256.91015625)"/>
<path d="M0 0 C-0.65484375 0.52207031 -1.3096875 1.04414063 -1.984375 1.58203125 C-12.24772762 9.85939615 -21.94717458 18.65727236 -31.05859375 28.19921875 C-36.85569063 34.21954507 -42.69172912 39.87515698 -49.5 44.75 C-50.06259521 45.15565186 -50.62519043 45.56130371 -51.20483398 45.97924805 C-54.66089566 48.36240156 -57.96726914 49.85820271 -62 51 C-62 50.34 -62 49.68 -62 49 C-59.77727913 47.43399212 -57.56311296 45.9829533 -55.25 44.5625 C-53.98351194 43.77351913 -52.71786502 42.9831862 -51.453125 42.19140625 C-50.85306641 41.81773926 -50.25300781 41.44407227 -49.63476562 41.05908203 C-48.27013667 40.17500789 -46.96219053 39.20422998 -45.671875 38.21484375 C-44 37 -44 37 -42 37 C-41.78085937 36.443125 -41.56171875 35.88625 -41.3359375 35.3125 C-39.56099571 32.24008615 -37.28539225 30.34617269 -34.625 28 C-27.56140341 21.68854063 -20.73847519 15.09467037 -14.28515625 8.15625 C-13 7 -13 7 -11 7 C-10.67 6.01 -10.34 5.02 -10 4 C-8.4765625 2.578125 -8.4765625 2.578125 -6.625 1.25 C-5.71621094 0.57710938 -5.71621094 0.57710938 -4.7890625 -0.109375 C-3 -1 -3 -1 0 0 Z " fill="#C0A5D7" transform="translate(559,265)"/>
<path d="M0 0 C0 0.99 0 1.98 0 3 C-1.87890625 4.33203125 -1.87890625 4.33203125 -4.5625 5.8125 C-10.82122119 9.57751197 -15.83581744 14.28544118 -21.04711914 19.3762207 C-21.66192139 19.97265381 -22.27672363 20.56908691 -22.91015625 21.18359375 C-23.45808838 21.72556396 -24.00602051 22.26753418 -24.57055664 22.82592773 C-26 24 -26 24 -28 24 C-28.309375 24.86625 -28.309375 24.86625 -28.625 25.75 C-30.13583589 28.22227692 -31.66771455 29.11172322 -34.08984375 30.60546875 C-38.52106728 33.84053378 -42.18563204 38.07682281 -46 42 C-47.66435025 43.66897987 -49.3303598 45.33631218 -51 47 C-51.66 46.34 -52.32 45.68 -53 45 C-52.21496094 44.28714844 -51.42992187 43.57429688 -50.62109375 42.83984375 C-45.51845159 38.19250427 -40.47124302 33.53363998 -35.63671875 28.60546875 C-33.20250026 26.21772699 -30.60581545 24.02894099 -28.01953125 21.80859375 C-25.99414417 19.9947558 -24.12877884 18.08935468 -22.25 16.125 C-15.76501722 9.55030402 -8.36374808 3.93369161 0 0 Z " fill="#CCA8E9" transform="translate(564,72)"/>
<path d="M0 0 C2.03833424 1.2739589 4.03852126 2.61061923 6 4 C6 4.66 6 5.32 6 6 C6.99 6.33 7.98 6.66 9 7 C9 7.66 9 8.32 9 9 C9.57363281 9.25007813 10.14726562 9.50015625 10.73828125 9.7578125 C17.18992248 13.30120095 21.91856445 19.74076123 26.125 25.625 C29.91370009 30.80533159 34.06075395 35.42702732 38.5625 40 C39.17561035 40.63502441 39.7887207 41.27004883 40.42041016 41.92431641 C44.60657136 46.09264044 48.59406298 48.61063557 54 51 C53.34 51.66 52.68 52.32 52 53 C45.60534469 49.44442985 40.65632718 45.09384328 35.5625 39.875 C34.81025146 39.11437256 34.05800293 38.35374512 33.28295898 37.57006836 C28.74627678 32.93500858 24.5820555 28.16137023 20.6015625 23.0390625 C16.17158192 17.63729526 10.94824594 12.87358422 5.94165039 8.01586914 C5.1758667 7.26684326 4.41008301 6.51781738 3.62109375 5.74609375 C2.9242749 5.07247803 2.22745605 4.3988623 1.50952148 3.70483398 C0 2 0 2 0 0 Z " fill="#D7BDEE" transform="translate(403,20)"/>
<path d="M0 0 C-1.612328 4.03082 -4.46234596 6.75944137 -7.5 9.75 C-7.99886719 10.25660156 -8.49773437 10.76320313 -9.01171875 11.28515625 C-12.74658861 15 -12.74658861 15 -15 15 C-15.33 15.99 -15.66 16.98 -16 18 C-17.54223633 19.52099609 -17.54223633 19.52099609 -19.51953125 21.1484375 C-24.15238368 25.07990603 -28.41794743 29.30584584 -32.6875 33.625 C-33.42033203 34.36234375 -34.15316406 35.0996875 -34.90820312 35.859375 C-35.62298828 36.57867187 -36.33777344 37.29796875 -37.07421875 38.0390625 C-37.75379639 38.72234619 -38.43337402 39.40562988 -39.13354492 40.10961914 C-40.27573246 41.2664482 -41.41060941 42.43062638 -42.5324707 43.60717773 C-45.27320313 46.46119309 -46.98297563 47.65568363 -51 48 C-51 47.34 -51 46.68 -51 46 C-49.36729431 44.82040405 -49.36729431 44.82040405 -47.09741211 43.45849609 C-41.50188934 39.84329725 -37.07408429 35.41933179 -32.44140625 30.6640625 C-31.57104233 29.78471039 -30.70067841 28.90535828 -29.80393982 27.99935913 C-27.04944494 25.21504435 -24.30518588 22.42094426 -21.5625 19.625 C-18.79456053 16.80796103 -16.02304774 13.99451388 -13.24607849 11.18637085 C-11.5237347 9.44419468 -9.80635025 7.69709928 -8.09437561 5.94473267 C-7.32274582 5.16326874 -6.55111603 4.38180481 -5.75610352 3.57666016 C-5.07709488 2.88416168 -4.39808624 2.19166321 -3.69850159 1.47817993 C-2 0 -2 0 0 0 Z " fill="#CABFD4" transform="translate(290,25)"/>
<path d="M0 0 C0.495 0.99 0.495 0.99 1 2 C-0.2065625 2.8971875 -0.2065625 2.8971875 -1.4375 3.8125 C-4.22327984 5.80947276 -4.22327984 5.80947276 -5 9 C-6.61159629 10.45907021 -8.28974668 11.84542621 -10 13.1875 C-13.64839805 16.09113462 -17.19147886 19.03302828 -20.625 22.1875 C-31.5387024 32 -31.5387024 32 -36 32 C-36 32.66 -36 33.32 -36 34 C-38.97 35.32 -41.94 36.64 -45 38 C-43.65962981 33.97888943 -41.0864271 32.94914319 -37.625 30.875 C-27.69510395 24.69451966 -19.09544564 17.23998591 -10.58959961 9.2487793 C-7.16040234 6.02961021 -3.63898316 2.98081132 0 0 Z " fill="#C6B0DB" transform="translate(52,228)"/>
<path d="M0 0 C0.66 0.33 1.32 0.66 2 1 C0.33424841 2.52183555 -1.33265671 4.0424085 -3 5.5625 C-4.3921875 6.83287109 -4.3921875 6.83287109 -5.8125 8.12890625 C-7.43457873 9.60368658 -9.06661355 11.05670255 -10.73608398 12.4777832 C-17.19395326 17.98717122 -23.10407034 24.02719919 -29.0625 30.0625 C-41.60401795 42.76527427 -41.60401795 42.76527427 -48 48 C-48.66 47.67 -49.32 47.34 -50 47 C-48.88121617 45.82737096 -47.75476949 44.66204862 -46.625 43.5 C-45.99851562 42.8503125 -45.37203125 42.200625 -44.7265625 41.53125 C-43 40 -43 40 -41 40 C-41 39.34 -41 38.68 -41 38 C-40.34 38 -39.68 38 -39 38 C-38.67 37.01 -38.34 36.02 -38 35 C-37.34 35 -36.68 35 -36 35 C-36 34.34 -36 33.68 -36 33 C-34.56201172 31.58764648 -34.56201172 31.58764648 -32.5546875 29.93359375 C-27.80502023 25.89543625 -23.48343386 21.51440231 -19.125 17.0625 C-13.05345795 10.91604688 -7.03196557 5.05312099 0 0 Z " fill="#CBB4DC" transform="translate(339,68)"/>
<path d="M0 0 C0.66 0.66 1.32 1.32 2 2 C1.08734375 2.69609375 1.08734375 2.69609375 0.15625 3.40625 C-9.90818318 11.33939144 -18.73968132 20.50643547 -27.62109375 29.71875 C-30.16702083 32.16016447 -32.81913048 34.19948755 -35.6875 36.25 C-36.64011719 36.93578125 -37.59273438 37.6215625 -38.57421875 38.328125 C-41 40 -41 40 -43 41 C-41.44201164 36.82264372 -38.36189476 34.5298715 -35 31.8125 C-33.82188252 30.83848908 -32.64481105 29.86321169 -31.46875 28.88671875 C-30.59089844 28.1604126 -30.59089844 28.1604126 -29.6953125 27.41943359 C-23.88431073 22.55405856 -18.28696396 17.42985488 -13 12 C-8.84060536 7.74157215 -4.6393433 3.73410558 0 0 Z " fill="#D5C4E3" transform="translate(112,258)"/>
<path d="M0 0 C3.52475247 0.56092835 4.78499946 1.57732025 6.9375 4.375 C14.66312736 13.59270131 25.47186402 23.15728801 37 27 C37 27.66 37 28.32 37 29 C23.44474692 26.9944991 9.58329807 12.59047529 1.0390625 2.42578125 C0 1 0 1 0 0 Z " fill="#B59CCB" transform="translate(392,289)"/>
<path d="M0 0 C0 0.66 0 1.32 0 2 C-1.63195312 2.72703125 -1.63195312 2.72703125 -3.296875 3.46875 C-11.59152087 7.23001139 -19.24177857 11.14004018 -26.6796875 16.43359375 C-29 18 -29 18 -32 19 C-32.12375 19.639375 -32.2475 20.27875 -32.375 20.9375 C-32.58125 21.618125 -32.7875 22.29875 -33 23 C-35.375 24.0625 -35.375 24.0625 -38 25 C-39.77277259 26.52007842 -39.77277259 26.52007842 -41 28 C-41.66 27.67 -42.32 27.34 -43 27 C-33.12251813 17.34840649 -14.79144433 0 0 0 Z " fill="#B497CF" transform="translate(549,198)"/>
<path d="M0 0 C1.32 0 2.64 0 4 0 C4 0.66 4 1.32 4 2 C-14.11091287 10.22085216 -35.9222602 12.34828238 -55 6 C-55.66 5.67 -56.32 5.34 -57 5 C-56.67 4.34 -56.34 3.68 -56 3 C-55.04222656 3.28875 -54.08445312 3.5775 -53.09765625 3.875 C-37.51725184 8.32173806 -23.65869769 7.83058834 -8 4 C-6.65808594 3.68095703 -6.65808594 3.68095703 -5.2890625 3.35546875 C-3.5208817 2.9242808 -1.75913843 2.46671019 0 2 C0 1.34 0 0.68 0 0 Z " fill="#9D6DC8" transform="translate(490,128)"/>
<path d="M0 0 C0.66 0 1.32 0 2 0 C-1.01606213 7.20871994 -8.28497933 12.60311737 -14.125 17.5625 C-18.52537392 21.31628837 -22.25364561 25.60600456 -26 30 C-27.32 29.67 -28.64 29.34 -30 29 C-28.4840625 27.7625 -28.4840625 27.7625 -26.9375 26.5 C-24.38005194 24.31224245 -22.14729743 22.08791171 -20 19.5 C-14.68889197 13.22212345 -8.4312223 7.81881598 -2.37939453 2.27172852 C-1.57317434 1.52843631 -0.77539484 0.77539484 0 0 Z " fill="#AD9DBC" transform="translate(508,34)"/>
<path d="M0 0 C10.22936316 2.90729269 18.90959258 10.27145592 26 18 C27.66107387 19.67224076 29.32846007 21.33822089 31 23 C31.96517277 23.96451462 32.9300096 24.92936551 33.89453125 25.89453125 C34.37470703 26.37470703 34.85488281 26.85488281 35.34960938 27.34960938 C38.67480469 30.67480469 38.67480469 30.67480469 42 34 C41.505 34.99 41.505 34.99 41 36 C40.32533691 35.30438965 39.65067383 34.6087793 38.95556641 33.89208984 C36.41281527 31.27609614 33.85615635 28.67405462 31.29541016 26.07568359 C30.19595852 24.95630621 29.10014493 23.83334196 28.00830078 22.70654297 C22.01875813 16.53034179 16.47364665 11.079256 8.74365234 7.07275391 C8.16824707 6.71874512 7.5928418 6.36473633 7 6 C7 5.34 7 4.68 7 4 C5.824375 3.7834375 5.824375 3.7834375 4.625 3.5625 C2 3 2 3 0 2 C0 1.34 0 0.68 0 0 Z " fill="#C0A9D3" transform="translate(385,197)"/>
<path d="M0 0 C0.99 0.33 1.98 0.66 3 1 C2.29101562 1.70640625 1.58203125 2.4128125 0.8515625 3.140625 C-1.02220034 5.01307107 -2.8772285 6.89985044 -4.7265625 8.796875 C-11.09259644 15.30495913 -17.55130721 21.71383092 -25 27 C-25.66 27 -26.32 27 -27 27 C-25.45247581 22.87326883 -22.46262948 20.66516899 -19.125 18 C-12.30818321 12.41315523 -6.12722108 6.32594177 0 0 Z " fill="#C3ADD7" transform="translate(311,281)"/>
<path d="M0 0 C0 3 0 3 -1.20239258 4.46704102 C-1.76079834 4.97420654 -2.3192041 5.48137207 -2.89453125 6.00390625 C-3.82616089 6.86121338 -3.82616089 6.86121338 -4.77661133 7.73583984 C-5.44845459 8.3386377 -6.12029785 8.94143555 -6.8125 9.5625 C-7.49014404 10.1807666 -8.16778809 10.7990332 -8.8659668 11.43603516 C-10.24624809 12.69414895 -11.62947193 13.94904209 -13.015625 15.20068359 C-14.81669194 16.83378686 -16.5997599 18.48345967 -18.375 20.14453125 C-19.35402962 21.05483491 -20.33318709 21.96500111 -21.3125 22.875 C-22.17488281 23.67679688 -23.03726563 24.47859375 -23.92578125 25.3046875 C-26 27 -26 27 -28 27 C-26.67789665 24.04416893 -25.27958084 22.06129621 -22.91015625 19.86328125 C-22.295354 19.28980957 -21.68055176 18.71633789 -21.04711914 18.12548828 C-20.39219482 17.52720215 -19.73727051 16.92891602 -19.0625 16.3125 C-18.39532959 15.69616699 -17.72815918 15.07983398 -17.04077148 14.44482422 C-11.53858877 9.40143099 -5.86961796 4.61271433 0 0 Z " fill="#BDA4D6" transform="translate(107,75)"/>
<path d="M0 0 C0.66 0.66 1.32 1.32 2 2 C-8.23 12.23 -18.46 22.46 -29 33 C-29.66 32.34 -30.32 31.68 -31 31 C-29.71034824 29.62437146 -28.37310707 28.29233607 -27 27 C-26.34 27 -25.68 27 -25 27 C-25 26.34 -25 25.68 -25 25 C-23.53125 23.5546875 -23.53125 23.5546875 -21.5 21.875 C-14.93939169 16.28633367 -9.0493205 10.20641603 -3.4453125 3.6640625 C-2.34597202 2.39833536 -1.1854566 1.1854566 0 0 Z " fill="#D5BAEE" transform="translate(285,215)"/>
<path d="M0 0 C-1.32206114 3.96618342 -3.2376384 4.84606596 -6.625 7.25 C-10.97614371 10.39188487 -14.85641302 13.6723897 -18.54296875 17.57421875 C-20.46752072 19.45749347 -22.68369712 20.64882332 -25 22 C-26.78344178 24.06954847 -26.78344178 24.06954847 -28 26 C-28.66 25.67 -29.32 25.34 -30 25 C-23.46626811 17.13910382 -16.15503493 10.83065209 -8.125 4.5625 C-7.55313965 4.11277832 -6.9812793 3.66305664 -6.39208984 3.19970703 C-2.23631979 0 -2.23631979 0 0 0 Z " fill="#C6B1D8" transform="translate(83,202)"/>
<path d="M0 0 C0.52464844 0.23460937 1.04929687 0.46921875 1.58984375 0.7109375 C-0.3660095 1.71577954 -2.32491862 2.71467555 -4.28515625 3.7109375 C-5.37570312 4.2678125 -6.46625 4.8246875 -7.58984375 5.3984375 C-10.41015625 6.7109375 -10.41015625 6.7109375 -12.41015625 6.7109375 C-12.41015625 7.7009375 -12.41015625 8.6909375 -12.41015625 9.7109375 C-14.39215604 11.20952271 -16.280839 12.45839794 -18.41015625 13.7109375 C-19.03277344 14.10023437 -19.65539062 14.48953125 -20.296875 14.890625 C-21.96011207 15.90181735 -23.68264393 16.81395995 -25.41015625 17.7109375 C-26.07015625 17.3809375 -26.73015625 17.0509375 -27.41015625 16.7109375 C-21.57747952 11.56865924 -15.68068147 7.00499468 -8.97265625 3.0859375 C-8.38210449 2.73144531 -7.79155273 2.37695312 -7.18310547 2.01171875 C-4.61787425 0.5613906 -2.97897106 -0.3572834 0 0 Z " fill="#BC9ED4" transform="translate(317.41015625,7.2890625)"/>
<path d="M0 0 C2.24310798 2.76380838 3.61805985 5.22238918 4.75390625 8.58984375 C5.19959961 9.89018555 5.19959961 9.89018555 5.65429688 11.21679688 C5.95400391 12.11462891 6.25371094 13.01246094 6.5625 13.9375 C7.16704463 15.717762 7.77248645 17.49771963 8.37890625 19.27734375 C8.65895508 20.10645264 8.93900391 20.93556152 9.22753906 21.78979492 C9.83247288 23.52066275 10.50697673 25.22724465 11.20703125 26.921875 C12.25501168 29.66830648 12.13535394 32.08989029 12 35 C10.35 35.66 8.7 36.32 7 37 C7 36.34 7 35.68 7 35 C8.98 34.505 8.98 34.505 11 34 C10.71125 33.16855469 10.4225 32.33710938 10.125 31.48046875 C9.75375 30.39378906 9.3825 29.30710938 9 28.1875 C8.62875 27.10855469 8.2575 26.02960938 7.875 24.91796875 C7 22 7 22 7 19 C6.34 19 5.68 19 5 19 C4.67 16.36 4.34 13.72 4 11 C3.34 11 2.68 11 2 11 C2 9.02 2 7.04 2 5 C1.34 5 0.68 5 0 5 C0 3.35 0 1.7 0 0 Z " fill="#B592D1" transform="translate(569,219)"/>
<path d="M0 0 C0 0.99 0 1.98 0 3 C-2.0546875 4.5078125 -2.0546875 4.5078125 -4.875 6.125 C-10.90894318 9.77980086 -15.91543495 14.13602346 -21 19 C-21.99 18.67 -22.98 18.34 -24 18 C-16.52280738 10.66863915 -9.35423446 4.85955797 0 0 Z " fill="#BBA8CB" transform="translate(564,72)"/>
<path d="M0 0 C2.03833424 1.2739589 4.03852126 2.61061923 6 4 C6 4.66 6 5.32 6 6 C6.99 6.33 7.98 6.66 9 7 C9 7.66 9 8.32 9 9 C9.56074219 9.23976563 10.12148438 9.47953125 10.69921875 9.7265625 C13.49820004 11.27574399 15.5203048 13.14575685 17.8125 15.375 C18.62332031 16.14585938 19.43414062 16.91671875 20.26953125 17.7109375 C22 20 22 20 21.76171875 22.2890625 C21.51035156 22.85367188 21.25898438 23.41828125 21 24 C20.65710938 23.58492187 20.31421875 23.16984375 19.9609375 22.7421875 C15.15899767 17.08867213 9.95077775 11.904006 4.62451172 6.74951172 C4.02783691 6.16443848 3.43116211 5.57936523 2.81640625 4.9765625 C2.27443604 4.45143066 1.73246582 3.92629883 1.17407227 3.38525391 C0 2 0 2 0 0 Z " fill="#C6AFDA" transform="translate(403,20)"/>
<path d="M0 0 C-2.0677271 6.20318129 -11.51533572 9.74717772 -17.23828125 12.6328125 C-24.50178571 16 -24.50178571 16 -27 16 C-27 15.34 -27 14.68 -27 14 C-26.07719238 13.52373169 -26.07719238 13.52373169 -25.13574219 13.0378418 C-22.3385307 11.59149037 -19.54425251 10.13955914 -16.75 8.6875 C-15.78191406 8.18798828 -14.81382813 7.68847656 -13.81640625 7.17382812 C-12.88183594 6.68720703 -11.94726562 6.20058594 -10.984375 5.69921875 C-9.69611816 5.03152466 -9.69611816 5.03152466 -8.38183594 4.3503418 C-5.96396547 3.05075927 -5.96396547 3.05075927 -3.81347656 1.33129883 C-2 0 -2 0 0 0 Z " fill="#AA8FC2" transform="translate(58,118)"/>
<path d="M0 0 C-1.612328 4.03082 -4.46234596 6.75944137 -7.5 9.75 C-7.99886719 10.25660156 -8.49773437 10.76320313 -9.01171875 11.28515625 C-12.74658861 15 -12.74658861 15 -15 15 C-15.33 15.99 -15.66 16.98 -16 18 C-18.0625 19.6875 -18.0625 19.6875 -20 21 C-20.66 20.67 -21.32 20.34 -22 20 C-19.19469153 17.1453424 -16.38292304 14.29722769 -13.56494141 11.45507812 C-12.60675044 10.48681462 -11.65036018 9.51676574 -10.69580078 8.54492188 C-9.3253618 7.1502903 -7.94793633 5.76253479 -6.5703125 4.375 C-5.74289551 3.53710938 -4.91547852 2.69921875 -4.06298828 1.8359375 C-2 0 -2 0 0 0 Z " fill="#BDA2D4" transform="translate(290,25)"/>
<path d="M0 0 C3.65219384 1.48193231 5.42957851 3.46130483 7.8125 6.5625 C8.49957031 7.44808594 9.18664062 8.33367187 9.89453125 9.24609375 C10.93673828 10.60927734 10.93673828 10.60927734 12 12 C13.33253442 13.70895657 14.66580543 15.4173392 16 17.125 C17.00072069 18.41610839 18.00100775 19.70755377 19 21 C16 21 16 21 13.984375 19.12890625 C0 3.06643357 0 3.06643357 0 0 Z " fill="#CDBBDF" transform="translate(156,86)"/>
<path d="M0 0 C0.33 0.66 0.66 1.32 1 2 C1.66 2 2.32 2 3 2 C3.8397028 4.91496831 4.67196003 7.8317186 5.5 10.75 C5.73847656 11.575 5.97695312 12.4 6.22265625 13.25 C6.44824219 14.04921875 6.67382812 14.8484375 6.90625 15.671875 C7.11572266 16.4050293 7.32519531 17.13818359 7.54101562 17.89355469 C8 20 8 20 8 24 C8.66 24 9.32 24 10 24 C10 25.65 10 27.3 10 29 C8 28 8 28 7.03857422 25.74682617 C6.7138916 24.77205322 6.38920898 23.79728027 6.0546875 22.79296875 C5.70019531 21.73142578 5.34570312 20.66988281 4.98046875 19.57617188 C4.61566406 18.45791016 4.25085938 17.33964844 3.875 16.1875 C3.50246094 15.08083984 3.12992187 13.97417969 2.74609375 12.83398438 C0 4.52026099 0 4.52026099 0 0 Z " fill="#B088C9" transform="translate(0,275)"/>
<path d="M0 0 C0 0.99 0 1.98 0 3 C-1.98 3.66 -3.96 4.32 -6 5 C-6 5.66 -6 6.32 -6 7 C-6.66 7 -7.32 7 -8 7 C-8 7.66 -8 8.32 -8 9 C-9.65 9.33 -11.3 9.66 -13 10 C-13 10.66 -13 11.32 -13 12 C-15.375 13.6875 -15.375 13.6875 -18 15 C-18.66 14.67 -19.32 14.34 -20 14 C-13.95804954 8.15352441 -7.35321601 4.03201345 0 0 Z " fill="#B99AD5" transform="translate(93,7)"/>
<path d="M0 0 C0.33 0.99 0.66 1.98 1 3 C-0.32 3.33 -1.64 3.66 -3 4 C-3 4.66 -3 5.32 -3 6 C-7.62 8.64 -12.24 11.28 -17 14 C-17.66 13.34 -18.32 12.68 -19 12 C-17.948125 11.45472656 -17.948125 11.45472656 -16.875 10.8984375 C-10.838803 7.6999092 -5.31501114 4.29465084 0 0 Z " fill="#BD94E0" transform="translate(23,66)"/>
<path d="M0 0 C0.66 0 1.32 0 2 0 C0.50433579 4.52853884 -3.14924479 6.37614086 -7 8.75 C-7.64195312 9.16121094 -8.28390625 9.57242187 -8.9453125 9.99609375 C-13.71563538 13 -13.71563538 13 -16 13 C-16 12.34 -16 11.68 -16 11 C-13.73518525 9.41522101 -11.47838029 7.94150299 -9.125 6.5 C-4.29888976 3.59980992 -4.29888976 3.59980992 0 0 Z " fill="#B695D6" transform="translate(513,303)"/>
<path d="M0 0 C0.66 0.66 1.32 1.32 2 2 C0.54550599 3.0055761 -0.91372443 4.00430435 -2.375 5 C-3.59316406 5.8353125 -3.59316406 5.8353125 -4.8359375 6.6875 C-7 8 -7 8 -9 8 C-9 8.66 -9 9.32 -9 10 C-11.97 11.32 -14.94 12.64 -18 14 C-16.61415403 9.84246209 -13.69360927 8.6206911 -10.125 6.4375 C-8.85676847 5.64453503 -7.58853922 4.85156641 -6.3203125 4.05859375 C-5.22460938 3.37925781 -4.12890625 2.69992188 -3 2 C-2.01 1.34 -1.02 0.68 0 0 Z " fill="#BAA0CE" transform="translate(25,252)"/>
<path d="M0 0 C5.00395135 1.92236741 9.8080131 4.22742223 14.6484375 6.52148438 C17.40971977 7.82204832 20.10119917 9.03373306 23 10 C23 10.66 23 11.32 23 12 C14.88975813 9.99443043 4.8193976 7.2290964 0 0 Z " fill="#C7AFDC" transform="translate(192,123)"/>
<path d="M0 0 C3.7530135 1.87650675 4.37345711 7.02310579 5.6875 10.8125 C6.02072266 11.72837891 6.35394531 12.64425781 6.69726562 13.58789062 C7.00728516 14.47283203 7.31730469 15.35777344 7.63671875 16.26953125 C7.92248779 17.08010986 8.20825684 17.89068848 8.50268555 18.72583008 C9.04585504 21.20969056 8.81717062 22.62008006 8 25 C7.67 23.35 7.34 21.7 7 20 C6.34 20 5.68 20 5 20 C4.80664062 19.18015625 4.61328125 18.3603125 4.4140625 17.515625 C4.15367187 16.43796875 3.89328125 15.3603125 3.625 14.25 C3.36976563 13.18265625 3.11453125 12.1153125 2.8515625 11.015625 C2.12992991 8.07824123 2.12992991 8.07824123 0.8984375 5.859375 C0 4 0 4 0 0 Z " fill="#B086CA" transform="translate(572,38)"/>
<path d="M0 0 C0 0.99 0 1.98 0 3 C-2.23046875 4.9375 -2.23046875 4.9375 -5.1875 7 C-6.15042969 7.680625 -7.11335938 8.36125 -8.10546875 9.0625 C-15.48185484 14 -15.48185484 14 -18 14 C-18 13.34 -18 12.68 -18 12 C-15.9610296 10.6207843 -13.9374203 9.35823314 -11.8125 8.125 C-7.6330176 5.67415525 -3.71954959 3.12414146 0 0 Z " fill="#C7ADDD" transform="translate(67,298)"/>
<path d="M0 0 C0 3.67819168 -0.76843318 4.22382655 -3.1875 6.875 C-3.82558594 7.57625 -4.46367187 8.2775 -5.12109375 9 C-11.18989547 15.45993031 -11.18989547 15.45993031 -15 18 C-15 15 -15 15 -13.62304688 13.2824707 C-12.99462891 12.66976318 -12.36621094 12.05705566 -11.71875 11.42578125 C-11.04199219 10.75869141 -10.36523438 10.09160156 -9.66796875 9.40429688 C-8.95253906 8.71400391 -8.23710937 8.02371094 -7.5 7.3125 C-6.42685547 6.2596582 -6.42685547 6.2596582 -5.33203125 5.18554688 C-3.56120423 3.45013639 -1.78376544 1.7220927 0 0 Z " fill="#C6AEDA" transform="translate(505,225)"/>
<path d="M0 0 C-0.38027344 0.99386719 -0.76054688 1.98773438 -1.15234375 3.01171875 C-2.43774623 7.50892867 -1.2553699 10.59082694 0.4375 14.8125 C1.35255512 17.19809711 2.19828662 19.57136643 3 22 C2.67 22.66 2.34 23.32 2 24 C-4.30091938 8.52298444 -4.30091938 8.52298444 -4 1 C-2 0 -2 0 0 0 Z " fill="#AD91CA" transform="translate(4,79)"/>
<path d="M0 0 C-0.66 0 -1.32 0 -2 0 C-2 0.66 -2 1.32 -2 2 C-4.64 2.33 -7.28 2.66 -10 3 C-10 3.66 -10 4.32 -10 5 C-12.31 5.33 -14.62 5.66 -17 6 C-12.98615948 0.93907065 -6.30754927 -2.10729487 0 0 Z " fill="#AE8DCD" transform="translate(555,10)"/>
<path d="M0 0 C0.66 0.66 1.32 1.32 2 2 C1.27554688 2.58007812 0.55109375 3.16015625 -0.1953125 3.7578125 C-6.60939777 8.90364708 -6.60939777 8.90364708 -12.5625 14.5625 C-13.7690625 15.7690625 -13.7690625 15.7690625 -15 17 C-15.66 17 -16.32 17 -17 17 C-15.89331271 13.67993813 -15.05427405 12.9417403 -12.4375 10.75 C-11.72464844 10.14542969 -11.01179688 9.54085938 -10.27734375 8.91796875 C-9.52582031 8.28503906 -8.77429688 7.65210938 -8 7 C-6.49732552 5.69056285 -4.99718607 4.37820897 -3.5 3.0625 C-1.75 1.53125 -1.75 1.53125 0 0 Z " fill="#CAADE5" transform="translate(112,258)"/>
<path d="M0 0 C-0.75925781 0.61488281 -1.51851562 1.22976563 -2.30078125 1.86328125 C-3.29464844 2.67152344 -4.28851562 3.47976563 -5.3125 4.3125 C-6.29863281 5.11300781 -7.28476562 5.91351563 -8.30078125 6.73828125 C-10.91073848 8.84442144 -10.91073848 8.84442144 -12.73046875 10.79296875 C-14 12 -14 12 -16 12 C-16 10 -16 10 -14.625 8.375 C-13 7 -13 7 -11 7 C-10.67 6.01 -10.34 5.02 -10 4 C-8.4765625 2.578125 -8.4765625 2.578125 -6.625 1.25 C-6.01914062 0.80140625 -5.41328125 0.3528125 -4.7890625 -0.109375 C-3 -1 -3 -1 0 0 Z " fill="#C3AAD8" transform="translate(559,265)"/>
<path d="M0 0 C0.33 0.99 0.66 1.98 1 3 C-0.57646551 4.32074115 -2.16145531 5.63131224 -3.75 6.9375 C-4.63171875 7.66839844 -5.5134375 8.39929688 -6.421875 9.15234375 C-8.76330955 10.83037185 -10.19661127 11.58735166 -13 12 C-13 11.34 -13 10.68 -13 10 C-11.61355063 9.05315653 -10.22125083 8.11374754 -8.80078125 7.21875 C-5.646713 5.08410945 -2.84459759 2.52479076 0 0 Z " fill="#BEAECF" transform="translate(253,248)"/>
<path d="M0 0 C0 0.99 0 1.98 0 3 C-2.08203125 5.04296875 -2.08203125 5.04296875 -4.8125 7.1875 C-5.70582031 7.90292969 -6.59914063 8.61835938 -7.51953125 9.35546875 C-10 11 -10 11 -13 11 C-9.27450216 5.99386227 -5.42841405 3.04422227 0 0 Z " fill="#CCB9DB" transform="translate(300,204)"/>
<path d="M0 0 C0.66 0.66 1.32 1.32 2 2 C1.52949219 2.45890625 1.05898438 2.9178125 0.57421875 3.390625 C-4.03368398 7.91549295 -4.03368398 7.91549295 -8 13 C-9.32 12.67 -10.64 12.34 -12 12 C-11.55269531 11.63648438 -11.10539062 11.27296875 -10.64453125 10.8984375 C-6.61206348 7.5452127 -3.23995546 4.12357967 0 0 Z " fill="#D0B0EC" transform="translate(490,51)"/>
<path d="M0 0 C3.76583554 0.54745627 5.22721286 1.99131767 7.625 4.875 C8.21539062 5.57367188 8.80578125 6.27234375 9.4140625 6.9921875 C11 9 11 9 13 12 C9.49626784 11.42118962 7.83206433 10.2149208 5.375 7.6875 C4.78460938 7.09324219 4.19421875 6.49898438 3.5859375 5.88671875 C2.00725271 4.00862822 0.99574898 2.23304103 0 0 Z " fill="#C8B8D6" transform="translate(392,289)"/>
<path d="M0 0 C0.58523438 0.22042969 1.17046875 0.44085938 1.7734375 0.66796875 C-0.01329455 2.17384325 -1.80609758 3.67251725 -3.6015625 5.16796875 C-5.09816406 6.4209375 -5.09816406 6.4209375 -6.625 7.69921875 C-9.2265625 9.66796875 -9.2265625 9.66796875 -11.2265625 9.66796875 C-9.86804119 6.58103171 -8.38145297 4.58155141 -5.8515625 2.35546875 C-4.97371094 1.55689453 -4.97371094 1.55689453 -4.078125 0.7421875 C-2.2265625 -0.33203125 -2.2265625 -0.33203125 0 0 Z " fill="#B19BC4" transform="translate(295.2265625,298.33203125)"/>
<path d="M0 0 C-1.24669004 3.74007011 -2.68513508 4.51247157 -5.875 6.75 C-7.20144531 7.70132813 -7.20144531 7.70132813 -8.5546875 8.671875 C-9.36164063 9.11015625 -10.16859375 9.5484375 -11 10 C-11.99 9.67 -12.98 9.34 -14 9 C-12.04594482 7.49412261 -10.08718716 5.99521356 -8.125 4.5 C-7.56941406 4.07074219 -7.01382813 3.64148438 -6.44140625 3.19921875 C-2.2265625 0 -2.2265625 0 0 0 Z " fill="#B6A0C8" transform="translate(83,202)"/>
<path d="M0 0 C5.47932789 1.54545146 10.11429181 4.15543212 15 7 C15 7.66 15 8.32 15 9 C11.45756548 7.63408831 8.07372071 6.09068516 4.6875 4.375 C3.80449219 3.92898437 2.92148438 3.48296875 2.01171875 3.0234375 C1.34785156 2.68570313 0.68398437 2.34796875 0 2 C0 1.34 0 0.68 0 0 Z " fill="#B393D2" transform="translate(158,194)"/>
<path d="M0 0 C0 0.66 0 1.32 0 2 C-2.28929053 3.17154293 -4.58118362 4.33738074 -6.875 5.5 C-7.52597656 5.83386719 -8.17695312 6.16773438 -8.84765625 6.51171875 C-13.7734375 9 -13.7734375 9 -16 9 C-16 8.34 -16 7.68 -16 7 C-13.71070947 5.82845707 -11.41881638 4.66261926 -9.125 3.5 C-8.47402344 3.16613281 -7.82304688 2.83226562 -7.15234375 2.48828125 C-2.2265625 0 -2.2265625 0 0 0 Z " fill="#B08AD2" transform="translate(575,255)"/>
<path d="M0 0 C0.66 0 1.32 0 2 0 C0.5611898 3.387199 -1.22119499 5.3594104 -4 7.75 C-5.051875 8.67039062 -5.051875 8.67039062 -6.125 9.609375 C-8 11 -8 11 -10 11 C-10 10.34 -10 9.68 -10 9 C-8.3203125 7.34375 -8.3203125 7.34375 -6.125 5.5 C-4.00964496 3.71066742 -1.95980876 1.95980876 0 0 Z " fill="#E5D9F1" transform="translate(324,269)"/>
<path d="M0 0 C0.99 0.33 1.98 0.66 3 1 C1.71034824 2.37562854 0.37310707 3.70766393 -1 5 C-1.66 5 -2.32 5 -3 5 C-3.268125 5.639375 -3.53625 6.27875 -3.8125 6.9375 C-5 9 -5 9 -8 10 C-6.34908222 5.70761377 -3.26245434 3.1206085 0 0 Z " fill="#E2D4EE" transform="translate(539,91)"/>
<path d="M0 0 C0.66 0.66 1.32 1.32 2 2 C0.71451591 3.33929505 -0.57858155 4.67128643 -1.875 6 C-2.59429687 6.7425 -3.31359375 7.485 -4.0546875 8.25 C-6 10 -6 10 -8 10 C-6.34908222 5.70761377 -3.26245434 3.1206085 0 0 Z " fill="#DACCE3" transform="translate(285,215)"/>
<path d="M0 0 C0.99 0.33 1.98 0.66 3 1 C-0.3 3.97 -3.6 6.94 -7 10 C-7.66 9.67 -8.32 9.34 -9 9 C-6.4948029 5.51061833 -5.19537087 3.86800777 -1 3 C-0.67 2.01 -0.34 1.02 0 0 Z " fill="#C1ACD5" transform="translate(76,102)"/>
<path d="M0 0 C0 0.99 0 1.98 0 3 C-0.66 3.66 -1.32 4.32 -2 5 C-2.99 5 -3.98 5 -5 5 C-5 5.66 -5 6.32 -5 7 C-7.31 7.66 -9.62 8.32 -12 9 C-12 8.34 -12 7.68 -12 7 C-11.21753906 6.57847656 -10.43507813 6.15695313 -9.62890625 5.72265625 C-8.61699219 5.17480469 -7.60507812 4.62695312 -6.5625 4.0625 C-5.55316406 3.51722656 -4.54382813 2.97195312 -3.50390625 2.41015625 C-1.13329507 1.22300532 -1.13329507 1.22300532 0 0 Z " fill="#BC95E1" transform="translate(477,64)"/>
<path d="M0 0 C0 3.90689726 -1.23150967 4.76963412 -3.8125 7.625 C-4.52019531 8.42164063 -5.22789062 9.21828125 -5.95703125 10.0390625 C-8 12 -8 12 -11 13 C-9.46356148 9.31930113 -7.21849055 7.01224796 -4.375 4.25 C-3.55773437 3.45078125 -2.74046875 2.6515625 -1.8984375 1.828125 C-0.95871094 0.92320312 -0.95871094 0.92320312 0 0 Z " fill="#B5A3CA" transform="translate(542,276)"/>
<path d="M0 0 C2.03833424 1.2739589 4.03852126 2.61061923 6 4 C6 4.66 6 5.32 6 6 C6.99 6.33 7.98 6.66 9 7 C9 7.66 9 8.32 9 9 C9.99 9.33 10.98 9.66 12 10 C11.01 10.33 10.02 10.66 9 11 C7.49403892 9.54782324 5.99537896 8.08807139 4.5 6.625 C3.6646875 5.81289063 2.829375 5.00078125 1.96875 4.1640625 C0 2 0 2 0 0 Z " fill="#DFC8F4" transform="translate(403,20)"/>
<path d="M0 0 C0.66 0.66 1.32 1.32 2 2 C-1.3 4.64 -4.6 7.28 -8 10 C-8 7 -8 7 -6.25 5.17578125 C-5.5075 4.56089844 -4.765 3.94601562 -4 3.3125 C-3.2575 2.68988281 -2.515 2.06726563 -1.75 1.42578125 C-1.1725 0.95527344 -0.595 0.48476563 0 0 Z " fill="#CAB6D9" transform="translate(78,289)"/>
<path d="M0 0 C0.33 0.99 0.66 1.98 1 3 C-1.31 4.98 -3.62 6.96 -6 9 C-6 6 -6 6 -4.6875 4.39453125 C-4.130625 3.87246094 -3.57375 3.35039062 -3 2.8125 C-2.443125 2.28269531 -1.88625 1.75289063 -1.3125 1.20703125 C-0.6628125 0.60955078 -0.6628125 0.60955078 0 0 Z " fill="#BBAACA" transform="translate(332,261)"/>
<path d="M0 0 C1.32 0 2.64 0 4 0 C4 0.66 4 1.32 4 2 C0.37 3.32 -3.26 4.64 -7 6 C-7 5.34 -7 4.68 -7 4 C-4.69 3.34 -2.38 2.68 0 2 C0 1.34 0 0.68 0 0 Z " fill="#B08AD3" transform="translate(490,128)"/>
<path d="M0 0 C0.66 0.66 1.32 1.32 2 2 C-4.75 6 -4.75 6 -7 6 C-7 5.34 -7 4.68 -7 4 C-4.69 2.68 -2.38 1.36 0 0 Z " fill="#B590D7" transform="translate(246,67)"/>
<path d="M0 0 C0.66 0.309375 1.32 0.61875 2 0.9375 C5.70476015 2.24960255 9.09263991 2.60264135 13 3 C13 3.33 13 3.66 13 4 C8.545 4.495 8.545 4.495 4 5 C4 4.34 4 3.68 4 3 C2.68 2.67 1.36 2.34 0 2 C0 1.34 0 0.68 0 0 Z " fill="#9B86AE" transform="translate(227,256)"/>
<path d="M0 0 C-1 3 -1 3 -3.375 4.75 C-6 6 -6 6 -9 5 C-7.87926138 4.16094435 -6.75325453 3.32892169 -5.625 2.5 C-4.99851562 2.0359375 -4.37203125 1.571875 -3.7265625 1.09375 C-2 0 -2 0 0 0 Z " fill="#B69DCC" transform="translate(58,118)"/>
<path d="M0 0 C3.14737182 0.69941596 6.02588876 1.76078698 9 3 C9 3.66 9 4.32 9 5 C4.68607774 4.5206753 2.83430453 3.2542015 0 0 Z " fill="#C1A2DE" transform="translate(420,313)"/>
<path d="M0 0 C0.66 0 1.32 0 2 0 C0.50902342 3.7952131 -1.75700849 5.61042731 -5 8 C-5 5 -5 5 -3.625 3.3125 C-2 2 -2 2 0 2 C0 1.34 0 0.68 0 0 Z " fill="#DFD0ED" transform="translate(260,240)"/>
<path d="M0 0 C0.66 0.66 1.32 1.32 2 2 C-4.75 6 -4.75 6 -7 6 C-7 5.34 -7 4.68 -7 4 C-4.69 2.68 -2.38 1.36 0 0 Z " fill="#C6B2D6" transform="translate(502,123)"/>
<path d="M0 0 C0.8353125 0.37125 0.8353125 0.37125 1.6875 0.75 C-3.5859375 3.97265625 -3.5859375 3.97265625 -5.3125 4.75 C-5.9725 4.42 -6.6325 4.09 -7.3125 3.75 C-2.88173077 -0.31153846 -2.88173077 -0.31153846 0 0 Z " fill="#B18AD8" transform="translate(297.3125,20.25)"/>
<path d="M0 0 C0 0.99 0 1.98 0 3 C-4.22222222 6 -4.22222222 6 -7 6 C-7 5.34 -7 4.68 -7 4 C-4.69 2.68 -2.38 1.36 0 0 Z " fill="#B78ADA" transform="translate(56,306)"/>
<path d="M0 0 C0.66 0.33 1.32 0.66 2 1 C-0.3125 3.5 -0.3125 3.5 -3 6 C-3.99 6 -4.98 6 -6 6 C-4 4 -2 2 0 0 Z " fill="#DBCEE9" transform="translate(517,112)"/>
<path d="M0 0 C0.66 0.33 1.32 0.66 2 1 C-3.75 6 -3.75 6 -6 6 C-4.98545548 3.4636387 -4.3146444 2.20648539 -2 0.6875 C-1.34 0.460625 -0.68 0.23375 0 0 Z " fill="#BDABCC" transform="translate(497,46)"/>
<path d="M0 0 C-1.39332574 3.36720387 -2.9789286 4.9859524 -6 7 C-5.37162381 3.35541809 -4.14650034 0 0 0 Z " fill="#DDCCEA" transform="translate(510,34)"/>
</svg>
