<?xml version="1.0" encoding="UTF-8"?>
<svg version="1.1" xmlns="http://www.w3.org/2000/svg" width="588" height="586">
<path d="M0 0 C6.63438637 -0.10214499 13.26856697 -0.17177544 19.90356445 -0.21972656 C22.15657123 -0.23973464 24.40952679 -0.26694991 26.66235352 -0.30175781 C29.91695867 -0.35075342 33.17087217 -0.37307756 36.42578125 -0.390625 C37.91553215 -0.42159271 37.91553215 -0.42159271 39.43537903 -0.45318604 C55.56242217 -0.45826054 67.77160668 8.20491716 79 19 C79.68578125 19.64582031 80.3715625 20.29164062 81.078125 20.95703125 C84.33370668 24.09634216 86.77782496 27.02347624 89 31 C89.66 31.33 90.32 31.66 91 32 C91.25523438 31.4225 91.51046875 30.845 91.7734375 30.25 C99.90434955 15.33469636 119.54786112 5.15071296 135 0 C136.6080057 -0.1116666 138.22008765 -0.16885784 139.83178711 -0.19287109 C140.81388657 -0.20893402 141.79598602 -0.22499695 142.80784607 -0.24154663 C147.3241189 -0.28628276 151.84024612 -0.32711321 156.35668945 -0.35009766 C158.72788352 -0.36658786 161.09902933 -0.39378484 163.4699707 -0.43212891 C166.90602156 -0.48736702 170.34090645 -0.50884979 173.77734375 -0.5234375 C174.82155991 -0.54610687 175.86577606 -0.56877625 176.94163513 -0.59213257 C194.66758863 -0.54213636 210.45656199 11.39318767 223 23 C224.95239668 25.08070694 226.80853459 27.18464346 228.59765625 29.40625 C230.10257295 31.25488456 230.10257295 31.25488456 233 33 C233.226875 32.443125 233.45375 31.88625 233.6875 31.3125 C235.38143236 28.32795251 237.51614698 26.37345955 240 24 C240.45890625 23.49726563 240.9178125 22.99453125 241.390625 22.4765625 C250.18613275 13.0147284 265.82227203 0.778592 279.20944214 -0.15390015 C280.49964767 -0.17319077 280.49964767 -0.17319077 281.81591797 -0.19287109 C283.28422562 -0.21696548 283.28422562 -0.21696548 284.78219604 -0.24154663 C289.28870821 -0.28631827 293.79507439 -0.32712338 298.30175781 -0.35009766 C300.66611633 -0.36657515 303.03042674 -0.39375485 305.39453125 -0.43212891 C330.37810727 -0.83520287 330.37810727 -0.83520287 341 5 C342.269646 5.63083496 342.269646 5.63083496 343.56494141 6.27441406 C348.4987 8.75948487 352.71859011 11.9872197 357.0078125 15.4453125 C359.0315648 17.10104651 359.0315648 17.10104651 361.625 18.5 C378.30063919 29.03198265 389.52061541 53.40387 394 72 C395.84370169 80.91343299 396.40540834 89.67614402 396.61712646 98.76025391 C396.6549108 100.16912248 396.69292886 101.57798481 396.73116469 102.9868412 C397.09733631 117.21871204 397.14069592 131.45203882 397.12731338 145.68788195 C397.12498028 149.43681057 397.12862232 153.1857344 397.13163757 156.93466187 C397.1356795 162.56447028 397.13796609 168.19427453 397.13805357 173.8240844 C397.13825891 184.87395268 397.15086295 195.92377848 397.16766357 206.97363281 C397.17026856 208.72611236 397.17286738 210.47859191 397.1754601 212.23107147 C397.17939703 214.88389606 397.18334386 217.53672063 397.18732132 220.18954515 C397.20217691 230.12017693 397.21585158 240.05080988 397.22802734 249.98144531 C397.22969769 251.33864166 397.22969769 251.33864166 397.23140177 252.72325611 C397.24903524 267.43469964 397.25184065 282.14611569 397.25017694 296.85756803 C397.24889566 312.03703182 397.26667378 327.21639399 397.30119491 342.39581871 C397.32174736 351.72136802 397.32725691 361.04667294 397.3128666 370.37223494 C397.30437446 376.75524507 397.31422486 383.13806544 397.3381761 389.52103555 C397.35140353 393.19317664 397.3568085 396.86486172 397.34005547 400.53699875 C397.26713627 417.89865852 397.68361147 432.41672113 406 448 C406.556875 448.556875 407.11375 449.11375 407.6875 449.6875 C408.120625 450.120625 408.55375 450.55375 409 451 C409 451.99 409 452.98 409 454 C409.58652344 454.27199219 410.17304688 454.54398437 410.77734375 454.82421875 C412.95688333 455.97719136 414.65909709 457.25442289 416.5625 458.8125 C426.67815992 466.50265782 437.89798363 469.35613897 450.41015625 469.1953125 C451.16776245 469.19329834 451.92536865 469.19128418 452.70593262 469.18920898 C455.49151813 469.17887493 458.27701623 469.15095421 461.0625 469.125 C470.4365625 469.063125 470.4365625 469.063125 480 469 C480.33 450.52 480.66 432.04 481 413 C486 412 486 412 487.77001953 412.93701172 C488.30224121 413.42959473 488.83446289 413.92217773 489.3828125 414.4296875 C489.98681885 414.97310791 490.5908252 415.51652832 491.21313477 416.07641602 C491.84405029 416.66994873 492.47496582 417.26348145 493.125 417.875 C494.46894967 419.09106321 495.81400771 420.30590258 497.16015625 421.51953125 C497.8164502 422.11846191 498.47274414 422.71739258 499.14892578 423.33447266 C501.55258152 425.49719219 504.04269446 427.53692081 506.5625 429.5625 C511.47101121 433.53780624 516.27144637 437.62822573 521.05493164 441.75219727 C522.16241873 442.70677244 523.2711907 443.65985928 524.38134766 444.61132812 C525.47343039 445.54824616 526.56157343 446.48977333 527.64599609 447.43554688 C530.09739448 449.5417098 531.90032578 450.96677526 535 452 C536.35532191 453.310976 537.68645317 454.64716953 539 456 C541.19467077 457.7549514 543.43521261 459.43578545 545.68359375 461.12109375 C548.31271421 463.25365183 550.62312161 465.59041227 553 468 C562.04956995 476.87438327 562.04956995 476.87438327 572.23828125 484.30078125 C575.63875296 486.39300924 578.71236084 488.74085727 581.8125 491.25 C582.40998047 491.70246094 583.00746094 492.15492188 583.62304688 492.62109375 C586.75899122 495.18002434 587.87083887 496.42329554 588.78125 500.48828125 C587.7091791 505.30723993 585.49159281 506.99984596 581.6875 509.9375 C581.0495752 510.45691162 580.41165039 510.97632324 579.75439453 511.51147461 C575.20254405 515.17991797 570.46940654 518.57959902 565.69921875 521.95703125 C562.15589074 524.63888444 558.93539567 527.61718388 555.69311523 530.64599609 C547.15880756 538.61463709 538.38685035 546.13153436 528.84765625 552.875 C524.77689396 555.91271562 520.9715954 559.23070462 517.14086914 562.56274414 C513.63652885 565.60875374 510.0870586 568.56455878 506.4375 571.4375 C503.91822671 573.42424398 501.64903606 575.35096394 499.375 577.625 C491.44803695 585.55196305 491.44803695 585.55196305 486.9296875 586.37890625 C485 586.375 485 586.375 482 586 C480.76919491 583.53838983 480.87956023 581.93503007 480.88647461 579.18310547 C480.88655014 578.18221893 480.88662567 577.1813324 480.88670349 576.15011597 C480.89186478 575.06674957 480.89702606 573.98338318 480.90234375 572.8671875 C480.90446617 571.20672897 480.90446617 571.20672897 480.90663147 569.51272583 C480.91224228 565.96679007 480.92479663 562.42091677 480.9375 558.875 C480.94251361 556.47526133 480.94707675 554.07552167 480.95117188 551.67578125 C480.96221522 545.78383275 480.9789639 539.89192084 481 534 C479.76548096 534.01571045 478.53096191 534.0314209 477.2590332 534.04760742 C472.62026657 534.10245631 467.98152779 534.13654739 463.3425293 534.16479492 C461.34573525 534.1797576 459.34897336 534.20013511 457.35229492 534.22631836 C446.08105303 534.37027862 435.87233848 534.24480905 425 531 C423.68470178 530.69388045 422.36726976 530.39661193 421.046875 530.11328125 C399.72042471 524.93327851 381.42629195 513.40453414 366 498 C365.13761719 497.14921875 364.27523438 496.2984375 363.38671875 495.421875 C341.97579292 473.17848705 331.65537599 443.22805399 331.73498535 412.74139404 C331.73140541 411.3506532 331.72695093 409.95991439 331.72170877 408.56917882 C331.70989479 404.78497271 331.71021322 401.00085388 331.71264386 397.2166338 C331.71306611 393.12120471 331.70193935 389.02580463 331.69218445 384.9303894 C331.67678072 377.84518028 331.66833109 370.75999094 331.66447449 363.67476654 C331.65870856 353.4211109 331.64009309 343.16750831 331.61803395 332.91387621 C331.58237241 316.26225428 331.55403297 299.61062935 331.53173828 282.95898438 C331.53040329 281.96385013 331.5290683 280.96871588 331.52769285 279.94342604 C331.51691431 271.86756732 331.50649242 263.79170814 331.4960928 255.71584892 C331.48698068 248.65040948 331.4777286 241.58497023 331.46826172 234.51953125 C331.46693098 233.52440477 331.46560023 232.52927829 331.46422917 231.50399646 C331.4417938 214.90703391 331.41159999 198.31009416 331.37586927 181.71315503 C331.35422632 171.48529363 331.33958983 161.25746771 331.33403051 151.02958468 C331.32978083 144.02463591 331.31853649 137.01972099 331.30180657 130.01479098 C331.29241156 125.9751869 331.28628368 121.93564608 331.28886986 117.89603043 C331.29118839 114.19517915 331.28432066 110.49446059 331.27029103 106.79363623 C331.26521314 104.82752711 331.26991347 102.86140016 331.27501154 100.89529109 C331.21827528 90.14976603 330.18720648 81.40350296 323 73 C314.54413562 65.25568585 306.15461399 64.13575595 295 64 C284.48093335 64.48674344 276.535867 69.42568095 269 76.5625 C268.41734847 77.22299473 267.83469694 77.88348946 267.23438931 78.56399918 C265 81 265 81 262.24913883 83.37932968 C255.47368279 89.7834076 253.33314304 95.97418623 252.76252925 105.22270727 C252.58400767 111.62261088 252.58561302 118.00890706 252.66805327 124.41024423 C252.70763891 128.43332204 252.68303849 132.45609577 252.66647339 136.47926331 C252.6463788 143.43608631 252.66596544 150.3918678 252.71290398 157.34854889 C252.78054678 167.40851848 252.78513465 177.46776242 252.77435536 187.52791795 C252.75836943 203.85555894 252.78980653 220.18273938 252.8527832 236.51025391 C252.91378109 252.35824462 252.95727305 268.20609592 252.97387695 284.05419922 C252.97491072 285.03211183 252.97594449 286.01002444 252.97700959 287.01757076 C252.98787591 297.68716655 252.99484446 308.35676374 253.00055027 319.02636337 C253.00213226 321.85313386 253.00374053 324.67990434 253.00538122 327.5066748 C253.00643969 329.36948798 253.00743641 331.23230119 253.00837035 333.09511444 C253.01463782 344.95639219 253.03781049 356.81747516 253.07922447 368.67868185 C253.09988083 374.65112491 253.11403691 380.62357739 253.12618779 386.59604332 C253.13632279 391.3262074 253.15485756 396.05623701 253.17987001 400.78634454 C253.19293814 403.647204 253.19780843 406.50803147 253.20020551 409.36891791 C253.20434131 411.31135572 253.21855778 413.25376384 253.23305267 415.19615197 C253.23237087 416.33753743 253.23168906 417.47892289 253.2309866 418.65489578 C253.23651331 420.14150896 253.23651331 420.14150896 253.24215168 421.65815473 C253 424 253 424 251 426 C248.57777405 426.26069641 248.57777405 426.26069641 245.49633789 426.2746582 C244.34496841 426.28419022 243.19359894 426.29372223 242.00733948 426.30354309 C240.75839401 426.30263168 239.50944855 426.30172028 238.22265625 426.30078125 C236.94523056 426.30506638 235.66780487 426.3093515 234.35166931 426.31376648 C231.64552122 426.31951912 228.93975338 426.32093441 226.23364258 426.31567383 C222.76540507 426.30988039 219.29770181 426.32680408 215.82955265 426.3500185 C212.52309099 426.36829243 209.21665935 426.36457062 205.91015625 426.36328125 C204.66323502 426.372491 203.41631378 426.38170074 202.13160706 426.39118958 C200.97708542 426.38496078 199.82256378 426.37873199 198.63305664 426.37231445 C197.10655235 426.37325859 197.10655235 426.37325859 195.54920959 426.3742218 C192.50335522 425.92709297 191.82289111 425.43331448 190 423 C189.62444448 420.5165295 189.62444448 420.5165295 189.62361908 417.48943996 C189.61601264 416.33662987 189.60840619 415.18381978 189.60056925 413.99607605 C189.60746318 412.72373188 189.61435712 411.45138772 189.62145996 410.14048767 C189.61817083 408.77971279 189.61355839 407.41894057 189.6077323 406.05817419 C189.59548187 402.31026238 189.60190455 398.56257572 189.61123729 394.81466401 C189.61801692 390.77561598 189.60750946 386.73661023 189.59895325 382.6975708 C189.58636865 375.69456682 189.58442007 368.69162458 189.58930969 361.68861198 C189.59610966 351.55247916 189.58361396 341.41643962 189.56580251 331.28032345 C189.53712923 314.8217334 189.51963416 298.36315339 189.51123047 281.90454102 C189.51072329 280.91896714 189.51021611 279.93339325 189.50969356 278.9179535 C189.50616739 271.92446913 189.50303847 264.9309846 189.5 257.9375 C189.49653284 249.96101873 189.49288311 241.9845376 189.48876953 234.00805664 C189.48826692 233.02580331 189.4877643 232.04354997 189.48724645 231.03153139 C189.4784974 214.64392905 189.45804853 198.25636123 189.42928743 181.8687821 C189.41211658 171.76133082 189.40551857 161.65397722 189.41259348 151.54651327 C189.41677778 144.61574134 189.41040698 137.6850309 189.39579475 130.75427329 C189.3877484 126.75711144 189.38460588 122.76010217 189.39461708 118.76294136 C189.40371628 115.0992149 189.39892993 111.43577134 189.38340265 107.77206893 C189.37873152 105.82808682 189.38876694 103.88408626 189.39943075 101.94012779 C189.32371422 90.28304723 187.03634154 80.76142498 179 72 C169.2786715 64.10549833 158.75885613 63.29749182 146.6953125 64.484375 C131.83772491 66.55752676 120.76670055 81.8319143 112 93 C110.70280149 95.59439701 110.88067477 97.45365388 110.88812542 100.36021328 C110.88860117 101.50489903 110.88907691 102.64958478 110.88956708 103.82895797 C110.8952084 105.09731697 110.90084972 106.36567597 110.90666199 107.67247009 C110.90908832 109.02499193 110.91106385 110.37751464 110.91262513 111.73003775 C110.91701213 114.67909724 110.92461757 117.6281256 110.93462753 120.57717133 C110.95090477 125.37462756 110.96036123 130.17208346 110.96897888 134.96955872 C110.98211961 141.93438971 110.99846501 148.89920718 111.01653099 155.86402702 C111.04468398 166.86641878 111.06138448 177.86881416 111.07600403 188.87123108 C111.08112874 192.63260941 111.08630269 196.39398768 111.09147358 200.15536594 C111.09275961 201.09542055 111.09404564 202.03547515 111.09537065 203.00401626 C111.11011101 213.71028095 111.12659001 224.41654254 111.14428711 235.12280273 C111.14590185 236.10180645 111.1475166 237.08081016 111.14918027 238.08948065 C111.1757287 253.96267387 111.21348471 269.83582486 111.25447568 285.70898645 C111.29616704 301.99140431 111.3226248 318.27379984 111.33568364 334.55626589 C111.34429539 344.60767905 111.36538845 354.65891247 111.40231238 364.71026219 C111.42653436 371.59425767 111.43628577 378.47817624 111.43449231 385.36221378 C111.43391278 389.33831509 111.43997427 393.31412629 111.46336365 397.29016495 C111.48462293 400.92646675 111.48763164 404.56229897 111.4758083 408.19863946 C111.47433118 410.14489532 111.49270535 412.09113454 111.51166314 414.03729862 C111.50431564 415.18459212 111.49696815 416.33188561 111.489398 417.51394558 C111.49145896 418.50810842 111.49351991 419.50227126 111.49564332 420.52656025 C111 423 111 423 109.13108808 424.81906897 C106.4201734 426.3213078 104.54641056 426.38062545 101.45288086 426.38818359 C100.34170395 426.39764008 99.23052704 426.40709656 98.0856781 426.4168396 C96.89080276 426.41076691 95.69592743 426.40469421 94.46484375 426.3984375 C93.23464005 426.40130768 92.00443634 426.40417786 90.73695374 426.40713501 C88.13704976 426.40917616 85.53713045 426.4036428 82.93725586 426.39111328 C80.26828838 426.38036117 77.60113822 426.37743023 74.93237305 426.39111328 C71.08884286 426.40960661 67.24589796 426.40741184 63.40234375 426.3984375 C62.20544418 426.40451019 61.00854462 426.41058289 59.77537537 426.4168396 C58.66735062 426.40738312 57.55932587 426.39792664 56.41772461 426.38818359 C54.95356361 426.38460342 54.95356361 426.38460342 53.45982361 426.38095093 C50.48326053 425.91997297 49.79232233 425.38220119 48 423 C47.62444448 420.5165295 47.62444448 420.5165295 47.62361908 417.48943996 C47.61601264 416.33662987 47.60840619 415.18381978 47.60056925 413.99607605 C47.60746318 412.72373188 47.61435712 411.45138772 47.62145996 410.14048767 C47.61817083 408.77971279 47.61355839 407.41894057 47.6077323 406.05817419 C47.59548187 402.31026238 47.60190455 398.56257572 47.61123729 394.81466401 C47.61801692 390.77561598 47.60750946 386.73661023 47.59895325 382.6975708 C47.58636865 375.69456682 47.58442007 368.69162458 47.58930969 361.68861198 C47.59610966 351.55247916 47.58361396 341.41643962 47.56580251 331.28032345 C47.53712923 314.8217334 47.51963416 298.36315339 47.51123047 281.90454102 C47.51072329 280.91896714 47.51021611 279.93339325 47.50969356 278.9179535 C47.50616739 271.92446913 47.50303847 264.9309846 47.5 257.9375 C47.49653284 249.96101873 47.49288311 241.9845376 47.48876953 234.00805664 C47.48826692 233.02580331 47.4877643 232.04354997 47.48724645 231.03153139 C47.4784974 214.64392905 47.45804853 198.25636123 47.42928743 181.8687821 C47.41211658 171.76133082 47.40551857 161.65397722 47.41259348 151.54651327 C47.41677778 144.61574134 47.41040698 137.6850309 47.39579475 130.75427329 C47.3877484 126.75711144 47.38460588 122.76010217 47.39461708 118.76294136 C47.40371628 115.0992149 47.39892993 111.43577134 47.38340265 107.77206893 C47.37873152 105.82808682 47.38876694 103.88408626 47.39943075 101.94012779 C47.3142038 88.81885364 43.78755518 77.85211299 34.625 68.1875 C25.47052069 59.69262291 15.4354756 56.94375351 3.1171875 56.2109375 C1 56 1 56 0 55 C-0.0935919 53.28134591 -0.11744611 51.55884256 -0.11352539 49.83764648 C-0.11344986 48.73658066 -0.11337433 47.63551483 -0.11329651 46.50108337 C-0.10813522 45.3031868 -0.10297394 44.10529022 -0.09765625 42.87109375 C-0.0962413 41.65172623 -0.09482635 40.4323587 -0.09336853 39.17604065 C-0.08774967 35.2631693 -0.07519396 31.35035419 -0.0625 27.4375 C-0.05748743 24.79231853 -0.0529241 22.14713617 -0.04882812 19.50195312 C-0.03777411 13.00128274 -0.02101764 6.50064539 0 0 Z " fill="#9436E9" transform="translate(0,0)"/>
<path d="M0 0 C0.66 0.33 1.32 0.66 2 1 C1.03900391 1.74443359 1.03900391 1.74443359 0.05859375 2.50390625 C-6.8234952 7.82552409 -6.8234952 7.82552409 -13.02988338 13.89303112 C-15 16 -15 16 -17.4910593 18.10676289 C-26.48993297 27.10466855 -26.21895989 37.0781613 -26.22259057 49.23564491 C-26.20647738 52.22731174 -26.16204797 55.21828914 -26.11667907 58.20963562 C-26.06699097 62.2210084 -26.07585411 66.23232137 -26.07746887 70.24394226 C-26.07249761 77.18227115 -26.03140378 84.11961486 -25.96560478 91.05762291 C-25.87076998 101.09065498 -25.83455211 111.1232467 -25.81288875 121.15667269 C-25.77643148 137.44058199 -25.69753929 153.72398596 -25.58959961 170.00756836 C-25.48495588 185.81383254 -25.39292746 201.62005472 -25.32299805 217.42651367 C-25.3186746 218.40170201 -25.31435116 219.37689035 -25.3098967 220.38162985 C-25.26316288 231.02145988 -25.22084888 241.66130179 -25.18311405 252.30116749 C-25.17978945 253.23525981 -25.17646486 254.16935214 -25.17303951 255.13175029 C-25.15979448 258.86486856 -25.14656923 262.59798679 -25.13388015 266.331107 C-25.09655362 277.26791315 -25.04545388 288.20445558 -24.96978552 299.14106707 C-24.92263469 305.99079812 -24.88489049 312.84053388 -24.85462784 319.69036033 C-24.8366307 323.64614979 -24.81335826 327.60174476 -24.77696609 331.55741119 C-24.74370319 335.17335871 -24.72394859 338.78911095 -24.71517611 342.40519843 C-24.70675402 344.34275759 -24.68327317 346.28023289 -24.65937704 348.21766299 C-24.6591832 349.35618175 -24.65898935 350.49470051 -24.65878963 351.66771984 C-24.65222975 352.6562996 -24.64566986 353.64487936 -24.63891119 354.66341609 C-24.81765015 355.82002512 -24.81765015 355.82002512 -25 357 C-25.99 357.66 -26.98 358.32 -28 359 C-28.18314583 317.00286534 -28.32409494 275.00577679 -28.40852264 233.00832183 C-28.41852818 228.04916702 -28.42888277 223.09001301 -28.43945312 218.13085938 C-28.44155161 217.14358899 -28.44365009 216.1563186 -28.44581217 215.13913094 C-28.48061445 199.15727757 -28.5436864 183.17565462 -28.61722237 167.19393791 C-28.69205783 150.79290402 -28.73647514 134.39199073 -28.75270796 117.99079311 C-28.76368025 107.87176939 -28.79832305 97.75339696 -28.86333174 87.63457374 C-28.90564842 80.69391457 -28.91839439 73.75359166 -28.90801102 66.81281288 C-28.90289109 62.80920063 -28.91068867 58.80672566 -28.9536438 54.80331612 C-28.99273188 51.13341887 -28.99444629 47.46541744 -28.96719116 43.79543076 C-28.96223865 41.84820925 -28.99660913 39.90100832 -29.03265047 37.95411408 C-28.91015806 28.93417337 -26.2652502 24.36475149 -20 18 C-19.17371094 17.02546875 -18.34742187 16.0509375 -17.49609375 15.046875 C-6.30132694 2.55631925 -6.30132694 2.55631925 0 0 Z " fill="#B7AFBD" transform="translate(136,66)"/>
<path d="M0 0 C3 1 3 1 4.1328125 2.890625 C4.46023437 3.66921875 4.78765625 4.4478125 5.125 5.25 C5.45757812 6.01828125 5.79015625 6.7865625 6.1328125 7.578125 C7.71503786 11.99695259 8.1248175 16.10734471 8.12304783 20.78458881 C8.12503888 21.94754799 8.12702993 23.11050717 8.12908131 24.30870754 C8.12471205 26.21871705 8.12471205 26.21871705 8.12025452 28.16731262 C8.12069064 29.53693702 8.12156632 30.90656134 8.12284368 32.27618521 C8.12508049 36.03882007 8.12107846 39.80142648 8.11606562 43.56405771 C8.11174965 47.62194911 8.11320836 51.67983889 8.1139679 55.73773193 C8.1144924 62.76799207 8.11135324 69.79824294 8.10573006 76.82850075 C8.09760515 86.99309004 8.09499882 97.15767483 8.09374207 107.32226702 C8.09155311 123.81339865 8.08489724 140.30452535 8.07543945 156.7956543 C8.06626131 172.81583634 8.05918244 188.83601703 8.05493164 204.85620117 C8.05466892 205.84358309 8.05440619 206.83096501 8.05413551 207.84826759 C8.05283048 212.801642 8.05156677 217.75501641 8.05032361 222.70839083 C8.03995585 263.80559749 8.02206667 304.9027981 8 346 C37.205 346.495 37.205 346.495 67 347 C67 347.66 67 348.32 67 349 C59.48962286 349.06949335 51.97927904 349.12280778 44.46865368 349.15543652 C40.98118424 349.17109635 37.49393468 349.1923398 34.0065918 349.22631836 C29.99786257 349.2651328 25.98936452 349.2797065 21.98046875 349.29296875 C20.72727341 349.30845261 19.47407806 349.32393646 18.1829071 349.33988953 C17.02193008 349.34011612 15.86095306 349.34034271 14.66479492 349.34057617 C13.64109299 349.34723801 12.61739105 349.35389984 11.56266785 349.36076355 C9 349 9 349 7.36335707 347.82186228 C5.48084226 345.30624638 5.62447179 343.6166524 5.62361908 340.48943996 C5.61601264 339.33662987 5.60840619 338.18381978 5.60056925 336.99607605 C5.61091015 335.0875598 5.61091015 335.0875598 5.62145996 333.14048767 C5.61817083 331.77971279 5.61355839 330.41894057 5.6077323 329.05817419 C5.59548187 325.31026238 5.60190455 321.56257572 5.61123729 317.81466401 C5.61801692 313.77561598 5.60750946 309.73661023 5.59895325 305.6975708 C5.58636865 298.69456682 5.58442007 291.69162458 5.58930969 284.68861198 C5.59610966 274.55247916 5.58361396 264.41643962 5.56580251 254.28032345 C5.53712923 237.8217334 5.51963416 221.36315339 5.51123047 204.90454102 C5.5104697 203.42618019 5.5104697 203.42618019 5.50969356 201.9179535 C5.50616739 194.92446913 5.50303847 187.9309846 5.5 180.9375 C5.49653284 172.96101873 5.49288311 164.9845376 5.48876953 157.00805664 C5.48801561 155.53467664 5.48801561 155.53467664 5.48724645 154.03153139 C5.4784974 137.64392905 5.45804853 121.25636123 5.42928743 104.8687821 C5.41211658 94.76133082 5.40551857 84.65397722 5.41259348 74.54651327 C5.41677778 67.61574134 5.41040698 60.6850309 5.39579475 53.75427329 C5.3877484 49.75711144 5.38460588 45.76010217 5.39461708 41.76294136 C5.40371628 38.0992149 5.39892993 34.43577134 5.38340265 30.77206893 C5.37873152 28.82808682 5.38876694 26.88408626 5.39943075 24.94012779 C5.34041105 15.85363921 3.60513166 8.3195346 0 0 Z " fill="#DBCFDB" transform="translate(184,77)"/>
<path d="M0 0 C0 3 0 3 -1.8359375 4.83984375 C-2.67382812 5.53207031 -3.51171875 6.22429687 -4.375 6.9375 C-15.85265588 16.75735586 -15.85265588 16.75735586 -22.25480902 29.48215312 C-22.25708734 30.48043787 -22.25936567 31.47872261 -22.26171303 32.50725842 C-22.26917852 33.65926871 -22.27664401 34.811279 -22.28433573 35.99819869 C-22.282401 37.26958215 -22.28046626 38.54096562 -22.2784729 39.85087585 C-22.28347332 41.21052773 -22.28934837 42.57017663 -22.29602563 43.92982131 C-22.31187043 47.67417619 -22.31525876 51.41845613 -22.31667423 55.16284049 C-22.32036049 59.19761214 -22.33551205 63.23234231 -22.34928894 67.26708984 C-22.37159 74.26027176 -22.38658614 81.25343898 -22.39665604 88.24664879 C-22.41122601 98.35771843 -22.43675806 108.46873686 -22.46498732 118.5797765 C-22.51048595 134.98326519 -22.54708804 151.38676125 -22.578125 167.7902832 C-22.60829798 183.72714532 -22.64264248 199.66398941 -22.68261719 215.60083008 C-22.68507874 216.58276345 -22.68754028 217.56469683 -22.69007643 218.57638576 C-22.70245078 223.50233347 -22.71490736 228.42828097 -22.72740483 233.35422838 C-22.8310186 274.2361272 -22.92020667 315.1180482 -23 356 C-23.66 355.67 -24.32 355.34 -25 355 C-25.18314738 313.25765408 -25.32409572 271.51535455 -25.40852264 229.77268637 C-25.41852818 224.84357411 -25.42888277 219.91446264 -25.43945312 214.98535156 C-25.44155161 214.00406241 -25.44365009 213.02277325 -25.44581217 212.01174806 C-25.48061409 196.12689184 -25.54368583 180.24226746 -25.61722237 164.35754873 C-25.69205886 148.05595602 -25.73647535 131.75448464 -25.75270796 115.4527272 C-25.76368004 105.39512066 -25.79832167 95.33816942 -25.86333174 85.28076462 C-25.90564969 78.38215458 -25.9183941 71.48388285 -25.90801102 64.58515246 C-25.90289128 60.60584067 -25.91068637 56.62767311 -25.9536438 52.64856529 C-25.99273475 49.00086949 -25.99444456 45.35508098 -25.96719116 41.70729516 C-25.96223916 39.77200272 -25.99660718 37.83673096 -26.03265047 35.90176785 C-25.90938553 26.87885449 -23.2118072 22.39267371 -17 16 C-16.15714613 14.94503647 -15.32235045 13.88352308 -14.5 12.8125 C-10.17731954 7.94948448 -5.22960991 3.85523581 0 0 Z " fill="#D3BAE4" transform="translate(276,68)"/>
<path d="M0 0 C1.43239337 0.95492891 2.86418906 1.91076642 4.29296875 2.87109375 C5.82148336 3.88194208 7.3779498 4.85022435 8.9375 5.8125 C27.28676594 18.91911853 39.40773327 44.01684887 43.05032921 65.8614378 C44.12147361 73.00939293 44.2582915 79.98890874 44.20254517 87.20527649 C44.19927815 88.59005295 44.19690919 89.97483177 44.1953491 91.35961121 C44.18855354 95.12703626 44.16918295 98.89430334 44.14758825 102.66166866 C44.12648252 106.73848358 44.11728112 110.81532829 44.10658264 114.8921814 C44.08647436 121.9430681 44.05894116 128.99389382 44.02626419 136.04473305 C43.97903056 146.23886873 43.94315122 156.43301993 43.90998094 166.62720992 C43.85584972 183.16939521 43.79262489 199.71153261 43.72363281 216.25366211 C43.65666077 232.31614666 43.59400163 248.37863856 43.53710938 264.44116211 C43.53359693 265.43241623 43.53008449 266.42367035 43.52646561 267.44496248 C43.50886999 272.41813971 43.4913588 277.39131724 43.47388959 282.36449492 C43.32901605 323.57638357 43.16936394 364.78820518 43 406 C42.67 406 42.34 406 42 406 C41.99853479 404.94901249 41.99853479 404.94901249 41.99703997 403.87679291 C41.93870911 362.30721198 41.86486792 320.73768363 41.77101372 279.168167 C41.75974618 274.17168189 41.74860763 269.17519651 41.73754883 264.17871094 C41.73534514 263.18404257 41.73314146 262.1893742 41.730871 261.16456437 C41.69554341 245.08019717 41.67065368 228.99583002 41.64965298 212.91143847 C41.62785473 196.39506902 41.59476621 179.87874971 41.55129844 163.36242294 C41.52485096 153.17920077 41.5071048 142.99604102 41.50065396 132.81278622 C41.49537889 125.82025458 41.47909121 118.82780133 41.45433434 111.83531177 C41.44039161 107.80706141 41.43112126 103.77895117 41.43499184 99.7506752 C41.45974349 67.18164028 37.26248174 37.72558432 13.38037109 13.34667969 C9.16946016 9.25166538 4.89613041 5.26408694 0 2 C0 1.34 0 0.68 0 0 Z " fill="#A054E1" transform="translate(352,12)"/>
<path d="M0 0 C3 1 3 1 4.1328125 2.890625 C4.46023437 3.66921875 4.78765625 4.4478125 5.125 5.25 C5.45757812 6.01828125 5.79015625 6.7865625 6.1328125 7.578125 C7.71308589 11.99150113 8.12482069 16.09749226 8.12304783 20.76897144 C8.12503888 21.92844723 8.12702993 23.08792301 8.12908131 24.28253442 C8.12471205 26.18670752 8.12471205 26.18670752 8.12025452 28.12934875 C8.12069065 29.49484836 8.12156632 30.86034787 8.12284368 32.22584695 C8.12508045 35.97708026 8.12107852 39.72828504 8.11606562 43.47951472 C8.11174959 47.52513606 8.11320837 51.57075578 8.1139679 55.61637878 C8.1144924 62.62535801 8.11135328 69.63432794 8.10573006 76.64330482 C8.0976051 86.77712502 8.09499881 96.91094072 8.09374207 107.04476383 C8.09155312 123.48598117 8.08489727 139.92719355 8.07543945 156.3684082 C8.06626129 172.34008764 8.05918243 188.31176573 8.05493164 204.28344727 C8.05466892 205.26784219 8.05440619 206.25223711 8.05413551 207.26646218 C8.05283048 212.20485252 8.05156677 217.14324286 8.05032361 222.08163321 C8.03995588 263.05442559 8.02234181 304.02721251 8 345 C7.67 345 7.34 345 7 345 C6.99853479 343.9608952 6.99853479 343.9608952 6.99703997 342.90079838 C6.9387644 301.84103299 6.86496492 260.78132105 6.77101372 219.72162104 C6.75974559 214.79122092 6.74860713 209.86082052 6.73754883 204.93041992 C6.73534514 203.94886846 6.73314146 202.96731699 6.730871 201.95602154 C6.69550133 186.06415458 6.67063533 170.17228766 6.64965298 154.28039593 C6.62788831 137.97311202 6.59483152 121.66587918 6.55129844 105.3586387 C6.52479325 95.29669837 6.50708953 85.23482167 6.50065396 75.17284816 C6.49539663 68.27240815 6.479168 61.37204819 6.45433434 54.47165108 C6.44033122 50.49084829 6.43114409 46.51018877 6.43499184 42.52935982 C6.4384107 38.88158258 6.42798787 35.23411095 6.40676448 31.58639627 C6.39903112 29.64850719 6.4059252 27.71057657 6.41341704 25.77268654 C6.33925956 16.64502723 4.92228378 9.73501737 0 2 C0 1.34 0 0.68 0 0 Z " fill="#CFA5F3" transform="translate(184,77)"/>
<path d="M0 0 C0.66 0.33 1.32 0.66 2 1 C1.03900391 1.74443359 1.03900391 1.74443359 0.05859375 2.50390625 C-8.46039366 9.19467579 -15.24801915 16.00869481 -21.625 24.7331543 C-22.70543959 26.18957494 -23.84800468 27.59949381 -25 29 C-25.66 29 -26.32 29 -27 29 C-27 87.08 -27 145.16 -27 205 C-27.33 205 -27.66 205 -28 205 C-28.18705559 182.09493401 -28.32804047 159.18999433 -28.41449738 136.28431892 C-28.45571173 125.64827026 -28.51188054 115.01269676 -28.60351562 104.37695312 C-28.68336636 95.10453812 -28.7348925 85.8324673 -28.75270796 76.55971801 C-28.76311882 71.65170476 -28.78750634 66.74467597 -28.84584045 61.83697891 C-28.90036199 57.21233209 -28.91684896 52.58907001 -28.90486145 47.96413231 C-28.90705263 46.27184572 -28.92283764 44.57951026 -28.9536438 42.88750267 C-29.11469131 33.58136162 -28.75653629 26.96457308 -21.96259308 19.86475945 C-20.9911095 18.94170352 -20.9911095 18.94170352 -20 18 C-19.17371094 17.02546875 -18.34742187 16.0509375 -17.49609375 15.046875 C-6.30132694 2.55631925 -6.30132694 2.55631925 0 0 Z " fill="#EBDCF9" transform="translate(136,66)"/>
<path d="M0 0 C1.64574566 -0.02688151 3.29161413 -0.04634123 4.9375 -0.0625 C5.85402344 -0.07410156 6.77054687 -0.08570313 7.71484375 -0.09765625 C10 0 10 0 11 1 C16.82904493 2.08917936 22.60981626 2.21222353 28.52734375 2.31640625 C29.40491333 2.33505737 30.28248291 2.3537085 31.18664551 2.3729248 C34.43683668 2.44076294 37.68717888 2.50120345 40.9375 2.5625 C51.8584375 2.7790625 51.8584375 2.7790625 63 3 C63.33 20.82 63.66 38.64 64 57 C63.34 57 62.68 57 62 57 C60.76919491 54.53838983 60.87956023 52.93503007 60.88647461 50.18310547 C60.88655014 49.18221893 60.88662567 48.1813324 60.88670349 47.15011597 C60.89186478 46.06674957 60.89702606 44.98338318 60.90234375 43.8671875 C60.9037587 42.76021515 60.90517365 41.6532428 60.90663147 40.51272583 C60.91224228 36.96679007 60.92479663 33.42091677 60.9375 29.875 C60.94251361 27.47526133 60.94707675 25.07552167 60.95117188 22.67578125 C60.96221522 16.78383275 60.9789639 10.89192084 61 5 C59.76548096 5.01571045 58.53096191 5.0314209 57.2590332 5.04760742 C52.62026657 5.10245631 47.98152779 5.13654739 43.3425293 5.16479492 C41.34573525 5.1797576 39.34897336 5.20013511 37.35229492 5.22631836 C26.06504163 5.37048313 15.89598454 5.19622508 5 2 C3.33670478 1.65023163 1.67086623 1.3116006 0 1 C0 0.67 0 0.34 0 0 Z " fill="#E4D6F2" transform="translate(420,529)"/>
<path d="M0 0 C0.495 1.485 0.495 1.485 1 3 C-12.1684405 14.53440044 -12.1684405 14.53440044 -18.625 19.0625 C-23.16922027 22.27994063 -27.24712239 25.85352407 -31.30688477 29.64599609 C-39.84119244 37.61463709 -48.61314965 45.13153436 -58.15234375 51.875 C-62.22014992 54.91050968 -66.02349298 58.22523136 -69.8503418 61.55615234 C-74.19765974 65.33690102 -78.64834926 68.95157838 -83.20703125 72.4765625 C-85.10863755 73.8905779 -85.10863755 73.8905779 -86 76 C-86.99 75.67 -87.98 75.34 -89 75 C-88.40832031 74.48050781 -87.81664062 73.96101562 -87.20703125 73.42578125 C-82.24027545 69.05187548 -82.24027545 69.05187548 -77.5 64.4375 C-74.71304849 61.72022227 -71.7379929 59.43891484 -68.6484375 57.078125 C-65.57518391 54.66666348 -62.59782601 52.15841035 -59.625 49.625 C-52.96210358 43.9509912 -46.20632367 38.3979011 -39.3984375 32.8984375 C-33.34759314 27.98993544 -27.44236045 22.93622639 -21.56982422 17.81762695 C-14.5277116 11.69299173 -7.29126448 5.82522732 0 0 Z " fill="#D0BBE3" transform="translate(587,501)"/>
<path d="M0 0 C0.66 0 1.32 0 2 0 C2 19.14 2 38.28 2 58 C-13.51 58 -29.02 58 -45 58 C-44 56 -44 56 -42.18963623 55.38209534 C-40.06121682 55.01068244 -38.12406502 54.87946732 -35.96582031 54.88647461 C-35.17449707 54.88659546 -34.38317383 54.88671631 -33.56787109 54.88684082 C-32.33544678 54.89451477 -32.33544678 54.89451477 -31.078125 54.90234375 C-29.9341626 54.90385437 -29.9341626 54.90385437 -28.76708984 54.90539551 C-25.92804452 54.9106133 -23.08902069 54.92457456 -20.25 54.9375 C-13.8975 54.958125 -7.545 54.97875 -1 55 C-0.67 36.85 -0.34 18.7 0 0 Z " fill="#CBBBD9" transform="translate(481,414)"/>
<path d="M0 0 C1.43239337 0.95492891 2.86418906 1.91076642 4.29296875 2.87109375 C5.82148336 3.88194208 7.3779498 4.85022435 8.9375 5.8125 C26.76343256 18.54530897 38.70646655 42.89012722 43 64 C43.12205329 66.67540816 43.04467313 69.31961238 43 72 C42.34 72 41.68 72 41 72 C40.84144531 71.00742188 40.68289063 70.01484375 40.51953125 68.9921875 C36.048923 42.39602471 23.60953779 21.17461482 3 4 C2.01 3.34 1.02 2.68 0 2 C0 1.34 0 0.68 0 0 Z " fill="#CAB5DC" transform="translate(352,12)"/>
<path d="M0 0 C3.91725066 1.65185269 6.89091773 4.30421439 10.0625 7.0625 C11.23110957 8.06587484 12.40039022 9.06846857 13.5703125 10.0703125 C14.44091309 10.81716309 14.44091309 10.81716309 15.32910156 11.57910156 C17.66890123 13.56882016 20.05097953 15.50420597 22.4375 17.4375 C27.38140513 21.46076591 32.22708932 25.59010357 37.05444336 29.75170898 C38.16208238 30.70645945 39.27101643 31.65970992 40.38134766 32.61132812 C41.47343039 33.54824616 42.56157343 34.48977333 43.64599609 35.43554688 C46.09739448 37.5417098 47.90032578 38.96677526 51 40 C52.35532191 41.310976 53.68645317 42.64716953 55 44 C56.46130793 45.16852351 57.94096275 46.31444865 59.4375 47.4375 C64.66577483 51.45727196 68.96781166 55.77308919 73 61 C69.08273661 59.34814194 66.10911994 56.69575715 62.9375 53.9375 C61.77018032 52.93544131 60.60220174 51.93414971 59.43359375 50.93359375 C58.85335449 50.43585449 58.27311523 49.93811523 57.67529297 49.42529297 C55.3120876 47.41474314 52.90856471 45.45585357 50.5 43.5 C43.69586214 37.95807902 37.02024122 32.26691077 30.33398438 26.58398438 C16.19930367 14.44309893 16.19930367 14.44309893 1.36328125 3.19140625 C0.91339844 2.79824219 0.46351563 2.40507812 0 2 C0 1.34 0 0.68 0 0 Z " fill="#D2BEE3" transform="translate(484,412)"/>
<path d="M0 0 C1.23226318 0.15847412 2.46452637 0.31694824 3.73413086 0.48022461 C9.5697878 1.12591262 15.38734878 1.22653809 21.25390625 1.31640625 C22.39536606 1.33718735 23.53682587 1.35796844 24.71287537 1.37937927 C28.32936059 1.44432864 31.94591326 1.50350381 35.5625 1.5625 C38.02669945 1.60573725 40.49089229 1.64935314 42.95507812 1.69335938 C48.96998251 1.7999534 54.98495274 1.90181727 61 2 C61 2.66 61 3.32 61 4 C53.48962286 4.06949335 45.97927904 4.12280778 38.46865368 4.15543652 C34.98118424 4.17109635 31.49393468 4.1923398 28.0065918 4.22631836 C23.99786257 4.2651328 19.98936452 4.2797065 15.98046875 4.29296875 C14.72727341 4.30845261 13.47407806 4.32393646 12.1829071 4.33988953 C11.02193008 4.34011612 9.86095306 4.34034271 8.66479492 4.34057617 C7.12924202 4.35056892 7.12924202 4.35056892 5.56266785 4.36076355 C3 4 3 4 1.14595032 2.54121399 C0 1 0 1 0 0 Z " fill="#D1C5DC" transform="translate(190,422)"/>
<path d="M0 0 C3 1 3 1 4.1328125 2.890625 C4.46023437 3.66921875 4.78765625 4.4478125 5.125 5.25 C5.45757812 6.01828125 5.79015625 6.7865625 6.1328125 7.578125 C7.83038593 12.31909585 8.12297824 16.69855476 8.11352539 21.71801758 C8.11367142 22.37223694 8.11381744 23.0264563 8.1139679 23.70050049 C8.11327494 25.84854526 8.10551164 27.99650175 8.09765625 30.14453125 C8.09578988 31.63954114 8.09436701 33.13455165 8.09336853 34.62956238 C8.08956064 38.55371811 8.07974518 42.4778365 8.06866455 46.40197754 C8.05841321 50.41055801 8.05386294 54.41914455 8.04882812 58.42773438 C8.0381213 66.28517334 8.02106572 74.14258202 8 82 C7.67 82 7.34 82 7 82 C6.99413376 81.19313248 6.98826752 80.38626495 6.98222351 79.5549469 C6.9241188 71.91986756 6.85194168 64.28510796 6.76428509 56.65031528 C6.71971636 52.72596384 6.68043135 48.80171299 6.65356445 44.87719727 C6.62739565 41.08388972 6.58689969 37.29097209 6.53681374 33.49790764 C6.52023615 32.05682189 6.50866551 30.61566884 6.50238609 29.17450142 C6.45328507 18.93361959 5.57982146 10.76829087 0 2 C0 1.34 0 0.68 0 0 Z " fill="#CFA6F3" transform="translate(184,77)"/>
<path d="M0 0 C0.66 0.33 1.32 0.66 2 1 C1.46890625 1.44730469 0.9378125 1.89460937 0.390625 2.35546875 C-3.49795379 5.68346775 -6.88485161 8.91808142 -10 13 C-11.66666667 14.66666667 -13.33333333 16.33333333 -15 18 C-16.02813611 19.31175986 -17.04084432 20.6369893 -18 22 C-21.37308761 20.87563746 -22.15123097 19.92657267 -24.375 17.25 C-26.38151502 14.88172336 -28.36475995 12.63524005 -30.5625 10.4375 C-33.56003444 7.43996556 -36.27757604 4.24632685 -39 1 C-32.14891724 4.19418673 -27.34455024 9.5191871 -22.578125 15.265625 C-20.9207532 17.22768174 -20.9207532 17.22768174 -18 19 C-17.773125 18.443125 -17.54625 17.88625 -17.3125 17.3125 C-15.61856764 14.32795251 -13.48385302 12.37345955 -11 10 C-9.81140192 8.79274679 -8.62395003 7.5843643 -7.4375 6.375 C-5.08892247 4.02129458 -2.75934726 1.87635613 0 0 Z " fill="#C1AAD5" transform="translate(251,14)"/>
<path d="M0 0 C2.98287075 2.55674635 4.2621947 5.52438941 6 9 C6.556875 9.556875 7.11375 10.11375 7.6875 10.6875 C8.120625 11.120625 8.55375 11.55375 9 12 C9 12.99 9 13.98 9 15 C9.87978516 15.40798828 9.87978516 15.40798828 10.77734375 15.82421875 C12.95688333 16.97719136 14.65909709 18.25442289 16.5625 19.8125 C22.2685077 24.18032578 28.95401037 27.46897889 36 29 C36 29.66 36 30.32 36 31 C30.80421194 31.45009106 27.47325272 30.07012372 23.125 27.4375 C22.50931152 27.07108398 21.89362305 26.70466797 21.25927734 26.32714844 C11.86104437 20.60648489 5.22351205 13.84965437 0 4 C0 2.68 0 1.36 0 0 Z " fill="#DCCCE9" transform="translate(400,439)"/>
<path d="M0 0 C8.05286035 6.95365686 12.30744687 22.3930858 13.2421875 32.66015625 C13.25 34.875 13.25 34.875 13 38 C12.34 38 11.68 38 11 38 C10.84144531 37.00742188 10.68289063 36.01484375 10.51953125 34.9921875 C8.73436772 24.39409167 6.23415537 14.39203349 1.34375 4.7265625 C0 2 0 2 0 0 Z " fill="#C6A0E7" transform="translate(382,46)"/>
<path d="M0 0 C0.66 0.33 1.32 0.66 2 1 C1.03900391 1.74443359 1.03900391 1.74443359 0.05859375 2.50390625 C-8.54857272 9.26393118 -15.45583 16.22802745 -22 25 C-22.66552734 23.21630859 -22.66552734 23.21630859 -23 21 C-21.97119141 19.26416016 -21.97119141 19.26416016 -20.3515625 17.5390625 C-19.76197754 16.90492432 -19.17239258 16.27078613 -18.56494141 15.61743164 C-17.92476074 14.9599292 -17.28458008 14.30242676 -16.625 13.625 C-15.9861084 12.9539624 -15.3472168 12.2829248 -14.68896484 11.59155273 C-10.22801466 7.00422207 -5.6846383 3.02278386 0 0 Z " fill="#B1A1C0" transform="translate(136,66)"/>
<path d="M0 0 C0 3 0 3 -1.8359375 4.83984375 C-2.67382812 5.53207031 -3.51171875 6.22429687 -4.375 6.9375 C-11.15093851 12.81577144 -17.01758306 19.52637458 -22 27 C-22.66 27 -23.32 27 -24 27 C-20.2405523 15.72165691 -9.26715278 6.87892178 0 0 Z " fill="#C4B1D6" transform="translate(276,68)"/>
<path d="M0 0 C14.35991863 -0.69764787 23.83677563 2.08466961 36 10 C35.67 10.66 35.34 11.32 35 12 C34.26394531 11.57847656 33.52789062 11.15695312 32.76953125 10.72265625 C31.79371094 10.17480469 30.81789063 9.62695312 29.8125 9.0625 C28.36810547 8.24458984 28.36810547 8.24458984 26.89453125 7.41015625 C24.19337158 6.09420667 21.95643899 5.42698113 19 5 C19 4.34 19 3.68 19 3 C12.73 2.34 6.46 1.68 0 1 C0 0.67 0 0.34 0 0 Z " fill="#CDB8DE" transform="translate(33,0)"/>
<path d="M0 0 C0.721875 0.598125 1.44375 1.19625 2.1875 1.8125 C4.8245963 3.97108306 4.8245963 3.97108306 7.25 5.28125 C10.72283421 7.45177138 13.71899864 10.01474242 16.8125 12.6875 C17.40998047 13.19861328 18.00746094 13.70972656 18.62304688 14.23632812 C20.08483433 15.48761819 21.54280933 16.74335973 23 18 C22.67 18.99 22.34 19.98 22 21 C21.40574219 20.45472656 20.81148437 19.90945313 20.19921875 19.34765625 C14.67627474 14.32289382 9.03295239 9.54752796 3.15234375 4.9453125 C1 3 1 3 0 0 Z " fill="#E0CDF2" transform="translate(565,479)"/>
<path d="M0 0 C-3.08809695 1.76462683 -4.23312136 2 -8 2 C-8 2.66 -8 3.32 -8 4 C-9.11375 4.226875 -10.2275 4.45375 -11.375 4.6875 C-18.64551453 6.5083571 -25.42174546 9.97957091 -31 15 C-31.66 14.67 -32.32 14.34 -33 14 C-23.93443964 5.89375819 -12.3252443 -0.23255178 0 0 Z " fill="#C4B3D2" transform="translate(142,0)"/>
<path d="M0 0 C0.66 0.33 1.32 0.66 2 1 C0.23000902 2.93827536 -1.54095761 4.87564344 -3.3125 6.8125 C-3.81201172 7.35970703 -4.31152344 7.90691406 -4.82617188 8.47070312 C-12.00075023 16.31047418 -12.00075023 16.31047418 -16 17 C-13.02550302 10.00118357 -5.98898148 4.44343788 0 0 Z " fill="#BD8FE6" transform="translate(107,15)"/>
<path d="M0 0 C4.16933068 1.63759253 6.9793547 4.6839587 10.0625 7.8125 C10.59166016 8.33392578 11.12082031 8.85535156 11.66601562 9.39257812 C14.65897268 12.40055629 16.86917852 15.30259326 19 19 C19.66 19.33 20.32 19.66 21 20 C21 20.99 21 21.98 21 23 C17.66227007 21.59844241 15.98250943 20.0490314 13.875 17.125 C13.37742187 16.44695313 12.87984375 15.76890625 12.3671875 15.0703125 C11.06764939 13.1024405 10.00360373 11.13146316 9 9 C8.34 9 7.68 9 7 9 C5.31267723 7.01739574 3.64633943 5.0167658 2 3 C1.34 2.67 0.68 2.34 0 2 C0 1.34 0 0.68 0 0 Z " fill="#BEA9D3" transform="translate(70,12)"/>
<path d="M0 0 C1.21236328 0.01353516 1.21236328 0.01353516 2.44921875 0.02734375 C3.37154297 0.04474609 3.37154297 0.04474609 4.3125 0.0625 C1.05971208 1.8417358 -2.19055643 2.85863397 -5.75 3.875 C-12.01132749 5.75198166 -17.82186267 8.19433265 -23.6875 11.0625 C-22.6875 8.0625 -22.6875 8.0625 -19.4140625 6.2734375 C-18.05169841 5.65079454 -16.68423106 5.03922589 -15.3125 4.4375 C-14.28382813 3.96957031 -14.28382813 3.96957031 -13.234375 3.4921875 C-8.65189699 1.42383167 -5.03322132 -0.07294524 0 0 Z " fill="#BFACCC" transform="translate(281.6875,-0.0625)"/>
<path d="M0 0 C2.475 0.495 2.475 0.495 5 1 C5 1.66 5 2.32 5 3 C5.5775 3.26554687 6.155 3.53109375 6.75 3.8046875 C13.7800541 7.53940374 18.03902505 12.72093657 21 20 C21 20.66 21 21.32 21 22 C20.34 22 19.68 22 19 22 C17.73828125 20.05859375 17.73828125 20.05859375 16.3125 17.4375 C12.09893262 10.18934395 7.01665668 5.44958716 0 1 C0 0.67 0 0.34 0 0 Z " fill="#C8B6D8" transform="translate(25,60)"/>
<path d="M0 0 C6.85108276 3.19418673 11.65544976 8.5191871 16.421875 14.265625 C18.0792468 16.22768174 18.0792468 16.22768174 21 18 C21 18.99 21 19.98 21 21 C17.62691239 19.87563746 16.84876903 18.92657267 14.625 16.25 C12.61848498 13.88172336 10.63524005 11.63524005 8.4375 9.4375 C5.43996556 6.43996556 2.72242396 3.24632685 0 0 Z " fill="#D1BDE0" transform="translate(212,15)"/>
<path d="M0 0 C4.79022546 0.49130517 8.55951503 2.01436506 12.8515625 4.0625 C14.89349603 4.95352554 16.82737745 5.52811818 19 6 C19 6.66 19 7.32 19 8 C13.70549486 8.45059618 10.69418378 7.11096216 6.125 4.5 C5.23554688 3.99919922 5.23554688 3.99919922 4.328125 3.48828125 C2.87895283 2.67020018 1.43853019 1.83665257 0 1 C0 0.67 0 0.34 0 0 Z " fill="#CBB3DF" transform="translate(417,462)"/>
<path d="M0 0 C0.66 0.66 1.32 1.32 2 2 C1.29230469 2.56332031 0.58460938 3.12664063 -0.14453125 3.70703125 C-3.98576267 6.79157687 -7.77751072 9.93512727 -11.57421875 13.07421875 C-14 15 -14 15 -16 16 C-14.66479508 12.96283859 -13.2811773 11.10789374 -10.7421875 8.984375 C-10.11699219 8.45585938 -9.49179687 7.92734375 -8.84765625 7.3828125 C-8.19667969 6.84398437 -7.54570313 6.30515625 -6.875 5.75 C-6.21628906 5.19570313 -5.55757812 4.64140625 -4.87890625 4.0703125 C-3.25764942 2.7075169 -1.62948792 1.35294297 0 0 Z " fill="#D5C4E5" transform="translate(533,546)"/>
<path d="M0 0 C1.42788512 0.95192341 2.85543765 1.90434974 4.28125 2.859375 C5.88458081 3.92340363 7.50423988 4.96271352 9.125 6 C11.75364376 7.82862174 13.90585071 9.5836739 16 12 C16 12.66 16 13.32 16 14 C12.0798695 12.32538115 8.98782939 9.71110116 5.75 7 C5.19570313 6.54882812 4.64140625 6.09765625 4.0703125 5.6328125 C2.67268418 4.46926971 1.33114437 3.23905262 0 2 C0 1.34 0 0.68 0 0 Z " fill="#E0CCF2" transform="translate(352,12)"/>
<path d="M0 0 C0.33 0.99 0.66 1.98 1 3 C-2.63 5.97 -6.26 8.94 -10 12 C-10.66 11.34 -11.32 10.68 -12 10 C-8.04 6.7 -4.08 3.4 0 0 Z " fill="#B4A1C5" transform="translate(587,501)"/>
<path d="M0 0 C3 1 3 1 4.1328125 2.85546875 C5.99703618 7.23712835 7.50897715 11.21252717 8 16 C7.01 15.67 6.02 15.34 5 15 C4.12109375 12.890625 4.12109375 12.890625 3.4375 10.25 C2.47745848 6.72311061 1.45668814 3.36158801 0 0 Z " fill="#BC9DD6" transform="translate(184,77)"/>
<path d="M0 0 C4.14298667 0.59834725 7.18194377 2.00664285 10.8125 4.0625 C11.78832031 4.61035156 12.76414062 5.15820312 13.76953125 5.72265625 C14.50558594 6.14417969 15.24164063 6.56570313 16 7 C13 8 13 8 9.86328125 6.56640625 C8.6739872 5.90864027 7.49053629 5.24022185 6.3125 4.5625 C5.70599609 4.22412109 5.09949219 3.88574219 4.47460938 3.53710938 C2.9779975 2.70042085 1.48830811 1.85137169 0 1 C0 0.67 0 0.34 0 0 Z " fill="#C0A1DC" transform="translate(392,517)"/>
<path d="M0 0 C-3.08809695 1.76462683 -4.23312136 2 -8 2 C-8 2.66 -8 3.32 -8 4 C-11.3 4.33 -14.6 4.66 -18 5 C-12.21012355 1.14008237 -6.93253894 -0.43328368 0 0 Z " fill="#BA9DD0" transform="translate(142,0)"/>
<path d="M0 0 C3.39192363 0.59283621 5.2107757 1.76743189 7.75 4.0625 C8.67039062 4.88427734 8.67039062 4.88427734 9.609375 5.72265625 C10.29773438 6.35494141 10.29773438 6.35494141 11 7 C10.67 7.99 10.34 8.98 10 10 C8.33037631 8.52417192 6.6643694 7.04425109 5 5.5625 C4.071875 4.73878906 3.14375 3.91507812 2.1875 3.06640625 C1.465625 2.38449219 0.74375 1.70257813 0 1 C0 0.67 0 0.34 0 0 Z " fill="#C1ADD3" transform="translate(577,490)"/>
<path d="M0 0 C1.27609323 0.90933009 2.54565553 1.82782853 3.8125 2.75 C4.87404297 3.51570313 4.87404297 3.51570313 5.95703125 4.296875 C8.02977691 6.02482358 9.47375854 7.78526476 11 10 C7.6989701 9.40114059 5.78574977 8.30314403 3.25 6.125 C2.63640625 5.61195313 2.0228125 5.09890625 1.390625 4.5703125 C0 3 0 3 0 0 Z " fill="#E1D3EC" transform="translate(534,452)"/>
<path d="M0 0 C0.66 0.33 1.32 0.66 2 1 C0.40629329 2.36646148 -1.20032982 3.71787166 -2.8125 5.0625 C-4.15248047 6.19365234 -4.15248047 6.19365234 -5.51953125 7.34765625 C-6.74736328 8.16556641 -6.74736328 8.16556641 -8 9 C-8.99 8.67 -9.98 8.34 -11 8 C-9.92130607 7.03644756 -8.83681257 6.07938583 -7.75 5.125 C-6.84507812 4.32449219 -6.84507812 4.32449219 -5.921875 3.5078125 C-3.99948454 1.99959559 -2.27452566 0.8928923 0 0 Z " fill="#DEC3EC" transform="translate(136,66)"/>
<path d="M0 0 C0.33 0.99 0.66 1.98 1 3 C0.01 4.485 0.01 4.485 -1 6 C-1.66 6 -2.32 6 -3 6 C-3 9.96 -3 13.92 -3 18 C-3.33 18 -3.66 18 -4 18 C-4.10864945 15.93867858 -4.18588321 13.87568679 -4.25 11.8125 C-4.29640625 10.66394531 -4.3428125 9.51539062 -4.390625 8.33203125 C-3.92924572 4.39646601 -2.70028512 2.82254213 0 0 Z " fill="#DFCFEF" transform="translate(112,89)"/>
<path d="M0 0 C0.66 0.66 1.32 1.32 2 2 C-0.96283313 4.38672669 -3.94270509 6.7353371 -7 9 C-7.66 8.67 -8.32 8.34 -9 8 C-6.03 5.36 -3.06 2.72 0 0 Z " fill="#D4C7DF" transform="translate(496,577)"/>
<path d="M0 0 C2.97526665 2.55022856 4.50122302 5.40293526 6 9 C5.67 9.99 5.34 10.98 5 12 C4.15556432 10.75747321 3.3248542 9.5056114 2.5 8.25 C1.80390625 7.20585937 1.80390625 7.20585937 1.09375 6.140625 C0 4 0 4 0 0 Z " fill="#CBB7DD" transform="translate(400,439)"/>
<path d="M0 0 C0.66 0.33 1.32 0.66 2 1 C-0.31 3.31 -2.62 5.62 -5 8 C-5.66 7.34 -6.32 6.68 -7 6 C-4.69 4.02 -2.38 2.04 0 0 Z " fill="#E1D5ED" transform="translate(554,529)"/>
<path d="M0 0 C0.99 0 1.98 0 3 0 C3.67154933 1.28913487 4.33708859 2.58140204 5 3.875 C5.37125 4.59429687 5.7425 5.31359375 6.125 6.0546875 C7 8 7 8 7 10 C6.34 10 5.68 10 5 10 C3.7109375 8.3203125 3.7109375 8.3203125 2.375 6.125 C1.92898437 5.40570313 1.48296875 4.68640625 1.0234375 3.9453125 C0 2 0 2 0 0 Z " fill="#C2ABD2" transform="translate(39,72)"/>
<path d="M0 0 C7.50769231 0.61538462 7.50769231 0.61538462 10 2.5625 C10.33 3.036875 10.66 3.51125 11 4 C6.94393835 3.53199289 3.53411321 3.12046792 0 1 C0 0.67 0 0.34 0 0 Z " fill="#CDB4E3" transform="translate(409,525)"/>
<path d="M0 0 C2.5 2.3125 2.5 2.3125 5 5 C5 5.99 5 6.98 5 8 C2.5 5.6875 2.5 5.6875 0 3 C0 2.01 0 1.02 0 0 Z " fill="#B3A3C2" transform="translate(368,25)"/>
<path d="M0 0 C3.00609963 1.00203321 4.06176821 1.60028446 6 4 C6 4.99 6 5.98 6 7 C3.00675737 5.9024777 2.15389099 5.32317108 0.75 2.375 C0.5025 1.59125 0.255 0.8075 0 0 Z " fill="#BD97DA" transform="translate(85,28)"/>
</svg>
